<?xml version="1.0" encoding="utf-8"?>
<!-- Generator: Adobe Illustrator 27.0.0, SVG Export Plug-In . SVG Version: 6.00 Build 0)  -->
<svg version="1.1" id="Layer_1" xmlns="http://www.w3.org/2000/svg" xmlns:xlink="http://www.w3.org/1999/xlink" x="0px" y="0px"
	 viewBox="0 0 100 100.8" style="enable-background:new 0 0 100 100.8;" xml:space="preserve">
<style type="text/css">
	.st0{stroke:#000000;stroke-width:2;stroke-miterlimit:10;}
</style>
<path class="st0" d="M43.3,35l-0.9-2.4c0.8-0.3,1.7-0.7,2.5-1.1c0.6-0.4,1.2-0.9,1.5-1.5c0.2-0.5,0.3-1,0.2-1.5
	c0-0.2-0.1-0.5-0.1-0.7l3.1-1.1l8.8,18.6L53.9,47L48,33.3L43.3,35z M63.7,24c2.2,1.5,4.1,3.4,5.4,5.7c1.9,2.9,2.8,5.5,2.9,7.6
	s-1.3,3.8-4,4.9c-2.3,1.1-5.1,0.9-7.2-0.6c-2.3-1.8-4.1-4.2-5.3-6.8c-1.4-3-2-5.3-1.8-7.1s1.5-3.1,3.9-3.9
	C59.5,22.8,61.8,23,63.7,24z M62.7,38c0.8,1,2.2,1.4,3.4,0.9c1.1-0.3,1.7-1.4,1.4-2.4c0-0.1,0-0.2-0.1-0.2c-0.5-1.8-1.3-3.5-2.3-5.1
	c-0.9-1.6-1.9-3-3.2-4.3c-0.8-0.8-2-1-3-0.6c-1,0.2-1.6,1.2-1.4,2.2c0.4,1.7,1,3.3,1.9,4.8C60.3,35,61.4,36.6,62.7,38L62.7,38z
	 M94.7,40l-6-10c-0.2-0.4-0.5-0.6-0.9-0.8l-52-22c-1-0.4-2.1,0-2.6,0.9l-27,52c-0.3,0.7-0.3,1.5,0.1,2.1l7,10
	c0.2,0.3,0.5,0.6,0.9,0.7l52,21c1,0.4,2.1,0,2.5-0.9l26-51C95.1,41.3,95.1,40.6,94.7,40z M39.9,47.1l-3.6-35.4l48.5,20.5L70.6,50.9
	L39.9,47.1z M10.3,60.8l24.2-46.6L38,47.6L19.8,64.8L10.3,60.8L10.3,60.8z M16.3,69.4L12.5,64l7,2.9l0,0l25.4,14L16.3,69.4z
	 M66.3,89l-0.2,0.5l-5.8-2.3L21.7,65.8L39.3,49l30.6,3.8L66.3,89z M68.8,84.1L72,52.4l14.2-18.7l4.5,7.4L68.8,84.1z"/>
</svg>
