<?xml version="1.0" encoding="utf-8"?>
<!-- Generator: Adobe Illustrator 27.0.0, SVG Export Plug-In . SVG Version: 6.00 Build 0)  -->
<svg version="1.1" id="Layer_1" xmlns="http://www.w3.org/2000/svg" xmlns:xlink="http://www.w3.org/1999/xlink" x="0px" y="0px"
	 viewBox="0 0 100 99.8" style="enable-background:new 0 0 100 99.8;" xml:space="preserve">
<style type="text/css">
	.st0{stroke:#000000;stroke-width:3;stroke-miterlimit:10;}
</style>
<path class="st0" d="M34.9,32.1l-2-2.2c0.9-0.6,1.7-1.2,2.5-1.9c0.6-0.5,1-1.2,1.2-2c0.1-0.5,0-1.1-0.3-1.5
	c-0.1-0.2-0.3-0.5-0.4-0.7L39,22l16.9,16.1l-4.2,3.1l-12-12.1L34.9,32.1z M55.2,32.4c-0.7-1.5-0.7-3.5-0.1-6
	c0.4-1.3,0.6-2.7,0.8-4.1c0-1-0.5-2-1.3-2.7c-0.7-0.5-1.5-0.9-2.3-1c-0.8-0.1-1.7,0.1-2.4,0.5c-1.1,0.6-1.5,1.4-1.1,2.2
	c0.4,0.8,0.9,1.5,1.6,2l-3.6,2.3c-1.1-1-1.9-2.2-2.4-3.5c-0.5-2,0.4-3.6,2.8-5c1.7-1.1,3.7-1.6,5.7-1.5c1.9,0.1,3.8,0.8,5.3,2
	c1.1,0.8,1.9,2,2.3,3.3c0.2,1.2,0.1,2.3-0.2,3.5l-0.4,1.8c-0.2,0.8-0.3,1.6-0.4,2.4c0,0.5,0,1,0.2,1.5l7.8-5.5l3.4,2.6l-12.6,9.2
	C56.8,35.4,55.9,34,55.2,32.4z M92.8,47.3l-8.6-21c-0.1-0.3-0.4-0.6-0.7-0.9L60.7,8.3c-0.4-0.3-1-0.4-1.5-0.3l-31.5,4.7
	c-0.5,0.1-0.9,0.3-1.2,0.6L17,23.9c-0.2,0.2-0.3,0.4-0.4,0.6L6.1,51.2c-0.2,0.4-0.2,0.9,0,1.4l3.3,10c0.1,0.3,0.2,0.5,0.4,0.7
	l21,23.9c0.1,0.2,0.3,0.3,0.5,0.4l7.2,4.3c0.3,0.2,0.6,0.3,1,0.3c0.1,0,0.2,0,0.4,0l25.8-4.8c0.2,0,0.4-0.1,0.6-0.2l16.2-8.6
	c0.5-0.2,0.8-0.6,1-1.1l9.5-28.6C93.1,48.3,93,47.8,92.8,47.3z M80,27.8L56.5,47L25.4,35.1l4.3-18.6L59,12L80,27.8z M20.2,26.3
	l6.9-7.5l-3.8,16.6L12.1,58l-2-6.1L20.2,26.3z M13.1,60.9L13,60.7L24.7,37l31,11.8l4.5,28.1l-26.5,7.4l-0.2-0.1L13.1,60.9z
	 M64.6,83.4L39.9,88l-3.7-2.2l25.5-7.1l14.6-1.4L64.6,83.4z M80,74.9l-17.7,1.8l-4.6-28.1l23.5-19.1l7.7,18.8L80,74.9z"/>
</svg>
