<?xml version="1.0" encoding="utf-8"?>
<!-- Generator: Adobe Illustrator 27.0.0, SVG Export Plug-In . SVG Version: 6.00 Build 0)  -->
<svg version="1.1" id="Layer_1" xmlns="http://www.w3.org/2000/svg" xmlns:xlink="http://www.w3.org/1999/xlink" x="0px" y="0px"
	 viewBox="0 0 100 98.5" style="enable-background:new 0 0 100 98.5;" xml:space="preserve">
<style type="text/css">
	.st0{stroke:#000000;stroke-width:2;stroke-miterlimit:10;}
</style>
<path class="st0" d="M91.9,61.4l-14-42c-0.2-0.6-0.7-1.1-1.3-1.3l-37-11c-0.7-0.2-1.5,0-2,0.5l-31,31c-0.5,0.5-0.7,1.3-0.5,2.1
	l15,44c0.2,0.7,0.9,1.3,1.6,1.4l36,5H59c0.5,0,0.9-0.2,1.3-0.5l31-27C91.9,63,92.2,62.1,91.9,61.4z M24.4,82l7.2-35l33.1,34L24.4,82
	z M77.3,31.7L32.3,43.6l7.1-31.8L77.3,31.7z M30.3,43.8l-19.1-4.2L36.9,14L30.3,43.8z M66.4,79.9L32.9,45.5l45.5-12.1l0.1,0.3
	l-12,46L66.4,79.9z M77,29.3l-30.5-16l28,8.3L77,29.3z M10.7,41.6l19.2,4.2l-6.7,32.5L10.7,41.6z M58.4,86.9l-22.9-3.2l27.2-0.6
	L58.4,86.9z M69.2,77.4l10.4-40.2l8,24.1L69.2,77.4z M41.6,34.8c0.2-1.2,0.7-2.2,1.5-3.1c0.6-0.6,1.1-1.3,1.5-2.1
	c0.3-0.5,0.3-1.2,0.1-1.7c-0.2-0.4-0.5-0.8-0.9-1c-0.4-0.2-0.9-0.3-1.4-0.2c-0.7,0.2-1.1,0.5-1.2,1.1c0,0.5,0.1,1,0.3,1.4L39,29.7
	c-0.3-0.8-0.4-1.6-0.3-2.4c0.2-1.2,1.1-2,2.7-2.4c1.1-0.3,2.3-0.2,3.4,0.3c1,0.4,1.8,1.2,2.2,2.2c0.4,0.7,0.4,1.5,0.2,2.3
	c-0.3,0.7-0.6,1.3-1.1,1.8l-0.7,0.9c-0.4,0.5-0.7,0.9-0.9,1.2c-0.1,0.2-0.2,0.5-0.2,0.8l5.4-1.4l0.9,2l-8.6,2.3
	C41.6,36.5,41.5,35.6,41.6,34.8z M55.7,22.9c1.2,1,2.1,2.3,2.8,3.7c0.8,1.3,1.2,2.8,1.2,4.3c-0.1,1.1-0.9,1.9-2.3,2.3
	c-1.3,0.4-2.8,0.2-3.8-0.7c-1.3-1.1-2.2-2.5-2.9-4c-0.7-1.3-1.1-2.8-1-4.2c0.2-1.1,1-1.7,2.4-2C53.3,21.9,54.6,22.1,55.7,22.9z
	 M54.6,30.7c0.4,0.6,1.1,0.8,1.8,0.7c0.6-0.1,0.9-0.6,0.8-1.2c0,0,0-0.1,0-0.1c-0.2-1-0.6-2-1.1-2.9c-0.4-1-1-1.9-1.7-2.7
	c-0.4-0.5-1.1-0.7-1.7-0.6c-0.5,0.1-0.9,0.6-0.9,1.1c0,0,0,0,0,0.1c0.2,1,0.5,2,1,2.9C53.4,28.9,54,29.9,54.6,30.7z"/>
</svg>
