<?xml version="1.0" encoding="utf-8"?>
<!-- Generator: Adobe Illustrator 27.0.0, SVG Export Plug-In . SVG Version: 6.00 Build 0)  -->
<svg version="1.1" id="Layer_1" xmlns="http://www.w3.org/2000/svg" xmlns:xlink="http://www.w3.org/1999/xlink" x="0px" y="0px"
	 viewBox="0 0 100 102.1" style="enable-background:new 0 0 100 102.1;" xml:space="preserve">
<style type="text/css">
	.st0{stroke:#000000;stroke-width:3;stroke-miterlimit:10;}
</style>
<path class="st0" d="M90.7,68.8L46.3,6.9c-0.6-0.9-1.9-1.1-2.8-0.5c-0.3,0.2-0.5,0.4-0.6,0.7L13.2,64.9c-0.3,0.7-0.3,1.5,0.2,2.1
	l19.2,26.2c0.4,0.5,1,0.8,1.6,0.8c0.3,0,0.5,0,0.7-0.1l54.9-22c1-0.4,1.5-1.6,1.1-2.6C90.8,69.1,90.8,69,90.7,68.8L90.7,68.8z
	 M17.3,65.6l25.3-49.1l-8.9,71.5L17.3,65.6z M35.5,89.3l9.6-77.1L86,69.1L35.5,89.3z M66.3,61.3l-2.5,0.8l2.2,6.4l-4.5,1.7l-2-6.6
	L50,66.8l-1.2-5.2L53,44.5l4.3-1l5,14.5l2.4-0.7L66.3,61.3z M58.2,59.2l-3.3-10.7L52.4,61L58.2,59.2z"/>
</svg>
