<?xml version="1.0" encoding="utf-8"?>
<!-- Generator: Adobe Illustrator 27.0.0, SVG Export Plug-In . SVG Version: 6.00 Build 0)  -->
<svg version="1.1" id="Layer_1" xmlns="http://www.w3.org/2000/svg" xmlns:xlink="http://www.w3.org/1999/xlink" x="0px" y="0px"
	 viewBox="0 0 100 98.2" style="enable-background:new 0 0 100 98.2;" xml:space="preserve">
<style type="text/css">
	.st0{stroke:#000000;stroke-width:3;stroke-miterlimit:10;}
</style>
<path class="st0" d="M46.4,35.7c-0.3-1.1-0.1-2.3,0.5-3.2c-1.3,0-2.6-0.2-3.8-0.8c-0.8-0.4-1.6-1-2.2-1.7c-1.2-1.1-1.7-2.8-1.5-4.4
	c0.3-1.6,1.4-3,3.5-4.2c1.8-1.1,4-1.6,6.1-1.3c1.9,0.2,3.6,1.1,4.9,2.5c0.6,0.6,1,1.4,1.4,2.2c0.3,1,0.2,2-0.2,2.9
	c1.4-0.1,2.9,0.2,4.2,0.7c1.3,0.5,2.4,1.3,3.4,2.4c1.4,1.3,2,3.2,1.8,5.1c-0.3,1.8-1.6,3.4-3.9,4.7c-3.9,2.5-9.1,1.9-12.2-1.5
	C47.3,38.1,46.7,36.9,46.4,35.7z M55,38c1,0.2,2,0,2.9-0.5c0.8-0.4,1.4-1.1,1.5-2c0-1-0.4-1.9-1.2-2.6c-0.7-0.8-1.7-1.4-2.8-1.7
	c-1-0.2-2,0-2.9,0.5c-0.8,0.4-1.4,1.1-1.5,2c0,1,0.4,1.9,1.2,2.6C53,37.2,53.9,37.8,55,38z M47.4,29.5c0.9,0.1,1.7,0,2.5-0.5
	c0.7-0.3,1.2-1,1.3-1.7c0-0.8-0.3-1.5-0.8-2c-0.6-0.7-1.4-1.1-2.3-1.3c-0.9-0.1-1.8,0-2.5,0.5c-0.7,0.3-1.2,1-1.3,1.7
	c0,0.8,0.3,1.6,0.9,2.1C45.8,28.9,46.5,29.3,47.4,29.5L47.4,29.5z M93,26.7c-0.2-0.5-0.7-0.8-1.2-1l-64.2-19c-1-0.3-2.2,0.3-2.5,1.3
	L6.1,70.2c-0.3,1,0.3,2.2,1.3,2.5l64.2,20.1c0.2,0.1,0.4,0.1,0.6,0.1c0.3,0,0.6-0.1,0.9-0.2c0.5-0.2,0.8-0.7,1-1.2l19-63.2
	C93.3,27.7,93.3,27.2,93,26.7z M87.6,28.7L37.8,58.2l-9.2-47.1L87.6,28.7z M27.3,14.8l8.7,44.3l-25.2,9.6L27.3,14.8z M12.6,70.2
	l24.3-9.2l29.3,26L12.6,70.2z M70.9,88.4L38.8,59.9l49.5-29.3L70.9,88.4z"/>
</svg>
