<?xml version="1.0" encoding="utf-8"?>
<!-- Generator: Adobe Illustrator 27.0.0, SVG Export Plug-In . SVG Version: 6.00 Build 0)  -->
<svg version="1.1" id="Layer_1" xmlns="http://www.w3.org/2000/svg" xmlns:xlink="http://www.w3.org/1999/xlink" x="0px" y="0px"
	 viewBox="0 0 64 61.6" style="enable-background:new 0 0 64 61.6;" xml:space="preserve">
<path d="M36.7,44.6c-3.3,2.6-6.8,2.6-10.1,0c-0.7-0.5-1.5-0.8-2.3-0.8C22.2,44,6.2,45.3,4.5,45.5c21.8,15.3,33,15.4,54.9,0
	C57.7,45.4,41,44,38.9,43.8C38.1,43.8,37.3,44.1,36.7,44.6z"/>
<path d="M5.5,43.4l4.1-0.3l14.6-1.2c2.7-0.2,5.1,3,7.4,2.8c2.8,0,4.5-3,7.4-2.8s16.9,1.4,19.5,1.6c-7.8-4.5-16-15.9-25.3-9.4
	c-0.7,0.5-1.7,0.5-2.4,0C21.5,27.5,13.3,38.9,5.5,43.4z"/>
<path d="M20,26.4l4.3,0.6c0.6,0.1,1.1-0.3,1.1-0.9c0-0.1,0-0.2,0-0.3l-0.6-4.3c2.1-4.2,1.3-9.4-2-12.8C12.1-1-2.6,13.7,7.3,24.4
	C10.6,27.8,15.8,28.6,20,26.4z M10.9,14.2c0-1.9,1.6-3.5,3.5-3.5h1.2c1.9,0,3.5,1.6,3.5,3.5v7.5c0,0.6-0.5,1-1,1s-1-0.4-1-1v-4h-4.2
	v4c0,0.6-0.5,1-1,1s-1-0.4-1-1L10.9,14.2z"/>
<path d="M17.2,14.2c0-0.8-0.7-1.5-1.5-1.5l0,0h-1.2c-0.8,0-1.5,0.7-1.5,1.5l0,0v1.5h4.2V14.2z"/>
<path d="M38.6,25.9c-0.1,0.5,0.3,1.1,0.9,1.1c0.1,0,0.2,0,0.3,0l4.3-0.6c11,5.6,21.5-8.8,12.8-17.6c-9-8.7-23,1.6-17.6,12.8
	L38.6,25.9z M54,15.2c0.8,0,1.5,0.7,1.5,1.5c0,0.8-0.7,1.5-1.5,1.5s-1.5-0.7-1.5-1.5C52.5,15.8,53.2,15.2,54,15.2z M49,15.2
	c0.8,0,1.5,0.7,1.5,1.5c0,0.8-0.7,1.5-1.5,1.5s-1.5-0.7-1.5-1.5C47.5,15.8,48.2,15.2,49,15.2z M44,15.2c0.8,0,1.5,0.7,1.5,1.5
	c0,0.8-0.7,1.5-1.5,1.5s-1.5-0.7-1.5-1.5C42.5,15.8,43.2,15.2,44,15.2z"/>
</svg>
