<?xml version="1.0" encoding="utf-8"?>
<!-- Generator: Adobe Illustrator 27.0.0, SVG Export Plug-In . SVG Version: 6.00 Build 0)  -->
<svg version="1.1" id="Layer_1" xmlns="http://www.w3.org/2000/svg" xmlns:xlink="http://www.w3.org/1999/xlink" x="0px" y="0px"
	 viewBox="0 0 98 122.5" style="enable-background:new 0 0 98 122.5;" xml:space="preserve">
<g>
	<path d="M85.4,101.8H78H20h-7.4c-2,0-3.6,1.7-3.6,3.9s1.6,3.9,3.6,3.9h72.8c2,0,3.6-1.7,3.6-3.9S87.5,101.8,85.4,101.8z"/>
	<path d="M12.6,11.9H20h58h7.4c2,0,3.6-1.7,3.6-3.9S87.4,4,85.4,4H12.6C10.6,4,9,5.8,9,7.9S10.5,11.9,12.6,11.9z"/>
	<path d="M78,79.2c0-1.2-0.5-2.4-1.3-3.2L53.6,56.2l23.1-19.7c0.8-0.8,1.3-1.9,1.3-3.2V19.7H20v13.5c0,1.2,0.5,2.4,1.3,3.2l23,19.7
		l-23,19.7c-0.8,0.8-1.3,1.9-1.3,3.2v14.8h58V79.2z"/>
</g>
</svg>
