<?xml version="1.0" encoding="utf-8"?>
<!-- Generator: Adobe Illustrator 27.0.0, SVG Export Plug-In . SVG Version: 6.00 Build 0)  -->
<svg version="1.1" id="Layer_1" xmlns="http://www.w3.org/2000/svg" xmlns:xlink="http://www.w3.org/1999/xlink" x="0px" y="0px"
	 viewBox="0 0 64 80" style="enable-background:new 0 0 64 80;" xml:space="preserve">
<g>
	<g>
		<path d="M54.1,54.1c-0.7-1-1.3-2-1.5-3c-0.5-1.8-0.9-3.9-1.3-6c-1.5-7.4-3.1-15.6-7.8-19.3c0.2-0.4,0.3-0.7,0.3-1.1v-3.2
			c0-0.2,0-0.4-0.1-0.5c-0.2-1.4-1.1-2.2-1.9-2.7l4-4.8c0.3-0.4,0.4-0.8,0.2-1.3c-0.5-1.5-2.3-4.2-5.8-3.9c-1,0.1-1.6-0.3-2.5-1
			c-1.1-0.8-2.6-1.9-5.2-1.8h-0.6c-2.7-0.1-4.1,1-5.2,1.8c-0.9,0.7-1.5,1.1-2.5,1c-3.5-0.3-5.4,2.4-5.8,3.9
			c-0.1,0.4-0.1,0.9,0.2,1.3l3.8,4.6c-1.2,0.6-2.2,1.6-2.3,3.1c0,0.1,0,0.2,0,0.3c0,0,0,0,0,0v3.2c0,0.4,0.1,0.8,0.3,1.1
			c-4.7,3.7-6.4,12-7.8,19.3c-0.4,2.2-0.8,4.2-1.3,6c-0.2,1-0.9,1.9-1.5,3c-1,1.6-2.1,3.3-2.1,5.6c0.1,2.4,0.9,4.4,2.5,5.7
			c1.5,1.2,3.4,1.4,5.1,1.6c1.2,0.1,2.3,0.2,3.1,0.7C23,70,27.5,71.2,32,71.2s9-1.2,13.4-3.6c0.8-0.4,1.9-0.6,3.1-0.7
			c1.7-0.2,3.6-0.4,5.1-1.6c1.6-1.3,2.4-3.3,2.5-5.7C56.2,57.4,55.1,55.6,54.1,54.1z M21.4,12.3c0.4-0.7,1.2-1.6,2.7-1.4
			c2.1,0.2,3.3-0.8,4.4-1.5c1-0.7,1.8-1.3,3.6-1.3c0.2,0,0.2,0,0.6,0c1.7-0.1,2.5,0.5,3.5,1.3c1,0.7,2.3,1.7,4.4,1.5
			c1.5-0.1,2.3,0.8,2.7,1.4l-5.1,6.2c-1.8,0.5-3.6,0.7-5.4,0.7c-0.1,0-0.5,0-0.6,0c0,0,0,0,0,0c-1.8,0-3.7-0.2-5.4-0.7L21.4,12.3z
			 M22.8,27.5c3,1.6,6,2.4,9.1,2.4c3.1,0,6.2-0.8,9.4-2.4c3.2,2,4.9,6.9,6.2,12.2h-7.5l-4.8-4.8c-1.6-1.6-4.5-1.6-6.1,0l-4.8,4.8
			h-7.5C17.9,34.4,19.6,29.5,22.8,27.5z M39.6,43.9c0,0.4-0.2,0.8-0.5,1.1L33.1,51c-0.6,0.6-1.7,0.6-2.3,0L24.9,45
			c-0.3-0.3-0.5-0.7-0.5-1.1s0.2-0.8,0.5-1.1l5.9-5.9c0.3-0.3,0.7-0.5,1.1-0.5c0.4,0,0.8,0.2,1.1,0.5l5.9,5.9
			C39.4,43,39.6,43.5,39.6,43.9z M51.9,63.2c-0.9,0.7-2.2,0.8-3.7,1c-1.4,0.1-2.9,0.3-4.2,1c-7.9,4.4-16.2,4.4-24.1,0
			c-1.3-0.7-2.8-0.9-4.2-1c-1.4-0.1-2.8-0.3-3.6-1c-1-0.8-1.5-2-1.5-3.7c0-1.4,0.8-2.6,1.6-4c0.7-1.2,1.5-2.4,1.9-3.8
			c0.3-1.1,0.5-2.2,0.8-3.4h9.6l4.5,4.5c0.8,0.8,1.9,1.3,3.1,1.3s2.2-0.4,3.1-1.3l4.5-4.5v2.9c-1.1,1.7-4.4,7.2-2.7,10.4
			c0.5,1,1.6,2.1,4,2.3H41c2.5-0.1,3.6-1.3,4-2.3c1.6-3.3-1.6-8.7-2.7-10.4v-3h6.9c0.2,1.2,0.5,2.3,0.8,3.4c0.4,1.4,1.1,2.6,1.9,3.8
			c0.9,1.3,1.7,2.6,1.6,4C53.4,61.2,52.9,62.4,51.9,63.2z"/>
		<path d="M37.4,43.9c0,0.4-0.1,0.7-0.4,1l-4,4c-0.3,0.3-0.6,0.4-1,0.4c-0.3,0-0.7-0.1-1-0.4l-4-4c-0.5-0.5-0.5-1.4,0-1.9l4-4
			c0.5-0.5,1.4-0.5,1.9,0l4,4C37.2,43.2,37.4,43.5,37.4,43.9z"/>
	</g>
</g>
</svg>
