<?xml version="1.0" encoding="utf-8"?>
<!-- Generator: Adobe Illustrator 27.0.0, SVG Export Plug-In . SVG Version: 6.00 Build 0)  -->
<svg version="1.1" id="Layer_1" xmlns="http://www.w3.org/2000/svg" xmlns:xlink="http://www.w3.org/1999/xlink" x="0px" y="0px"
	 viewBox="0 0 64 80" style="enable-background:new 0 0 64 80;" xml:space="preserve">
<g>
	<path d="M51.3,71.9c0.8,0,1.4-0.5,1.4-1.4V12.4c0-4.5-3.7-8.1-8.1-8.1H31c-0.1,0-0.4,0-0.5,0.1c-0.1,0.1-0.3,0.1-0.4,0.3L20.8,14
		l0,0c-0.7,0.7-1.1,1.6-1.1,2.6c0,0.9,0.4,1.9,1.1,2.6l0,0c1.4,1.4,3.1,2,4.7,2c1.8,0,3.5-0.7,4.7-2l3.2-3.2
		c0.5-0.5,1.2-0.8,1.9-0.8h1.1l0,0c1.1,0,2.2,0.4,2.8,1.2c0.8,0.8,1.2,1.8,1.2,2.8v4.1H27c-0.4,0-0.7,0.1-0.9,0.4l-4.2,4.2
		c-0.8,0.8-1.4,1.9-1.5,3c-1.5-1.4-3.4-2.2-5.5-2.2h-1.4c-2.3,0-4.1,1.8-4.1,4.1v19.1c0,0.1,0,0.4,0.1,0.5c0,0.1,0.1,0.1,0.1,0.3
		c0,0,0,0.1,0.1,0.1l18.8,18.8c0.3,0.3,0.7,0.4,0.9,0.4s0.7-0.1,0.9-0.4c0.5-0.5,0.5-1.4,0-1.9L12.1,51.2V40.1h4.1
		c0.4,0,0.7-0.3,0.7-0.7v-2.7c0-1.9-1.5-3.4-3.4-3.4h-1.4v-0.7c0-0.8,0.5-1.4,1.4-1.4h1.4c3,0,5.4,2.4,5.4,5.4v8.7
		c0,1.8,0.7,3.5,2,4.7c2.6,2.6,6.9,2.6,9.6,0l8.7-8.5c1.2-1.2,2.2-2.8,2.6-4.5V37c0.1-0.7,0.3-1.4,0.3-2V19.1c0-1.8-0.7-3.5-2-4.7
		c-1.4-1.4-3.1-2-4.9-2l0,0h-1.1c-1.5,0-2.8,0.5-3.8,1.6l0,0l0,0l-3.2,3.2c-0.9,0.9-2.4,1.4-3.7,1.1l2.2-2.2
		c1.2-1.2,1.4-3.2,0.1-4.6L31.6,7h13c3,0,5.4,2.4,5.4,5.4v58.1C50,71.3,50.5,71.9,51.3,71.9z M13.5,34.7c1.1,0,2,0.9,2,2v2h-3.4
		v-4.1H13.5z M22.9,31.6c0-0.7,0.3-1.4,0.8-1.9l3.8-3.8h13v7.6L40,32.9c-0.9-0.9-2.4-1.6-3.8-1.6h-7.8c-0.8,0-1.4,0.5-1.4,1.4v4.1
		c0,1.5-1.2,2.7-2.7,2.7h-1.4V31.6z M29.8,48.2c-1.6,1.6-4.2,1.6-5.8,0c-0.8-0.8-1.2-1.8-1.2-2.8v-3.2h1.4c3,0,5.4-2.4,5.4-5.4V34
		H36c0.7,0,1.4,0.3,1.9,0.8l2.2,2.2c-0.3,1.1-0.8,2-1.6,2.7L29.8,48.2z M22.6,17.1L22.6,17.1c-0.1-0.1-0.3-0.4-0.3-0.7
		c0-0.3,0.1-0.4,0.3-0.7l0,0l3.4-3.4c0.7,0.8,0.5,1.9-0.1,2.7l-2.6,2.6C23.2,17.5,22.9,17.4,22.6,17.1z"/>
</g>
</svg>
