<?xml version="1.0" encoding="utf-8"?>
<!-- Generator: Adobe Illustrator 27.0.0, SVG Export Plug-In . SVG Version: 6.00 Build 0)  -->
<svg version="1.1" id="Layer_2_00000031175461049604605230000011247526783942600880_"
	 xmlns="http://www.w3.org/2000/svg" xmlns:xlink="http://www.w3.org/1999/xlink" x="0px" y="0px" viewBox="0 0 84.1 47.9"
	 style="enable-background:new 0 0 84.1 47.9;" xml:space="preserve">
<g id="Layer_2_00000121268001051778168080000014111394569850660488_">
	<g>
		<path d="M56.8,25.2c-0.5-0.6-1.1-0.7-1.7-0.7c-0.6,0-1.2,0.4-1.7,0.7c-0.9,1-0.9,2.7,0,3.6l3.2,3.5H27.3l3.2-3.5
			c0.9-1,0.9-2.7,0-3.6c-0.9-1-2.4-1-3.3,0l-7.2,8c-0.9,1-0.9,2.7,0,3.6l7.2,8c0.5,0.6,1.1,0.7,1.7,0.7s1.2-0.4,1.7-0.7
			c0.9-1,0.9-2.7,0-3.6l-3.2-3.5h29.2l-3.2,3.5c-0.9,1-0.9,2.7,0,3.6s2.4,1,3.3,0l7.2-8c0.9-1,0.9-2.7,0-3.6L56.8,25.2z"/>
		<path d="M14.4,24.7h-2.7c-0.6,0-1,0.5-1,1.1v18.3c0,0.6,0.4,1.1,1,1.1h2.7c0.6,0,1-0.5,1-1.1V25.7C15.4,25.2,14.9,24.7,14.4,24.7z
			"/>
		<path d="M72.3,24.7h-2.8c-0.6,0-1,0.5-1,1.1v18.3c0,0.6,0.4,1.1,1,1.1h2.7c0.6,0,1-0.5,1-1.1V25.7C73.3,25.2,72.8,24.7,72.3,24.7z
			"/>
		<path d="M80.7,6H3.3c-0.6,0-1,0.5-1,1.1v3c0,0.6,0.4,1.1,1,1.1h7.4v6.2c0,0.6,0.4,1.1,1,1.1h2.8c0.6,0,1-0.5,1-1.1v-6.3h6.9v6.3
			c0,0.6,0.4,1.1,1,1.1h2.7c0.6,0,1-0.5,1-1.1v-6.3H34v6.3c0,0.6,0.4,1.1,1,1.1h2.5c0.6,0,1-0.5,1-1.1v-6.3h6.9v6.3
			c0,0.6,0.4,1.1,1,1.1h2.7c0.6,0,1-0.5,1-1.1v-6.3h7v6.3c0,0.6,0.4,1.1,1,1.1h2.7c0.6,0,1-0.5,1-1.1v-6.3h6.7v6.3
			c0,0.6,0.4,1.1,1,1.1h2.7c0.6,0,1-0.5,1-1.1v-6.3h7.4c0.6,0,1-0.5,1-1.1V7C81.7,6.5,81.2,6,80.7,6z"/>
	</g>
</g>
</svg>
