<?xml version="1.0" standalone="no"?>
<!DOCTYPE svg PUBLIC "-//W3C//DTD SVG 20010904//EN"
 "http://www.w3.org/TR/2001/REC-SVG-20010904/DTD/svg10.dtd">
<svg version="1.0" xmlns="http://www.w3.org/2000/svg"
 width="504.000000pt" height="832.000000pt" viewBox="0 0 504.000000 832.000000"
 preserveAspectRatio="xMidYMid meet">

<g transform="translate(0.000000,832.000000) scale(0.100000,-0.100000)"
fill="#000000" stroke="none">
<path d="M2980 8308 c-3 -3 -48 -8 -100 -12 -111 -7 -266 -28 -365 -50 -80
-17 -225 -60 -252 -74 -22 -11 -141 -53 -167 -58 -10 -2 -23 -7 -30 -12 -6 -5
-50 -30 -98 -55 -49 -25 -101 -55 -117 -66 -16 -12 -32 -21 -36 -21 -4 0 -51
-30 -104 -67 -294 -205 -545 -478 -718 -783 -78 -138 -182 -412 -208 -550 -35
-182 -46 -514 -24 -677 12 -94 80 -337 116 -413 56 -123 118 -238 153 -285 20
-27 49 -68 65 -89 47 -64 152 -172 251 -257 51 -43 95 -79 98 -79 4 0 29 -17
56 -37 73 -57 162 -112 285 -178 128 -69 223 -126 244 -149 31 -33 40 -82 41
-213 0 -102 -2 -113 -18 -113 -18 0 -82 -58 -82 -75 0 -5 -19 -29 -42 -53
l-43 -43 2 -792 c1 -436 4 -846 6 -912 3 -66 8 -228 12 -359 l8 -239 -29 7
c-56 14 -135 58 -192 107 -31 27 -60 49 -64 49 -4 0 -17 18 -28 39 -14 29 -17
42 -8 47 7 5 2 15 -17 30 -21 17 -26 26 -19 36 14 18 34 89 34 120 0 14 -14
56 -31 94 -29 64 -37 108 -39 216 0 22 -7 31 -35 42 -21 9 -35 22 -35 32 0 10
30 47 68 83 37 36 79 89 94 117 39 72 61 167 53 222 l-7 45 -65 -6 c-35 -4
-79 -13 -95 -22 -74 -36 -77 -5 -7 78 27 33 58 76 68 96 44 88 51 212 17 280
-24 45 -79 66 -131 51 -22 -7 -50 -21 -64 -31 -35 -28 -68 -24 -86 10 -13 26
-13 36 4 103 62 245 11 526 -106 582 -68 32 -94 20 -145 -67 -45 -78 -78 -62
-135 61 -18 41 -47 94 -63 118 -17 24 -43 72 -59 106 -15 35 -49 86 -75 115
-55 61 -162 121 -192 108 -11 -5 -32 -9 -47 -10 -92 -8 -180 -219 -227 -545
-8 -56 -5 -193 5 -241 9 -41 -14 -56 -87 -58 -35 -1 -71 -4 -81 -7 -22 -7 -53
-75 -62 -137 -21 -138 81 -351 217 -454 29 -22 66 -53 82 -67 15 -15 45 -38
65 -50 50 -33 97 -84 85 -95 -5 -4 -30 -16 -56 -26 -77 -28 -128 -100 -128
-180 0 -91 145 -205 260 -205 21 0 54 -7 75 -16 23 -9 67 -15 116 -15 58 0 92
-5 127 -20 42 -19 45 -22 28 -33 -56 -34 -68 -49 -61 -75 10 -40 48 -84 91
-106 22 -11 50 -29 64 -41 35 -29 199 -144 206 -144 3 0 44 -19 92 -42 67 -32
98 -42 135 -41 47 1 49 0 136 -86 49 -48 108 -103 132 -122 23 -18 64 -55 89
-80 26 -26 65 -56 87 -67 l40 -21 -2 -243 c-2 -257 -5 -278 -52 -345 -13 -17
-23 -36 -23 -41 0 -6 -9 -13 -19 -17 -36 -11 -91 -82 -91 -118 0 -18 -5 -38
-11 -44 -8 -8 -14 -73 -17 -180 l-4 -168 66 -58 c36 -32 86 -67 110 -78 49
-21 116 -85 116 -110 0 -8 13 -27 28 -42 25 -24 35 -27 104 -27 42 0 80 5 83
10 3 6 48 10 98 10 139 1 205 41 257 157 48 108 66 346 31 418 -13 27 -20 68
-23 130 l-4 90 128 128 c70 71 131 126 137 123 5 -4 12 3 16 14 3 11 12 26 19
33 7 6 19 24 27 38 8 14 24 41 37 61 l23 36 29 -29 c22 -23 35 -28 57 -24 59
10 221 92 317 160 54 39 122 85 152 103 58 35 108 99 102 129 -2 10 -18 27
-35 38 -18 11 -32 25 -33 32 0 19 90 42 166 42 38 0 83 5 100 12 16 7 56 15
90 19 66 8 134 37 188 82 62 51 80 113 53 188 -22 64 -43 85 -111 114 -36 16
-66 31 -66 35 0 10 59 64 100 91 19 13 40 28 45 34 6 6 44 39 86 73 86 70 115
105 164 198 67 125 80 252 36 349 -24 51 -33 55 -119 57 -73 2 -96 17 -88 58
18 86 15 213 -9 336 -57 296 -123 439 -208 449 -12 1 -34 6 -48 10 -38 11
-137 -43 -194 -106 -24 -27 -58 -79 -76 -116 -17 -36 -43 -84 -59 -107 -15
-22 -35 -58 -45 -80 -9 -22 -23 -53 -31 -70 -19 -45 -53 -77 -77 -73 -13 2
-32 23 -52 56 -17 29 -38 57 -46 63 -37 23 -112 -4 -146 -54 -26 -39 -69 -173
-78 -242 -8 -62 10 -238 31 -310 14 -49 14 -57 -1 -84 -18 -36 -38 -39 -82
-12 -17 11 -49 25 -70 31 -49 15 -106 -7 -127 -48 -35 -68 -28 -199 15 -283
10 -20 41 -63 68 -96 46 -55 64 -94 44 -93 -5 1 -33 9 -63 20 -30 11 -76 19
-102 20 l-47 0 -6 -44 c-8 -53 15 -149 53 -220 15 -27 60 -83 100 -123 42 -42
70 -77 66 -84 -3 -6 -22 -17 -40 -25 -27 -11 -34 -20 -34 -42 -2 -117 -10
-162 -40 -223 -32 -63 -32 -64 -20 -132 10 -56 10 -71 0 -77 -7 -4 -25 -31
-39 -58 -14 -28 -43 -73 -64 -100 -49 -66 -174 -169 -188 -155 -9 9 -16 256
-23 873 -2 129 -7 243 -11 254 -4 10 -5 188 0 395 12 591 13 952 3 1008 -6 33
-5 88 2 150 21 189 24 291 10 336 -14 44 -84 127 -108 127 -14 0 -12 58 8 235
24 211 34 396 22 416 -7 10 -12 25 -12 32 0 7 -11 24 -24 36 -22 21 -32 22
-129 20 l-104 -3 -59 50 c-32 28 -120 97 -194 153 -192 146 -277 226 -358 338
-156 218 -243 434 -273 674 -24 197 35 477 153 719 139 289 369 550 617 705 9
6 27 17 41 26 14 9 54 32 90 51 36 19 74 39 85 46 116 66 570 198 745 217 30
4 89 10 130 15 41 5 169 12 283 16 160 6 210 10 214 21 4 10 36 13 137 13 138
0 268 -20 388 -61 31 -10 70 -19 85 -20 15 0 66 -9 113 -20 47 -11 130 -29
185 -40 110 -23 223 -50 330 -81 39 -11 85 -18 103 -16 l32 3 -107 108 c-116
117 -219 193 -306 225 -29 11 -97 46 -150 76 -53 31 -99 56 -101 56 -2 0 -30
12 -62 27 -68 31 -103 42 -274 82 -121 29 -169 38 -330 60 -185 26 -715 54
-730 39z m-5 -7018 c-3 -5 -13 -10 -21 -10 -8 0 -12 5 -9 10 3 6 13 10 21 10
8 0 12 -4 9 -10z"/>
</g>
</svg>
