<?xml version="1.0" encoding="UTF-8"?>
<svg version="1.1" xmlns="http://www.w3.org/2000/svg" width="600" height="910">
<path d="M0 0 C0.99 0 1.98 0 3 0 C3.28891996 5.33426169 3.57356822 10.66872919 3.85449219 16.00341797 C3.95036241 17.81304877 4.04734046 19.62262127 4.14550781 21.43212891 C4.46267964 27.28686194 4.74859017 33.14207701 5 39 C5.050354 40.09030518 5.10070801 41.18061035 5.15258789 42.30395508 C5.37792892 51.38904599 3.95087634 60.25654223 2.4375 69.1875 C2.29394073 70.04417267 2.15038147 70.90084534 2.00247192 71.78347778 C-1.2101706 90.40265467 -7.39123179 107.60057792 -14.30430603 125.1229248 C-21.12603311 141.50871582 -21.12603311 141.50871582 -24.375 158.8125 C-24.43896973 159.64104492 -24.50293945 160.46958984 -24.56884766 161.32324219 C-24.74799794 163.88156618 -24.88137584 166.43821246 -25 169 C-25.04382813 169.80808105 -25.08765625 170.61616211 -25.1328125 171.44873047 C-25.60142752 181.13539354 -24.98881927 190.39313235 -23.32421875 199.9453125 C-23.14842789 200.9744577 -22.97263702 202.00360291 -22.79151917 203.06393433 C-20.82966805 214.32533739 -18.53783922 225.51707026 -16.16333008 236.69775391 C-15.42516969 240.18322164 -14.70161237 243.67153587 -13.97851562 247.16015625 C-13.50607811 249.4012252 -13.03280327 251.64211784 -12.55859375 253.8828125 C-12.34601425 254.913992 -12.13343475 255.94517151 -11.91441345 257.00759888 C-10.50344729 263.56987637 -8.84398263 269.25859596 -4.28515625 274.375 C-3.77009521 274.96031494 -3.25503418 275.54562988 -2.72436523 276.14868164 C-2.17594971 276.7596167 -1.62753418 277.37055176 -1.0625 278 C0.11239849 279.3316614 1.28686817 280.66370125 2.4609375 281.99609375 C3.05358398 282.66495605 3.64623047 283.33381836 4.25683594 284.02294922 C6.89003584 287.00945522 9.4776739 290.03413148 12.0625 293.0625 C15.1538399 296.68300213 18.25302505 300.29544334 21.3828125 303.8828125 C21.93573975 304.51952881 22.48866699 305.15624512 23.05834961 305.81225586 C24.12062446 307.03499423 25.18638545 308.25471528 26.25610352 309.47094727 C28.42375067 311.9730377 29.94189845 313.82569536 31 317 C31.64066406 317.12117188 32.28132812 317.24234375 32.94140625 317.3671875 C33.80636719 317.53476562 34.67132813 317.70234375 35.5625 317.875 C36.40941406 318.03742188 37.25632813 318.19984375 38.12890625 318.3671875 C41 319 41 319 44.0625 320.0625 C49.39339849 321.62052764 54.93727604 321.20986992 60.4375 321.125 C62.1071582 321.11146484 62.1071582 321.11146484 63.81054688 321.09765625 C66.54059023 321.0742224 69.2701801 321.041414 72 321 C72.2889917 320.39389893 72.5779834 319.78779785 72.87573242 319.16333008 C74.34944879 316.32758615 76.22866727 314.10754776 78.3125 311.6875 C79.07175781 310.78386719 79.83101562 309.88023437 80.61328125 308.94921875 C83 307 83 307 85.48046875 306.9375 C88.60948336 308.25702244 90.54548183 309.96920218 93 312.3125 C96.23294239 315.36864085 99.49136117 318.26200863 103 321 C103.96094092 319.64768248 104.91847491 318.29294454 105.875 316.9375 C106.52339844 316.02097656 107.17179688 315.10445313 107.83984375 314.16015625 C109.33232343 311.97676374 110.75044049 309.80964902 112.12890625 307.55859375 C117.79190005 298.44339187 124.41489698 291.15732402 132.16796875 283.75390625 C135.40075353 280.65423136 138.33120894 277.37986712 141.24731445 273.98413086 C144.17684856 270.66774645 147.34184588 267.59667366 150.5 264.5 C154.97769269 260.07040753 159.39235504 255.65969762 163.40576172 250.79663086 C165 249 165 249 166.56494141 247.67407227 C172.60010267 242.51589814 175.36693276 235.67404183 178.45458984 228.55688477 C179.37771377 226.43125114 180.32531318 224.31790073 181.27734375 222.20507812 C181.88166266 220.84439498 182.48457711 219.48308701 183.0859375 218.12109375 C183.36504974 217.49593369 183.64416199 216.87077362 183.93173218 216.22666931 C185.53849709 212.49950359 186.49909827 209.02606501 187 205 C188.65 204.67 190.3 204.34 192 204 C192.21011719 205.19109375 192.42023438 206.3821875 192.63671875 207.609375 C194.17586603 214.47448177 196.97514606 220.83651056 199.8125 227.25 C200.09667786 227.89585052 200.38085571 228.54170105 200.67364502 229.2071228 C205.45240661 239.92261383 210.94292916 247.52294014 220 255 C221.15978363 256.26052755 222.29017604 257.54941154 223.375 258.875 C227.46195724 263.70130628 232.03232129 268.05615784 236.52197266 272.50244141 C240.28225126 276.240265 243.88963588 280.02134044 247.2890625 284.09375 C249.0503535 286.11535397 249.0503535 286.11535397 251.3984375 288.21875 C259.88507453 296.09746175 265.70108593 305.18874123 271.75415039 314.99804688 C272.80431995 316.68556214 273.89747648 318.34621472 275 320 C278.36638887 318.54974765 280.48039225 316.70513547 283 314.0625 C288.24689031 308.57990954 288.24689031 308.57990954 291 307 C294.70809356 306.95806679 295.91569801 307.92332827 298.67578125 310.43359375 C299.54589844 311.42488281 300.41601562 312.41617187 301.3125 313.4375 C301.76689453 313.94087891 302.22128906 314.44425781 302.68945312 314.96289062 C306 318.71152491 306 318.71152491 306 321 C324.02344877 321.70151579 324.02344877 321.70151579 341.48828125 317.875 C344 317 344 317 347 317 C347.24621094 316.43410156 347.49242187 315.86820312 347.74609375 315.28515625 C349.21536224 312.60751742 350.97752435 310.66956388 353.0625 308.4375 C356.33018473 304.87703072 359.46479193 301.2606708 362.5 297.5 C365.4081338 293.9052235 368.38541332 290.41739372 371.5 287 C374.69921779 283.47524776 377.8235687 279.90381742 380.875 276.25 C381.59429687 275.38890625 382.31359375 274.5278125 383.0546875 273.640625 C387.8481902 267.13378198 389.21379732 260.39337 390.8125 252.61328125 C391.06749268 251.40165817 391.32248535 250.1900351 391.58520508 248.94169617 C392.26092082 245.71985633 392.92891449 242.4965341 393.59387207 239.27246094 C394.25966189 236.0593797 394.93970871 232.84930543 395.6171875 229.63867188 C397.87315409 218.8759678 400.10130351 208.11155335 401.85546875 197.25390625 C401.97297485 196.53890457 402.09048096 195.82390289 402.21154785 195.0872345 C403.48695973 186.7402215 403.38324995 178.41316949 403 170 C402.9680957 169.15679199 402.93619141 168.31358398 402.90332031 167.44482422 C402.22624449 152.00807425 398.14528628 139.30013439 392.41601562 125.06005859 C385.0664279 106.74205526 378.91725482 88.89063344 375.625 69.375 C375.41012939 68.1150824 375.41012939 68.1150824 375.19091797 66.82971191 C373.63635311 57.50369932 372.55529482 48.47348296 373 39 C373.03087708 38.28293884 373.06175415 37.56587769 373.09356689 36.8270874 C373.35505379 30.79910205 373.67315287 24.7747359 374 18.75 C374.09664225 16.92579649 374.19299859 15.10157781 374.2890625 13.27734375 C374.52274825 8.85138083 374.76029373 4.42564076 375 0 C375.99 0 376.98 0 378 0 C378.06243896 0.95326172 378.12487793 1.90652344 378.18920898 2.88867188 C379.9150971 26.89006043 385.2867349 45.34101687 398.01708984 65.79223633 C399.79973656 68.67603284 401.46549962 71.60149843 403.12890625 74.5546875 C405.69242579 78.81441629 408.47136028 81.58015745 412.5 84.4375 C413.10239502 84.89809814 413.70479004 85.35869629 414.32543945 85.83325195 C417.34887852 88.13486309 420.41475066 90.283254 423.63671875 92.296875 C434.88870636 99.6637714 438.86707034 109.80734027 443.76708984 122.00878906 C444.91743784 124.79969275 446.15367615 127.51999679 447.45703125 130.2421875 C447.83553223 131.04068115 448.2140332 131.8391748 448.60400391 132.66186523 C449.29897349 134.12148927 450.00235809 135.57715357 450.71630859 137.02758789 C455.18256942 146.73133919 452.31125256 156.60789973 450.22206116 166.59674263 C449.70973967 169.04699955 449.20847567 171.49930127 448.70983887 173.95237732 C447.64965993 179.15777957 446.57554395 184.36025427 445.5 189.5625 C444.25283671 195.59929957 443.01152934 201.637212 441.7827301 207.67777824 C441.29062392 210.08308851 440.789065 212.48629621 440.2869873 214.88954163 C439.98319518 216.3762209 439.67982829 217.86298716 439.37695312 219.34985352 C438.97724304 221.28103783 438.97724304 221.28103783 438.56945801 223.25123596 C437.79975645 227.68624948 437.79975645 227.68624948 438 235 C443.61 212.89 449.22 190.78 455 168 C456.98 167.505 456.98 167.505 459 167 C459.18216064 167.82145508 459.36432129 168.64291016 459.55200195 169.48925781 C462.77198437 183.17530768 467.20562618 196.46566962 471.56048584 209.82495117 C473.02156025 214.31071843 474.47444842 218.79914401 475.92781067 223.28741455 C476.69829474 225.66526422 477.4705917 228.04252743 478.24491882 230.41912842 C478.59230606 231.48834534 478.9396933 232.55756226 479.29760742 233.65917969 C479.75583138 235.06571808 479.75583138 235.06571808 480.22331238 236.50067139 C480.60777275 237.73783905 480.60777275 237.73783905 481 239 C481.20011185 239.60515442 481.40022369 240.21030884 481.60639954 240.83380127 C482.84728164 247.6630545 481.62115354 254.31856988 480.42358398 261.05615234 C480.25616699 262.02946503 480.08875 263.00277771 479.91625977 264.00558472 C479.55416031 266.10566842 479.18900809 268.20522761 478.82110405 270.30430222 C478.23961292 273.62292415 477.6664777 276.94289473 477.09547424 280.26333618 C475.883561 287.30184981 474.66122325 294.33853143 473.4375 301.375 C472.01595153 309.55008256 470.59865089 317.72585544 469.19221687 325.90355301 C468.62632269 329.18065661 468.05261282 332.45633137 467.47862244 335.73202515 C467.13437445 337.72802271 466.79048744 339.72408257 466.44702148 341.72021484 C466.28446365 342.63552979 466.12190582 343.55084473 465.954422 344.49389648 C465.81275604 345.32649994 465.67109009 346.15910339 465.52513123 347.01693726 C465.39884559 347.74213751 465.27255995 348.46733776 465.14244747 349.21451378 C464.83685649 351.10448729 464.83685649 351.10448729 466 353 C466.35715088 352.33581055 466.71430176 351.67162109 467.08227539 350.98730469 C471.03341849 343.64646657 475.00910263 336.31929355 479 329 C479.4139502 328.23623047 479.82790039 327.47246094 480.25439453 326.68554688 C481.19890733 324.95024888 482.16074793 323.22440759 483.125 321.5 C483.62257813 320.6028125 484.12015625 319.705625 484.6328125 318.78125 C485.08398438 318.1934375 485.53515625 317.605625 486 317 C486.99 317 487.98 317 489 317 C488.6857007 325.33414015 488.34688198 333.66715799 488 342 C487.95379517 343.14225037 487.90759033 344.28450073 487.85998535 345.46136475 C487.57524822 352.37051496 487.22885083 359.2730999 486.81982422 366.17602539 C486.68969537 368.52144298 486.57777912 370.86794038 486.48388672 373.21508789 C485.76169021 390.8697324 482.14041439 403.85680197 473 419 C472.31257052 420.18115576 471.62634127 421.36301177 470.94189453 422.54589844 C467.57206655 428.22703568 463.46394213 433.22463407 459.22265625 438.2734375 C455.90230187 442.34656115 452.93733097 446.64594991 450 451 C456.40859885 447.56421126 462.68905594 444.03339074 468.80859375 440.1015625 C471 439 471 439 475 439 C474.89333008 439.58015869 474.78666016 440.16031738 474.67675781 440.75805664 C474.52045898 441.61262451 474.36416016 442.46719238 474.203125 443.34765625 C474.01685547 444.3545752 473.83058594 445.36149414 473.63867188 446.39892578 C473.17870318 448.99240369 472.74872461 451.58095962 472.34570312 454.18310547 C467.43968532 485.20113897 467.43968532 485.20113897 459.28515625 491.6640625 C454.78260639 494.35991174 450.01163305 496.16100541 445.05615234 497.85009766 C439.61163454 499.89864206 434.66943935 502.87909684 429.625 505.75 C427.76512356 506.76947054 425.90333894 507.78547304 424.0390625 508.796875 C422.86657959 509.43641113 422.86657959 509.43641113 421.67041016 510.08886719 C421.1191748 510.38954102 420.56793945 510.69021484 420 511 C427.83686055 510.3771724 435.51198249 509.34846024 443.25585938 508.01757812 C447.56020709 507.30311976 451.61676513 506.83765797 456 507 C455.37777076 510.06316973 454.37370256 512.29289423 452.70263672 514.92651367 C452.22478729 515.68377243 451.74693787 516.44103119 451.25460815 517.22123718 C450.73488434 518.0286586 450.21516052 518.83608002 449.6796875 519.66796875 C449.14280304 520.50338699 448.60591858 521.33880524 448.05276489 522.19953918 C446.91457296 523.96263111 445.77287119 525.72346145 444.62792969 527.48217773 C442.88273189 530.17556726 441.16818824 532.88696414 439.453125 535.59960938 C438.34299987 537.31109985 437.23107914 539.02142725 436.1171875 540.73046875 C435.60960907 541.54396286 435.10203064 542.35745697 434.57907104 543.19560242 C430.89091459 548.74757626 430.89091459 548.74757626 426.47314453 549.99926758 C425.32700684 549.99950928 424.18086914 549.99975098 423 550 C422.04738281 550.06251953 421.09476563 550.12503906 420.11328125 550.18945312 C419.18902344 550.21974609 418.26476562 550.25003906 417.3125 550.28125 C416.28382813 550.31863281 415.25515625 550.35601563 414.1953125 550.39453125 C411 550.5 411 550.5 407.8046875 550.60546875 C402.46275864 550.799599 397.27169142 551.10141624 392 552 C395.3 553.32 398.6 554.64 402 556 C402 556.99 402 557.98 402 559 C402.59167969 559.04898438 403.18335938 559.09796875 403.79296875 559.1484375 C408.19104472 559.56456867 411.96928897 560.04965595 416 562 C416 562.99 416 563.98 416 565 C408.68008105 568.69376612 401.34573024 572.3578405 394 576 C393.06736328 576.46341797 392.13472656 576.92683594 391.17382812 577.40429688 C388.60051579 578.67693718 386.0205433 579.93475087 383.4375 581.1875 C382.65979248 581.57349365 381.88208496 581.9594873 381.08081055 582.35717773 C373.57961872 585.95818077 373.57961872 585.95818077 370 585 C367.90726535 583.00142322 366.21416553 581.12751578 364.4375 578.875 C363.38457086 577.5920733 362.33117126 576.30953261 361.27734375 575.02734375 C360.73964355 574.36331543 360.20194336 573.69928711 359.64794922 573.01513672 C356.99368617 569.76946454 354.24341047 566.60779588 351.5 563.4375 C350.53000299 562.31227169 349.56118937 561.1860218 348.59375 560.05859375 C348.18833984 559.58736084 347.78292969 559.11612793 347.36523438 558.63061523 C346.91470703 558.09251221 346.46417969 557.55440918 346 557 C345.28626221 556.26088379 344.57252441 555.52176758 343.8371582 554.76025391 C341.42362135 551.13401501 341.67806849 549.0880177 342.01171875 544.77734375 C342.08323906 543.72710777 342.08323906 543.72710777 342.15620422 542.65565491 C342.31313148 540.41425584 342.49936516 538.17647403 342.6875 535.9375 C342.79564819 534.49168675 342.90178374 533.04572149 343.00585938 531.59960938 C343.05831314 530.88045349 343.11076691 530.16129761 343.16481018 529.42034912 C343.27229864 527.93318704 343.3783359 526.44591946 343.48301697 524.95855713 C343.76198539 521.04199379 344.08365795 517.13789754 344.48071289 513.23144531 C345.70033122 499.72231509 343.36937994 487.94769715 340.0625 474.875 C339.5736082 472.86390274 339.08726688 470.85218371 338.60351562 468.83984375 C337.92821484 466.03149199 337.24945361 463.2246044 336.55030823 460.42208862 C336.34687302 459.60588043 336.14343781 458.78967224 335.93383789 457.94873047 C335.75317276 457.23184052 335.57250763 456.51495056 335.3863678 455.77633667 C335 454 335 454 335 452 C321.46550112 455.08133017 321.46550112 455.08133017 309.53125 461.86328125 C308 463 308 463 306 463 C306.07516846 464.02031815 306.15033691 465.04063629 306.2277832 466.09187317 C307.84115568 488.15697366 309.2049841 510.22157152 310.25619507 532.320858 C310.62305468 539.91555739 311.01902236 547.50880786 311.41419983 555.10207939 C311.74948341 561.59182289 312.06543078 568.08154224 312.34423828 574.57397461 C312.62133729 581.00117632 312.94808741 587.42418673 313.30789185 593.84726906 C313.43397083 596.25221688 313.54268649 598.65815076 313.6322937 601.06473351 C314.19615273 615.90698238 315.81801372 629.1688449 327 640 C330.92958727 642.93102088 335.06770644 645.25228751 339.49609375 647.3359375 C342.35475759 648.69356381 344.67632395 649.87243983 347 652 C347 652.66 347 653.32 347 654 C359.6892103 655.2411241 370.48556924 655.50019158 382.56640625 651.12890625 C385.66311062 650.1107634 387.78660065 649.74712212 391 650 C391 650.99 391 651.98 391 653 C389.12109375 654.8046875 389.12109375 654.8046875 386.4375 656.875 C381.67956897 660.6348065 377.06238301 664.50530282 372.5 668.5 C368.11865739 672.32401818 363.70935739 676.09158073 359.1875 679.75 C357.45609877 681.16393479 355.72714535 682.58086972 354 684 C353.20303711 684.65033203 352.40607422 685.30066406 351.58496094 685.97070312 C345.06096629 691.54157674 340.57023605 697.49050004 336.0625 704.75 C335.34018711 705.88711459 334.61618206 707.02315579 333.890625 708.15820312 C332.36538571 710.54646401 330.84689687 712.93882314 329.33251953 715.33398438 C325.85178657 720.82320494 322.27176665 726.24736445 318.69894409 731.67687988 C316.69117099 734.72990925 314.68954734 737.78696416 312.6875 740.84375 C312.29380722 741.4446344 311.90011444 742.0455188 311.49449158 742.66461182 C308.89018813 746.63970215 306.28815789 750.61627323 303.6875 754.59375 C302.99398438 755.65392334 302.30046875 756.71409668 301.5859375 757.80639648 C300.19262875 759.93957436 298.80201189 762.07451283 297.4140625 764.21118164 C294.16106401 769.21123078 290.88596638 774.19007368 287.50546265 779.10469055 C275.0449248 797.22842825 265.16608825 815.93537644 255.97253418 835.89886475 C254.41131464 839.27183969 252.81767184 842.62933421 251.2265625 845.98828125 C250.06548909 848.44948617 248.90749468 850.91210669 247.75 853.375 C247.23711426 854.46627197 246.72422852 855.55754395 246.19580078 856.68188477 C240.37364917 869.24726677 235.87227058 882.13548205 231.6875 895.3125 C231.22886325 896.74685599 230.76988061 898.18110143 230.31054688 899.61523438 C229.20305886 903.07556339 228.1001962 906.53734466 227 910 C226.01 910 225.02 910 224 910 C223.98030686 908.91109592 223.96061373 907.82219185 223.94032383 906.70029068 C223.46135006 880.22780897 222.97707283 853.75542835 222.48720646 827.2831459 C222.250436 814.48145165 222.01540079 801.67972989 221.78442383 788.87792969 C221.58314421 777.72233473 221.3786361 766.56680448 221.17022032 755.41134048 C221.05993846 749.50241906 220.95129428 743.59347761 220.84651375 737.68445587 C220.74789984 732.12607023 220.64497904 726.56778121 220.53871346 721.00953674 C220.50042101 718.96652403 220.46372013 716.92348079 220.42870712 714.88040924 C220.38076512 712.0966261 220.32716171 709.31300819 220.27210999 706.52935791 C220.25945903 705.71612824 220.24680808 704.90289856 220.23377377 704.06502557 C220.15868986 700.54557578 219.89125689 697.39361204 219 694 C218.85583518 692.35710392 218.75405475 690.71020333 218.68359375 689.0625 C218.64137695 688.09465576 218.59916016 687.12681152 218.55566406 686.12963867 C218.49717285 684.58046753 218.49717285 684.58046753 218.4375 683 C218.3972168 681.93434814 218.35693359 680.86869629 218.31542969 679.77075195 C218.20013176 676.51407002 218.09722445 673.25726846 218 670 C217.96986816 669.0414209 217.93973633 668.0828418 217.90869141 667.09521484 C217.83493432 664.45922117 217.78707595 661.82423903 217.75 659.1875 C217.7286499 658.41986328 217.7072998 657.65222656 217.68530273 656.86132812 C217.65375459 651.5612402 218.69957744 647.06268513 220.19335938 641.99291992 C221.69124163 636.43525085 222.46615858 630.74049433 223.375 625.0625 C224.8519101 616.23470758 226.39184201 607.45141789 228.5 598.75 C228.67708496 597.98437744 228.85416992 597.21875488 229.03662109 596.42993164 C231.51517558 586.66234159 237.39438373 578.74136459 243.0625 570.5625 C244.40768854 568.59514538 245.75273903 566.62769636 247.09765625 564.66015625 C249.40991454 561.29211846 251.74509551 557.94439047 254.12109375 554.62109375 C269.57533048 533.62502158 269.57533048 533.62502158 278 510 C273.26700444 510.18468342 268.54248455 510.43186869 263.81542969 510.73242188 C262.21441501 510.82595855 260.61237956 510.90365337 259.00976562 510.96386719 C247.03120008 511.42919993 239.65824898 513.97165424 230.50231934 521.74230957 C228.34978755 523.54433565 226.07660639 525.16205518 223.79296875 526.79296875 C222.25703629 527.9234253 220.72185604 529.05490472 219.1875 530.1875 C218.41986328 530.75146484 217.65222656 531.31542969 216.86132812 531.89648438 C215.3256199 533.02853551 213.79784808 534.17143911 212.27856445 535.32543945 C210 537 210 537 207.60229492 538.49291992 C200.14910637 543.42496163 198.34312964 549.58133294 195.9375 557.9375 C195.54884766 559.19369141 195.16019531 560.44988281 194.75976562 561.74414062 C193.81179703 564.82211273 192.89313933 567.90576203 192 571 C190.35 571 188.7 571 187 571 C186.82162598 570.25540527 186.64325195 569.51081055 186.45947266 568.74365234 C182.11644593 551.50218281 177.64224528 540.74159338 162.24072266 531.38183594 C159.46441666 529.66970999 156.85940889 527.77391205 154.23510742 525.84008789 C152.11268016 524.27731008 149.96490846 522.75548095 147.77929688 521.28222656 C146 520 146 520 143.98632812 518.22558594 C136.12711979 511.75192198 128.25966834 511.62832881 118.5 511.125 C116.16207043 510.9748489 113.82487279 510.81604416 111.4876709 510.65499878 C110.0436253 510.55866915 108.59901408 510.47039659 107.15393066 510.3911438 C102.21220679 510.1061034 102.21220679 510.1061034 100 509 C108.61275515 527.04248086 117.15094737 544.46555574 129.1640625 560.53173828 C140.01830943 575.12434951 148.93816177 587.923693 152 606 C152.4218306 608.22991763 152.84790016 610.45903598 153.27734375 612.6875 C154.16894285 617.3663828 155.0313146 622.04913167 155.8671875 626.73828125 C157.87793947 638.50467649 157.87793947 638.50467649 161 650 C161.10092117 652.90593597 161.14098709 655.78177621 161.125 658.6875 C161.12234131 659.55439453 161.11968262 660.42128906 161.11694336 661.31445312 C161.06639154 668.54784216 160.84710108 675.77234118 160.5625 683 C160.52334473 684.03213623 160.48418945 685.06427246 160.44384766 686.12768555 C160.38076416 687.5804187 160.38076416 687.5804187 160.31640625 689.0625 C160.27974854 689.91972656 160.24309082 690.77695312 160.20532227 691.66015625 C160 694 160 694 159.49876219 695.90854812 C158.66707036 699.3960688 158.78341165 702.96031073 158.72789001 706.52935791 C158.71070138 707.39848871 158.69351275 708.26761951 158.67580324 709.16308761 C158.61923589 712.08033965 158.56928337 714.99766755 158.51928711 717.91503906 C158.4801282 720.00427994 158.44056248 722.09351322 158.40061951 724.18273926 C158.29323685 729.85993657 158.19156161 735.5372236 158.09088969 741.21454334 C157.98475322 747.14567401 157.87339728 753.07670658 157.7625885 759.00775146 C157.55350685 770.24149721 157.34913797 781.47532358 157.14645058 792.70918632 C156.91548836 805.49749512 156.67929008 818.28570551 156.44264591 831.07391024 C155.95592629 857.38250128 155.47580187 883.6912094 155 910 C154.01 910 153.02 910 152 910 C151.74009277 909.09685059 151.48018555 908.19370117 151.21240234 907.26318359 C145.52785244 887.6783772 138.98229755 869.25751947 129.92590332 850.95352173 C127.37719846 845.80150634 124.91166268 840.61309262 122.46875 835.41015625 C122.08627106 834.59577591 121.70379211 833.78139557 121.3097229 832.94233704 C120.54200937 831.30701289 119.774481 829.6716018 119.00714111 828.03610229 C117.2161695 824.22189954 115.41821529 820.41102547 113.6171875 816.6015625 C113.31043091 815.95071182 113.00367432 815.29986115 112.68762207 814.62928772 C108.24258493 805.0998048 108.24258493 805.0998048 102.84765625 796.09375 C101.94672241 794.75594482 101.94672241 794.75594482 101.02758789 793.39111328 C100.37910889 792.4370459 99.73062988 791.48297852 99.0625 790.5 C97.62386484 788.36274283 96.18642788 786.22467878 94.75 784.0859375 C94.18122887 783.24021683 94.18122887 783.24021683 93.60096741 782.37741089 C88.86659631 775.32942688 84.21578817 768.22665678 79.5625 761.125 C78.66114868 759.75039649 77.75978148 758.37580341 76.85839844 757.0012207 C72.0265308 749.63043879 67.20497115 742.25300297 62.39086914 734.87060547 C60.33156632 731.71670083 58.26594672 728.56701147 56.19921875 725.41796875 C53.61928461 721.48614668 51.05942806 717.54260947 48.5198822 713.58467102 C46.94657114 711.13912391 45.360131 708.70226022 43.77133179 706.26675415 C42.67035126 704.56989645 41.58542251 702.86265649 40.5012207 701.1550293 C33.62659278 690.66014464 24.70522235 683.29751459 15.0234375 675.48828125 C10.75204622 671.97293726 6.59983491 668.32527484 2.44018555 664.67895508 C-1.74707927 661.02733985 -6.02687362 657.58863127 -10.55859375 654.3671875 C-11.03425781 653.91601562 -11.50992188 653.46484375 -12 653 C-12 652.01 -12 651.02 -12 650 C-6.63113303 650.36399098 -2.34163456 651.20598813 2.6875 653.125 C12.19195607 656.27802958 22.17271932 654.84154443 32 654 C32 653.34 32 652.68 32 652 C33.546875 650.73828125 33.546875 650.73828125 35.75 649.3125 C36.98169922 648.49845703 36.98169922 648.49845703 38.23828125 647.66796875 C41 646 41 646 43.91796875 644.61328125 C53.47747817 639.90154375 59.52725945 633.01884276 63 623 C65.12448721 612.7080084 65.36345973 602.09087229 65.83130121 591.61957788 C66.02429589 587.51585855 66.26906123 583.41520148 66.50778198 579.31393433 C66.95124127 571.56131435 67.34835538 563.80705453 67.72863376 556.05110729 C68.1625518 547.25199161 68.65171544 538.45620617 69.14405465 529.66019845 C69.869047 516.67254633 70.57416587 503.68377698 71.22532082 490.6921978 C71.29545375 489.29664304 71.3663827 487.901128 71.43820381 486.5056591 C71.6519601 482.3379305 71.84056563 478.17015695 72 474 C72.03986904 472.99996822 72.07973808 471.99993645 72.12081528 470.96960068 C72.1417638 470.07268635 72.16271233 469.17577202 72.18429565 468.25167847 C72.20473875 467.48492735 72.22518185 466.71817623 72.24624443 465.92819023 C72.14151903 463.67285391 72.14151903 463.67285391 69.71875 461.4140625 C68.12546875 460.52847656 68.12546875 460.52847656 66.5 459.625 C65.93063721 459.30466797 65.36127441 458.98433594 64.7746582 458.65429688 C57.95884587 455.05825781 50.50972023 453.46531126 43 452 C42.67128906 453.58748047 42.67128906 453.58748047 42.3359375 455.20703125 C42.18592285 455.92383057 42.0359082 456.64062988 41.88134766 457.37915039 C41.53465904 459.04522821 41.1934522 460.71245351 40.85693359 462.38061523 C39.84010197 467.33489907 38.69197179 472.2072436 37.328125 477.078125 C33.79463354 490.2053924 32.59337212 501.96552695 33.5625 515.4375 C33.61401215 516.16604187 33.66552429 516.89458374 33.71859741 517.64520264 C34.22192059 524.48456055 34.8706501 531.28639066 35.8359375 538.078125 C37.42023552 550.45003154 37.42023552 550.45003154 33.5859375 556.04296875 C30.92048646 559.36093686 27.94479966 562.29322097 24.84716797 565.20458984 C21.79595193 568.17031054 19.1060835 571.42964965 16.375 574.6875 C15.40401004 575.81671952 14.43267962 576.94564643 13.4609375 578.07421875 C11.5567454 580.33809158 9.73535433 582.60660862 8 585 C1.86286949 584.50859914 -2.74750171 582.49292419 -8.21484375 579.74609375 C-9.49845543 579.11562889 -9.49845543 579.11562889 -10.80799866 578.47242737 C-13.52245156 577.13658122 -16.22996234 575.78729813 -18.9375 574.4375 C-20.78406237 573.52579525 -22.63106334 572.61497824 -24.47851562 571.70507812 C-28.99081884 569.48029624 -33.49694836 567.24344448 -38 565 C-38 564.01 -38 563.02 -38 562 C-36.4188708 561.49307308 -34.83498617 560.99473557 -33.25 560.5 C-32.36828125 560.2215625 -31.4865625 559.943125 -30.578125 559.65625 C-28 559 -28 559 -24 559 C-24 558.01 -24 557.02 -24 556 C-20.7 554.68 -17.4 553.36 -14 552 C-20.3194088 550.92282805 -26.5999851 550.71124744 -33 550.5 C-35.10428372 550.4305432 -37.20845921 550.35771264 -39.3125 550.28125 C-40.69888672 550.23581055 -40.69888672 550.23581055 -42.11328125 550.18945312 C-43.54220703 550.09567383 -43.54220703 550.09567383 -45 550 C-46.15137451 549.99145996 -47.30274902 549.98291992 -48.48901367 549.97412109 C-53.62717783 548.54854047 -55.12650728 545.51604865 -57.86328125 541.1328125 C-58.38133835 540.34228485 -58.89939545 539.5517572 -59.43315125 538.73727417 C-61.0807248 536.21284636 -62.6966675 533.66983399 -64.3125 531.125 C-65.41788575 529.41925171 -66.52528662 527.71480748 -67.63476562 526.01171875 C-70.07379973 522.25987404 -72.4930408 518.49611792 -74.89546204 514.72073364 C-75.91283023 513.13579973 -76.95529856 511.56705216 -78 510 C-78 509.01 -78 508.02 -78 507 C-69.76612423 507.47661157 -61.71064299 508.6009835 -53.58862305 509.98364258 C-52.41746948 510.1792981 -52.41746948 510.1792981 -51.22265625 510.37890625 C-50.52922119 510.4982251 -49.83578613 510.61754395 -49.12133789 510.74047852 C-46.73099289 511.03290995 -44.40581772 511.04176493 -42 511 C-42.76441406 510.59273682 -43.52882813 510.18547363 -44.31640625 509.76586914 C-47.23970892 508.20725808 -50.1621128 506.64698454 -53.08398438 505.08569336 C-54.33234347 504.41904288 -55.58102563 503.75299689 -56.83007812 503.08764648 C-57.42755859 502.76932861 -58.02503906 502.45101074 -58.640625 502.12304688 C-59.54548645 501.64221649 -59.54548645 501.64221649 -60.46862793 501.15167236 C-61.71156303 500.4833016 -62.94890913 499.80444492 -64.18078613 499.11590576 C-67.4893878 497.27574993 -70.74961731 495.66752614 -74.27929688 494.29199219 C-79.5668573 492.07594877 -84.3905778 489.91770275 -87.25732422 484.72061157 C-89.90122492 478.07743709 -91.17527489 471.12478208 -92.5 464.125 C-92.95098516 462.02213175 -93.40797144 459.92054111 -93.87109375 457.8203125 C-97 443.36322113 -97 443.36322113 -97 439 C-93.28713583 439.57717378 -90.58258204 440.59398206 -87.35546875 442.50390625 C-86.51435547 442.99697266 -85.67324219 443.49003906 -84.80664062 443.99804688 C-83.94232422 444.51431641 -83.07800781 445.03058594 -82.1875 445.5625 C-81.30384766 446.08263672 -80.42019531 446.60277344 -79.50976562 447.13867188 C-77.33598572 448.4194395 -75.16632913 449.7066834 -73 451 C-74.69560064 447.47226862 -76.74356272 444.55328292 -79.125 441.4375 C-80.75737698 439.29682058 -82.38348269 437.15260548 -84 435 C-84.5792926 434.22970459 -85.15858521 433.45940918 -85.75543213 432.66577148 C-102.67553717 409.81426041 -108.23952272 391.15542045 -109.27911377 363.27960205 C-109.44074787 359.33155278 -109.67783103 355.38800352 -109.90625 351.44335938 C-110.54872873 339.96921204 -111.14751077 328.49615478 -111 317 C-109.11047363 317.33920288 -109.11047363 317.33920288 -107 318 C-105.23242187 320.57275391 -105.23242187 320.57275391 -103.46875 323.9765625 C-103.15095581 324.5800351 -102.83316162 325.18350769 -102.5057373 325.80526733 C-101.49095915 327.73877302 -100.49517814 329.68134535 -99.5 331.625 C-98.50067299 333.54484885 -97.49757921 335.46269639 -96.4942627 337.38046265 C-95.57943733 339.13418717 -94.6732628 340.89241639 -93.76757812 342.65087891 C-91.92063557 346.15037586 -89.98079346 349.57492328 -88 353 C-86.98237039 349.94711118 -86.98834287 348.98311981 -87.52513123 345.94137573 C-87.66679718 345.11725693 -87.80846313 344.29313812 -87.954422 343.44404602 C-88.11697983 342.54324814 -88.27953766 341.64245026 -88.44702148 340.71435547 C-88.69551849 339.28697807 -88.69551849 339.28697807 -88.94903564 337.83076477 C-89.31030541 335.76110652 -89.67497247 333.69203911 -90.04260063 331.62350082 C-90.62494931 328.34548471 -91.19810078 325.06597969 -91.76881409 321.78591919 C-93.18915501 313.63402408 -94.62517949 305.48490695 -96.06115723 297.33575439 C-97.27230098 290.45938748 -98.47724863 283.58199081 -99.67396736 276.7030983 C-100.23731836 273.47989574 -100.80970631 270.25838279 -101.38243103 267.03683472 C-101.72993225 265.04530556 -102.07700552 263.05370167 -102.42358398 261.06201172 C-102.66438438 259.72903297 -102.66438438 259.72903297 -102.91004944 258.36912537 C-104.25214375 250.55692412 -104.85408308 243.44750161 -102.31933594 235.81616211 C-101.95185242 234.68726059 -101.5843689 233.55835907 -101.20574951 232.39524841 C-100.80269592 231.20133987 -100.39964233 230.00743134 -99.984375 228.77734375 C-99.56665311 227.50617531 -99.15027761 226.23456372 -98.73516846 224.96253967 C-97.64320899 221.62604935 -96.53650559 218.29465947 -95.42547607 214.96447754 C-93.44877678 209.03277214 -91.49591121 203.09318555 -89.546875 197.15234375 C-89.13578491 195.90149994 -88.72469482 194.65065613 -88.30114746 193.36190796 C-85.46636402 184.65288145 -82.9465996 175.95167934 -81 167 C-79.68 167.33 -78.36 167.66 -77 168 C-71.39 190.11 -65.78 212.22 -60 235 C-60 229.32397427 -60.24053953 224.66515071 -61.37695312 219.2421875 C-61.52325668 218.51259827 -61.66956024 217.78300903 -61.82029724 217.03131104 C-62.13610556 215.46144892 -62.45542037 213.89228881 -62.77793884 212.3237915 C-63.28934515 209.83561414 -63.790953 207.345632 -64.29016113 204.85498047 C-65.35156164 199.56824212 -66.42488639 194.2839643 -67.5 189 C-68.7467196 182.87262727 -69.98841995 176.74432613 -71.2172699 170.61334229 C-71.70959381 168.170433 -72.21109747 165.72952798 -72.7130127 163.28857422 C-73.0168113 161.77841155 -73.3201785 160.26816201 -73.62304688 158.7578125 C-73.83343849 157.75382416 -73.83343849 157.75382416 -74.04808044 156.72955322 C-75.26693176 150.55948617 -75.99885263 144.35869696 -73.49389648 138.42675781 C-73.16191757 137.62522278 -72.82993866 136.82368774 -72.48789978 135.99786377 C-72.11935379 135.15809998 -71.7508078 134.31833618 -71.37109375 133.453125 C-70.984944 132.56067078 -70.59879425 131.66821655 -70.20094299 130.74871826 C-69.37766599 128.86594985 -68.54593658 126.98685747 -67.70629883 125.11132812 C-66.45427066 122.2878203 -65.2631863 119.44346187 -64.07226562 116.59375 C-58.55785025 103.90263585 -52.44431975 96.61369975 -41 89 C-29.40281351 81.13964087 -23.44827542 73.3502237 -17.375 60.75 C-16.60859312 59.21978533 -15.83907086 57.69112695 -15.06640625 56.1640625 C-13.33405649 52.73468386 -11.63939467 49.28850513 -9.9543457 45.83570862 C-9.00630262 44.01212325 -7.9455449 42.30500856 -6.85302734 40.56518555 C-4.56316985 36.60592606 -4.03140557 32.71752873 -3.515625 28.22265625 C-3.41030457 27.41130722 -3.30498413 26.59995819 -3.19647217 25.76402283 C-2.86672313 23.19841634 -2.55805049 20.63079262 -2.25 18.0625 C-2.02873711 16.31167231 -1.80609423 14.56101843 -1.58203125 12.81054688 C-1.03871448 8.54220799 -0.51426987 4.27193184 0 0 Z " fill="#030303" transform="translate(111,0)"/>
<path d="M0 0 C0.21011719 1.19109375 0.42023438 2.3821875 0.63671875 3.609375 C2.17586603 10.47448177 4.97514606 16.83651056 7.8125 23.25 C8.09667786 23.89585052 8.38085571 24.54170105 8.67364502 25.2071228 C13.45240661 35.92261383 18.94292916 43.52294014 28 51 C29.15978363 52.26052755 30.29017604 53.54941154 31.375 54.875 C35.46195724 59.70130628 40.03232129 64.05615784 44.52197266 68.50244141 C48.28225126 72.240265 51.88963588 76.02134044 55.2890625 80.09375 C57.0503535 82.11535397 57.0503535 82.11535397 59.3984375 84.21875 C67.88507453 92.09746175 73.70108593 101.18874123 79.75415039 110.99804688 C80.80431995 112.68556214 81.89747648 114.34621472 83 116 C86.36638887 114.54974765 88.48039225 112.70513547 91 110.0625 C96.24689031 104.57990954 96.24689031 104.57990954 99 103 C102.70809356 102.95806679 103.91569801 103.92332827 106.67578125 106.43359375 C107.98095703 107.92052734 107.98095703 107.92052734 109.3125 109.4375 C109.76689453 109.94087891 110.22128906 110.44425781 110.68945312 110.96289062 C114 114.71152491 114 114.71152491 114 117 C132.02344877 117.70151579 132.02344877 117.70151579 149.48828125 113.875 C152 113 152 113 155 113 C155.36931641 112.15115234 155.36931641 112.15115234 155.74609375 111.28515625 C157.21536224 108.60751742 158.97752435 106.66956388 161.0625 104.4375 C164.33018473 100.87703072 167.46479193 97.2606708 170.5 93.5 C173.4081338 89.9052235 176.38541332 86.41739372 179.5 83 C182.69921779 79.47524776 185.8235687 75.90381742 188.875 72.25 C189.59429687 71.38890625 190.31359375 70.5278125 191.0546875 69.640625 C193.08625691 66.8829123 194.55830503 64.10100427 196 61 C196.33 61 196.66 61 197 61 C196.64332606 66.97428855 195.18816183 69.53857061 191 73.75 C189.98968832 74.79185312 188.98191597 75.83617406 187.9765625 76.8828125 C187.47286133 77.40262695 186.96916016 77.92244141 186.45019531 78.45800781 C184.29788797 80.74655548 182.33939462 83.17471271 180.375 85.625 C176.81680648 90.04425102 173.09193896 94.25777309 169.265625 98.4453125 C166.08150764 102.03567931 163.10834037 105.78458983 160.140625 109.5546875 C153.37690165 117.2811306 145.00939324 119.34693611 135.13330078 120.26708984 C116.29628752 121.38573432 116.29628752 121.38573432 110.05078125 116.31640625 C106.69314792 112.96083409 104.12412576 109.24825151 102 105 C98.69060402 106.43089183 96.64552547 108.19427735 94.1875 110.8125 C90.70197968 114.40265132 87.15804636 117.2279691 83 120 C79.03569901 114.70706408 75.21843586 109.42024025 71.77661133 103.77636719 C67.68819166 97.10805481 63.20841528 91.81772155 57.54296875 86.43359375 C55.44288275 84.42383403 53.55244651 82.40946398 51.6875 80.1875 C48.33111711 76.24598498 44.67682066 72.63861992 41 69 C36.76843614 64.81230928 32.64982611 60.63532411 28.87109375 56.02734375 C26.95376277 53.85165947 26.95376277 53.85165947 24.22265625 51.75390625 C15.16594284 44.20921894 10.60297537 35.08664414 5.75 24.5625 C5.41790527 23.84505615 5.08581055 23.1276123 4.74365234 22.38842773 C3.78914768 20.30783539 2.85091456 18.22098171 1.921875 16.12890625 C1.6401947 15.50109756 1.3585144 14.87328888 1.06829834 14.22645569 C-0.54186525 10.50125254 -1.49985619 7.02538825 -2 3 C-2.33 3 -2.66 3 -3 3 C-3.20753906 4.02480469 -3.41507813 5.04960937 -3.62890625 6.10546875 C-5.31901092 12.78233499 -8.11449466 19.05149855 -10.9375 25.3125 C-11.23568634 25.97485657 -11.53387268 26.63721313 -11.84109497 27.31964111 C-17.65424398 39.9805425 -25.37172927 48.90614487 -35.89404297 58.06933594 C-38.60429665 60.55399698 -40.94694742 63.26635412 -43.32250977 66.06689453 C-46.05024463 69.21028045 -49.02785468 72.09003173 -52 75 C-56.31257987 79.26785766 -60.54456905 83.53680061 -64.44921875 88.1875 C-65.5145004 89.4325647 -66.62484711 90.64002 -67.76953125 91.8125 C-73.45390613 97.73999479 -77.61621206 104.45642288 -81.87573242 111.43676758 C-82.36662354 112.23880615 -82.85751465 113.04084473 -83.36328125 113.8671875 C-83.79938721 114.59019043 -84.23549316 115.31319336 -84.68481445 116.05810547 C-85.96709582 117.9514164 -87.3294234 119.44641569 -89 121 C-89.70346558 120.32626343 -89.70346558 120.32626343 -90.42114258 119.63891602 C-92.5468507 117.60840848 -94.67955589 115.585404 -96.8125 113.5625 C-97.55048828 112.85544922 -98.28847656 112.14839844 -99.04882812 111.41992188 C-99.76103516 110.74638672 -100.47324219 110.07285156 -101.20703125 109.37890625 C-101.8616333 108.7557251 -102.51623535 108.13254395 -103.19067383 107.49047852 C-105.03614618 105.78844244 -105.03614618 105.78844244 -108 105 C-108.61488281 105.75925781 -109.22976562 106.51851563 -109.86328125 107.30078125 C-110.67152344 108.29464844 -111.47976562 109.28851563 -112.3125 110.3125 C-113.11300781 111.29863281 -113.91351563 112.28476562 -114.73828125 113.30078125 C-115.48464844 114.19152344 -116.23101562 115.08226562 -117 116 C-117.43441406 116.5364917 -117.86882812 117.0729834 -118.31640625 117.62573242 C-124.09018858 122.33869947 -137.89535688 120.30628262 -145 120 C-154.80250961 118.99380067 -161.9209662 115.33834474 -168.26855469 107.79272461 C-169.53277732 106.21003919 -170.76655346 104.60671985 -172 103 C-173.5383832 101.12230508 -175.07991572 99.24718474 -176.625 97.375 C-177.34945312 96.47523438 -178.07390625 95.57546875 -178.8203125 94.6484375 C-180.97757399 92.02724881 -183.21311 89.50845719 -185.5 87 C-190.20716963 81.83118151 -194.62249338 76.44886579 -199 71 C-199.74121094 70.12601562 -200.48242188 69.25203125 -201.24609375 68.3515625 C-203.27280808 65.6342306 -203.37824179 64.30961569 -203 61 C-202.34 61.99 -201.68 62.98 -201 64 C-195.43783616 71.29942762 -189.41040103 78.20012696 -183.3828125 85.11328125 C-179.60184196 89.44976529 -175.85957441 93.81885811 -172.125 98.1953125 C-168.84535981 102.03337792 -165.51366572 105.81836612 -162.109375 109.546875 C-161 111 -161 111 -161 113 C-160.03900391 113.18175781 -160.03900391 113.18175781 -159.05859375 113.3671875 C-158.19363281 113.53476562 -157.32867187 113.70234375 -156.4375 113.875 C-155.59058594 114.03742188 -154.74367187 114.19984375 -153.87109375 114.3671875 C-151 115 -151 115 -147.9375 116.0625 C-142.60660151 117.62052764 -137.06272396 117.20986992 -131.5625 117.125 C-129.8928418 117.11146484 -129.8928418 117.11146484 -128.18945312 117.09765625 C-125.45940977 117.0742224 -122.7298199 117.041414 -120 117 C-119.7110083 116.39389893 -119.4220166 115.78779785 -119.12426758 115.16333008 C-117.65055121 112.32758615 -115.77133273 110.10754776 -113.6875 107.6875 C-112.92824219 106.78386719 -112.16898437 105.88023437 -111.38671875 104.94921875 C-109 103 -109 103 -106.51953125 102.9375 C-103.39051664 104.25702244 -101.45451817 105.96920218 -99 108.3125 C-95.76705761 111.36864085 -92.50863883 114.26200863 -89 117 C-88.03905908 115.64768248 -87.08152509 114.29294454 -86.125 112.9375 C-85.47660156 112.02097656 -84.82820313 111.10445313 -84.16015625 110.16015625 C-82.66767657 107.97676374 -81.24955951 105.80964902 -79.87109375 103.55859375 C-74.20809995 94.44339187 -67.58510302 87.15732402 -59.83203125 79.75390625 C-56.59924647 76.65423136 -53.66879106 73.37986712 -50.75268555 69.98413086 C-47.82315144 66.66774645 -44.65815412 63.59667366 -41.5 60.5 C-37.02230731 56.07040753 -32.60764496 51.65969762 -28.59423828 46.79663086 C-27 45 -27 45 -25.43505859 43.67407227 C-19.39989733 38.51589814 -16.63306724 31.67404183 -13.54541016 24.55688477 C-12.62228623 22.43125114 -11.67468682 20.31790073 -10.72265625 18.20507812 C-10.11833734 16.84439498 -9.51542289 15.48308701 -8.9140625 14.12109375 C-8.49539413 13.18335365 -8.49539413 13.18335365 -8.06826782 12.22666931 C-6.81946359 9.32985454 -5.95708663 6.73945453 -5.44287109 3.61743164 C-5.29672363 2.7536792 -5.15057617 1.88992676 -5 1 C-3 0 -3 0 0 0 Z " fill="#F7F7F7" transform="translate(303,204)"/>
<path d="M0 0 C0.33 0 0.66 0 1 0 C1.032146 0.71091797 1.06429199 1.42183594 1.09741211 2.15429688 C2.36378913 23.72222678 8.98943249 39.34458625 20.00097656 57.66333008 C21.24629006 59.74194507 22.4665828 61.83601847 23.64746094 63.9519043 C26.64075024 69.26002367 29.53504245 72.91606709 34.5 76.4375 C35.10239502 76.89809814 35.70479004 77.35869629 36.32543945 77.83325195 C39.34887852 80.13486309 42.41475066 82.283254 45.63671875 84.296875 C56.88870636 91.6637714 60.86707034 101.80734027 65.76708984 114.00878906 C66.91743784 116.79969275 68.15367615 119.51999679 69.45703125 122.2421875 C69.83553223 123.04068115 70.2140332 123.8391748 70.60400391 124.66186523 C71.29897349 126.12148927 72.00235809 127.57715357 72.71630859 129.02758789 C75.05650957 134.11209351 75.38435018 138.43780027 75 144 C74.67 144 74.34 144 74 144 C73.92233398 143.42677002 73.84466797 142.85354004 73.76464844 142.26293945 C72.50429545 134.60591542 69.60020087 128.14529522 66.25 121.1875 C65.21354167 118.99348958 64.17708333 116.79947917 63.140625 114.60546875 C62.61847412 113.52225342 62.09632324 112.43903809 61.55834961 111.32299805 C60.50419863 109.07514453 59.49814398 106.80420719 58.53735352 104.51489258 C55.51462486 97.40912228 52.72626905 92.80644518 46.4375 88.3125 C45.73786133 87.76964355 45.03822266 87.22678711 44.31738281 86.66748047 C41.13021294 84.21230259 37.89977385 81.90159148 34.48828125 79.76953125 C23.84636406 72.72198899 19.78479793 63.12237776 14.42871094 51.85205078 C13.11374642 49.22706523 11.69350711 46.76192244 10.1328125 44.27734375 C1.39261056 30.31878647 -0.23135365 16.27738211 0 0 Z " fill="#F3F3F3" transform="translate(489,8)"/>
<path d="M0 0 C0.33 0 0.66 0 1 0 C1.28220957 5.15805221 0.76247516 8.30202933 -1.74609375 12.80859375 C-2.33132812 13.87779053 -2.9165625 14.9469873 -3.51953125 16.04858398 C-4.15246094 17.16692627 -4.78539063 18.28526855 -5.4375 19.4375 C-6.08944586 20.6050457 -6.74048181 21.77309992 -7.390625 22.94165039 C-8.67520896 25.24822945 -9.96633972 27.55070453 -11.26123047 29.8515625 C-12.72383854 32.49994689 -14.10789525 35.16033185 -15.44140625 37.875 C-19.67572225 46.3584063 -24.33160875 51.74185364 -32.07177734 57.23364258 C-33.03759232 57.9207859 -33.03759232 57.9207859 -34.0229187 58.62181091 C-35.28466037 59.50134915 -36.55690244 60.36613699 -37.84207153 61.21107483 C-50.42191855 69.4906237 -55.39904555 79.12357275 -60.875 92.875 C-61.66165716 94.74635447 -62.45200523 96.61616182 -63.24609375 98.484375 C-67.61104534 108.44986643 -67.61104534 108.44986643 -70 119 C-70.33 119 -70.66 119 -71 119 C-71.4492957 112.25814632 -70.06672941 107.59536312 -67.37109375 101.453125 C-66.984944 100.56067078 -66.59879425 99.66821655 -66.20094299 98.74871826 C-65.37766599 96.86594985 -64.54593658 94.98685747 -63.70629883 93.11132812 C-62.45427066 90.2878203 -61.2631863 87.44346187 -60.07226562 84.59375 C-54.55785025 71.90263585 -48.44431975 64.61369975 -37 57 C-25.40281351 49.13964087 -19.44827542 41.3502237 -13.375 28.75 C-12.60859312 27.21978533 -11.83907086 25.69112695 -11.06640625 24.1640625 C-9.65274892 21.36557091 -8.26028897 18.55836667 -6.88427734 15.74121094 C-5.61636995 13.16632967 -4.25627029 10.6774695 -2.80712891 8.20019531 C-1.17625827 5.31213096 -0.39465847 3.2559324 0 0 Z " fill="#F1F1F1" transform="translate(107,32)"/>
<path d="M0 0 C0.33 0 0.66 0 1 0 C0.94457031 0.88558594 0.88914062 1.77117188 0.83203125 2.68359375 C0.7712455 14.36661566 4.75552366 23.59036632 13 32 C16.87453812 35.01581625 21.06794673 37.247158 25.49609375 39.3359375 C28.35475759 40.69356381 30.67632395 41.87243983 33 44 C33 44.66 33 45.32 33 46 C45.6892103 47.2411241 56.48556924 47.50019158 68.56640625 43.12890625 C71.66311062 42.1107634 73.78660065 41.74712212 77 42 C71.28140108 47.71859892 59.67798272 49.76023505 51.88476562 50.15966797 C48.75626738 50.12136181 45.67975559 49.95169532 42.5625 49.6875 C41.58643799 49.61112305 40.61037598 49.53474609 39.60473633 49.45605469 C33.60944582 48.76943881 31.08217656 47.62600784 27 43 C25.29778517 42.00219668 25.29778517 42.00219668 23.3984375 41.17578125 C12.39335953 36.15723665 5.80806135 29.49736754 0.82177734 18.37939453 C-1.26108693 12.34861757 -0.84025073 6.22973771 0 0 Z " fill="#F5F5F5" transform="translate(425,608)"/>
<path d="M0 0 C0.33 0 0.66 0 1 0 C2.52809669 12.1939029 0.6312848 20.88389628 -6.51171875 31.01171875 C-11.27774117 36.95433128 -17.40191605 39.97104286 -24.22167969 43.0402832 C-26.32041571 44.07829136 -26.32041571 44.07829136 -28.84765625 46.625 C-33.15569922 49.87071267 -36.83978632 50.24876247 -42.125 50.6875 C-43.08116211 50.77290039 -44.03732422 50.85830078 -45.02246094 50.94628906 C-55.05274935 51.53669407 -64.90145945 49.29782912 -74 45 C-74.66 44.34 -75.32 43.68 -76 43 C-70.63113303 43.36399098 -66.34163456 44.20598813 -61.3125 46.125 C-51.80804393 49.27802958 -41.82728068 47.84154443 -32 47 C-32 46.34 -32 45.68 -32 45 C-30.453125 43.73828125 -30.453125 43.73828125 -28.25 42.3125 C-27.42886719 41.76980469 -26.60773438 41.22710938 -25.76171875 40.66796875 C-23 39 -23 39 -20.08203125 37.61328125 C-10.67765058 32.97800436 -4.6910304 25.78737868 -1 16 C0.19908802 10.69265369 0.24470423 5.41228181 0 0 Z " fill="#F6F6F6" transform="translate(175,607)"/>
<path d="M0 0 C0.495 0.99 0.495 0.99 1 2 C0.04896833 4.35914237 -0.96515249 6.58570247 -2.09375 8.859375 C-2.43162033 9.55164688 -2.76949066 10.24391876 -3.11759949 10.95716858 C-4.23330248 13.22749426 -5.36454216 15.48949429 -6.5 17.75 C-6.88548004 18.52153412 -7.27096008 19.29306824 -7.66812134 20.08798218 C-14.41668237 33.53181739 -22.14504716 45.83531167 -31 58 C-39.62271661 69.90506684 -46.71648931 80.40828972 -49.59179688 94.99072266 C-50.27567372 98.35693465 -51.15037029 101.67228363 -52 105 C-52.33 105 -52.66 105 -53 105 C-52.69470021 101.99642746 -52.35747825 98.99781028 -52 96 C-51.91911133 95.31599121 -51.83822266 94.63198242 -51.75488281 93.92724609 C-49.27983587 76.33704407 -38.10910055 62.98177327 -28 49 C-17.69625766 34.65242015 -9.93720242 19.46261054 -2.30004883 3.58178711 C-1 1 -1 1 0 0 Z " fill="#F7F7F7" transform="translate(390,510)"/>
<path d="M0 0 C3.04240905 2.59584817 4.39464991 5.56286121 6.08203125 9.15234375 C6.68180646 10.40659222 7.28268225 11.66031484 7.88452148 12.91357422 C8.19815643 13.57000916 8.51179138 14.22644409 8.83493042 14.902771 C14.94036897 27.61072872 21.73328641 39.11506755 30.13183594 50.46728516 C43.31691769 68.34261685 51.75092898 82.83682446 54 105 C52.51955796 102.26793942 51.63943531 99.84501655 51.0625 96.796875 C48.49158398 84.37140101 44.37123286 75.25507936 37 65 C36.01081282 63.59829513 35.02254993 62.19593758 34.03515625 60.79296875 C32.51122412 58.63562462 30.98551279 56.47960245 29.45605469 54.32617188 C20.78812418 42.10145813 13.57945832 29.51679184 6.875 16.125 C6.53286469 15.44281403 6.19072937 14.76062805 5.83822632 14.05776978 C4.86289674 12.106435 3.89463632 10.1517984 2.9296875 8.1953125 C2.08253174 6.47852295 2.08253174 6.47852295 1.21826172 4.72705078 C0 2 0 2 0 0 Z " fill="#F5F5F5" transform="translate(210,510)"/>
<path d="M0 0 C1.51172552 3.02345104 0.4146117 5.02490586 -0.4152832 8.26635742 C-0.65896133 9.23016327 -0.65896133 9.23016327 -0.90756226 10.21343994 C-1.44854309 12.3459015 -1.99958503 14.47562683 -2.55078125 16.60546875 C-2.92915132 18.08784751 -3.30692534 19.57037852 -3.68412781 21.05305481 C-4.6815419 24.96632846 -5.6876196 28.87732647 -6.6953125 32.78796387 C-7.51242651 35.96478547 -8.323574 39.14311505 -9.13435078 42.32155895 C-10.81545475 48.91153704 -12.50059659 55.50049249 -14.1965332 62.08666992 C-14.64740044 63.83967659 -14.64740044 63.83967659 -15.1073761 65.62809753 C-16.02652672 69.10020516 -17.00216117 72.54982068 -18 76 C-18.66 75.67 -19.32 75.34 -20 75 C-20 70.38 -20 65.76 -20 61 C-19.67 61 -19.34 61 -19 61 C-18.67 63.31 -18.34 65.62 -18 68 C-17.78924332 67.16283951 -17.57848663 66.32567902 -17.36134338 65.46315002 C-15.37846401 57.5894388 -13.39224718 49.71657884 -11.40223789 41.84466648 C-10.37917489 37.79721926 -9.3574241 33.74945004 -8.33862305 29.70092773 C-7.35612485 25.79686681 -6.37024413 21.89367469 -5.38197136 17.9910717 C-5.00476387 16.49897901 -4.62879448 15.00657277 -4.25406075 13.51385689 C-3.73063239 11.42970968 -3.20288755 9.34670183 -2.67407227 7.26391602 C-2.22439842 5.48187523 -2.22439842 5.48187523 -1.76564026 3.66383362 C-1 1 -1 1 0 0 Z " fill="#F0F0F0" transform="translate(567,167)"/>
<path d="M0 0 C8.84175658 0.63751896 17.59667267 1.64772051 26.375 2.875 C27.60605469 3.03613281 28.83710937 3.19726562 30.10546875 3.36328125 C31.29527344 3.52957031 32.48507813 3.69585937 33.7109375 3.8671875 C34.77618652 4.01269043 35.84143555 4.15819336 36.93896484 4.30810547 C40.30364618 5.06863401 42.98439666 6.34675576 46 8 C42.04425442 9.31858186 38.82767101 8.48976281 34.82421875 7.78515625 C34.02143997 7.65056503 33.21866119 7.51597382 32.39155579 7.37730408 C29.82231924 6.94590457 27.25484401 6.5050129 24.6875 6.0625 C22.13075057 5.62437214 19.57370182 5.18844878 17.01557922 4.75840759 C15.42423931 4.49066958 13.83367918 4.21824162 12.24406433 3.94044495 C8.10951985 3.24241163 4.21206913 2.8560226 0 3 C0 2.01 0 1.02 0 0 Z " fill="#EAEAEA" transform="translate(33,507)"/>
<path d="M0 0 C-0.33 0.99 -0.66 1.98 -1 3 C-1.71687988 3.04825928 -2.43375977 3.09651855 -3.17236328 3.14624023 C-10.82729539 3.71563068 -18.31240943 4.76697147 -25.875 6.0625 C-28.03829861 6.43287518 -30.20234604 6.79890826 -32.3671875 7.16015625 C-33.30675293 7.32136963 -34.24631836 7.48258301 -35.21435547 7.64868164 C-38.17047054 8.02149931 -41.02360479 8.05900101 -44 8 C-40.51329432 4.76633464 -36.93660596 4.22036471 -32.3828125 3.61328125 C-31.6480368 3.50654587 -30.91326111 3.39981049 -30.15621948 3.2898407 C-28.60542218 3.06683041 -27.05380104 2.84948465 -25.50146484 2.63745117 C-23.13836243 2.31432714 -20.77821142 1.97418977 -18.41796875 1.63085938 C-16.90639261 1.41566255 -15.39467769 1.20143789 -13.8828125 0.98828125 C-12.83252365 0.83834465 -12.83252365 0.83834465 -11.76101685 0.68537903 C-7.81064911 0.15012849 -3.98521035 -0.09817509 0 0 Z " fill="#FAFAFA" transform="translate(567,507)"/>
<path d="M0 0 C-0.33 0.99 -0.66 1.98 -1 3 C-2.98263388 3.71666404 -4.98638881 4.3756488 -7 5 C-8.88127845 6.04129128 -10.73041902 7.14232379 -12.546875 8.29296875 C-13.55621094 8.92267578 -14.56554687 9.55238281 -15.60546875 10.20117188 C-17.71828309 11.53578814 -19.83025015 12.87174658 -21.94140625 14.20898438 C-22.94558594 14.83482422 -23.94976563 15.46066406 -24.984375 16.10546875 C-25.89928711 16.68449951 -26.81419922 17.26353027 -27.75683594 17.86010742 C-28.49708008 18.23627197 -29.23732422 18.61243652 -30 19 C-30.66 18.67 -31.32 18.34 -32 18 C-28.87664699 14.53815553 -25.42781931 12.33423122 -21.375 10.125 C-20.12433853 9.43087798 -18.87434257 8.73555558 -17.625 8.0390625 C-17.01140625 7.6977832 -16.3978125 7.35650391 -15.765625 7.00488281 C-12.46922009 5.12877626 -9.27759359 3.07913855 -6.0859375 1.03125 C-4 0 -4 0 0 0 Z " fill="#F6F6F6" transform="translate(586,439)"/>
<path d="M0 0 C3.85250827 0.5843644 6.62648283 1.71587558 9.9765625 3.6875 C10.894375 4.22117187 11.8121875 4.75484375 12.7578125 5.3046875 C13.70398437 5.86414063 14.65015625 6.42359375 15.625 7 C17.5116555 8.10649795 19.39961961 9.21076851 21.2890625 10.3125 C22.12131348 10.80363281 22.95356445 11.29476563 23.81103516 11.80078125 C26.06758383 13.1216819 26.06758383 13.1216819 29 14 C30.6875 16.5625 30.6875 16.5625 32 19 C28.06583601 17.55977072 24.67236545 15.69163217 21.11328125 13.48828125 C20.01048828 12.81345703 18.90769531 12.13863281 17.77148438 11.44335938 C16.03147364 10.3731725 14.29312203 9.30047536 12.55737305 8.22338867 C10.87198615 7.17969337 9.18022662 6.14631065 7.48828125 5.11328125 C6.48321533 4.49235596 5.47814941 3.87143066 4.44262695 3.23168945 C3.63656006 2.82523193 2.83049316 2.41877441 2 2 C1.01 2.495 1.01 2.495 0 3 C0 2.01 0 1.02 0 0 Z " fill="#F5F5F5" transform="translate(14,439)"/>
<path d="M0 0 C-2.89642841 2.35082212 -5.65356331 3.83519406 -9.125 5.1875 C-10.42824219 5.70376953 -10.42824219 5.70376953 -11.7578125 6.23046875 C-14 7 -14 7 -16 7 C-15.67 7.99 -15.34 8.98 -15 10 C-15.97839844 10.18175781 -15.97839844 10.18175781 -16.9765625 10.3671875 C-21.78646342 11.28943989 -26.39025465 12.30167277 -31 14 C-31 13.01 -31 12.02 -31 11 C-29.4188708 10.49307308 -27.83498617 9.99473557 -26.25 9.5 C-25.36828125 9.2215625 -24.4865625 8.943125 -23.578125 8.65625 C-21 8 -21 8 -17 8 C-17 7.01 -17 6.02 -17 5 C-15.10908264 4.15557119 -13.21202485 3.32488413 -11.3125 2.5 C-10.25675781 2.0359375 -9.20101562 1.571875 -8.11328125 1.09375 C-5.14372184 0.05049199 -3.10804937 -0.23065301 0 0 Z " fill="#EBEBEB" transform="translate(104,551)"/>
<path d="M0 0 C0 0.99 0 1.98 0 3 C-2.03949907 4.95697599 -4.05809441 6.73051733 -6.25 8.5 C-6.83652344 8.98597656 -7.42304687 9.47195312 -8.02734375 9.97265625 C-10.96220645 12.39309358 -13.93056449 14.75110666 -17 17 C-17.66 16.67 -18.32 16.34 -19 16 C-15.16771102 11.99185072 -11.07477678 8.57171247 -6.6875 5.1875 C-6.04232422 4.68541016 -5.39714844 4.18332031 -4.73242188 3.66601562 C-3.15732875 2.44094319 -1.57899684 1.2200368 0 0 Z " fill="#F9F9F9" transform="translate(73,87)"/>
<path d="M0 0 C6.18160604 0.53753096 11.326858 2.54582388 17 5 C16.67 5.99 16.34 6.98 16 8 C10.72 5.69 5.44 3.38 0 1 C0 0.67 0 0.34 0 0 Z " fill="#F4F4F4" transform="translate(496,551)"/>
<path d="M0 0 C4.97093824 0.41153737 9.44508386 0.79600832 14 3 C13.67 3.99 13.34 4.98 13 6 C12.40832031 5.79503906 11.81664062 5.59007812 11.20703125 5.37890625 C7.16339184 4.0002429 3.23144751 2.68249153 -1 2 C-0.67 1.34 -0.34 0.68 0 0 Z " fill="#F0F0F0" transform="translate(513,559)"/>
<path d="M0 0 C0 0.66 0 1.32 0 2 C-4.62 3.32 -9.24 4.64 -14 6 C-14 5.01 -14 4.02 -14 3 C-12.4188708 2.49307308 -10.83498617 1.99473557 -9.25 1.5 C-7.92742187 1.08234375 -7.92742187 1.08234375 -6.578125 0.65625 C-4 0 -4 0 0 0 Z " fill="#F4F4F4" transform="translate(87,559)"/>
<path d="M0 0 C-0.33 0.99 -0.66 1.98 -1 3 C-2.9812585 3.72045764 -4.98504093 4.38001259 -7 5 C-7.9075 5.556875 -8.815 6.11375 -9.75 6.6875 C-10.4925 7.120625 -11.235 7.55375 -12 8 C-12.66 7.67 -13.32 7.34 -14 7 C-12.42516875 5.82188197 -10.83977627 4.65787174 -9.25 3.5 C-8.36828125 2.8503125 -7.4865625 2.200625 -6.578125 1.53125 C-4 0 -4 0 0 0 Z " fill="#F8F8F8" transform="translate(586,439)"/>
<path d="M0 0 C0 4.34199419 -2.0942792 6.17435219 -4.91015625 9.32421875 C-7.2902198 11.23271831 -8.42746172 11.52682744 -11.4375 11.5 C-12.613125 11.335 -13.78875 11.17 -15 11 C-15 10.67 -15 10.34 -15 10 C-12.69 10 -10.38 10 -8 10 C-7.79375 9.46375 -7.5875 8.9275 -7.375 8.375 C-5.42003056 4.9982346 -2.81776305 2.69525161 0 0 Z " fill="#FAFAFA" transform="translate(191,311)"/>
<path d="M0 0 C0.33 0.66 0.66 1.32 1 2 C-0.43359375 4.6015625 -0.43359375 4.6015625 -2.4375 7.625 C-3.09621094 8.62789062 -3.75492187 9.63078125 -4.43359375 10.6640625 C-4.95050781 11.43492187 -5.46742188 12.20578125 -6 13 C-6.66 12.34 -7.32 11.68 -8 11 C-5.36 7.37 -2.72 3.74 0 0 Z " fill="#EDEDED" transform="translate(366,554)"/>
<path d="M0 0 C1.98567708 0.09765625 3.97135417 0.1953125 5.95703125 0.29296875 C6.28703125 0.95296875 6.61703125 1.61296875 6.95703125 2.29296875 C1.01703125 2.78796875 1.01703125 2.78796875 -5.04296875 3.29296875 C-2.04296875 0.29296875 -2.04296875 0.29296875 0 0 Z " fill="#F2F2F2" transform="translate(528.04296875,511.70703125)"/>
<path d="M0 0 C0.33 0 0.66 0 1 0 C1 3.63 1 7.26 1 11 C1.66 11 2.32 11 3 11 C2.34 12.32 1.68 13.64 1 15 C0 14 0 14 -0.09765625 10.83984375 C-0.08025391 8.90818359 -0.08025391 8.90818359 -0.0625 6.9375 C-0.05347656 5.64714844 -0.04445313 4.35679687 -0.03515625 3.02734375 C-0.02355469 2.02832031 -0.01195312 1.02929688 0 0 Z " fill="#D5D5D5" transform="translate(547,228)"/>
<path d="M0 0 C-1 3 -1 3 -3.4375 4.75 C-4.7059375 5.36875 -4.7059375 5.36875 -6 6 C-6.66 5.67 -7.32 5.34 -8 5 C-3.16129032 0 -3.16129032 0 0 0 Z " fill="#EAEAEA" transform="translate(562,452)"/>
<path d="M0 0 C3.75376152 1.25125384 4.24073289 2.5652404 6 6 C6 6.66 6 7.32 6 8 C5.34 8 4.68 8 4 8 C0 2.58823529 0 2.58823529 0 0 Z " fill="#EEEEEE" transform="translate(378,311)"/>
<path d="M0 0 C2.31 0.66 4.62 1.32 7 2 C7 2.66 7 3.32 7 4 C2.545 3.01 2.545 3.01 -2 2 C-1.34 1.34 -0.68 0.68 0 0 Z " fill="#EBEBEB" transform="translate(153,320)"/>
</svg>
