<?xml version="1.0" standalone="no"?>
<!DOCTYPE svg PUBLIC "-//W3C//DTD SVG 20010904//EN"
 "http://www.w3.org/TR/2001/REC-SVG-20010904/DTD/svg10.dtd">
<svg version="1.0" xmlns="http://www.w3.org/2000/svg"
 width="534.000000pt" height="902.000000pt" viewBox="0 0 534.000000 902.000000"
 preserveAspectRatio="xMidYMid meet">

<g transform="translate(0.000000,902.000000) scale(0.100000,-0.100000)"
fill="#000000" stroke="none">
<path d="M2602 8428 l-73 -593 -117 -267 -117 -267 -185 -85 -185 -85 -225
-42 -225 -41 -189 66 c-104 36 -192 64 -194 61 -3 -3 22 -126 55 -275 l60
-270 -46 -223 -47 -224 -103 -165 -104 -164 -236 -155 -236 -156 -207 -43
c-115 -24 -208 -46 -208 -49 0 -3 69 -39 153 -79 l152 -73 254 -232 253 -232
140 -355 139 -355 -1 -254 -1 -254 -49 -216 c-28 -118 -50 -217 -50 -220 0 -2
135 185 300 417 165 232 300 424 300 428 0 3 -33 45 -74 92 -293 346 -440 780
-423 1247 24 664 370 1228 908 1484 201 96 374 131 649 131 283 0 450 -35 665
-139 483 -234 813 -720 891 -1314 20 -149 14 -414 -11 -557 -61 -343 -207
-644 -434 -900 -22 -25 -41 -48 -41 -52 0 -14 594 -841 597 -831 2 5 -19 107
-47 227 l-50 217 0 252 0 252 139 355 140 355 243 223 243 223 168 83 169 82
-209 44 -208 43 -240 158 c-200 132 -244 165 -266 201 -14 24 -61 98 -104 166
l-78 123 -47 226 -46 226 58 256 c31 141 58 261 58 268 0 7 -74 -14 -187 -54
l-188 -65 -230 43 -230 43 -184 85 -183 86 -118 270 -118 270 -71 580 c-40
319 -73 583 -74 588 -1 4 -35 -259 -75 -585z"/>
<path d="M2654 6372 c-20 -125 -12 -115 -109 -127 -47 -7 -151 -37 -222 -66
-32 -13 -34 -13 -83 36 -27 27 -50 54 -50 60 -1 5 -25 36 -54 68 l-53 57 14
-47 c8 -27 19 -57 23 -68 5 -11 14 -40 21 -65 6 -25 14 -49 19 -55 4 -5 10
-22 14 -36 5 -24 -2 -33 -63 -83 -38 -31 -96 -90 -130 -131 -63 -75 -65 -76
-116 -55 -11 5 -63 22 -115 38 -52 17 -104 33 -115 37 -11 4 -1 -11 25 -34 25
-23 70 -66 100 -95 30 -30 63 -56 73 -60 23 -7 22 -26 -7 -105 -23 -66 -39
-134 -51 -222 l-6 -47 -62 -6 c-34 -4 -66 -10 -72 -14 -5 -4 -16 -7 -23 -8 -8
-2 -46 -8 -85 -15 l-72 -12 60 -14 c56 -13 186 -39 229 -47 26 -4 31 -15 49
-111 8 -44 28 -114 45 -155 l30 -75 -66 -66 c-37 -37 -70 -65 -73 -63 -3 2
-25 -17 -49 -41 -41 -42 -42 -57 -2 -36 32 18 254 80 265 75 7 -3 30 -27 52
-55 34 -42 116 -116 177 -161 15 -11 16 -19 7 -53 -5 -22 -14 -49 -19 -60 -20
-44 -61 -177 -58 -187 2 -5 18 10 35 34 18 24 63 76 101 117 l68 75 75 -25 74
-24 5 -242 5 -242 34 -35 33 -34 -6 -294 c-3 -161 -8 -466 -11 -678 -3 -212
-10 -659 -15 -995 -5 -335 -10 -711 -11 -835 l-1 -225 -52 -131 -53 -131 -5
-219 -6 -219 119 -78 c115 -74 122 -77 179 -77 57 0 63 3 185 82 l125 82 -6
216 -6 215 -50 130 -51 130 -23 1520 -23 1520 34 35 35 36 0 237 0 236 70 22
69 21 46 -38 c25 -21 45 -42 45 -47 0 -10 132 -158 137 -153 2 2 -19 72 -47
156 -28 84 -50 153 -48 154 36 20 135 106 182 159 l63 70 94 -31 c169 -54 201
-63 207 -57 7 7 -58 75 -72 75 -6 0 -43 32 -82 71 l-71 70 33 87 c18 48 38
119 45 157 7 39 17 75 23 81 6 7 49 19 96 28 47 8 114 21 150 29 70 14 65 19
-35 32 -27 3 -59 10 -70 15 -11 5 -47 13 -80 17 l-60 8 -17 100 c-9 54 -28
132 -42 171 -27 74 -33 109 -18 100 5 -3 24 11 43 31 19 19 64 62 102 94 37
33 64 59 60 59 -8 0 -188 -58 -218 -70 -48 -19 -56 -19 -74 3 -92 108 -125
143 -183 192 -38 32 -68 58 -68 59 0 1 38 108 53 146 14 38 27 84 27 94 0 6
-42 -34 -93 -88 l-93 -99 -69 28 c-38 15 -105 34 -150 42 -139 26 -127 15
-146 125 -9 54 -19 103 -21 110 -3 7 -13 -38 -24 -100z"/>
</g>
</svg>
