<?xml version="1.0" encoding="utf-8"?>
<!-- Generator: Adobe Illustrator 27.0.0, SVG Export Plug-In . SVG Version: 6.00 Build 0)  -->
<svg version="1.1" id="Layer_1" xmlns="http://www.w3.org/2000/svg" xmlns:xlink="http://www.w3.org/1999/xlink" x="0px" y="0px"
	 viewBox="0 0 445 923" style="enable-background:new 0 0 445 923;" xml:space="preserve">
<g transform="translate(0.000000,792.000000) scale(0.100000,-0.100000)">
	<path d="M2318.6,7808.5c-98.7,22.6-115.6,22.9-216.4,3.1c-59.6-11.9-112.1-25.3-115.7-28.7c-15.8-15.3,12.1-144.4,45.8-209.3
		c40.6-77.7,41.1-89.7,12-341c-10.5-88.2-17.4-221.8-17-296.8c0.3-75,2-299.2,2-498.6c0.7-198.7,1.3-400.3,2.7-447.7
		c0.7-46.7-3.4-85.5-10.4-85.4c-5.7,0.1-30.2,15.3-54.7,33.3l-44.1,33.9l-41.7-44.7l-41.7-44.7l-162.5,13.7
		c-89.7,7.7-222.4,22.3-295.8,33.3c-72.7,11.7-140.5,15.5-150.5,10c-9.3-6.2-34.3-22.1-54.3-37.4l-37.9-27l53.2-86.3
		c87.1-141.3,71.6-135.4,161.1-61c86.6,71.6,63.2,67,235.5,50.3c45.2-4.9,113.7-10.8,150.4-12.8c37.4-2.7,83.4-5.4,102.4-6.4
		l33.9-1.9l36.8-96.7c19.8-51.9,35.3-100.9,33.1-107.3c-1.5-7-22.3-23-46.5-36.8l-43.5-24.1l2.3-84.2c0-46,1.4-149.2,2.3-229.2
		c0.2-80.6,1.9-208.6,3-284.3s1.8-267.3,3-426.5c1.2-159.1,4.9-295,9.8-301.4c6.9-11.4,44.2,22,299.6,275.7l292,290.7l3.8,113.8
		c10.3,323.7,23.8,621.3,26.8,628.3c1.5,4.2-15.3,18.6-38.4,31s-44.9,26.1-47.7,29c-6.3,6.5,30.7,117.7,58.5,179.5
		c13.9,31.6,15.3,31.6,110.2,37.3c53.1,2.8,99.8,4.9,104,4.9c4.2-0.1,62.3,3.3,128.8,8c110.4,6.9,123.1,5.3,146.1-18.4
		c35.6-35.2,115.9-103.5,123-103.6c3.5-0.8,37.4,44.7,75.7,100l69.3,100.8l-39.8,32.4c-21.7,16.6-47.6,34.6-56.7,39.7
		c-9.1,3.7-70.7,1-136.6-7.2c-65.2-9-197.6-19.1-293.8-24.7l-174.1-10.2l-41,48l-41.7,47.3l-45.8-36.1c-25-18.7-50-34.6-54.2-33.2
		c-7.7,2.2-7.1,46.1,7.5,516.1c23.8,764.8,24.7,679.2-6.6,1011.4c-4.3,47.4,0.3,67.2,33,129.6c38.5,72.3,73,207.6,56.9,221.2
		C2429.9,7781.4,2377.8,7794.9,2318.6,7808.5z"/>
	<path d="M748.2,3479.1l5-1861.7l40-236.1l40-236.1l162-149.2c159-146.8,166-151.6,408-302.4c209-129.5,270-172.9,405-285.8
		c87-73.4,199-172.9,248-220.3l89-87.6l81,79c205,201.3,394,348.2,667,518.7c186,115.3,251,161.1,319,223.4
		c47,43.4,121,111.3,166,151.6c74,67.1,82,76.6,88,115.3c3,23.7,20,120.8,37,216.3l30,173.7l5,1129c11,2677.2,11,2633.8-4,2629.1
		c-7-1.6-83-45-168-95.5c-199-116.8-309-159.5-478-184.7c-98-14.2-137-16.6-220-11.8c-96,4.7-108,7.9-231,52.9l-130,46.6l-80,97.1
		l-80,96.3l-83-97.9c-71-82.9-89-99.5-125-111.3c-23-7.9-80-29.2-127-46.6c-78-29.2-94-32.4-195-37.1c-94-3.9-127-2.4-230,14.2
		c-167,26.8-268,67.1-470,186.3c-88,52.1-163,95.5-167,95.5S745.2,4502.3,748.2,3479.1z"/>
	<path d="M2319.5,2035.8c-30.1-27.9-116.9-109.3-191.4-180.4l-136.3-131l5.7-538.2c3.5-296.4,6.1-555.9,5.8-575.7
		c0.4-20.5,0.8-88.4,0.6-152.8c0.5-63.7,3.2-314.7,5.4-558c5.5-401.8,8.8-464,43.1-688.7c20-135.4,45.1-307.6,56-383.4
		c10.2-75.1,20.6-137.5,23.5-137.5c2.1,0.7,12,50.7,22.1,112.1c9.4,60.7,26.3,159.4,36.4,218c60.5,319.5,81.5,454.2,84.9,541.2
		c4.5,113.1,25.6,645.3,25.8,656.6c0.9,10.6,10.1,259.4,17.5,426.9c7.7,192.9,16.5,406.4,21.5,559.1c3.1,68.6,10.6,244.5,16.3,392.2
		c6.4,147,13.1,318,14.7,379.5l3,111.7L2319.5,2035.8z"/>
</g>
</svg>
