<?xml version="1.0" encoding="UTF-8"?>
<svg id="Layer_1" data-name="Layer 1" xmlns="http://www.w3.org/2000/svg" viewBox="0 0 501.77 830.22">
  <defs>
    <style>
      .cls-1 {
        fill: #fff;
      }
    </style>
  </defs>
  <path d="M295.77,.42c-.3,.3-4.8,.8-10,1.2-11.1,.7-26.6,2.8-36.5,5-8,1.7-22.5,6-25.2,7.4-2.2,1.1-14.1,5.3-16.7,5.8-1,.2-2.3,.7-3,1.2-.6,.5-5,3-9.8,5.5-4.9,2.5-10.1,5.5-11.7,6.6-1.6,1.2-3.2,2.1-3.6,2.1s-5.1,3-10.4,6.7c-29.4,20.5-54.5,47.8-71.8,78.3-7.8,13.8-18.2,41.2-20.8,55-3.5,18.2-4.6,51.4-2.4,67.7,1.2,9.4,8,33.7,11.6,41.3,5.6,12.3,11.8,23.8,15.3,28.5,2,2.7,4.9,6.8,6.5,8.9,4.7,6.4,15.2,17.2,25.1,25.7,5.1,4.3,9.5,7.9,9.8,7.9,.4,0,2.9,1.7,5.6,3.7,7.3,5.7,16.2,11.2,28.5,17.8,12.8,6.9,22.3,12.6,24.4,14.9,3.1,3.3,4,8.2,4.1,21.3,0,10.2-.2,11.3-1.8,11.3-1.8,0-8.2,5.8-8.2,7.5,0,.5-1.9,2.9-4.2,5.3l-4.3,4.3,.2,79.2c.1,43.6,.4,84.6,.6,91.2,.3,6.6,.8,22.8,1.2,35.9l.8,23.9-2.9-.7c-5.6-1.4-13.5-5.8-19.2-10.7-3.1-2.7-6-4.9-6.4-4.9s-1.7-1.8-2.8-3.9c-1.4-2.9-1.7-4.2-.8-4.7,.7-.5,.2-1.5-1.7-3-2.1-1.7-2.6-2.6-1.9-3.6,1.4-1.8,3.4-8.9,3.4-12,0-1.4-1.4-5.6-3.1-9.4-2.9-6.4-3.7-10.8-3.9-21.6,0-2.2-.7-3.1-3.5-4.2-2.1-.9-3.5-2.2-3.5-3.2s3-4.7,6.8-8.3c3.7-3.6,7.9-8.9,9.4-11.7,3.9-7.2,6.1-16.7,5.3-22.2l-.7-4.5-6.5,.6c-3.5,.4-7.9,1.3-9.5,2.2-7.4,3.6-7.7,.5-.7-7.8,2.7-3.3,5.8-7.6,6.8-9.6,4.4-8.8,5.1-21.2,1.7-28-2.4-4.5-7.9-6.6-13.1-5.1-2.2,.7-5,2.1-6.4,3.1-3.5,2.8-6.8,2.4-8.6-1-1.3-2.6-1.3-3.6,.4-10.3,6.2-24.5,1.1-52.6-10.6-58.2-6.8-3.2-9.4-2-14.5,6.7-4.5,7.8-7.8,6.2-13.5-6.1-1.8-4.1-4.7-9.4-6.3-11.8-1.7-2.4-4.3-7.2-5.9-10.6-1.5-3.5-4.9-8.6-7.5-11.5-5.5-6.1-16.2-12.1-19.2-10.8-1.1,.5-3.2,.9-4.7,1-9.2,.8-18,21.9-22.7,54.5-.8,5.6-.5,19.3,.5,24.1,.9,4.1-1.4,5.6-8.7,5.8-3.5,.1-7.1,.4-8.1,.7-2.2,.7-5.3,7.5-6.2,13.7-2.1,13.8,8.1,35.1,21.7,45.4,2.9,2.2,6.6,5.3,8.2,6.7,1.5,1.5,4.5,3.8,6.5,5,5,3.3,9.7,8.4,8.5,9.5-.5,.4-3,1.6-5.6,2.6-7.7,2.8-12.8,10-12.8,18,0,9.1,14.5,20.5,26,20.5,2.1,0,5.4,.7,7.5,1.6,2.3,.9,6.7,1.5,11.6,1.5,5.8,0,9.2,.5,12.7,2,4.2,1.9,4.5,2.2,2.8,3.3-5.6,3.4-6.8,4.9-6.1,7.5,1,4,4.8,8.4,9.1,10.6,2.2,1.1,5,2.9,6.4,4.1,3.5,2.9,19.9,14.4,20.6,14.4,.3,0,4.4,1.9,9.2,4.2,6.7,3.2,9.8,4.2,13.5,4.1,4.7-.1,4.9,0,13.6,8.6,4.9,4.8,10.8,10.3,13.2,12.2,2.3,1.8,6.4,5.5,8.9,8s6.5,5.6,8.7,6.7l4,2.1-.2,24.3c-.2,25.7-.5,27.8-5.2,34.5-1.3,1.7-2.3,3.6-2.3,4.1,0,.6-.9,1.3-1.9,1.7-3.6,1.1-9.1,8.2-9.1,11.8,0,1.8-.5,3.8-1.1,4.4-.8,.8-1.4,7.3-1.7,18l-.4,16.8,6.6,5.8c3.6,3.2,8.6,6.7,11,7.8,4.9,2.1,11.6,8.5,11.6,11,0,.8,1.3,2.7,2.8,4.2,2.5,2.4,3.5,2.7,10.4,2.7,4.2,0,8-.5,8.3-1,.3-.6,4.8-1,9.8-1,13.9-.1,20.5-4.1,25.7-15.7,4.8-10.8,6.6-34.6,3.1-41.8-1.3-2.7-2-6.8-2.3-13l-.4-9,12.8-12.8c7-7.1,13.1-12.6,13.7-12.3,.5,.4,1.2-.3,1.6-1.4,.3-1.1,1.2-2.6,1.9-3.3,.7-.6,1.9-2.4,2.7-3.8s2.4-4.1,3.7-6.1l2.3-3.6,2.9,2.9c2.2,2.3,3.5,2.8,5.7,2.4,5.9-1,22.1-9.2,31.7-16,5.4-3.9,12.2-8.5,15.2-10.3,5.8-3.5,10.8-9.9,10.2-12.9-.2-1-1.8-2.7-3.5-3.8-1.8-1.1-3.2-2.5-3.3-3.2,0-1.9,9-4.2,16.6-4.2,3.8,0,8.3-.5,10-1.2,1.6-.7,5.6-1.5,9-1.9,6.6-.8,13.4-3.7,18.8-8.2,6.2-5.1,8-11.3,5.3-18.8-2.2-6.4-4.3-8.5-11.1-11.4-3.6-1.6-6.6-3.1-6.6-3.5,0-1,5.9-6.4,10-9.1,1.9-1.3,4-2.8,4.5-3.4,.6-.6,4.4-3.9,8.6-7.3,8.6-7,11.5-10.5,16.4-19.8,6.7-12.5,8-25.2,3.6-34.9-2.4-5.1-3.3-5.5-11.9-5.7-7.3-.2-9.6-1.7-8.8-5.8,1.8-8.6,1.5-21.3-.9-33.6-5.7-29.6-12.3-43.9-20.8-44.9-1.2-.1-3.4-.6-4.8-1-3.8-1.1-13.7,4.3-19.4,10.6-2.4,2.7-5.8,7.9-7.6,11.6-1.7,3.6-4.3,8.4-5.9,10.7-1.5,2.2-3.5,5.8-4.5,8-.9,2.2-2.3,5.3-3.1,7-1.9,4.5-5.3,7.7-7.7,7.3-1.3-.2-3.2-2.3-5.2-5.6-1.7-2.9-3.8-5.7-4.6-6.3-3.7-2.3-11.2,.4-14.6,5.4-2.6,3.9-6.9,17.3-7.8,24.2-.8,6.2,1,23.8,3.1,31,1.4,4.9,1.4,5.7-.1,8.4-1.8,3.6-3.8,3.9-8.2,1.2-1.7-1.1-4.9-2.5-7-3.1-4.9-1.5-10.6,.7-12.7,4.8-3.5,6.8-2.8,19.9,1.5,28.3,1,2,4.1,6.3,6.8,9.6,4.6,5.5,6.4,9.4,4.4,9.3-.5-.1-3.3-.9-6.3-2s-7.6-1.9-10.2-2h-4.7l-.6,4.4c-.8,5.3,1.5,14.9,5.3,22,1.5,2.7,6,8.3,10,12.3,4.2,4.2,7,7.7,6.6,8.4-.3,.6-2.2,1.7-4,2.5-2.7,1.1-3.4,2-3.4,4.2-.2,11.7-1,16.2-4,22.3-3.2,6.3-3.2,6.4-2,13.2,1,5.6,1,7.1,0,7.7-.7,.4-2.5,3.1-3.9,5.8-1.4,2.8-4.3,7.3-6.4,10-4.9,6.6-17.4,16.9-18.8,15.5-.9-.9-1.6-25.6-2.3-87.3-.2-12.9-.7-24.3-1.1-25.4-.4-1-.5-18.8,0-39.5,1.2-59.1,1.3-95.2,.3-100.8-.6-3.3-.5-8.8,.2-15,2.1-18.9,2.4-29.1,1-33.6-1.4-4.4-8.4-12.7-10.8-12.7-1.4,0-1.2-5.8,.8-23.5,2.4-21.1,3.4-39.6,2.2-41.6-.7-1-1.2-2.5-1.2-3.2s-1.1-2.4-2.4-3.6c-2.2-2.1-3.2-2.2-12.9-2l-10.4,.3-5.9-5c-3.2-2.8-12-9.7-19.4-15.3-19.2-14.6-27.7-22.6-35.8-33.8-15.6-21.8-24.3-43.4-27.3-67.4-2.4-19.7,3.5-47.7,15.3-71.9,13.9-28.9,36.9-55,61.7-70.5,.9-.6,2.7-1.7,4.1-2.6s5.4-3.2,9-5.1,7.4-3.9,8.5-4.6c11.6-6.6,57-19.8,74.5-21.7,3-.4,8.9-1,13-1.5s16.9-1.2,28.3-1.6c16-.6,21-1,21.4-2.1,.4-1,3.6-1.3,13.7-1.3,13.8,0,26.8,2,38.8,6.1,3.1,1,7,1.9,8.5,2,1.5,0,6.6,.9,11.3,2s13,2.9,18.5,4c11,2.3,22.3,5,33,8.1,3.9,1.1,8.5,1.8,10.3,1.6l3.2-.3-10.7-10.8c-11.6-11.7-21.9-19.3-30.6-22.5-2.9-1.1-9.7-4.6-15-7.6-5.3-3.1-9.9-5.6-10.1-5.6s-3-1.2-6.2-2.7c-6.8-3.1-10.3-4.2-27.4-8.2-12.1-2.9-16.9-3.8-33-6-18.5-2.6-71.5-5.4-73-3.9Zm-.5,701.8c-.3,.5-1.3,1-2.1,1s-1.2-.5-.9-1c.3-.6,1.3-1,2.1-1s1.2,.4,.9,1Z"/>
  <ellipse cx="322.77" cy="225.72" rx="105" ry="108"/>
  <ellipse class="cls-1" cx="322.77" cy="225.72" rx="59.36" ry="61.06"/>
</svg>