<?xml version="1.0" encoding="UTF-8"?>
<svg id="Layer_1" data-name="Layer 1" xmlns="http://www.w3.org/2000/svg" viewBox="0 0 449.59 1088.2">
  <defs>
    <style>
      .cls-1 {
        fill: #fff;
      }
    </style>
  </defs>
  <g>
    <path d="M223.79,5.81c-.1,5.2-.7,18.3-1.2,29s-1.4,31.2-2,45.5-1.7,38.4-2.4,53.5l-1.4,27.5-10.7,57.4c-5.8,31.5-10.4,57.8-10.2,58.5,.3,.6,6.6,3.7,14.1,6.9l13.6,5.7,14.5-6.1c9.3-4,14.5-6.7,14.5-7.7,0-.8-3.6-21.1-8.1-45.1-13.8-74.6-13.7-74.2-14.3-92.6-.4-9.4-1.1-25.1-1.6-35s-1.7-35.8-2.5-57.5c-1.9-48.9-2.1-51.8-2.3-40Z"/>
    <path d="M53.09,224.31c.4,1.1,6.1,18.2,12.7,38,6.7,19.8,12.3,36.2,12.4,36.4,.8,.9,54.3,13,57.8,13.1h4l-11.5-11.8c-57-58.3-76.1-77.4-75.4-75.7Z"/>
    <path d="M351.69,268.01c-35.4,36.4-41.8,43.3-39.8,43.6,2.7,.4,56.5-12.2,57.6-13.4,.9-.9,25.2-73.4,24.7-73.4-.2,0-19.3,19.5-42.5,43.2Z"/>
    <path d="M220.59,324.51c-4.8,4.6-24.5,14.3-29.1,14.3-5.2,0-7.3-2.7-6.7-8.5,.3-2.5,.3-4.5-.1-4.5s-3.1,2.5-6.1,5.6c-3,3-7.7,7.2-10.5,9.3-2.7,2-9.3,6.9-14.5,10.8-14.2,10.5-32.8,19.3-49.5,23.4-7.6,1.8-10.5,2-19.2,1.5l-10.3-.7v6.6c0,10.2-3,15.1-12.3,19.8-4,2-9.4,4.2-12.2,4.8-2.7,.7-7,1.8-9.5,2.4-4,1.1-4.1,1.3-1.5,1.4,3.1,.1,13.3,4.5,18.2,7.9,1.5,1.1,8,4.7,14.3,8.2,13.9,7.5,29.3,17.7,37.6,24.6,3.3,2.8,7.8,6.3,10,7.6,2.1,1.4,6.6,5,9.9,7.9,3.3,3,9.8,8.6,14.5,12.5,5.9,5,9.9,9.3,13,14.3l4.5,7.1,5.2-.6c10.9-1.3,21.9,3.1,31.5,12.7,4.2,4.3,7.8,7,9.8,7.4,4.8,1.1,9.5,5.8,11,11q1.3,4.6,5.3,4.3c3.9-.3,4.1-.5,5.7-5.2,1.9-5.7,5.6-9.2,10.5-10.2,2.4-.4,4.4-1.8,6.5-4.4,4.2-5.3,12.6-11.5,18.5-13.6,3.2-1.1,8-1.8,13.5-1.8l8.4-.1,3.5-5.9c1.9-3.2,4.9-7.3,6.6-9,5.1-5.1,28.9-25.2,31.5-26.6,1.4-.7,5-3.4,8-6,8.6-7.4,22.2-16.5,35.9-24.2,6.9-3.9,15.1-8.5,18.1-10.3,9.1-5.4,12.1-6.7,16.9-7.4l4.6-.7-9.4-2.2c-6-1.4-12.1-3.7-16.8-6.3-9.2-5.1-12.3-10.2-12.3-19.9v-6.1l-9.6,.7c-10.6,.8-18.8-.6-31.9-5.4-9.6-3.4-24-10.5-29.6-14.4-16.1-11.3-23.3-16.9-30.1-23.4-4.3-4.1-8.3-7.4-8.9-7.4-.8,0-.9,1.4-.5,4.5,1.6,10.2-3.7,11.1-19.4,3.4-5.7-2.7-12.4-6.7-14.9-8.8l-4.6-3.8-3.5,3.4Zm-30,65.9c12.2,3.8,22,7.3,23.2,8.3,.4,.3-.9,6.7-2.9,14.2l-3.6,13.7,7.8,19.8c4.3,11,8,20.5,8.3,21.2,.2,.7,4.3-8.3,8.9-20l8.5-21.3-3.3-13c-1.8-7.2-3.4-13.5-3.6-14-.6-1.7,26.1-10.7,37.9-12.7,8.3-1.5,9.4-.7,13.7,9.6,7.9,18.9,6.4,40.7-4.1,58.4-1.8,3.1-6.2,8.6-9.8,12.2-7.6,7.5-14.8,12-25.2,15.8-6.6,2.4-8.6,2.7-21.8,2.7s-15.2-.3-21.8-2.7c-10.8-3.9-17.8-8.4-26.2-16.8-15.7-15.6-22.1-37.5-17.5-59.2,1.4-6.8,4.3-14.3,7.2-18.7,1.4-2.2,2-2.3,7.2-1.7,3.1,.3,10.8,2.2,17.1,4.2Zm-49.6,4.9c-.4,.8-.8,1.5-1,1.5s-.4-.7-.4-1.5,.4-1.5,1-1.5c.5,0,.7,.7,.4,1.5Z"/>
    <path d="M64.99,561.21l-29.9,23.4-3.8,10.9c-12.9,36.3-27,75.3-30.2,83.5-.8,2.1-1.3,3.8-1,3.8,.4,0,47.6-53.9,74-84.5,7.1-8.3,16.4-18.8,20.6-23.5,4.3-4.7,8.7-9.7,9.9-11.3l2.2-2.7-3.8-9.5c-2-5.2-4.7-10.4-5.9-11.5l-2.1-2-30,23.4Z"/>
    <path d="M351.39,540.61c-2.2,2.3-9.8,18.6-9.8,21,0,.4,3.2,4.3,7.1,8.7,3.8,4.4,13.9,15.8,22.2,25.4,57.3,65.9,78.7,90.2,78.7,89.8,0-.3-3.9-11-8.6-23.9-7.1-19.3-18.4-50.9-26.2-73-1.6-4.5-3.3-6-30.4-27.2-15.7-12.3-29-22.6-29.5-22.9-.6-.4-2.1,.6-3.5,2.1Z"/>
    <path d="M202.89,574.01c-12.8,3.4-19.3,5.5-19.3,6.4,0,.7,4.5,24.4,10.1,52.6l10,51.3,1.9,36.5c1,20.1,2.6,50,3.5,66.5s3.4,66.4,5.6,111c2.2,44.5,4.2,84.8,4.4,89.5,.3,4.7,1.4,27.6,2.5,51,2.5,53.4,2.6,54.5,2.8,44.5,.1-4.5,.9-21.1,1.7-37,.8-16,1.9-38.4,2.5-50,.5-11.6,2.5-51.8,4.4-89.5,2-37.7,4-78.9,4.6-91.5,.6-12.7,2.4-47.3,3.9-77l2.8-54,10.3-52.3c5.6-28.8,10-52.6,9.7-52.8-.8-.9-38.1-10.4-40.2-10.3-1.1,0-10.7,2.3-21.2,5.1Z"/>
    <path d="M127.89,583.61c-1.1,.7-36.4,212.6-36.2,217.1,0,1.4,.1,1.4,.6,.1,.3-.8,17.9-44.9,39.1-98,21.1-53.1,38.5-97.1,38.6-97.9,.1-1.3-37.4-22-39.9-22.1-.5,0-1.6,.4-2.2,.8Z"/>
    <path d="M298.19,593.31c-11,5.8-20.2,10.7-20.4,11-.2,.2,17.5,45.4,39.4,100.4s39.9,99.9,40.1,99.7c.1-.1-6.7-42.9-15.2-95.2-8.5-52.2-16.5-101-17.6-108.4-2.5-15.2-3.3-18-5.1-18-.7,0-10.3,4.8-21.2,10.5Z"/>
  </g>
  <ellipse class="cls-1" cx="224.71" cy="419.57" rx="67.73" ry="69.66"/>
  <ellipse cx="224.71" cy="419.57" rx="38.29" ry="39.38"/>
</svg>