<?xml version="1.0" encoding="UTF-8"?>
<svg id="Layer_1" data-name="Layer 1" xmlns="http://www.w3.org/2000/svg" viewBox="0 0 508.17 905.91">
  <defs>
    <style>
      .cls-1 {
        fill: #f0f0f0;
      }

      .cls-2 {
        fill: #f4f4f4;
      }

      .cls-3 {
        fill: #fff;
      }

      .cls-4 {
        fill: #fafafa;
      }

      .cls-5 {
        fill: #f6f6f6;
      }

      .cls-6 {
        fill: #f5f5f5;
      }

      .cls-7 {
        fill: #040404;
      }

      .cls-8 {
        fill: #e1e1e1;
      }

      .cls-9 {
        fill: #e6e6e6;
      }

      .cls-10 {
        fill: #030303;
      }

      .cls-11 {
        fill: #080808;
      }

      .cls-12 {
        fill: #e4e4e4;
      }

      .cls-13 {
        fill: #fbfbfb;
      }

      .cls-14 {
        fill: #ebebeb;
      }

      .cls-15 {
        fill: #e8e8e8;
      }

      .cls-16 {
        fill: #f7f7f7;
      }

      .cls-17 {
        fill: #efefef;
      }

      .cls-18 {
        fill: #f1f1f1;
      }

      .cls-19 {
        fill: #f3f3f3;
      }

      .cls-20 {
        fill: #d9d9d9;
      }

      .cls-21 {
        fill: #eee;
      }

      .cls-22 {
        fill: #f2f2f2;
      }

      .cls-23 {
        fill: #010101;
      }

      .cls-24 {
        fill: #060606;
      }

      .cls-25 {
        fill: #fcfcfc;
      }

      .cls-26 {
        fill: #ededed;
      }
    </style>
  </defs>
  <path class="cls-10" d="M497.69,0l4,1c.7,3.37,1.35,6.75,2,10.12q.29,1.37,.58,2.77c13.33,71.43-8.18,165.27-54.52,299.3q-.55,1.29-1.11,2.61c-4.97,11.61-11.1,20.93-19.42,30.41-2.54,2.95-4.9,6.03-7.29,9.1-.91,1.15-1.82,2.31-2.73,3.46-1.57,2-3.1,4.01-4.61,6.05-6.17,8.1-13.74,14.09-21.66,20.38-3.62,2.89-7.18,5.85-10.75,8.8-1.41,1.16-2.83,2.33-4.24,3.49-2.86,2.36-5.72,4.72-8.58,7.08-3.55,2.93-7.1,5.86-10.66,8.77-1.3,1.07-2.6,2.14-3.9,3.21-9.19,7.58-18.74,14.5-28.54,21.27-3.43,2.37-6.81,4.8-10.14,7.3-4.86,3.58-9.95,6.75-15.06,9.94-6.41,4.01-12.6,8.03-18.38,12.94-1,.84-2,1.68-3.03,2.55-2.24,1.89-4.47,3.78-6.7,5.68-2.97,2.53-5.99,5-9.02,7.46-1.75,1.43-3.5,2.87-5.25,4.31-.78,.64-1.56,1.29-2.37,1.95-5.99,5.11-10.77,10.88-15.63,17.05-1.45,1.8-2.91,3.59-4.38,5.38q-1.11,1.36-2.25,2.75c-2.1,2.54-4.23,5.05-6.36,7.56-5.71,6.7-11.22,13.53-16.6,20.5-1.02,1.31-2.05,2.61-3.09,3.9-4.14,5.2-7.67,10.54-11,16.28-1.05,1.78-2.1,3.55-3.15,5.33-.53,.89-1.05,1.78-1.6,2.69-2.37,3.95-4.84,7.84-7.31,11.73-4.59,7.23-9.13,14.49-13.62,21.78-1.03,1.68-2.07,3.35-3.11,5.03-6.26,10.16-11.82,20.51-17.14,31.19-.3,.61-.61,1.22-.92,1.85-5.43,10.89-10.76,21.84-15.94,32.85-1.15,2.42-2.32,4.83-3.49,7.24-6.22,12.8-11.55,25.89-16.77,39.13-1.22,3.09-2.45,6.18-3.67,9.26-.84,2.12-1.68,4.24-2.52,6.37-2.35,5.93-4.74,11.85-7.19,17.74-7.37,17.77-14.06,35.67-20.09,53.94-.94,2.85-1.9,5.68-2.87,8.52-6.25,18.19-10.56,35.04-11.57,54.37-.74,5.73-2.82,8.43-7.34,11.92-.89,.7-1.77,1.39-2.69,2.11q-2.31,1.57-4.31,1.57c-.14,1.3-.29,2.6-.44,3.94q-.44,3.94-1.56,5.06c-1.39,.22-2.79,.43-4.19,.62-6.14,1.12-11.14,3.98-16.52,7.01-3.75,1.55-5.46,1.52-9.3,.36-.99-.66-1.98-1.32-3-2,.1-1.26,.21-2.52,.31-3.81,.3-9.02-7.25-17.04-12.81-23.5-2.6-3.18-3.45-4.41-4.19-8.56,.18-1.38,.41-2.76,.69-4.12,.11-.96,.23-1.93,.35-2.92,.8-4.76,1.52-8,5.08-11.41,2.47-1.72,4.92-3.26,7.57-4.68-.35-.68-.7-1.36-1.06-2.06-1.94-6.07,.54-11.65,2.93-17.28,.56-1.41,1.13-2.82,1.69-4.22,.87-2.18,1.76-4.35,2.68-6.51,4.29-10.08,5.49-16.92,1.94-27.44-1.07-3.19-1.72-6.16-2.17-9.49,2.13-1.22,4.28-2.4,6.44-3.56,.59-.34,1.18-.68,1.79-1.04,3.74-1.98,6.28-2.58,10.51-1.99,.8,.11,1.6,.21,2.42,.32,.6,.09,1.21,.18,1.83,.27,.1-.62,.19-1.24,.29-1.88,2.86-17.54,8.11-33.02,15.08-49.31,.99-2.36,1.97-4.72,2.95-7.08,1.96-4.7,3.92-9.4,5.9-14.1,3.58-8.53,7.05-17.1,10.45-25.69,.91-2.29,1.83-4.57,2.75-6.85,4.27-10.68,7.78-21.42,9.51-32.84q.73-3.99,3.62-6.25c.8-.33,1.61-.66,2.44-1l1-2c1.5-.64,3.02-1.21,4.56-1.75,10.51-4.11,17.18-11.92,24.44-20.25,.93-.89,1.86-1.78,2.81-2.7,3.13-4.72,2.74-8.65,2.5-14.18q-.03-1.46-.07-2.95c-.06-2.39-.14-4.78-.24-7.17-.78-.39-1.56-.77-2.37-1.17q-1.52-.78-3.07-1.58c-1.01-.51-2.02-1.02-3.06-1.55q-2.5-1.7-3.42-3.77c-.13-2.96,1.3-4.45,2.92-6.93,.77-1.54,1.53-3.09,2.28-4.64,2.43-4.9,5.18-9.47,8.16-14.05,4.55-7.11,9-14.28,13.38-21.5,5.47-9.03,11.03-18.01,16.65-26.96,3-4.78,5.99-9.57,8.92-14.4,6.56-10.79,13.47-21.17,21.02-31.3,1.63-2.19,3.24-4.38,4.84-6.58,1.04-1.42,2.09-2.84,3.14-4.26,.46-.64,.93-1.27,1.4-1.93,2.92-3.91,6.06-7.37,9.58-10.76,1.7-1.68,3.27-3.44,4.83-5.25,3.19-3.7,6.49-7.29,9.81-10.88,3.21-3.46,6.41-6.93,9.5-10.5,3.13-3.61,6.34-7.16,9.56-10.69,.49-.55,.99-1.09,1.5-1.66,2.41-2.62,4.84-5.06,7.6-7.32,2.33-1.92,4.22-3.73,6.15-6.02,2.65-3.1,5.33-6.16,8.06-9.19q1.15-1.27,2.32-2.57c1.48-1.64,2.97-3.28,4.46-4.92,4.9-5.4,9.67-10.9,14.4-16.45,2.99-3.51,6.03-6.96,9.14-10.37,3.03-3.33,5.92-6.75,8.75-10.25,3.86-4.77,7.94-9.3,12.09-13.81,2.41-2.69,4.7-5.44,6.97-8.25,3.74-4.64,7.68-9.05,11.75-13.41,9.42-10.47,17.19-21.84,25-33.53,1.27-1.89,2.53-3.77,3.8-5.66,11.65-17.37,23.16-34.84,34.65-52.33,7.03-10.71,14.13-21.37,21.3-31.98,2.41-3.58,4.82-7.16,7.23-10.74,1.23-1.82,2.45-3.64,3.68-5.46,7.77-11.47,14.96-22.97,21.09-35.4,.48-.96,.95-1.92,1.45-2.91,1.21-2.48,2.39-4.97,3.55-7.46,3.4-7.19,6.84-14.35,10.34-21.49,.77-1.56,1.53-3.13,2.3-4.69,1.14-2.32,2.28-4.65,3.42-6.96,7.25-14.69,12.2-29.42,16.69-45.16,.51-1.78,1.02-3.56,1.54-5.34,1.24-4.32,2.48-8.65,3.71-12.97Z"/>
  <path class="cls-10" d="M5.69,0h3c.32,1.22,.64,2.43,.97,3.69,6.2,23.34,12.64,45.14,24.4,66.31,2.61,4.81,4.93,9.74,7.26,14.69,.45,.94,.91,1.88,1.37,2.85,2.21,4.61,4.34,9.23,6.33,13.94,8.63,19.89,21.22,37.22,33.5,54.98,4.14,6.01,8.16,12.08,12.1,18.23,3.36,5.24,6.79,10.44,10.25,15.62,.53,.8,1.07,1.6,1.62,2.43,1.69,2.53,3.38,5.06,5.07,7.59,7.75,11.58,15.47,23.18,23.08,34.86,1.31,2,2.61,4,3.92,6,1.89,2.89,3.77,5.78,5.65,8.67,6.28,9.7,12.39,18.86,20.47,27.16,1.5,1.8,2.98,3.61,4.44,5.44,3.86,4.77,7.94,9.3,12.09,13.81,3.2,3.56,6.18,7.28,9.19,11,3.14,3.79,6.48,7.38,9.82,11,2.39,2.66,4.66,5.39,6.9,8.18,4.14,5.13,8.53,9.96,13.01,14.79,2.06,2.23,4.07,4.48,6.05,6.77,2.94,3.39,5.96,6.7,9,10,.95,1.03,1.89,2.06,2.84,3.09,1.63,1.77,3.26,3.55,4.89,5.31,.63,.69,1.25,1.38,1.9,2.09,.54,.59,1.08,1.18,1.63,1.78,1.48,2.05,2.19,3.16,2.24,5.72q-1.84,2.3-4.5,4.75c-3.21,3.05-6.32,6.07-9.19,9.44-2.18,2.55-4.42,4.96-6.81,7.31-2.99,2.94-5.75,6.02-8.48,9.2-2.46,2.81-4.99,5.56-7.52,8.3-3.04,3.3-6.06,6.61-9,10-.53,.61-1.07,1.21-1.62,1.84-1.06,1.22-2.12,2.44-3.17,3.68-1.43,1.69-2.89,3.37-4.34,5.04-.46,.55-.91,1.1-1.38,1.67q-3.29,3.73-6.36,3.92c-3.7-1.61-6.85-3.75-10.13-6.09-.7-.49-1.41-.99-2.14-1.5-9.5-6.71-18.59-13.82-27.42-21.39-3.86-3.29-7.8-6.44-11.82-9.55-5.77-4.47-11.29-9.18-16.78-13.98-3.55-3.11-7.14-6.14-10.84-9.08q-1.18-.94-2.38-1.89c-1.29-1.01-2.58-2.01-3.9-2.99-5.28-4.14-9.13-9.46-13.18-14.75-3.67-4.78-7.51-9.43-11.36-14.07-1.59-1.93-3.14-3.89-4.68-5.86q-.82-1.04-1.66-2.1c-5.84-7.8-9.65-16.46-13.53-25.34-.38-.87-.76-1.75-1.16-2.64C22.37,233.84,7.62,155.05,2.62,11.25q.27-1.49,.55-3.01Q4.51,1.18,5.69,0Z"/>
  <path class="cls-7" d="M316.81,451.15c2.33,1.05,3.01,2.01,4.33,4.19q.67,1.08,1.35,2.18c.48,.8,.95,1.6,1.45,2.42,.52,.84,1.03,1.68,1.56,2.54,1.13,1.85,2.26,3.7,3.39,5.55,1.85,3.04,3.71,6.07,5.58,9.1,3.39,5.49,6.77,10.98,10.14,16.48,3.42,5.57,6.84,11.13,10.27,16.7,.66,1.08,1.32,2.15,2,3.26,4.26,6.92,8.53,13.83,12.81,20.74q.8,1.29,1.61,2.6c2.28,3.68,4.56,7.36,6.87,11.03,.37,.59,.74,1.18,1.12,1.79,.94,1.5,1.88,2.99,2.82,4.48,2.47,4.34,4.6,8.86,5.59,13.79-3.96,2.4-7.97,4.71-12,7q-1.9,13.43,2.94,25.52c2.9,3.22,6.06,6.11,9.36,8.93,1.64,1.49,2.96,3.01,4.31,4.75,2.49,2.91,4.57,4.36,7.95,6.11,.93,.49,1.86,.98,2.82,1.49q2.5,1.24,4.83,1.74c2.67,.68,3.94,2.48,5.79,4.46,.66,.33,1.32,.66,2,1,.48,2.1,.94,4.21,1.34,6.33,2.94,15.37,8.67,29.54,14.55,43.96,1.25,3.06,2.49,6.12,3.73,9.18,3.9,9.59,7.8,19.19,11.72,28.77q.7,1.71,1.41,3.46c.87,2.13,1.75,4.27,2.63,6.4,2.15,5.25,4.26,10.51,6.33,15.78,.4,1.03,.81,2.06,1.22,3.11,1.7,4.85,2.57,9.77,3.37,14.83,.17,.99,.34,1.98,.51,3,.4,2.39,.8,4.79,1.18,7.19,.56-.11,1.12-.22,1.7-.34,6.06-.98,9.59-.27,14.86,2.78q.94,.51,1.9,1.03c1.52,.83,3.03,1.68,4.54,2.54-.27,1.22-.54,2.43-.81,3.69-.17,.84-.34,1.67-.52,2.53q-.67,2.78-1.66,5.5c-3.57,10.84,.24,18.71,4.37,28.72,.97,2.41,1.93,4.83,2.87,7.26,.59,1.5,1.19,2.99,1.81,4.47,1.76,4.42,2.08,7.24,.95,11.84v4q1.9,1.41,4.31,2.56c3.96,2.46,5.47,4.25,6.75,8.75,.35,1.89,.67,3.79,.94,5.69q.27,1.1,.55,2.22c.65,4.22-.37,6.76-2.84,10.14-2.39,3.07-4.89,6.04-7.39,9.02-3.14,3.86-6.24,7.83-6.39,12.94q.23,2.46,1.07,5.68-5.15,4.05-8.78,3.84c-3.73-.97-6.71-2.5-10.09-4.34-5.09-2.69-9.33-4.38-15.12-4.5q-2-5.62-2-9c-.56-.27-1.13-.54-1.71-.82q-10.25-5.27-12.25-10.86c-.73-4.64-1.01-9.28-1.15-13.97-.79-16.49-6.76-31.91-11.99-47.41-1.02-3.05-2.02-6.11-3.02-9.16-6.07-18.51-12.85-36.51-20.48-54.44-2.22-5.28-4.3-10.61-6.38-15.94-8.63-22.02-17.51-43.69-28.2-64.8-3.23-6.38-6.32-12.82-9.41-19.27-1.45-3.01-2.91-6.02-4.36-9.03-1.77-3.65-3.53-7.31-5.27-10.98-4.65-9.7-10.25-18.65-16.08-27.68-3.02-4.7-5.98-9.45-8.94-14.19-.63-1-1.25-2-1.9-3.03-3.35-5.34-6.64-10.71-9.87-16.12-7.36-12.28-14.92-23.74-24.39-34.49-2.46-2.8-4.87-5.65-7.28-8.49q-.66-.77-1.33-1.56c-3.83-4.52-7.49-9.16-11.11-13.85-3.06-3.93-6.26-7.66-9.72-11.25q-1.14-1.65-1.14-5.65,1.46-1.65,3.48-3.26c2.97-2.45,5.85-4.94,8.63-7.61,10.87-10.38,21.48-19.86,34.32-27.76,.88-.55,1.76-1.09,2.66-1.66,.83-.5,1.67-1,2.52-1.51,.75-.45,1.49-.9,2.26-1.37q2.12-.85,4.24-.69Z"/>
  <path class="cls-23" d="M281.69,771c1.23,.36,2.45,.72,3.72,1.1,1.25,.38,2.5,.76,3.78,1.15,1.12,.34,2.25,.67,3.41,1.02,4.32,2.42,5.83,5.43,8.09,9.73,.46,.86,.92,1.72,1.4,2.61,1.52,2.87,3,5.75,4.48,8.64,1.58,3.03,3.16,6.06,4.74,9.09,.82,1.58,1.64,3.16,2.46,4.74,7.6,14.71,17.87,20.35,33.12,25.65,7.68,2.86,13.6,5.96,17.81,13.26,.38,4.94-2.23,8.7-4.88,12.75-.4,.61-.79,1.22-1.2,1.85-4.14,6.11-9.23,10.74-14.92,15.4q-1.29,1.15-2.61,2.32c-8.28,7.17-15.66,8.34-26.39,7.68-3.48-.59-6.86-1.48-10.27-2.41-1.96-.5-3.93-1-5.89-1.5-3.03-.79-6.06-1.58-9.08-2.39-23.79-6.33-42.82-5.55-66.51,.8-3.03,.79-6.06,1.58-9.09,2.35-1.86,.48-3.72,.96-5.58,1.47-8.31,2.15-18.54,3.39-26.58-.32-4.07-3-7.8-6.26-11.52-9.67-1.88-1.7-3.87-3.25-5.85-4.83-4.64-4.06-7.55-9.22-10.62-14.5-.58-.83-1.16-1.67-1.76-2.52-1.55-3.1-1.18-4.2-.24-7.48,4.57-8.05,11.94-10.43,20.25-13.38,21.87-8.47,28.18-20.73,38.06-41.36q7.54-15.62,14.63-18.64c2.01-.59,4.03-1.13,6.06-1.62,1.99-.73,3.97-1.48,5.94-2.25,14.25-5.24,31.12-4.23,45.06,1.25Z"/>
  <path class="cls-24" d="M236.69,628q-.88,5.75-2,8-.39,2.89-.5,6.19c-.07,1.11-.14,2.21-.22,3.36,.78,3.77,1.31,4.31,4.02,6.79,4.23,3.87,5.69,7.69,7.32,13.1,.28,.9,.57,1.8,.86,2.73,2.16,7.09,3.89,14.27,5.45,21.52,.21,.98,.42,1.96,.64,2.96,2.42,12.06,.98,23.16-.66,35.23-.36,2.64-.71,5.28-1.05,7.92-.22,1.68-.45,3.36-.67,5.04q-.16,1.18-.32,2.39-.76,5.53-1.88,7.76-2.91,1.07-6.62,2.12c-1.21,.35-2.42,.71-3.66,1.07-8.68,1.88-17.08,.44-24.71-4.2-3.82-3.26-6.76-7.28-9.72-11.31-1.25-1.66-2.56-3.24-3.92-4.81-10.19-11.84-8.9-27.75-8.36-42.88,.03-.83,.06-1.67,.09-2.52q.77-18.38,4.79-23.04c1.34-1.18,2.72-2.33,4.12-3.44,1.98-1.85,3.94-3.72,5.88-5.62,.52-.5,1.03-1,1.56-1.52,4.29-4.28,7.53-8.94,10.62-14.14,3.08-5.18,5.91-8.59,11.5-10.97,.76-.34,1.53-.67,2.32-1.02q2.12-.73,5.12-.73Z"/>
  <path class="cls-24" d="M278.69,628c5.53,.71,11.75,2.52,15.58,6.74,1.4,2.1,2.67,4.25,3.92,6.45,4.42,7.29,9.36,12.86,15.62,18.62q8.84,8.3,9.88,15.12c.06,2.02,.06,4.04,0,6.06,.19,1.69,.4,3.38,.62,5.06,.77,8.58,.43,17.16,0,25.75-.03,.71-.06,1.41-.09,2.14-.45,7.89-2.25,13.44-7.66,19.36-1.01,1.13-2.02,2.26-3.02,3.39-.49,.55-.98,1.11-1.49,1.68-1.9,2.25-3.51,4.69-5.18,7.11-4.66,5.91-11,7.96-18.19,9.5-5.17,.35-9.41-.43-14.38-1.88-1.22-.35-2.45-.7-3.71-1.05q-2.91-1.07-3.91-3.07c-.44-2.72-.83-5.43-1.19-8.16-.11-.82-.22-1.63-.33-2.48-.23-1.73-.46-3.47-.69-5.21-.35-2.63-.7-5.25-1.06-7.87-1.77-13.24-2.15-24.16,.9-37.29,.27-1.18,.54-2.36,.82-3.58q6.48-27.51,14.2-33.72c2.53-3.18,1.95-6.95,1.8-10.84-.45-2.89-1.35-5.17-2.44-7.87v-4Z"/>
  <path class="cls-11" d="M179.69,696c-.14,.89-.29,1.77-.44,2.69-.08,.65-.17,1.29-.25,1.96-.23,1.71-.5,3.42-.81,5.12-1.89,13.46,3.58,25.59,11.5,36.24,3.38,5.11,6.34,9.77,7.5,15.83,.62,2.69,1.63,5.15,2.62,7.73,3.5,10.31,3.5,22.93-1.29,32.85-4.7,7.78-12.25,14.4-20.84,17.59-5.75,1.04-11.42,.61-17-1q-2.99-2.46-5-5v-2c-.58-.21-1.16-.41-1.76-.62-3.11-1.91-4.28-4.24-6.12-7.38-.7-1.19-1.39-2.37-2.09-3.55-.34-.59-.68-1.17-1.03-1.78-.89-1.49-1.85-2.93-2.82-4.36-3.39-5.08-4.98-9.11-5.11-15.26-.04-1.99-.14-3.97-.29-5.95-.49-9.36,2.15-15.94,6.29-24.22,.56-1.18,1.12-2.37,1.7-3.59,3.59-7.45,7.69-14.38,12.24-21.29,.77-1.24,1.54-2.49,2.29-3.74q.94-1.55,1.89-3.13c.63-1.05,1.27-2.1,1.92-3.18,2.85-4.43,5.72-8.1,9.96-11.26,.67-.51,1.34-1.02,2.04-1.55q1.9-1.14,4.9-1.14Z"/>
  <path class="cls-11" d="M335.69,696c5.79,1,9.94,4.97,14,9,2.02,2.89,3.7,5.83,5.36,8.94,1.55,2.9,3.26,5.58,5.08,8.31,4.05,6.31,7.32,12.95,10.56,19.7,.98,2.01,2.02,3.98,3.07,5.95,4.26,8.2,5.8,14.77,4.94,24.1q.02,1.37,.03,2.76c-.14,11.96-9.4,24.46-17.03,33.24h-2c-.27,.6-.54,1.2-.81,1.81-1.29,2.37-2.04,3.56-4.19,5.19-8.09,2-15.79,2.4-23.15-1.9-7.36-4.94-13.19-10.89-16.85-19.1-2.31-11.77-1.68-21.87,2.79-32.93,.98-2.47,1.59-4.55,2.03-7.13,1.6-7.2,7.11-13.98,11.27-19.89,6.24-9.91,7.79-19.64,5.92-31.04-.19-1.44-.38-2.87-.56-4.31-.14-.89-.29-1.77-.44-2.69Z"/>
  <path class="cls-16" d="M497.69,0l4,1V7h-1c-.33-1.65-.66-3.3-1-5-.18,.58-.35,1.15-.53,1.75-.25,.82-.5,1.63-.75,2.48q-.42,1.38-.84,2.78c-.63,2.08-1.27,4.16-1.92,6.24-1.54,4.99-3.04,9.97-4.31,15.04-4.61,17.68-13.03,33.59-21.2,49.84-3.32,6.61-6.54,13.26-9.7,19.95-1.57,3.32-3.16,6.63-4.75,9.94-.51,1.08-1.02,2.15-1.55,3.26-3.76,7.77-7.98,14.95-12.87,22.09-2.21,3.22-4.38,6.46-6.57,9.7-.48,.7-.95,1.41-1.44,2.13-5.64,8.35-11.16,16.79-16.69,25.21-11.91,18.14-23.97,36.19-36.17,54.14-5.62,8.28-11.16,16.59-16.39,25.13-5.92,9.63-12.4,18.63-20.11,26.91-2.32,2.54-4.49,5.18-6.65,7.86-3.86,4.77-7.94,9.3-12.09,13.81-2.41,2.69-4.7,5.44-6.97,8.25-3.84,4.76-7.9,9.26-12.04,13.76-2.37,2.64-4.61,5.35-6.84,8.12-4.39,5.44-9.08,10.53-13.85,15.63-2.71,2.91-5.33,5.89-7.94,8.9-2.41,2.73-4.87,5.41-7.34,8.09q-7.35,7.8-14.05,16.14-1.45,1.86-3.7,3.11c-4.04,2.57-6.68,6.12-9.75,9.75-5.24,5.9-10.57,11.72-15.91,17.53-3.67,3.99-7.3,8.01-10.92,12.05-1.44,1.6-2.91,3.19-4.38,4.77-5.2,5.6-9.72,11.52-14.07,17.78-1.87,2.69-3.79,5.33-5.75,7.96-8.13,10.95-15.26,22.34-22.25,34.04-2.72,4.53-5.5,9.01-8.29,13.49-.53,.86-1.07,1.72-1.62,2.61-1.07,1.73-2.15,3.46-3.22,5.19-3.71,5.98-7.42,11.96-11.12,17.95-2.19,3.55-4.39,7.09-6.6,10.63-1.44,2.32-2.88,4.65-4.32,6.97-1.03,1.66-2.06,3.31-3.09,4.96-3.47,5.61-6.67,11.21-9.44,17.2q-1.03,1.85-3.03,2.85c2.29-11.44,10.51-22.18,16.7-31.83,3.46-5.4,6.79-10.87,10.11-16.36,5.47-9.03,11.03-18.01,16.65-26.96,3-4.78,5.99-9.57,8.92-14.4,6.56-10.79,13.47-21.17,21.02-31.3,1.63-2.19,3.24-4.38,4.84-6.58,1.04-1.42,2.09-2.84,3.14-4.26,.46-.64,.93-1.27,1.4-1.93,2.92-3.91,6.06-7.37,9.58-10.76,1.7-1.68,3.27-3.44,4.83-5.25,3.19-3.7,6.49-7.29,9.81-10.88,3.21-3.46,6.41-6.93,9.5-10.5,3.13-3.61,6.34-7.16,9.56-10.69,.49-.55,.99-1.09,1.5-1.66,2.41-2.62,4.84-5.06,7.6-7.32,2.33-1.92,4.22-3.73,6.15-6.02,2.65-3.1,5.33-6.16,8.06-9.19,.76-.85,1.53-1.7,2.32-2.57,1.48-1.64,2.97-3.28,4.46-4.92,4.9-5.4,9.67-10.9,14.4-16.45,2.99-3.51,6.03-6.96,9.14-10.37,3.03-3.33,5.92-6.75,8.75-10.25,3.86-4.77,7.94-9.3,12.09-13.81,2.41-2.69,4.7-5.44,6.97-8.25,3.74-4.64,7.68-9.05,11.75-13.41,9.42-10.47,17.19-21.84,25-33.53,1.27-1.89,2.53-3.77,3.8-5.66,11.65-17.37,23.16-34.84,34.65-52.33,7.03-10.71,14.13-21.37,21.3-31.98,2.41-3.58,4.82-7.16,7.23-10.74,1.23-1.82,2.45-3.64,3.68-5.46,7.77-11.47,14.96-22.97,21.09-35.4,.48-.96,.95-1.92,1.45-2.91,1.21-2.48,2.39-4.97,3.55-7.46,3.4-7.19,6.84-14.35,10.34-21.49,.77-1.56,1.53-3.13,2.3-4.69,1.14-2.32,2.28-4.65,3.42-6.96,7.25-14.69,12.2-29.42,16.69-45.16,.51-1.78,1.02-3.56,1.54-5.34,1.24-4.32,2.48-8.65,3.71-12.97Z"/>
  <path class="cls-5" d="M5.69,0h3c.32,1.22,.64,2.43,.97,3.69,6.2,23.34,12.64,45.14,24.4,66.31,2.61,4.81,4.93,9.74,7.26,14.69,.45,.94,.91,1.88,1.37,2.85,2.21,4.61,4.34,9.23,6.33,13.94,8.63,19.89,21.22,37.22,33.5,54.98,4.14,6.01,8.16,12.08,12.1,18.23,3.36,5.24,6.79,10.44,10.25,15.62,.53,.8,1.07,1.6,1.62,2.43,1.69,2.53,3.38,5.06,5.07,7.59,7.75,11.58,15.47,23.18,23.08,34.86,1.31,2,2.61,4,3.92,6,1.89,2.89,3.77,5.78,5.65,8.67,6.28,9.7,12.39,18.86,20.47,27.16,1.5,1.8,2.98,3.61,4.44,5.44,3.86,4.77,7.94,9.3,12.09,13.81,3.2,3.56,6.18,7.28,9.19,11,3.14,3.79,6.48,7.38,9.82,11,2.39,2.66,4.66,5.39,6.9,8.18,4.14,5.13,8.53,9.96,13.01,14.79,2.06,2.23,4.07,4.48,6.05,6.77,2.94,3.39,5.96,6.7,9,10,.95,1.03,1.89,2.06,2.84,3.09,1.63,1.77,3.26,3.55,4.89,5.31,.63,.69,1.25,1.38,1.9,2.09,.54,.59,1.08,1.18,1.63,1.78,1.37,1.9,1.83,3.43,2.24,5.72-4.14-3.23-7.55-6.64-10.95-10.63-2.46-2.84-5-5.61-7.55-8.37-6.73-7.32-13.21-14.82-19.68-22.37-3.76-4.39-7.54-8.76-11.32-13.13-4.18-4.82-8.35-9.65-12.5-14.5-3.59-4.19-7.19-8.38-10.8-12.55-1.1-1.26-2.19-2.53-3.28-3.8-2.62-3.04-5.26-6.04-7.99-8.98-9.68-10.55-17.34-22.4-25.12-34.36-4.89-7.52-9.84-15.01-14.77-22.5-1.23-1.87-2.46-3.74-3.69-5.61-10.74-16.33-21.63-32.56-32.62-48.73-5.62-8.28-11.12-16.61-16.38-25.13-2.61-4.22-5.36-8.3-8.28-12.32-7.17-9.94-12.35-20.36-17.42-31.48-3.34-7.19-6.85-14.29-10.33-21.41-2.1-4.29-4.19-8.59-6.26-12.9-1.34-2.79-2.72-5.55-4.12-8.31-5.63-11.24-9.09-22.75-12.36-34.86-.79-2.86-1.58-5.72-2.38-8.58-.49-1.76-.97-3.52-1.45-5.29q-1.1-4.2-2.74-8.19c-.33,1.65-.66,3.3-1,5h-1c-.04-2-.04-4,0-6l1-1Z"/>
  <path class="cls-5" d="M316.81,451.15c2.33,1.05,3.01,2.01,4.33,4.19q.67,1.08,1.35,2.18c.48,.8,.95,1.6,1.45,2.42,.52,.84,1.03,1.68,1.56,2.54,1.13,1.85,2.26,3.7,3.39,5.55,1.85,3.04,3.71,6.07,5.58,9.1,3.39,5.49,6.77,10.98,10.14,16.48,3.42,5.57,6.84,11.13,10.27,16.7,.66,1.08,1.32,2.15,2,3.26,4.26,6.92,8.53,13.83,12.81,20.74q.8,1.29,1.61,2.6c2.28,3.68,4.56,7.36,6.87,11.03,.37,.59,.74,1.18,1.12,1.79,.94,1.5,1.88,2.99,2.82,4.48,2.47,4.34,4.6,8.86,5.59,13.79-3.4-3.04-5.11-5.93-7-10.06-3.62-7.57-8.05-14.52-12.57-21.57-3.8-5.93-7.49-11.92-11.18-17.93-.67-1.1-1.35-2.19-2.04-3.32-2.07-3.37-4.14-6.74-6.21-10.11-2.69-4.38-5.37-8.75-8.06-13.12-.65-1.06-1.3-2.12-1.97-3.21-3.41-5.54-6.84-11.06-10.31-16.56-.7-1.11-1.4-2.22-2.11-3.36-1.34-2.12-2.68-4.24-4.03-6.36-.59-.94-1.19-1.88-1.8-2.85-.53-.83-1.05-1.66-1.6-2.51q-1.12-2.02-1.12-4.02c-3.66,2.05-7.3,4.13-10.93,6.23-1.23,.71-2.47,1.41-3.7,2.1-8.11,4.55-14.67,9.4-21.04,16.2-2.1,2.23-4.25,4.24-6.57,6.22-3.19,2.72-6.14,5.61-9.07,8.61-2.43,2.39-5.02,4.51-7.68,6.64q0-4,1.46-5.65c.67-.53,1.33-1.06,2.02-1.61,2.97-2.45,5.85-4.94,8.63-7.61,10.87-10.38,21.48-19.86,34.32-27.76,.88-.55,1.76-1.09,2.66-1.66,.83-.5,1.67-1,2.52-1.51,.75-.45,1.49-.9,2.26-1.37q2.12-.85,4.24-.69Z"/>
  <path class="cls-6" d="M281.69,771c1.23,.36,2.45,.72,3.72,1.1q10.53,3.21,13.41,7.71c.66,1.38,1.28,2.78,1.88,4.19,.79,1.46,1.58,2.92,2.38,4.38q.8,1.79,1.62,3.62l-1,2c-.47-.96-.95-1.93-1.43-2.92q-3.88-8.21-10.75-13.64c-1.6-.5-3.2-.98-4.81-1.44-2.06-.87-4.13-1.75-6.19-2.62-19.15-7.22-36.5-4.09-54.81,3.62-1.01,.42-2.03,.84-3.07,1.27-3.45,2.04-4.48,3.65-6.3,7.18-.57,1.09-1.14,2.17-1.73,3.29q-.88,1.73-1.78,3.5c-.62,1.19-1.25,2.38-1.87,3.56-2.59,4.93-5.12,9.88-7.55,14.89-7.88,16.07-17.6,21.38-34.04,27.19-7.55,2.77-11.96,5.56-16.66,12.1q-.99,.99-2,2c.86-5.91,3.43-9.23,8-13,4.27-2.21,8.72-3.77,13.25-5.38,21.87-8.47,28.18-20.73,38.06-41.36q7.54-15.62,14.63-18.64c2.01-.59,4.03-1.13,6.06-1.62,1.99-.73,3.97-1.48,5.94-2.25,14.25-5.24,31.12-4.23,45.06,1.25Z"/>
  <path class="cls-22" d="M373.69,589h1c.03,1,.05,2,.08,3.03,.74,5.15,4.1,8,7.67,11.54,1.25,1.27,2.49,2.54,3.73,3.82,.6,.61,1.21,1.22,1.83,1.85,1.54,1.62,2.92,3.28,4.29,5.03,2.49,2.85,4.61,4.33,7.96,6.05,.93,.49,1.86,.98,2.82,1.49q2.5,1.24,4.83,1.74c2.67,.68,3.94,2.48,5.79,4.46q.99,.49,2,1c.48,2.1,.94,4.21,1.34,6.33,2.94,15.37,8.67,29.54,14.55,43.96,1.25,3.06,2.49,6.12,3.73,9.18,3.9,9.59,7.8,19.19,11.72,28.77,.47,1.14,.93,2.28,1.41,3.46,.87,2.13,1.75,4.27,2.63,6.4,2.15,5.26,4.27,10.53,6.34,15.82,.4,1.03,.81,2.07,1.23,3.13,2.11,5.93,3.17,11.67,3.05,17.96-1.67-3.02-2.48-5.8-3.2-9.17-1.83-7.53-4.68-14.54-7.61-21.69-1.04-2.53-2.06-5.07-3.08-7.6-3.77-9.35-7.58-18.67-11.4-28-1.99-4.85-3.96-9.71-5.93-14.57-.96-2.36-1.93-4.73-2.91-7.09-5.17-12.48-9.99-24.5-11.82-37.97q-.84-4.94-4.09-8.57c-2.28-1.28-4.55-2.35-6.96-3.35-7.51-3.93-13.31-7.75-18.75-14.32q-2.25-2.77-5.02-5.45-6.92-6.94-7.85-10.93,0-2.49,.63-6.3Z"/>
  <path class="cls-22" d="M131.69,589h1c.56,3.92,1.04,7.51-1.31,10.88-1.2,1.16-2.43,2.28-3.69,3.38-2.05,1.79-3.79,3.68-5.56,5.75-.59,.67-1.18,1.34-1.79,2.03q-1.64,1.9-2.9,3.75c-4.17,5.71-10.01,8.33-16.2,11.42-1.17,.59-2.35,1.19-3.56,1.8-.93,.37-1.87,.74-2.83,1.12-3.56,3.08-3.51,7.13-4.29,11.62-2.72,13.05-7.5,25.08-12.56,37.38-.41,.99-.82,1.99-1.24,3.01-2.56,6.23-5.15,12.45-7.74,18.66-3.56,8.55-7.08,17.12-10.58,25.7-1.22,2.99-2.46,5.96-3.7,8.94-4.02,9.77-7.43,19.06-9.06,29.56h-1c.69-15.19,7.26-28.91,12.99-42.75,2.25-5.44,4.48-10.88,6.71-16.33,.45-1.09,.9-2.18,1.36-3.31,3.87-9.43,7.71-18.87,11.48-28.35,.62-1.56,1.25-3.13,1.88-4.69,4.65-11.51,8.65-22.99,10.51-35.32q.73-3.99,3.62-6.25,1.21-.49,2.44-1,.49-.99,1-2c1.5-.64,3.02-1.21,4.56-1.75,10.51-4.11,17.18-11.92,24.44-20.25q.7-.78,1.42-1.57c3.32-3.79,4.28-6.37,4.58-11.43Z"/>
  <path class="cls-19" d="M304.69,794c2.6,2.33,4.01,4.68,5.57,7.79,.49,.94,.97,1.88,1.47,2.86,1,1.96,1.99,3.92,2.96,5.89,7.39,14.17,17.58,19.13,32.19,24.2,7.51,2.79,13.83,5.96,17.81,13.26q-.31,2.28-1,4-.55-.8-1.1-1.61c-.5-.71-1.01-1.41-1.52-2.14-.49-.7-.97-1.39-1.48-2.11-4.5-5.08-9.78-6.97-16.05-9.18-21.51-7.68-28.05-18.54-37.83-38.6q-1.02-2.36-1.02-4.36Z"/>
  <path class="cls-20" d="M179.69,696l-1,4h-3c-7.06,4.31-10.94,10.69-14.64,17.84-2.01,3.87-4.19,7.37-6.77,10.89-3.97,5.56-6.72,11.47-9.47,17.71-.48,1.07-.97,2.15-1.47,3.26-2.59,5.76-4.7,10.65-5.22,16.99-.08,.99-.17,1.99-.25,3.01-.06,.76-.12,1.52-.18,2.3h-1c-.96-10.53,1.38-17.77,6.06-27.12,.56-1.18,1.12-2.37,1.7-3.59,3.59-7.45,7.69-14.38,12.24-21.29,.77-1.24,1.54-2.49,2.29-3.74q.94-1.55,1.89-3.13c.63-1.05,1.27-2.1,1.92-3.18,2.85-4.43,5.72-8.1,9.96-11.26,.67-.51,1.34-1.02,2.04-1.55q1.9-1.14,4.9-1.14Z"/>
  <path class="cls-12" d="M236.69,628l-1,4v-2c-9.47,3.68-14.02,7.57-18.82,16.39-3.63,6.38-8.37,10.86-13.74,15.8q-7.51,6.85-9.94,16.31c.09,1.02,.19,2.04,.28,3.09,.07,.79,.14,1.59,.22,2.41l-2,2q-.13-15.77,3.81-20.25c1.36-1.28,2.77-2.53,4.19-3.75,1.98-1.86,3.94-3.73,5.88-5.62,.52-.5,1.03-1,1.56-1.51,4.28-4.29,7.53-8.94,10.62-14.14,3.08-5.18,5.91-8.59,11.5-10.97,.76-.34,1.53-.67,2.32-1.02q2.12-.73,5.12-.73Z"/>
  <path class="cls-17" d="M335.69,696c5.79,1,9.94,4.97,14,9,2.02,2.89,3.7,5.83,5.36,8.94,1.55,2.9,3.26,5.58,5.08,8.31,4.46,6.94,7.99,14.32,11.56,21.75,.31,.64,.63,1.29,.95,1.95q3.89,7.98,5.05,11.05-.49,.99-1,2c-.83-1.66-1.66-3.32-2.49-4.98-.72-1.45-1.45-2.89-2.17-4.33-1.76-3.51-3.51-7.02-5.22-10.55-2.86-5.86-5.77-11.45-9.53-16.79-1.97-2.91-3.69-5.94-5.46-8.97-3.26-5.34-6.7-10.07-12.12-13.38h-3l-1-4Z"/>
  <path class="cls-22" d="M278.69,628c5.53,.71,11.75,2.52,15.58,6.74,1.4,2.1,2.67,4.25,3.92,6.45,6.38,10.43,14.6,18.53,23.5,26.81-.33,.99-.66,1.98-1,3q-17.8-16.67-23.31-26.69c-4.33-7.84-9.36-11.07-17.69-14.31-.33,.66-.66,1.32-1,2v-4Z"/>
  <path class="cls-17" d="M179.69,696l-1,4h-3c-8.04,4.91-11.95,12.62-16.15,20.68q-1.85,3.32-3.85,4.32c.57-4.55,2.38-7.64,4.81-11.5,.69-1.1,1.37-2.21,2.08-3.34,2.97-4.46,5.85-8.25,10.17-11.47q1.01-.77,2.04-1.55,1.9-1.14,4.9-1.14Z"/>
  <path class="cls-21" d="M76.69,151c3.8,1.27,4.35,2.63,6.5,5.95,.66,1.01,1.32,2.02,1.99,3.07,.68,1.07,1.36,2.13,2.06,3.23,.69,1.05,1.37,2.1,2.08,3.18,2.87,4.44,5.54,8.59,7.36,13.57h-2c-1.47-1.92-2.81-3.82-4.13-5.84-.4-.59-.79-1.19-1.2-1.8-.84-1.26-1.67-2.52-2.51-3.79-1.28-1.94-2.57-3.87-3.86-5.8-.81-1.22-1.62-2.45-2.43-3.67-.39-.58-.77-1.16-1.17-1.76q-2.69-4.11-2.69-6.34Z"/>
  <path class="cls-21" d="M204.69,803c1.2,3.61,.44,4.8-1.2,8.09-.35,.65-.69,1.3-1.05,1.97-.35,.67-.71,1.33-1.07,2.02-3.96,7.03-9.82,14.3-17.68,16.92,1.53-3.89,3.91-5.72,7.12-8.31,6.68-5.87,10.16-12.71,13.88-20.69Z"/>
  <path class="cls-18" d="M425.69,155l2,1-18,27-2-2q15.72-23.72,18-26Z"/>
  <path class="cls-9" d="M14.69,843l2,2c-1.05,.97-2.12,1.92-3.19,2.88-.59,.53-1.18,1.07-1.79,1.62q-2.02,1.51-4.64,2.13-2.5,1.11-3.05,3.22c-.49,2.42-.84,4.83-1.13,7.28-.12,.85-.24,1.7-.37,2.57-.29,2.1-.56,4.2-.82,6.3H.69c-.4-6.88,.06-13.68,3-20,3.05-2.92,6.32-4.96,10-7l1-1Z"/>
  <path class="cls-15" d="M490.69,843q12.49,8.32,14.44,16.02c.77,4.09,.77,7.82,.56,11.98h-1c-.16-1.28-.32-2.55-.48-3.87-.23-1.67-.47-3.34-.71-5.01-.1-.84-.2-1.68-.31-2.55-.34-2.3-.7-4.39-1.51-6.57q-2.32-1.49-5-2-2.02-1.51-3.81-3.12c-.6-.54-1.21-1.08-1.83-1.63-.45-.41-.89-.82-1.36-1.24l1-2Z"/>
  <path class="cls-1" d="M236.69,628l-1,4v-2c-8.11,3.8-14.03,6.62-18,15q-1-3-.17-5.09c4.31-6.95,10.65-11.91,19.17-11.91Z"/>
  <path class="cls-25" d="M462.69,769l1,2c1.2-.31,2.39-.62,3.62-.94,7.22-.9,13.33,3.49,19.38,6.94l-1,3c-.82-.49-1.64-.99-2.49-1.5-6.79-3.9-12.5-6.63-20.51-6.5v-3Z"/>
  <path class="cls-25" d="M42.69,769c.33,.99,.66,1.98,1,3q-.84-.01-1.7-.03c-8.54,.32-14.99,3.99-22.3,8.03q.12-1.79,1-4c5.5-3.64,11.61-6.65,18.31-5.88,1.22,.29,2.43,.58,3.69,.88v-2Z"/>
  <path class="cls-9" d="M232.69,637h1c0,.79-.02,1.57-.03,2.38q.04,6.26,2.62,11.77c1.25,1.13,2.52,2.24,3.82,3.32,2.32,2.24,2.51,4.4,2.59,7.54-.54-.7-1.07-1.4-1.62-2.12q-2.08-2.76-3.98-4.05c-1.99-1.52-3.15-2.63-4.4-4.82-.52-4.71-.35-9.28,0-14Z"/>
  <path class="cls-15" d="M281.69,637h1q1.23,12.13-1.71,16.61c-2.01,1.94-4.11,3.65-6.29,5.39l-2,3c.08-3.13,.27-5.3,2.59-7.54,.63-.52,1.26-1.05,1.91-1.59,3.53-3.2,4.08-5.59,4.44-10.31,.05-1.85,.08-3.71,.06-5.56Z"/>
  <path class="cls-26" d="M131.69,589h1c.58,4.05,1.02,7.55-1.42,11.02-1.79,1.76-3.65,3.38-5.58,4.98q-1.21,1.21-2.44,2.44l-1.56,1.56c0-4.1,1.59-4.89,4.44-7.75,3.9-4.17,5.69-6.53,5.56-12.25Z"/>
  <path class="cls-2" d="M267.69,487c.33,.99,.66,1.98,1,3-.55,.48-1.11,.96-1.68,1.46-.72,.63-1.45,1.26-2.2,1.91-.72,.63-1.44,1.25-2.18,1.9-1.35,1.2-2.67,2.45-3.95,3.73q0-4,1.71-5.89c.73-.59,1.47-1.19,2.22-1.8,.73-.6,1.46-1.2,2.21-1.82,.61-.49,1.22-.98,1.85-1.49l1-1Z"/>
  <path class="cls-17" d="M157.69,840l2,2c-1.12,1.29-2.25,2.58-3.38,3.88-.63,.72-1.25,1.44-1.9,2.18-1.2,1.35-2.45,2.67-3.73,3.95,.32-5.35,3.5-8.28,7-12Z"/>
  <path class="cls-4" d="M109.69,619c-1.48,4.43-3.9,4.91-8,7h-2c1.4-4.19,5.35-7,10-7Z"/>
  <path class="cls-15" d="M364.69,247l2,1c-1.98,2.97-3.96,5.94-6,9-.66-.66-1.32-1.32-2-2,1.98-2.64,3.96-5.28,6-8Z"/>
  <path class="cls-18" d="M358.69,256l1,2q-1,1.95-2.44,4.12c-.47,.72-.95,1.45-1.43,2.2-.37,.55-.75,1.11-1.13,1.68-.66-.66-1.32-1.32-2-2,1.98-2.64,3.96-5.28,6-8Z"/>
  <path class="cls-15" d="M425.69,155l2,1c-1.98,2.97-3.96,5.94-6,9-.66-.66-1.32-1.32-2-2,1.98-2.64,3.96-5.28,6-8Z"/>
  <path class="cls-8" d="M268.69,767l3,3c-3.96-.33-7.92-.66-12-1,3.47-2.31,4.92-2.42,9-2Z"/>
  <path class="cls-14" d="M123.69,556q1,3,.29,5.01-.55,1.05-1.11,2.12c-.36,.7-.71,1.41-1.08,2.13q-1.11,1.74-3.11,2.74c.64-3.01,1.65-5.52,3.06-8.25,.36-.71,.72-1.41,1.1-2.14,.28-.53,.55-1.06,.84-1.61Z"/>
  <path class="cls-21" d="M298.69,461l2,2c-2.97,1.65-5.94,3.3-9,5,2.09-4.18,3.06-4.92,7-7Z"/>
  <path class="cls-14" d="M381.69,557h2q3.29,7.43,4,11c-3.87-3.22-4.88-6.15-6-11Z"/>
  <path class="cls-13" d="M227.69,774v2q-4.62,2.12-8,1,4.62-3,8-3Z"/>
  <ellipse cx="262.05" cy="165.5" rx="105" ry="108"/>
  <ellipse class="cls-3" cx="262.05" cy="165.5" rx="59.36" ry="61.06"/>
</svg>