<?xml version="1.0" encoding="UTF-8"?>
<svg id="Layer_1" data-name="Layer 1" xmlns="http://www.w3.org/2000/svg" viewBox="0 0 664 816.32">
  <defs>
    <style>
      .cls-1 {
        fill: #e9e9e9;
      }

      .cls-2 {
        fill: #f0f0f0;
      }

      .cls-3 {
        fill: #f4f4f4;
      }

      .cls-4 {
        fill: #fff;
      }

      .cls-5 {
        fill: #d1d1d1;
      }

      .cls-6 {
        fill: #fafafa;
      }

      .cls-7 {
        fill: #f6f6f6;
      }

      .cls-8 {
        fill: #f5f5f5;
      }

      .cls-9 {
        fill: #020202;
      }

      .cls-10 {
        fill: #e6e6e6;
      }

      .cls-11 {
        fill: #dadada;
      }

      .cls-12 {
        fill: #eaeaea;
      }

      .cls-13 {
        fill: #c8c8c8;
      }

      .cls-14 {
        fill: #e4e4e4;
      }

      .cls-15 {
        fill: #f9f9f9;
      }

      .cls-16 {
        fill: #ebebeb;
      }

      .cls-17 {
        fill: #d5d5d5;
      }

      .cls-18 {
        fill: #f1f1f1;
      }

      .cls-19 {
        fill: #eee;
      }

      .cls-20 {
        fill: #f2f2f2;
      }
    </style>
  </defs>
  <path class="cls-9" d="M335.5,0c.86,0,1.71,0,2.59,.01,3.77,.39,7.24,1.32,10.91,2.3,.44,4.3,.86,8.6,1.28,12.9,.14,1.46,.29,2.91,.44,4.37q2.69,26.56-.28,31.12c-1.71,1.76-3.46,3.17-5.44,4.61-2.16,1.7-2.89,2.54-3.53,5.24,.8,4.17,3.26,6.7,5.96,9.88,1.02,1.23,2.04,2.46,3.06,3.7,.46,.54,.91,1.08,1.38,1.63,2.47,3.4,2.23,6.7,2.19,10.73,0,1.09-.02,2.17-.03,3.29-.01,.83-.02,1.66-.04,2.52,4.36-.14,8.71-.32,13.07-.52,1.48-.07,2.95-.12,4.43-.17,9.89-.32,17.09-1.78,25.5-7.31,2.17-1.27,4.35-2.53,6.54-3.78,2.37-1.38,4.73-2.77,7.09-4.16,1.28-.75,2.56-1.51,3.85-2.26,9.04-5.31,18.04-10.7,27.02-16.11,9.69-5.83,19.44-11.54,29.2-17.24q.9-.52,1.81-1.06c1.63-.95,3.25-1.9,4.88-2.85,1.9-1.13,3.77-2.32,5.61-3.55q2.49-.59,5.45-1.07c1.08-.17,2.16-.35,3.27-.53,1.13-.17,2.25-.35,3.41-.53,1.1-.18,2.21-.36,3.34-.55,6.24-.99,12.21-1.72,18.53-1.32,.66,.66,1.32,1.32,2,2,2.29,.83,4.55,1.59,6.88,2.31,4.76,1.53,9.4,3.15,14,5.12,4.81,2.07,9.68,3.85,14.62,5.56,4.9,1.7,9.73,3.46,14.5,5.5,16.73,7.14,34.27,12.03,51.73,17,4.6,1.31,9.18,2.65,13.77,4,9.81,2.9,19.66,5.7,29.5,8.5v3q-1.53,1.44-3.65,2.92c-.76,.53-1.52,1.06-2.3,1.61-.8,.55-1.6,1.09-2.43,1.66-.79,.56-1.59,1.12-2.41,1.69q-5.93,4.12-8.22,4.12c-.33,.99-.66,1.98-1,3q-1.52,1.49-3.48,3.1c-5.81,4.92-11.03,10.4-16.34,15.85-.77,.78-1.54,1.56-2.33,2.37-.69,.71-1.39,1.42-2.1,2.15q-1.75,1.54-3.75,1.54v2c-1.64,1.36-3.32,2.69-5,4-1.69,1.65-3.35,3.32-5,5-3.22,3.28-6.45,6.55-9.69,9.81-.87,.88-1.73,1.77-2.63,2.68-.83,.83-1.66,1.67-2.51,2.53-.75,.76-1.51,1.53-2.28,2.32q-1.89,1.66-3.89,1.66v2h-2c-.33,.99-.66,1.98-1,3-4.27,2.57-8.7,3.88-13.5,5.05-.72,.18-1.44,.36-2.18,.55-2.29,.58-4.59,1.15-6.88,1.71-20.97,5.22-41.39,11.13-61.62,18.75-2,.75-4.01,1.5-6.01,2.24-13.78,5.14-27.53,10.36-41.25,15.67q-19.26,7.45-25.48,7.27c-.92-.02-1.83-.03-2.78-.05-1.08-.07-2.17-.13-3.29-.2-.74,0-1.47-.02-2.23-.03-7.42-.33-12.35-3.1-18.52-7.04-1.94-1.19-3.89-2.38-5.83-3.57-1.81-1.12-3.61-2.25-5.42-3.37-9.4-5.8-18.44-9.92-29-13,.02,.67,.04,1.34,.06,2.03,.48,18.05-.87,35.27-3.2,53.12-1.05,8.16-1.93,16.33-2.79,24.51-.25,2.38-.51,4.77-.76,7.15-1.03,9.72-1.78,19.43-2.31,29.19,15.32-1.21,29.77-2.59,44.14-8.27,2.86-1.12,5.76-2.12,8.67-3.1,.89-.32,1.79-.63,2.71-.96,2.6-.7,4.8-.79,7.48-.66,.46,5.28-1.05,8.83-3.5,13.38-.73,1.4-1.46,2.81-2.19,4.21-.38,.72-.76,1.44-1.15,2.18-1.94,3.72-3.8,7.48-5.66,11.23-.68,1.35-1.35,2.71-2.03,4.06-.48,.97-.97,1.94-1.47,2.94q-5.71-.98-8-4v-2h-2q-4.77-4.3-6-8c-2.63,.31-5.25,.62-7.88,.94-.75,.09-1.49,.17-2.26,.26q-4.06,.43-7.86,1.8-.49,19,5.69,35.44c.76,.85,1.53,1.69,2.31,2.56-.18,1.87-.38,3.74-.67,5.59-.64,4.65-.64,9.35-.76,14.05-.03,1.15-.07,2.3-.1,3.48-.07,2.5-.15,4.99-.22,7.49-.11,4-.23,8.01-.35,12.01-.17,5.71-.34,11.42-.51,17.13-.43,14.77-.88,29.53-1.34,44.3-.02,.73-.04,1.45-.07,2.2-.82,26.48-1.79,52.96-3.03,79.42-.11,2.41-.23,4.83-.34,7.24q-.08,1.71-.16,3.44c-.49,10.76-.8,21.52-1.08,32.29-.22,8.25-.57,16.48-1,24.71-.47,9.1-.77,18.2-1.06,27.31-.09,2.76-.18,5.53-.27,8.29-.06,1.91-.13,3.83-.19,5.74-.23,6.96-.47,13.92-.72,20.88-.14,3.97-.28,7.94-.42,11.91-.03,.97-.07,1.94-.1,2.94-.37,10.52-.69,21.02-.75,31.55-.39,35.53-8.7,70.36-15.85,105.04h-3q-9.54-47.68-10.18-50.98c-.56-2.81-1.16-5.6-1.79-8.39-2.65-12.1-3.84-23.85-4.34-36.2-.09-1.97-.18-3.95-.28-5.92-.25-5.32-.48-10.64-.71-15.96-.25-5.68-.51-11.36-.77-17.03-.5-10.82-.98-21.65-1.45-32.47-.53-11.98-1.07-23.97-1.61-35.95-.69-15.23-1.38-30.47-2.06-45.7-.96-21.61-1.93-43.22-2.95-64.83-.05-.97-.09-1.93-.14-2.93-.42-8.99-.85-17.99-1.28-26.98q-4.53-94.5-4.44-109.41c0-2.77-.32-4.63-1-7.26q-.57-6.31,1.95-9.34c2.39-3.1,2.74-4.93,3.18-8.79,.14-1.21,.29-2.42,.44-3.67,.15-1.4,.29-2.8,.44-4.2,.19-1.71,.37-3.43,.56-5.14,.5-4.62,.97-9.24,1.44-13.86-1.87-.34-3.75-.67-5.62-1-1.04-.19-2.09-.37-3.16-.56q-5.94-1.04-11.29,1.02-.86,.95-1.73,1.91c-.58,.63-1.17,1.25-1.77,1.9q-1.49,1.68-2.42,3.73h-2c-.23,.64-.45,1.28-.69,1.94q-1.31,2.06-3.89,2.69c-.8,.12-1.6,.24-2.42,.37-.48-.97-.97-1.94-1.47-2.94q-.48-.96-.97-1.94c-.71-1.43-1.43-2.86-2.14-4.29-1.88-3.77-3.78-7.54-5.7-11.29-.36-.71-.72-1.42-1.1-2.15-.69-1.36-1.39-2.72-2.1-4.08-1.73-3.4-3.14-6.5-3.53-10.32,.33-.33,.66-.66,1-1,5.79,.34,10.64,1.82,16.07,3.78,15.54,5.57,30.58,7.16,46.93,8.22-.63-9.05-1.51-18.04-2.56-27.05q-.22-1.95-.45-3.93c-.31-2.73-.63-5.45-.95-8.18-.4-3.45-.8-6.89-1.19-10.34-.39-3.35-.77-6.7-1.16-10.05-.15-1.29-.3-2.58-.45-3.91-.69-5.91-1.4-11.81-2.19-17.71-.96-7.21-1.33-14.25-1.24-21.52,0-1.03,0-2.06,0-3.12,.03-4.55,.18-8.73,1.19-13.19-17.55,4.8-32.52,11.49-48,21q-14.74,9.01-23,9c-.86,.05-1.73,.1-2.62,.15-8.13,.33-14.26-1.41-21.76-4.4-1.91-.73-3.82-1.46-5.73-2.19-2.22-.85-4.44-1.7-6.66-2.56-9.82-3.77-19.69-7.39-29.55-11.04-3.56-1.32-7.13-2.65-10.69-3.97-5.42-2.02-10.85-4.02-16.29-6.01-1.63-.6-3.27-1.2-4.9-1.8-8.07-2.98-16.12-4.99-24.51-6.82q-44.22-9.76-57.03-28.63-1.17-1.88-3.27-2.74v-2c-.99-.33-1.98-.66-3-1v-2c-.99-.33-1.98-.66-3-1v-2q-.86-.37-1.74-.75c-2.59-1.43-4.3-3.08-6.37-5.2-.77-.78-1.54-1.57-2.34-2.37-.8-.82-1.6-1.64-2.42-2.48q-6.11-6.33-12.7-12.14c-.8-.68-1.6-1.35-2.43-2.05v-2q-1.48-.5-3-1v-2q-.85-.38-1.71-.77c-2.56-1.38-4.61-3-6.85-4.85-4.63-3.79-9.44-7.24-14.38-10.61-.68-.58-1.36-1.16-2.05-1.76v-3c5.77-1.74,11.53-3.47,17.3-5.19,1.69-.5,3.37-1.01,5.06-1.52,8.9-2.68,17.81-5.15,26.86-7.3,4.34-1.14,8.54-2.55,12.78-3.99,1.36-.44,2.72-.89,4.08-1.32,10.02-3.26,19.88-6.88,29.71-10.68,5.58-2.15,11.18-4.22,16.8-6.27,4.63-1.7,9.25-3.42,13.87-5.17,1.1-.41,2.19-.83,3.32-1.26,2.16-.82,4.32-1.64,6.48-2.46q1.47-.56,2.97-1.12c.87-.33,1.75-.66,2.65-1.01q2.13-.72,4.13-.72v-2c18.22-.44,34.92,2.58,50,13,.85,.56,1.7,1.13,2.58,1.71,1.45,.96,2.88,1.93,4.31,2.91,3.19,2.09,6.56,3.84,9.92,5.64,10.97,6,21.63,12.6,32.35,19.04,6.64,3.99,13.29,7.94,19.96,11.89,.95,.57,1.91,1.13,2.89,1.71q1.33,.78,2.68,1.58c.78,.46,1.57,.93,2.38,1.4,4.23,2.45,8.08,2.44,12.87,2.65,.89,.04,1.77,.09,2.68,.13,2.83,.14,5.67,.27,8.5,.4,1.92,.09,3.84,.18,5.75,.28,4.71,.23,9.41,.45,14.12,.66q.02-1.27,.05-2.56c.32-7.6,1.25-12.6,5.89-18.63,.46-.64,.91-1.28,1.38-1.94,1.76-2.45,3.55-4.74,5.68-6.87-.17-3.13-.65-4.62-2.78-6.95-.71-.57-1.43-1.15-2.16-1.74-.71-.58-1.42-1.16-2.15-1.76-.63-.51-1.26-1.02-1.91-1.55q-2-2-2.25-4.21c.09-9.07,.87-18.02,1.75-27.04,.15-1.54,.29-3.07,.43-4.61,.35-3.72,.71-7.43,1.07-11.14,4.64-1.88,8.43-3.41,13.5-3.31ZM175.73,108.72c-1.33,.69-2.66,1.39-3.98,2.09-1.43,.74-2.86,1.48-4.3,2.22-.73,.38-1.47,.76-2.22,1.15-3.54,1.8-7.13,3.47-10.73,5.13-.65,.3-1.31,.6-1.98,.92-1.51,.7-3.01,1.39-4.52,2.08,3.26,2.17,6.11,3.15,9.83,4.36,.69,.23,1.38,.46,2.1,.69,3.09,1.02,6.18,2.03,9.28,3.04,9.4,3.07,18.74,6.22,28,9.66,2.5,.91,5,1.82,7.5,2.73,1.59,.59,3.17,1.18,4.75,1.8,11.88,4.61,21.02,5.13,33.55,2.72-2.8-2.29-5.55-4.45-8.65-6.3-.68-.41-1.37-.82-2.07-1.25q-1.1-.66-2.22-1.32c-7.12-4.3-14.17-8.71-21.19-13.19-1.85-1.18-3.71-2.36-5.56-3.55q-1.34-.85-2.7-1.72c-3.93-2.5-7.86-5-11.8-7.48-.65-.41-1.31-.83-1.98-1.26q-5.24-3.62-11.1-2.53Zm303.86,.69c-.73,.46-1.46,.93-2.21,1.41-.8,.51-1.61,1.03-2.44,1.56-1.74,1.1-3.48,2.21-5.21,3.31q-1.39,.88-2.81,1.79c-3.98,2.52-7.97,5-11.97,7.49-8.3,5.17-16.59,10.36-24.82,15.66-.7,.45-1.4,.9-2.13,1.36-2.54,1.64-4.86,3.18-7,5.32,12.66,2.47,21.46,1.54,33.44-3,1.52-.55,3.04-1.09,4.56-1.63,3.26-1.15,6.5-2.32,9.75-3.5,8.49-3.06,17.07-5.85,25.64-8.68,4.56-1.51,9.12-3.03,13.68-4.55,1.55-.52,3.09-1.03,4.64-1.55,1.08-.36,2.17-.72,3.28-1.09-3.09-2.06-6.27-3.66-9.6-5.26-.64-.31-1.27-.62-1.93-.93-1.34-.65-2.69-1.3-4.03-1.94-2.06-.99-4.13-1.99-6.19-2.99-1.3-.63-2.61-1.26-3.91-1.89-.62-.3-1.24-.6-1.88-.91q-4.62-2.3-8.87,.01Z"/>
  <path class="cls-14" d="M314,311.32c1.73,5.48,.68,11.17,.25,16.81-.07,1.16-.15,2.33-.23,3.53-.46,6.15-1.02,11.23-4.02,16.66-.58,.47-1.16,.95-1.75,1.44q-1.67,1.71-.85,5.2c.1,.72,.21,1.44,.31,2.18,.42,3.17,.54,6.34,.66,9.54,.03,.69,.06,1.37,.08,2.08,.09,2.25,.18,4.5,.26,6.75,.06,1.59,.13,3.17,.19,4.76,.17,4.17,.33,8.34,.49,12.51,.26,6.64,.52,13.29,.79,19.93,.09,2.29,.18,4.59,.27,6.88,.28,7.09,.61,14.16,1.07,21.24,.36,5.58,.64,11.14,.75,16.73,.04,1.56,.08,3.12,.11,4.68,.05,2.38,.11,4.76,.16,7.14,.05,2.35,.11,4.7,.17,7.06,.01,.71,.03,1.41,.04,2.14,.07,2.92,.23,5.73,.73,8.61,.5,3.12,.72,6.12,.85,9.27,.05,1.2,.1,2.41,.15,3.65,.05,1.3,.1,2.61,.15,3.95,.06,1.39,.11,2.78,.17,4.17,.12,2.98,.24,5.95,.36,8.93,.32,7.98,.66,15.95,.99,23.93,.03,.81,.07,1.62,.1,2.46,.68,16.12,1.43,32.24,2.22,48.36,.06,1.25,.12,2.49,.18,3.78,.31,6.3,.62,12.59,.93,18.89,.37,7.49,.74,14.99,1.1,22.48,.24,4.86,.47,9.73,.71,14.59,.13,2.63,.26,5.27,.39,7.9q.8,16.52,1.74,33.04c.56,9.17,.81,18.33,1.05,27.51,.35,11.91,1.18,23.32,3.64,34.99,.22,1.07,.44,2.15,.67,3.25,.69,3.33,1.38,6.67,2.08,10,.43,2.07,.87,4.15,1.3,6.22,.21,1,.42,2,.64,3.04,.21,.99,.41,1.98,.63,3q.31,1.47,.62,2.96c1.43,6.86,2.81,13.72,4.13,20.6,.17,.88,.34,1.77,.52,2.68,.15,.81,.31,1.63,.47,2.47,.14,.71,.27,1.42,.41,2.16q.29,1.89,.29,4.89h-2q-9.54-47.68-10.18-50.98c-.56-2.81-1.16-5.6-1.79-8.39-2.65-12.1-3.84-23.85-4.34-36.2-.09-1.97-.18-3.95-.28-5.92-.25-5.32-.48-10.64-.71-15.96-.25-5.68-.51-11.36-.77-17.03-.5-10.82-.98-21.65-1.45-32.47-.53-11.98-1.07-23.97-1.61-35.95-.69-15.23-1.38-30.47-2.06-45.7-.96-21.61-1.93-43.22-2.95-64.83-.05-.97-.09-1.93-.14-2.93-.42-8.99-.85-17.99-1.28-26.98q-4.53-94.5-4.44-109.41c0-2.77-.32-4.63-1-7.26q-.31-3.44,0-7c.64-.77,1.29-1.54,1.95-2.34,2.4-3.12,2.74-4.98,3.18-8.85,.15-1.21,.29-2.43,.44-3.68,.15-1.38,.29-2.76,.43-4.13,.26-2.45,.53-4.91,.8-7.36,.17-1.62,.34-3.24,.5-4.86q.59-5.67,1.7-6.78Z"/>
  <path class="cls-20" d="M146,29.32c18.23-.44,34.9,2.59,50,13,.98,.63,1.96,1.27,2.97,1.92,2.04,1.33,4.05,2.68,6.03,4.08l-2,1q-2.01-1.05-4.48-2.68c-11.09-7.07-19.21-11.82-32.52-12.32-1.82-.34-3.63-.71-5.44-1.12-4.31-.91-8.16-1.19-12.56-.88-.66,.66-1.32,1.32-2,2-2.59,.98-5.18,1.88-7.81,2.75-10.4,3.54-20.67,7.41-30.94,11.31q-1.17,.45-2.37,.9c-1.55,.59-3.09,1.18-4.64,1.76-1.53,.58-3.05,1.16-4.58,1.74-3.59,1.36-7.18,2.73-10.75,4.13-9.62,3.72-19.35,6.71-29.28,9.47-1.55,.44-3.09,.87-4.64,1.31-8.56,2.41-17.13,4.79-25.71,7.14-4.11,1.13-8.15,2.39-12.17,3.79-4.31,1.42-8.71,2.54-13.1,3.69v-3c5.77-1.74,11.53-3.47,17.3-5.19,1.69-.5,3.37-1.01,5.06-1.52,8.9-2.68,17.81-5.15,26.86-7.3,4.34-1.14,8.54-2.55,12.78-3.99,1.36-.44,2.72-.89,4.08-1.32,10.02-3.26,19.88-6.88,29.71-10.68,5.58-2.15,11.18-4.22,16.8-6.27,4.63-1.7,9.25-3.42,13.87-5.17,1.1-.41,2.19-.83,3.32-1.26,2.16-.82,4.32-1.64,6.48-2.46q1.47-.56,2.97-1.12c.87-.33,1.75-.66,2.65-1.01q2.13-.72,4.13-.72v-2Z"/>
  <path class="cls-8" d="M517,29.32l2,2q1.96,.89,4.12,1.62,1.09,.39,2.2,.79c.55,.19,1.11,.39,1.68,.59q-1.83,.59-4,1c-.89-.47-1.77-.95-2.69-1.44-8.26-3.89-17.8-.69-26.35,1.1q-1.97,.33-5.67,.46c-5.77,.7-10.4,4.18-15.21,7.24-2.44,1.55-4.89,3.07-7.35,4.6-1.29,.8-2.57,1.6-3.86,2.4-6.98,4.35-14.08,8.5-21.19,12.63-2.44,1.42-4.87,2.84-7.3,4.27-1.11,.65-2.23,1.3-3.37,1.97-3.66,2.15-7.31,4.32-10.95,6.51-6.27,3.78-12.57,7.52-18.88,11.25-.98,.58-1.95,1.15-2.95,1.75-.91,.54-1.82,1.07-2.75,1.63-.82,.48-1.63,.96-2.47,1.46-3.88,2.25-7.01,2.38-11.42,2.48-.73,.02-1.46,.04-2.21,.06-2.33,.07-4.67,.12-7,.18-1.58,.04-3.16,.09-4.74,.13-3.88,.11-7.76,.21-11.63,.31v-2q1.32-.04,2.67-.09c3.32-.12,6.65-.27,9.97-.44,1.43-.07,2.86-.12,4.29-.17,9.74-.32,16.78-1.89,25.07-7.31,2.17-1.27,4.35-2.53,6.54-3.78,2.37-1.38,4.73-2.77,7.09-4.16,1.28-.75,2.56-1.51,3.85-2.26,9.04-5.31,18.04-10.7,27.02-16.11,9.69-5.83,19.44-11.54,29.2-17.24,.6-.35,1.2-.7,1.81-1.06,1.63-.95,3.25-1.9,4.88-2.85,1.9-1.13,3.77-2.32,5.61-3.55q2.49-.59,5.45-1.07c1.08-.17,2.16-.35,3.27-.53,1.13-.17,2.25-.35,3.41-.53,1.1-.18,2.21-.36,3.34-.55,6.24-.99,12.21-1.72,18.53-1.32Z"/>
  <path class="cls-2" d="M314,311.32c1.73,5.48,.68,11.17,.25,16.81-.07,1.16-.15,2.33-.23,3.53-.46,6.15-1.02,11.23-4.02,16.66-.58,.47-1.16,.95-1.75,1.44q-1.67,1.71-.85,5.2c.1,.72,.21,1.44,.31,2.18,.42,3.17,.54,6.34,.66,9.54,.03,.69,.06,1.37,.08,2.08,.09,2.25,.18,4.5,.26,6.75,.06,1.59,.13,3.17,.19,4.76,.17,4.17,.33,8.34,.49,12.51,.26,6.64,.52,13.29,.79,19.93,.09,2.29,.18,4.59,.27,6.88,.33,8.43,.78,16.83,1.33,25.25,.25,4.02,.42,8.02,.53,12.05,.02,.71,.04,1.42,.06,2.15,.06,2.24,.12,4.49,.18,6.73,.02,.77,.04,1.54,.06,2.34,.37,13.74,.5,27.47,.37,41.22h-1c-1.61-35.07-3.16-70.15-4.59-105.23-.1-2.45-.2-4.9-.3-7.36-.16-3.88-.32-7.75-.47-11.63-.06-1.42-.12-2.85-.17-4.27q-.5-12.13-.47-17.29c0-2.75-.32-4.61-1-7.22q-.31-3.44,0-7c.64-.77,1.29-1.54,1.95-2.34,2.4-3.12,2.74-4.98,3.18-8.85,.15-1.21,.29-2.43,.44-3.68,.15-1.38,.29-2.76,.43-4.13,.26-2.45,.53-4.91,.8-7.36,.17-1.62,.34-3.24,.5-4.86q.59-5.67,1.7-6.78Z"/>
  <path class="cls-3" d="M205,49.32c3.41,.66,5.96,1.98,8.94,3.74,.97,.57,1.93,1.13,2.93,1.72q1.55,.92,3.13,1.86c1.07,.63,2.15,1.26,3.25,1.91,7.44,4.39,14.86,8.82,22.27,13.28,6.52,3.93,13.06,7.81,19.61,11.68,.96,.57,1.91,1.13,2.9,1.71,.88,.52,1.77,1.04,2.68,1.58,.78,.46,1.57,.93,2.38,1.4,4.23,2.45,8.08,2.44,12.87,2.65,.89,.04,1.77,.09,2.68,.13,2.83,.14,5.67,.27,8.5,.4,1.92,.09,3.84,.18,5.75,.28,4.71,.23,9.41,.45,14.12,.66,.01-.84,.03-1.69,.05-2.56,.32-7.6,1.25-12.6,5.89-18.63,.46-.64,.91-1.28,1.38-1.94,1.76-2.45,3.55-4.74,5.68-6.87q-.32-3.1-1-6h2q2.07,3.4,1.8,5.8c-1.08,2.97-2.77,5.12-4.68,7.64-4.64,6.16-7.44,9.99-7.81,17.88-.07,1.25-.13,2.51-.2,3.8-.04,.95-.07,1.91-.11,2.89-9.74,.11-19.46,.03-29.19-.38-.87-.03-1.74-.06-2.64-.09-10.35-.48-17.53-4.19-26.36-9.41-1.17-.68-2.33-1.36-3.5-2.04-3.44-2.01-6.88-4.05-10.31-6.08-.92-.55-1.84-1.09-2.79-1.65-4.87-2.89-9.73-5.81-14.57-8.75-2.99-1.81-5.99-3.61-8.98-5.42-2.13-1.29-4.27-2.58-6.4-3.87-1.02-.61-2.04-1.23-3.09-1.86-.93-.57-1.87-1.13-2.83-1.72-.84-.5-1.67-1.01-2.53-1.53-.59-.4-1.18-.8-1.79-1.21v-1Z"/>
  <path class="cls-6" d="M518,123.32v2c-1.13,.37-2.26,.73-3.42,1.11-3.4,1.1-6.8,2.21-10.19,3.31-3.9,1.27-7.81,2.53-11.71,3.8-9.16,2.97-18.3,5.97-27.38,9.16-1.48,.51-2.95,1.03-4.43,1.54-2.05,.71-4.11,1.43-6.15,2.18-11.76,4.29-22.4,4.87-34.71,2.9v-2c1.11,.13,2.22,.26,3.36,.4,11.64,1.15,20.29-.39,31.14-4.46,1.52-.54,3.03-1.08,4.55-1.61,3.25-1.14,6.49-2.3,9.72-3.47,8.46-3.03,16.98-5.87,25.51-8.72,2.81-.94,5.62-1.9,8.43-2.86,1.72-.58,3.44-1.16,5.17-1.74,.79-.27,1.59-.55,2.41-.83q5.48-1.83,7.71-.71Z"/>
  <path class="cls-20" d="M148,123.32c7.98,1.52,15.56,4.06,23.24,6.65,2.37,.8,4.74,1.59,7.12,2.37,7.88,2.62,15.7,5.33,23.46,8.28,14.71,5.53,26.42,9.24,42.19,5.69,.66,.33,1.32,.66,2,1v2c-14.4,1.82-25.8,.68-39.38-4.19-1.55-.54-3.09-1.07-4.64-1.61-3.27-1.13-6.54-2.27-9.81-3.41-8.07-2.81-16.18-5.48-24.29-8.17-4.21-1.4-8.41-2.8-12.62-4.2-1.42-.47-2.84-.95-4.26-1.42-.99-.33-1.99-.66-3.01-1v-2Z"/>
  <path class="cls-19" d="M146,29.32c18.23-.44,34.9,2.59,50,13,.98,.63,1.96,1.27,2.97,1.92,2.04,1.33,4.05,2.68,6.03,4.08l-2,1q-2.01-1.05-4.48-2.68c-11.09-7.07-19.21-11.82-32.52-12.32-1.82-.34-3.63-.71-5.44-1.12-4.31-.91-8.16-1.19-12.56-.88-.66,.66-1.32,1.32-2,2q-1.84,.85-3.94,1.62c-.69,.26-1.38,.52-2.09,.79q-1.97,.59-4.97,.59c.33-.99,.66-1.98,1-3q2.29-.95,5.06-1.69c.92-.25,1.84-.5,2.79-.76,.71-.18,1.42-.36,2.15-.55v-2Z"/>
  <path class="cls-17" d="M262,285.32c5.78,.45,10.63,1.82,16.07,3.78,15.52,5.56,30.59,7.19,46.93,8.22,.33-1.98,.66-3.96,1-6h1v8c-7.67,.25-15.18-.07-22.81-.81-.79-.07-1.57-.14-2.39-.21-4.54-.48-8.44-1.4-12.66-3.12-4.27-1.71-8.66-3.09-13.02-4.55-.95-.32-1.9-.64-2.88-.97-.9-.3-1.81-.6-2.74-.92-.82-.27-1.64-.55-2.48-.83q-2-.69-4.03-.59c.14,.56,.29,1.11,.44,1.69,.59,2.43,1.09,4.86,1.56,7.31-3.09-1.55-3.72-3.88-5-7q.31-2.38,1-4Z"/>
  <path class="cls-1" d="M412,284.32c-2.47,2.47-4.48,2.99-7.79,4.09-1.17,.39-2.34,.78-3.55,1.18q-1.85,.61-3.73,1.22t-3.65,1.22c-9.86,3.26-19.14,5.45-29.48,6.4-.86,.09-1.73,.17-2.62,.26-4.42,.43-8.75,.72-13.2,.61,.33-.66,.66-1.32,1-2q2.4-.41,5.59-.64c1.17-.1,2.34-.2,3.54-.3,1.26-.1,2.51-.21,3.81-.31,11.08-1.04,20.87-2.94,31.2-7.02,2.86-1.12,5.76-2.12,8.67-3.1,.89-.32,1.79-.63,2.71-.96,2.6-.7,4.8-.79,7.48-.66Z"/>
  <path class="cls-1" d="M349,2.32v1c-1.22-.02-2.44-.05-3.69-.07-1.62-.02-3.25-.04-4.87-.05q-1.2-.03-2.42-.05t-2.39-.02c-.72-.01-1.43-.02-2.17-.03q-3.26,.23-9.45,2.23c-.99,14.52-1.98,29.04-3,44-.66-.33-1.32-.66-2-1-.26-9.84,.55-19.47,1.5-29.25,.15-1.54,.29-3.07,.43-4.61,.35-3.72,.71-7.43,1.07-11.14,9.43-3.82,17.23-3.95,27-1Z"/>
  <path class="cls-18" d="M329,56.32h2q2.07,3.4,1.8,5.8c-1.08,2.97-2.77,5.12-4.68,7.64-4.64,6.16-7.44,9.99-7.81,17.88-.1,2.21-.21,4.41-.31,6.69h-18v-1c1.37-.17,2.75-.34,4.12-.5,.77-.09,1.53-.19,2.32-.28,2.86-.25,5.68-.25,8.55-.22-.04-.76-.09-1.53-.13-2.32,.03-11.16,5.33-19.88,13.13-27.68q-.32-3.1-1-6Z"/>
  <path class="cls-12" d="M517,29.32l2,2q1.96,.89,4.12,1.62c.72,.26,1.45,.52,2.2,.79q.83,.29,1.68,.59-1.83,.59-4,1c-.89-.47-1.77-.95-2.69-1.44-7.77-3.66-16.29-.96-24.35,.68-2.76,.56-5.51,.96-8.3,1.29-3.14,.4-5.02,.82-7.66,2.47q1.88-3.88,3-5c3.97-.84,7.99-1.42,12-2.06,1.11-.19,2.22-.37,3.37-.56,6.28-1.01,12.27-1.78,18.63-1.37Z"/>
  <path class="cls-11" d="M319,78.32h1v16h-18v-1c1.37-.17,2.75-.34,4.12-.5,.77-.09,1.53-.19,2.32-.28,2.86-.25,5.68-.25,8.55-.22,.06-.93,.12-1.85,.18-2.81,.08-1.2,.17-2.4,.25-3.63,.08-1.19,.16-2.39,.25-3.62q.32-2.94,1.32-3.94Z"/>
  <path class="cls-16" d="M146,29.32l6,1c-.62,.29-1.24,.58-1.88,.88q-2.26,1.06-4.12,3.12-1.84,.85-3.94,1.62c-.69,.26-1.38,.52-2.09,.79q-1.97,.59-4.97,.59c.33-.99,.66-1.98,1-3q2.29-.95,5.06-1.69c.92-.25,1.84-.5,2.79-.76,.71-.18,1.42-.36,2.15-.55v-2Z"/>
  <path class="cls-15" d="M72,59.32v2c-2.06,.68-4.12,1.34-6.19,2-1.15,.37-2.3,.74-3.48,1.12-2.98,.78-5.28,1.06-8.33,.88q1-2,4.05-3.07c1.26-.35,2.52-.7,3.82-1.05q1.88-.53,3.8-1.07,3.32-.8,6.32-.8Z"/>
  <path class="cls-10" d="M262,285.32c1.26,.12,2.52,.25,3.81,.38q1.06,.1,2.14,.21,2.04,.41,5.04,2.41c-2.97-.33-5.94-.66-9-1,.33,1.32,.66,2.64,1,4,.34,1.67,.68,3.33,1,5-3.09-1.55-3.72-3.88-5-7q.31-2.38,1-4Z"/>
  <path class="cls-1" d="M412,284.32c-2.05,2.05-3.27,2.64-5.94,3.62q-1.03,.39-2.09,.79-1.97,.59-4.97,.59v-2q8.43-3.43,13-3Z"/>
  <path class="cls-7" d="M518,123.32v2q-5.45,1.48-11,3,1-3,2.78-3.98,1.07-.38,2.16-.77c.71-.26,1.42-.53,2.15-.8q1.91-.45,3.91,.55Z"/>
  <path class="cls-6" d="M10,77.32v2q-4.95,1.48-10,3v-3c3.62-1.32,6.1-2,10-2Z"/>
  <path class="cls-15" d="M101,48.32v2q-6.96,3.35-11,2c1.46-.67,2.92-1.34,4.38-2,.81-.37,1.62-.74,2.46-1.12q2.16-.88,4.16-.88Z"/>
  <path class="cls-13" d="M329,56.32h2c1.43,2.35,2.09,3.48,1.62,6.25-.21,.58-.41,1.16-.62,1.75h-3c.19-.76,.37-1.53,.56-2.31q.67-2.78-.56-5.69Z"/>
  <path class="cls-5" d="M146,29.32l6,1c-2.67,1.33-5.33,2.67-8,4,.66-1.65,1.32-3.3,2-5Z"/>
  <ellipse cx="340" cy="545.32" rx="105" ry="108"/>
  <ellipse class="cls-4" cx="340" cy="545.32" rx="59.36" ry="61.06"/>
</svg>