<?xml version="1.0" encoding="UTF-8"?>
<svg id="Layer_1" data-name="Layer 1" xmlns="http://www.w3.org/2000/svg" viewBox="0 0 532.2 900.3">
  <defs>
    <style>
      .cls-1 {
        fill: #fff;
      }
    </style>
  </defs>
  <g>
    <path d="M258.2,58.5l-7.3,59.3-11.7,26.7-11.7,26.7-18.5,8.5-18.5,8.5-22.5,4.2-22.5,4.1-18.9-6.6c-10.4-3.6-19.2-6.4-19.4-6.1-.3,.3,2.2,12.6,5.5,27.5l6,27-4.6,22.3-4.7,22.4-10.3,16.5-10.4,16.4-23.6,15.5-23.6,15.6-20.7,4.3c-11.5,2.4-20.8,4.6-20.8,4.9s6.9,3.9,15.3,7.9l15.2,7.3,25.4,23.2,25.3,23.2,14,35.5,13.9,35.5-.1,25.4-.1,25.4-4.9,21.6c-2.8,11.8-5,21.7-5,22,0,.2,13.5-18.5,30-41.7s30-42.4,30-42.8c0-.3-3.3-4.5-7.4-9.2-29.3-34.6-44-78-42.3-124.7,2.4-66.4,37-122.8,90.8-148.4,20.1-9.6,37.4-13.1,64.9-13.1s45,3.5,66.5,13.9c48.3,23.4,81.3,72,89.1,131.4,2,14.9,1.4,41.4-1.1,55.7-6.1,34.3-20.7,64.4-43.4,90-2.2,2.5-4.1,4.8-4.1,5.2,0,1.4,59.4,84.1,59.7,83.1,.2-.5-1.9-10.7-4.7-22.7l-5-21.7v-50.4l13.9-35.5,14-35.5,24.3-22.3,24.3-22.3,16.8-8.3,16.9-8.2-20.9-4.4-20.8-4.3-24-15.8c-20-13.2-24.4-16.5-26.6-20.1-1.4-2.4-6.1-9.8-10.4-16.6l-7.8-12.3-4.7-22.6-4.6-22.6,5.8-25.6c3.1-14.1,5.8-26.1,5.8-26.8s-7.4,1.4-18.7,5.4l-18.8,6.5-23-4.3-23-4.3-18.4-8.5-18.3-8.6-11.8-27-11.8-27-7.1-58C269.1,26.9,265.8,.5,265.7,0c-.1-.4-3.5,25.9-7.5,58.5Z"/>
    <path d="M263.4,264.1c-2,12.5-1.2,11.5-10.9,12.7-4.7,.7-15.1,3.7-22.2,6.6-3.2,1.3-3.4,1.3-8.3-3.6-2.7-2.7-5-5.4-5-6-.1-.5-2.5-3.6-5.4-6.8l-5.3-5.7,1.4,4.7c.8,2.7,1.9,5.7,2.3,6.8,.5,1.1,1.4,4,2.1,6.5,.6,2.5,1.4,4.9,1.9,5.5,.4,.5,1,2.2,1.4,3.6,.5,2.4-.2,3.3-6.3,8.3-3.8,3.1-9.6,9-13,13.1-6.3,7.5-6.5,7.6-11.6,5.5-1.1-.5-6.3-2.2-11.5-3.8-5.2-1.7-10.4-3.3-11.5-3.7s-.1,1.1,2.5,3.4c2.5,2.3,7,6.6,10,9.5,3,3,6.3,5.6,7.3,6,2.3,.7,2.2,2.6-.7,10.5-2.3,6.6-3.9,13.4-5.1,22.2l-.6,4.7-6.2,.6c-3.4,.4-6.6,1-7.2,1.4-.5,.4-1.6,.7-2.3,.8-.8,.2-4.6,.8-8.5,1.5l-7.2,1.2,6,1.4c5.6,1.3,18.6,3.9,22.9,4.7,2.6,.4,3.1,1.5,4.9,11.1,.8,4.4,2.8,11.4,4.5,15.5l3,7.5-6.6,6.6c-3.7,3.7-7,6.5-7.3,6.3s-2.5,1.7-4.9,4.1c-4.1,4.2-4.2,5.7-.2,3.6,3.2-1.8,25.4-8,26.5-7.5,.7,.3,3,2.7,5.2,5.5,3.4,4.2,11.6,11.6,17.7,16.1,1.5,1.1,1.6,1.9,.7,5.3-.5,2.2-1.4,4.9-1.9,6-2,4.4-6.1,17.7-5.8,18.7,.2,.5,1.8-1,3.5-3.4,1.8-2.4,6.3-7.6,10.1-11.7l6.8-7.5,7.5,2.5,7.4,2.4,.5,24.2,.5,24.2,3.4,3.5,3.3,3.4-.6,29.4c-.3,16.1-.8,46.6-1.1,67.8s-1,65.9-1.5,99.5c-.5,33.5-1,71.1-1.1,83.5l-.1,22.5-5.2,13.1-5.3,13.1-.5,21.9-.6,21.9,11.9,7.8c11.5,7.4,12.2,7.7,17.9,7.7s6.3-.3,18.5-8.2l12.5-8.2-.6-21.6-.6-21.5-5-13-5.1-13-2.3-152-2.3-152,3.4-3.5,3.5-3.6v-47.3l7-2.2,6.9-2.1,4.6,3.8c2.5,2.1,4.5,4.2,4.5,4.7,0,1,13.2,15.8,13.7,15.3,.2-.2-1.9-7.2-4.7-15.6s-5-15.3-4.8-15.4c3.6-2,13.5-10.6,18.2-15.9l6.3-7,9.4,3.1c16.9,5.4,20.1,6.3,20.7,5.7,.7-.7-5.8-7.5-7.2-7.5-.6,0-4.3-3.2-8.2-7.1l-7.1-7,3.3-8.7c1.8-4.8,3.8-11.9,4.5-15.7,.7-3.9,1.7-7.5,2.3-8.1,.6-.7,4.9-1.9,9.6-2.8,4.7-.8,11.4-2.1,15-2.9,7-1.4,6.5-1.9-3.5-3.2-2.7-.3-5.9-1-7-1.5s-4.7-1.3-8-1.7l-6-.8-1.7-10c-.9-5.4-2.8-13.2-4.2-17.1-2.7-7.4-3.3-10.9-1.8-10,.5,.3,2.4-1.1,4.3-3.1,1.9-1.9,6.4-6.2,10.2-9.4,3.7-3.3,6.4-5.9,6-5.9-.8,0-18.8,5.8-21.8,7-4.8,1.9-5.6,1.9-7.4-.3-9.2-10.8-12.5-14.3-18.3-19.2-3.8-3.2-6.8-5.8-6.8-5.9s3.8-10.8,5.3-14.6c1.4-3.8,2.7-8.4,2.7-9.4,0-.6-4.2,3.4-9.3,8.8l-9.3,9.9-6.9-2.8c-3.8-1.5-10.5-3.4-15-4.2-13.9-2.6-12.7-1.5-14.6-12.5-.9-5.4-1.9-10.3-2.1-11-.3-.7-1.3,3.8-2.4,10Z"/>
  </g>
  <ellipse class="cls-1" cx="266.1" cy="366.2" rx="62.95" ry="64.75"/>
  <ellipse cx="266.1" cy="366.2" rx="35.59" ry="36.6"/>
</svg>