<?xml version="1.0" encoding="UTF-8"?>
<svg id="Layer_1" data-name="Layer 1" xmlns="http://www.w3.org/2000/svg" viewBox="0 0 502.19 931.04">
  <defs>
    <style>
      .cls-1 {
        fill: #fff;
      }

      .cls-2 {
        fill: #fafafa;
      }

      .cls-3 {
        fill: #f6f6f6;
      }

      .cls-4 {
        fill: #f5f5f5;
      }

      .cls-5 {
        fill: #e7e7e7;
      }

      .cls-6 {
        fill: #dadada;
      }

      .cls-7 {
        fill: #e4e4e4;
      }

      .cls-8 {
        fill: #fbfbfb;
      }

      .cls-9 {
        fill: #efefef;
      }

      .cls-10 {
        fill: #f1f1f1;
      }

      .cls-11 {
        fill: #f3f3f3;
      }

      .cls-12 {
        fill: #010101;
      }

      .cls-13 {
        fill: #fcfcfc;
      }
    </style>
  </defs>
  <path class="cls-12" d="M116.17,0q-.89,20.56-1.56,27.19c-2.29,23.45,.29,60.24,14.89,79.57,3.12,3.42,6.82,5.75,10.68,8.25,1.13,.95,2.24,1.91,3.34,2.89,14,12.12,33.24,19.2,51.66,20.11q2.47,9.4,5,19,3.96,.99,8,2c.66-10.23,1.32-20.46,2-31q3.96-1.49,8-3,1.9-1.53,3.08-3.4,.69-.97,1.38-1.95c.44-.67,.89-1.34,1.35-2.02,.46-.66,.93-1.32,1.4-2,1.29-1.86,2.54-3.74,3.78-5.62,.55-.77,1.1-1.54,1.66-2.34,2.06-4.11,2.94-8.45,3.96-12.91,.43-1.82,.86-3.64,1.29-5.45,.19-.8,.37-1.6,.56-2.43q.52-1.87,1.52-2.87c2.47-.27,4.9-.47,7.38-.62,.72-.05,1.44-.09,2.18-.14,5.89-.32,11.6-.04,17.45,.76,.41,1.2,.82,2.39,1.25,3.62,.29,.83,.57,1.66,.87,2.51q.88,2.86,1.52,5.95c1.78,8.05,4.89,13.91,9.62,20.61q.81,1.17,1.63,2.36c.54,.73,1.08,1.46,1.64,2.22,.48,.65,.95,1.3,1.45,1.97q2.69,2.55,10.04,4.77c.66,10.23,1.32,20.46,2,31,2.64-.66,5.28-1.32,8-2,1.65-6.27,3.3-12.54,5-19,1.54-.08,3.07-.16,4.65-.24,18.79-1.75,36.5-10.41,50.3-22.99q2.04-1.77,4.58-3.63c6.39-4.68,9.65-8.74,12.27-16.21,.36-1,.73-2,1.11-3.02,7.44-22.36,9.37-48.14,7.08-71.48-.67-6.85-1.11-13.55-1-20.44,3.34,.58,4.87,1.53,7.14,4.03q.86,.93,1.74,1.89c.6,.67,1.2,1.34,1.82,2.02q.93,1.02,1.89,2.07c1.82,1.99,3.62,3.99,5.43,6,.86,.95,1.72,1.89,2.6,2.87,1.45,1.6,2.89,3.21,4.33,4.82,1.4,1.56,2.81,3.11,4.23,4.65,9.66,10.51,18.17,21.95,26.66,33.4,2.2,2.97,4.44,5.9,6.7,8.83,6.87,8.98,12.86,17.97,17.83,28.14,1.75,3.54,3.57,7.01,5.47,10.47,8.37,15.52,13.14,31.03,17.18,48.13,.32,1.32,.64,2.64,.97,3.97,5,20.47,8.67,40.68,10.03,61.72,.33,4.29,.66,8.58,1,13-14.85,5.28-29.7,10.56-45,16q13.69,2.59,27.37,5.18c1.72,.33,3.43,.65,5.15,.98,.89,.17,1.78,.34,2.7,.51,.85,.16,1.7,.32,2.58,.49,.74,.14,1.48,.28,2.24,.42q1.96,.42,4.96,1.42c.41,30.36-3.91,58.99-12.26,88.1-.6,2.12-1.2,4.23-1.79,6.35-5.14,18.29-11.74,34.41-21.37,50.84-1.97,3.39-3.86,6.82-5.73,10.27-1.54,2.83-3.12,5.63-4.71,8.43-.76,1.35-1.52,2.69-2.27,4.04-4.44,7.94-9.06,14.75-15.4,21.36-2.45,2.59-4.68,5.26-6.9,8.04-3.66,4.54-7.51,8.82-11.48,13.09-2.95,3.19-5.74,6.46-8.46,9.85-4.16,5.18-8.63,10.03-13.2,14.85-.53,.56-1.06,1.12-1.61,1.7-.5,.53-1,1.06-1.51,1.6q-1.44,1.56-2.94,3.88-.68,.79-1.37,1.59h-4c-.32-8.15,.87-15.5,2.58-23.44,1.52-7.58,1.65-14.85,1.42-22.56-.03-1.18-.05-2.35-.08-3.56-.95-28.6-8.75-56.56-27.55-78.72-1.98-2.48-3.45-5.23-5.05-7.96-4.85-6.49-11.74-8.74-19.44-10.34-9.53-1.37-19.29-.81-28.87-.41-1.65-2.97-3.3-5.94-5-9-1.58,2.69-3.17,5.37-4.75,8.06-.44,.75-.89,1.5-1.34,2.28-.88,1.5-1.76,3-2.64,4.5-.81,1.38-1.63,2.76-2.47,4.13-1.86,3.1-3.13,5.53-3.36,9.15-1.13,6.29-5.86,10.57-10,15.15-2.92,3.26-3.56,4.56-3.54,8.78,0,.85,0,1.69,0,2.56,0,.93,.02,1.86,.02,2.81,0,.98,0,1.95,.01,2.96,0,2.11,.02,4.22,.04,6.33,.02,3.21,.03,6.42,.04,9.63,.04,13.32,.15,26.64,.3,39.96,.07,6.69,.13,13.38,.15,20.07,.02,6.54,.08,13.07,.18,19.61,.03,2.47,.04,4.95,.04,7.42q-.73,14.88,5.71,27.5,2.31,1.75,4.61,3.08c1.01,.85,2.02,1.69,3.06,2.56,.64,.47,1.28,.95,1.94,1.44-.53,4.18-1.84,6.37-4.48,9.61-4.02,5.57-4.6,9.92-4.9,16.64q-.07,1.59-.15,3.21c-1.39,32.05-1.66,64.1-1.78,96.17-.02,5.92-.05,11.83-.08,17.75-.04,9.94-.08,19.88-.12,29.83-.04,10.08-.08,20.15-.12,30.23q0,1.86-.02,3.75c-.02,4.96-.04,9.92-.07,14.89-.06,13.2-.11,26.41-.15,39.61-.01,4.54-.03,9.07-.04,13.61,0,1.09,0,2.18,0,3.3-.04,12.82-.12,25.63-.3,38.45-.06,4.65-.1,9.31-.15,13.96-.04,3.38-.12,6.77-.19,10.15-.02,1.94-.04,3.89-.05,5.83-.03,.83-.06,1.67-.09,2.53,0,4.57,.65,6.89,3.73,10.36,.55,.53,1.1,1.07,1.67,1.62q1.29,1.51,1.29,4.51c-.7,.07-1.4,.13-2.12,.2-3.33,.57-5.86,1.23-8.88,2.8q-2.15,3.03-3.88,6.56c-1.86,3.57-3.25,6.04-7.05,7.77-7.65,1.27-15.42,.63-23.07-.33-1.2-.05-2.41-.1-3.65-.14q-3.35-.86-5.4-3.69c-.56-1.17-1.12-2.34-1.7-3.54-1.91-3.62-3.45-6.21-7.2-8.15-2.7-.7-5.27-1.21-8.05-1.47,.37-3.23,1.18-4.18,3.52-6.59,3.3-3.91,3.13-7.39,2.98-12.34,0-.93-.01-1.86-.02-2.81-.02-2.09-.05-4.18-.08-6.28-.07-3.56-.1-7.12-.13-10.68-.04-4.16-.07-8.32-.12-12.48-.15-13.13-.21-26.27-.25-39.4,0-2.23-.01-4.46-.02-6.69-.01-3.44-.02-6.88-.03-10.32-.04-13.2-.1-26.39-.16-39.59-.02-4.95-.04-9.9-.07-14.85,0-1.23-.01-2.46-.02-3.73-.04-10.02-.08-20.04-.12-30.06-.04-9.84-.08-19.67-.12-29.51-.03-5.8-.05-11.61-.07-17.41q5.14-62.03-9.71-118.12-1.58-2.14-1.35-4.1c1.27-3.38,4.1-5.41,6.77-7.73,.56-.5,1.12-1,1.7-1.51,1.43-1.27,2.87-2.54,4.3-3.8,1.57-1.57,1.16-3.12,1.2-5.29,.02-.93,.04-1.85,.06-2.81,.02-1.03,.03-2.05,.05-3.11,.02-1.08,.04-2.15,.06-3.26,.06-3.59,.12-7.17,.18-10.76,.04-2.5,.09-5,.13-7.5,.09-5.26,.18-10.53,.26-15.79,.11-6.68,.22-13.37,.34-20.05,.09-5.18,.18-10.36,.27-15.54,.04-2.46,.08-4.92,.13-7.38,.1-5.69,.18-11.38,.25-17.07,.05-4.32,.16-8.64,.31-12.96,.05-2.06,.1-4.12,.15-6.18,.04-.93,.09-1.85,.13-2.8,.12-6.6-1.56-10.51-5.87-15.5-1-1.03-2.01-2.05-3.02-3.06-2.94-3.32-3.61-5.67-4.6-9.94-4.06-9.48-9.61-18.24-15-27-1.65,2.97-3.3,5.94-5,9-1.67-.07-3.34-.14-5.05-.21q-20.39-1.05-38.95,6.21c-4.63,4.6-8.07,10-11.44,15.56-1.69,2.64-3.58,5.06-5.5,7.54-4.9,6.69-7.94,13.9-10.87,21.59-.28,.73-.57,1.46-.86,2.21-6.05,15.86-7.95,31.17-8.33,48.1-.04,1.2-.07,2.4-.11,3.63-.13,7.47,.54,14.32,2.11,21.62,1.49,7.03,2.28,13.55,2,20.75-4.58-.46-6.3-1.92-9.25-5.38-.78-.91-1.56-1.82-2.37-2.75-3.03-3.65-6.02-7.33-9-11.02-2.98-3.57-6.13-6.97-9.3-10.37-2.97-3.21-5.78-6.5-8.52-9.92-3.87-4.81-7.97-9.34-12.23-13.8-7.47-7.92-12.7-16.66-17.9-26.2-.65-1.19-1.31-2.38-1.96-3.56-1.26-2.29-2.51-4.58-3.75-6.87-1.08-1.95-2.19-3.89-3.34-5.8q-.7-1.17-1.41-2.36c-.41-.65-.82-1.31-1.24-1.98-1.02-2.74-.6-4.2,.27-6.98,.96-2.05,1.99-4.06,3.06-6.05,.31-.57,.62-1.14,.93-1.73,1-1.85,2-3.69,3.01-5.53,.68-1.26,1.37-2.53,2.05-3.79,4.89-9.02,9.86-17.99,14.95-26.9-.78,.4-1.55,.81-2.35,1.22-2.91,1.51-5.83,3.03-8.74,4.54-1.25,.65-2.51,1.3-3.76,1.96-2.99,1.55-5.97,3.1-8.96,4.64-1.9,.98-3.8,1.98-5.7,2.99-3.51,1.85-5.42,2.65-9.48,2.65-9.6-28.52-17.21-55.74-19.5-85.81-.09-1.19-.18-2.38-.28-3.6-.55-7.52-.96-15.05-1.22-22.58-.03-.82-.06-1.65-.09-2.49-.4-13.09,.83-26,2.21-39.01q.17-1.59,.34-3.21c1.6-15.04,3.68-29.58,7.7-44.19,.98-3.61,1.88-7.24,2.78-10.88,.33-1.32,.65-2.64,.98-3.96,.16-.65,.32-1.29,.48-1.96,1.18-4.77,2.39-9.54,3.6-14.31,5.86-.73,11.73-1.47,17.59-2.2q1.63-.2,3.29-.41c5.49-.69,10.97-1.37,16.46-2.06,.88-.11,1.75-.22,2.66-.33-.42-.55-.83-1.1-1.26-1.67-2.29-3.08-4.52-6.2-6.74-9.33q-.88-1.22-1.77-2.47c-1.95-2.75-3.88-5.51-5.79-8.28-.64-.9-1.29-1.8-1.95-2.72q-4.47-6.53-4.56-11.3c3.77-11.36,10.95-20.24,18.31-29.46,3.79-4.76,7.37-9.65,10.95-14.57,8.57-11.73,17.95-22.45,27.88-33.04,2.25-2.41,4.46-4.84,6.62-7.34,.51-.59,1.03-1.18,1.56-1.79,1.43-1.65,2.86-3.3,4.29-4.95,.9-1.03,1.81-2.05,2.71-3.07q1.25-1.42,2.52-2.88,2.23-2.12,5.23-2.12Z"/>
  <path class="cls-3" d="M198.17,347h2c2.09,3.67,4.17,7.36,6.24,11.04,.7,1.25,1.41,2.5,2.12,3.74q6.67,11.72,7.93,16.72c1.03,3.9,2.9,5.62,5.83,8.32,6.41,6.4,7.66,12.64,7.8,21.55,0,7.02-.26,14.04-.57,21.06-.18,4.22-.3,8.45-.42,12.67-.15,5.18-.31,10.37-.5,15.55-.37,10.57-.47,21.11-.31,31.69,.06,4.32,.09,8.64,.12,12.97,.03,3.38,.08,6.75,.18,10.13q.61,21.75-4.64,28.16c-3.29,3.34-6.82,5.95-10.79,8.41,1.27,3.52,2.78,6.19,5.04,9.16,8.79,13.01,5.17,37.56,5.48,52.89,.02,1.07,.04,2.14,.07,3.24,.57,29.17,.65,58.33,.72,87.5,0,1.45,0,2.89,0,4.34,.03,13.54,.06,27.08,.07,40.61,0,3.08,0,6.16,.01,9.24,0,.77,0,1.53,0,2.32,.02,12.52,.06,25.03,.11,37.55,.05,12.96,.08,25.91,.09,38.87,0,7.23,.02,14.47,.06,21.7,.04,6.76,.05,13.52,.03,20.29,0,2.48,.01,4.95,.03,7.43,.03,3.38,.02,6.76,0,10.14,.02,.98,.03,1.96,.05,2.96-.08,6.14-1.41,9.62-5.3,14.39q-1.48,1.37-3.48,1.37c.37-3.23,1.18-4.18,3.52-6.59,3.3-3.91,3.13-7.39,2.98-12.34,0-.93-.01-1.86-.02-2.81-.02-2.09-.05-4.18-.08-6.28-.07-3.56-.1-7.12-.13-10.68-.04-4.16-.07-8.32-.12-12.48-.15-13.13-.21-26.26-.25-39.4,0-2.23-.01-4.46-.02-6.69-.01-3.44-.02-6.88-.03-10.32-.04-13.2-.1-26.39-.16-39.59-.02-4.95-.04-9.9-.07-14.85,0-1.23-.01-2.46-.02-3.73-.04-10.02-.08-20.04-.12-30.06-.04-9.84-.08-19.67-.12-29.51-.03-5.8-.05-11.61-.07-17.41q5.14-62.03-9.71-118.12-1.58-2.14-1.35-4.1c1.27-3.38,4.1-5.41,6.77-7.73,.56-.5,1.12-1,1.7-1.51,1.43-1.27,2.87-2.54,4.3-3.8,1.57-1.57,1.16-3.12,1.2-5.29q.03-1.39,.06-2.81c.02-1.03,.03-2.05,.05-3.11,.02-1.08,.04-2.15,.06-3.26,.06-3.59,.12-7.17,.18-10.76,.04-2.5,.09-5,.13-7.5,.09-5.26,.18-10.53,.26-15.79,.11-6.68,.22-13.37,.34-20.05,.09-5.18,.18-10.36,.27-15.54,.04-2.46,.08-4.92,.13-7.38,.1-5.69,.18-11.38,.25-17.07,.05-4.32,.16-8.64,.31-12.96,.05-2.06,.1-4.12,.15-6.18,.04-.93,.09-1.85,.13-2.8,.12-6.6-1.56-10.51-5.87-15.5-1-1.03-2.01-2.05-3.02-3.06-2.94-3.32-3.61-5.67-4.6-9.94-3.43-7.9-7.83-15.37-12.1-22.83q-2.9-5.07-2.9-6.17Z"/>
  <path class="cls-11" d="M116.17,0c-1.42,3.25-3.13,5.31-5.69,7.75-3.29,3.2-6.34,6.51-9.33,9.98-3.3,3.78-6.73,7.45-10.14,11.14-5.74,6.27-11.21,12.71-16.41,19.44-.6,.77-1.19,1.54-1.81,2.33-6.18,8.01-12.17,16.14-18.13,24.32-1.3,1.77-2.61,3.52-3.95,5.26q-8.24,10.15-11.31,22.14c.87,3.03,2.12,5.05,3.92,7.63,.65,.94,1.29,1.87,1.96,2.84,.68,.97,1.36,1.93,2.06,2.93,1.33,1.91,2.65,3.82,3.98,5.73,.64,.92,1.28,1.85,1.95,2.8,1.8,2.59,3.6,5.19,5.37,7.79q.73,1.07,1.47,2.15,1.04,1.77,1.04,3.77-20.29,1.98-41,4-.99,5.45-2,11c-.7,2.72-1.42,5.41-2.21,8.1-5.32,19.1-8.98,37.9-10.92,57.65-.1,1.02-.2,2.03-.31,3.08-2.16,22.01-1.81,43.58,0,65.61q.14,1.75,.29,3.54c2.29,26.71,9.33,51.74,17.62,77.14q.54,1.88,.54,3.88h-2c-9.6-28.52-17.21-55.74-19.5-85.81-.09-1.19-.18-2.38-.28-3.6-.55-7.52-.96-15.05-1.22-22.58-.03-.82-.06-1.65-.09-2.49-.4-13.09,.83-26,2.21-39.01q.17-1.59,.34-3.21c1.6-15.04,3.68-29.58,7.7-44.19,.98-3.61,1.88-7.24,2.78-10.88,.33-1.32,.65-2.64,.98-3.96,.16-.65,.32-1.29,.48-1.96,1.18-4.77,2.39-9.54,3.6-14.31,5.86-.73,11.73-1.47,17.59-2.2q1.63-.2,3.29-.41c5.49-.69,10.97-1.37,16.46-2.06,.88-.11,1.75-.22,2.66-.33-.42-.55-.83-1.1-1.26-1.67-2.29-3.08-4.52-6.2-6.74-9.33q-.88-1.22-1.77-2.47c-1.95-2.75-3.88-5.51-5.79-8.28-.64-.9-1.29-1.8-1.95-2.72q-4.47-6.53-4.56-11.3c3.77-11.36,10.95-20.24,18.31-29.46,3.79-4.76,7.37-9.65,10.95-14.57,8.57-11.73,17.95-22.45,27.88-33.04,2.25-2.41,4.46-4.84,6.62-7.34,.51-.59,1.03-1.18,1.56-1.79,1.43-1.65,2.86-3.3,4.29-4.95,.9-1.03,1.81-2.05,2.71-3.07q1.25-1.42,2.52-2.88,2.23-2.12,5.23-2.12Z"/>
  <path class="cls-4" d="M387.17,0c3.79,.76,5.4,2.13,8,5-.33,.66-.66,1.32-1,2l-4-4c-.13,6.77,.23,13.34,1,20.06,.19,1.68,.38,3.36,.56,5.04,.08,.73,.17,1.45,.25,2.2,.47,6.93,.14,13.76-.56,20.67-.08,.83-.17,1.66-.25,2.52q-4.92,47.25-19.35,59.97c-2.5,1.95-5.11,3.67-7.81,5.34-1.78,1.16-3.34,2.4-4.94,3.78-7.53,6.33-15.95,9.72-25.16,13.05q-1.79,.66-3.63,1.33c-6.89,2.37-12.84,3.7-20.12,3.05-.12,.57-.23,1.14-.35,1.73-.52,2.57-1.06,5.14-1.59,7.71q-.27,1.35-.55,2.72l-.54,2.59c-.16,.79-.32,1.58-.49,2.4q-.48,1.86-1.48,2.86c-1.68,.23-3.37,.41-5.06,.56-.92,.08-1.84,.17-2.79,.25-.71,.06-1.42,.12-2.15,.18v-2q3.96-.99,8-2c1.65-6.27,3.3-12.54,5-19,1.54-.08,3.07-.16,4.65-.24,18.79-1.75,36.5-10.41,50.3-22.99q2.04-1.77,4.58-3.63c6.39-4.68,9.65-8.74,12.27-16.21,.36-1,.73-2,1.11-3.02,7.44-22.36,9.37-48.14,7.08-71.48-.67-6.85-1.11-13.55-1-20.44Z"/>
  <path class="cls-7" d="M223.17,639h1c.14,33.75,.24,67.5,.31,101.25,0,3.99,.02,7.97,.02,11.96,0,.79,0,1.59,0,2.4,.03,12.84,.07,25.69,.13,38.53,.06,13.18,.09,26.36,.1,39.54,0,8.13,.03,16.26,.08,24.4,.04,6.24,.04,12.47,.03,18.71,0,2.56,.01,5.11,.04,7.67,.03,3.49,.02,6.98,0,10.48,.02,1.01,.03,2.02,.05,3.07-.08,6.23-1.32,9.79-5.29,14.63q-1.48,1.36-3.48,1.36c.37-3.21,1.06-4.06,3.52-6.3,4.12-4.88,3.13-11.15,3.04-17.2,0-1.39,0-2.78,0-4.16,0-3.79-.04-7.58-.08-11.37-.04-4.05-.04-8.09-.05-12.14-.02-6.93-.06-13.85-.1-20.78-.07-10.79-.11-21.59-.15-32.38,0-.89,0-1.79,0-2.71-.01-3.61-.02-7.22-.03-10.83-.02-5.43-.03-10.85-.05-16.28-.12-31.11,.03-62.21,.38-93.32,.04-3.41,.08-6.83,.11-10.24,.13-12.1,.27-24.19,.43-36.29Z"/>
  <path class="cls-8" d="M116.17,0c-1.42,3.25-3.13,5.31-5.69,7.75-3.29,3.2-6.34,6.51-9.33,9.98-3.3,3.78-6.73,7.45-10.14,11.14-5.74,6.27-11.21,12.71-16.41,19.44-.6,.77-1.19,1.54-1.81,2.33-6.18,8.01-12.18,16.15-18.14,24.33-1.27,1.73-2.57,3.44-3.87,5.14-5.45,7.18-9.56,14.87-13.62,22.89h-1c1.41-13.3,10.18-23.14,18.24-33.24,3.79-4.76,7.37-9.65,10.95-14.57,8.57-11.73,17.95-22.45,27.88-33.04,2.25-2.41,4.46-4.84,6.62-7.34,.51-.59,1.03-1.18,1.56-1.79,1.43-1.65,2.86-3.3,4.29-4.95,.9-1.03,1.81-2.05,2.71-3.07q1.25-1.42,2.52-2.88,2.23-2.12,5.23-2.12Z"/>
  <path class="cls-9" d="M354.17,363h2q1.28,1.46,2.72,3.52c.54,.76,1.08,1.52,1.63,2.3,.56,.8,1.13,1.61,1.71,2.44,1.09,1.55,2.19,3.09,3.29,4.64,.58,.82,1.15,1.65,1.75,2.49,1.32,1.82,2.69,3.6,4.1,5.35,6.24,7.84,10.15,15.66,13.68,24.95,.28,.73,.56,1.45,.85,2.2,6.13,16.13,7.9,31.94,8.28,49.11,.03,1.22,.07,2.44,.1,3.7,.12,7.11-.41,13.57-2.04,20.49-1.52,6.93-2.74,13.7-3.06,20.81h-2c-.32-8.15,.87-15.5,2.58-23.44,1.52-7.58,1.65-14.85,1.42-22.56-.03-1.18-.05-2.35-.08-3.56-.95-28.56-8.75-56.53-27.48-78.7-2.22-2.67-4.23-5.48-6.26-8.3-.63-.85-1.25-1.69-1.89-2.57q-1.29-1.87-1.29-2.87Z"/>
  <path class="cls-4" d="M265.17,84v1q-12.38,.5-25,1-1.05,5.1-2.12,10.31c-2.91,12.28-8.79,22.83-17.88,31.69-3.08,1.7-4.5,2-8,2-.03,.62-.05,1.24-.08,1.88-.12,2.85-.24,5.71-.36,8.56-.04,.97-.08,1.95-.12,2.95-.26,5.91-.72,11.74-1.44,17.61-3.3-.33-6.6-.66-10-1v-3c2.64,.66,5.28,1.32,8,2,.66-10.23,1.32-20.46,2-31,2.64-.99,5.28-1.98,8-3q1.9-1.53,3.08-3.4c.46-.64,.91-1.29,1.38-1.95q.67-1,1.35-2.02c.46-.66,.93-1.32,1.4-2,1.29-1.86,2.54-3.74,3.78-5.62,.55-.77,1.1-1.54,1.66-2.34,2.06-4.11,2.94-8.45,3.96-12.91,.43-1.82,.86-3.64,1.29-5.45,.19-.8,.37-1.6,.56-2.43q.52-1.87,1.52-2.87c8.97-1.62,17.99-.73,27,0Z"/>
  <path class="cls-4" d="M63.17,352c0,4.04-1.81,6.8-3.69,10.27q-.57,1.08-1.16,2.18c-1.23,2.31-2.47,4.62-3.71,6.92-.81,1.51-1.62,3.03-2.42,4.54-.4,.74-.79,1.48-1.2,2.25-.79,1.48-1.58,2.97-2.37,4.45-1.83,3.44-3.69,6.84-5.66,10.2-.66,1.14-1.32,2.29-1.99,3.46-.59,.99-1.18,1.98-1.78,3q-1.27,2.65-.35,5.23c.45,.82,.89,1.64,1.35,2.48,.44,.86,.87,1.72,1.33,2.61,.5,.92,.99,1.83,1.5,2.77,.55,1.02,1.11,2.04,1.68,3.1,.58,1.06,1.15,2.12,1.75,3.21,.56,1.04,1.12,2.08,1.7,3.15,3.13,5.76,6.35,11.43,9.78,17.02,1.19,2.01,2.25,4.04,3.27,6.15-4.22-2.98-6.37-5.89-8.81-10.42-.34-.62-.67-1.23-1.02-1.87-1.07-1.96-2.12-3.93-3.17-5.9-.7-1.3-1.41-2.61-2.12-3.91-1.03-1.9-2.06-3.8-3.07-5.7-2.23-4.18-4.58-8.25-7.09-12.27-1-2.71-.56-4.18,.29-6.94,.96-2.05,1.99-4.06,3.06-6.05,.31-.57,.61-1.14,.93-1.73,1-1.85,2-3.69,3.01-5.53,.69-1.27,1.37-2.53,2.06-3.8,1.35-2.49,2.71-4.99,4.07-7.47,1.59-2.91,3.18-5.83,4.76-8.75,.79-1.43,1.57-2.86,2.36-4.29,.35-.64,.69-1.27,1.05-1.93,1.69-3.03,2.75-4.47,5.7-6.44Z"/>
  <path class="cls-4" d="M308.17,138h11c.33,.66,.66,1.32,1,2h-10c-.28,1.36-.55,2.72-.84,4.12-.37,1.77-.73,3.54-1.1,5.32-.18,.9-.36,1.8-.55,2.72l-.54,2.59c-.16,.79-.32,1.58-.49,2.4q-.48,1.86-1.48,2.86c-1.68,.23-3.37,.41-5.06,.56q-1.38,.13-2.79,.25c-.71,.06-1.42,.12-2.15,.18v-2c2.64-.66,5.28-1.32,8-2q2.47-9.4,5-19Z"/>
  <path class="cls-5" d="M226.17,517h1q2.09,15.69-1.37,21.18c-3.71,4.22-8.06,7.58-12.63,10.82l1,4c-.99-.33-1.98-.66-3-1q-.89-2.11-1-5c1.78-2.42,4.02-4.26,6.31-6.19q.91-.8,1.84-1.62c1.13-.99,2.27-1.97,3.41-2.95q3.14-2.7,3.85-6.94c.08-1.48,.15-2.95,.21-4.43q.06-1.13,.12-2.29c.09-1.86,.18-3.73,.26-5.59Z"/>
  <path class="cls-13" d="M265.17,84v1q-12.38,.5-25,1-2.48,9.4-5,19h-2q1.7-17.7,5-21c8.97-1.62,17.99-.73,27,0Z"/>
  <path class="cls-8" d="M387.17,0c3.79,.76,5.4,2.13,8,5-.33,.66-.66,1.32-1,2l-4-4c-.12,6.17,.16,12.17,.78,18.3,.32,3.91,.29,7.77,.22,11.7-.66-.33-1.32-.66-2-1q-.41-2.08-.63-4.81c-.08-.99-.17-1.99-.25-3.01-.08-1.05-.16-2.1-.24-3.18-.09-1.02-.17-2.03-.26-3.08-.48-5.99-.7-11.91-.61-17.92Z"/>
  <path class="cls-2" d="M392.17,473h1c-.45,6.26-1.2,12.29-2.52,18.43-.83,4.49-1.15,9.02-1.48,13.57h-2c-.28-7.27,.49-13.95,1.94-21.06,.18-.95,.36-1.9,.55-2.87q1.36-6.92,2.51-8.06Z"/>
  <path class="cls-10" d="M209.17,154h1v7c-3.3-.33-6.6-.66-10-1v-3c2.64,.66,5.28,1.32,8,2,.33-1.65,.66-3.3,1-5Z"/>
  <path class="cls-6" d="M308.17,138h11c.33,.66,.66,1.32,1,2h-10l-1,2-1-4Z"/>
  <path class="cls-4" d="M223.17,903l1,2c-.95,1.34-1.91,2.67-2.88,4-.53,.74-1.07,1.49-1.62,2.25-.5,.58-1,1.15-1.51,1.75h-2c.58-3.35,1.59-4.94,4.06-7.25,.55-.52,1.1-1.04,1.66-1.58q.63-.58,1.28-1.17Z"/>
  <path class="cls-8" d="M308.17,141h1c-.33,2.97-.66,5.94-1,9h-2q.88-7.88,2-9Z"/>
  <ellipse class="cls-1" cx="253.37" cy="248.5" rx="72.11" ry="74.17"/>
  <ellipse cx="253.37" cy="248.5" rx="40.77" ry="41.93"/>
</svg>