<?xml version="1.0" encoding="UTF-8"?>
<svg version="1.1" xmlns="http://www.w3.org/2000/svg" width="505" height="906">
<path d="M0 0 C1.98 0.495 1.98 0.495 4 1 C4.70190343 4.36857645 5.35376047 7.74534189 6 11.125 C6.28617187 12.49398438 6.28617187 12.49398438 6.578125 13.890625 C19.91166696 85.3203141 -1.60425436 179.16019209 -47.9375 313.1875 C-48.48476746 314.47985062 -48.48476746 314.47985062 -49.04309082 315.79830933 C-54.01113619 327.40653911 -60.13925643 336.7299775 -68.46343994 346.21321106 C-70.99943229 349.16218988 -73.36814519 352.23887709 -75.75 355.3125 C-76.65789441 356.46560006 -77.56662022 357.61804653 -78.4765625 358.76953125 C-80.04792677 360.7670382 -81.57525916 362.77886213 -83.0859375 364.82421875 C-89.25669341 372.92185821 -96.82376687 378.91509674 -104.74609375 385.20166016 C-108.36690878 388.09062501 -111.93092797 391.04755444 -115.5 394 C-116.91380409 395.16437634 -118.32786716 396.32843829 -119.7421875 397.4921875 C-122.60394209 399.84869438 -125.46303356 402.20838124 -128.3203125 404.5703125 C-131.86852785 407.50244289 -135.4231264 410.42665272 -138.98291016 413.34472656 C-140.2838035 414.41227157 -141.58308228 415.48178857 -142.88037109 416.55371094 C-152.06754623 424.13528849 -161.61555107 431.055025 -171.41796875 437.8203125 C-174.85130895 440.19037567 -178.22397513 442.62240437 -181.5625 445.125 C-186.42034125 448.70486717 -191.50846481 451.87095913 -196.625 455.0625 C-203.03734903 459.07153101 -209.22684575 463.09491061 -215 468 C-216.0003125 468.84175781 -217.000625 469.68351562 -218.03125 470.55078125 C-220.26855855 472.43758033 -222.49899365 474.33218703 -224.7265625 476.23046875 C-227.70091919 478.75805992 -230.7182147 481.22895141 -233.75 483.6875 C-235.5022221 485.12229056 -237.25234284 486.55965258 -239 488 C-239.78117187 488.64324219 -240.56234375 489.28648437 -241.3671875 489.94921875 C-247.35704046 495.05821098 -252.13997584 500.82759997 -257 507 C-258.45391874 508.79525092 -259.91226574 510.58692449 -261.375 512.375 C-262.48875 513.73818359 -262.48875 513.73818359 -263.625 515.12890625 C-265.72549819 517.66815982 -267.85059113 520.18244159 -269.98974609 522.68896484 C-275.70373728 529.38583502 -281.21005884 536.22335617 -286.59057617 543.19091797 C-287.61098361 544.50067358 -288.64406971 545.80058397 -289.68481445 547.09423828 C-293.8293408 552.29088459 -297.35299884 557.63097129 -300.6875 563.375 C-301.7364388 565.15213045 -302.7872667 566.92814703 -303.83984375 568.703125 C-304.36690918 569.59193359 -304.89397461 570.48074219 -305.43701172 571.39648438 C-307.80923134 575.34796048 -310.2735733 579.23826929 -312.75 583.125 C-317.34395182 590.35112865 -321.88010691 597.61158936 -326.37390137 604.90032959 C-327.40838426 606.5777876 -328.44488583 608.25400017 -329.48144531 609.93017578 C-335.73700865 620.09272802 -341.30525896 630.44360704 -346.625 641.125 C-346.92924896 641.73471649 -347.23349792 642.34443298 -347.54696655 642.97262573 C-352.98055163 653.86512439 -358.30366128 664.80875279 -363.48974609 675.8215332 C-364.63983339 678.24199659 -365.80555896 680.65217921 -366.98291016 683.05932617 C-373.203258 695.86243462 -378.53654934 708.94759313 -383.75 722.1875 C-384.97225561 725.2761928 -386.19636556 728.36414267 -387.4213562 731.45175171 C-388.2626188 733.57335452 -389.10220989 735.6956208 -389.94021606 737.81851196 C-392.28836847 743.7523573 -394.67918132 749.66546796 -397.12841797 755.55810547 C-404.5001857 773.32923136 -411.18976363 791.2286828 -417.21533203 809.50146484 C-418.15505515 812.34739692 -419.1132408 815.18602948 -420.08837891 818.02001953 C-426.341867 836.20989811 -430.64565607 853.05682914 -431.66220093 872.38970947 C-432.40398895 878.12176264 -434.48030315 880.82418746 -439 884.3125 C-439.886875 885.00988281 -440.77375 885.70726562 -441.6875 886.42578125 C-444 888 -444 888 -446 888 C-446.144375 889.299375 -446.28875 890.59875 -446.4375 891.9375 C-446.875 895.875 -446.875 895.875 -448 897 C-449.39330381 897.2246285 -450.78989209 897.4289245 -452.1875 897.625 C-458.3303047 898.74749813 -463.33134098 901.60445605 -468.703125 904.63671875 C-472.45201812 906.1869127 -474.15896143 906.15556669 -478 905 C-478.99 904.34 -479.98 903.68 -481 903 C-480.896875 901.741875 -480.79375 900.48375 -480.6875 899.1875 C-480.38310884 890.17172364 -487.93301831 882.14917518 -493.5 875.6875 C-496.10147564 872.50337559 -496.95099274 871.27622274 -497.6875 867.125 C-497.51080325 865.74227782 -497.27431291 864.36670947 -497 863 C-496.88527344 862.03707031 -496.77054687 861.07414063 -496.65234375 860.08203125 C-495.85379706 855.32032691 -495.12892064 852.08165504 -491.57421875 848.67578125 C-489.10894834 846.95671716 -486.6511515 845.41262106 -484 844 C-484.350625 843.319375 -484.70125 842.63875 -485.0625 841.9375 C-487.00058328 835.86483905 -484.52509906 830.2844699 -482.13671875 824.66015625 C-481.57261241 823.25285588 -481.01083851 821.84461875 -480.45117188 820.43554688 C-479.57880027 818.25400814 -478.69555623 816.08130359 -477.77026367 813.92163086 C-473.48187095 803.84442854 -472.27988411 796.99786773 -475.82739258 786.48608398 C-476.8990253 783.30019109 -477.54428471 780.32203372 -478 777 C-475.86675539 775.78317057 -473.72337131 774.60343776 -471.5625 773.4375 C-470.97017578 773.09525391 -470.37785156 772.75300781 -469.76757812 772.40039062 C-466.02552294 770.41930258 -463.48820821 769.82345045 -459.25366211 770.41040039 C-458.45391464 770.51614883 -457.65416718 770.62189728 -456.83018494 770.73085022 C-456.22622391 770.81966965 -455.62226288 770.90848907 -455 771 C-454.90286713 770.37981491 -454.80573425 769.75962982 -454.70565796 769.12065125 C-451.8493501 751.58342634 -446.59392616 736.10309441 -439.625 719.8125 C-438.63744312 717.45351841 -437.65261457 715.09339293 -436.67041016 712.73217773 C-434.7123907 708.02821133 -432.74567747 703.32805957 -430.77148438 698.63085938 C-427.1961483 690.10240483 -423.72575636 681.53373985 -420.31854248 672.93685913 C-419.40991142 670.65035215 -418.4899175 668.36867627 -417.56884766 666.0871582 C-413.3033784 655.40872182 -409.78519376 644.66271203 -408.0625 633.25 C-407.33629495 629.26247411 -407.33629495 629.26247411 -404.4375 627 C-403.633125 626.67 -402.82875 626.34 -402 626 C-401.67 625.34 -401.34 624.68 -401 624 C-399.50298482 623.35800518 -397.97583407 622.78548117 -396.4375 622.25 C-385.93095935 618.14262717 -379.25521301 610.3288544 -372 602 C-371.071875 601.11054687 -370.14375 600.22109375 -369.1875 599.3046875 C-366.06092169 594.58132098 -366.44416557 590.65056335 -366.6875 585.125 C-366.72133789 583.66320312 -366.72133789 583.66320312 -366.75585938 582.171875 C-366.81449247 579.77964485 -366.89648847 577.3906385 -367 575 C-367.78246094 574.61328125 -368.56492187 574.2265625 -369.37109375 573.828125 C-370.88896484 573.04695312 -370.88896484 573.04695312 -372.4375 572.25 C-373.44683594 571.73953125 -374.45617187 571.2290625 -375.49609375 570.703125 C-378 569 -378 569 -378.91796875 566.9296875 C-379.04392194 563.96678863 -377.61901249 562.48248582 -376 560 C-375.22749747 558.46107491 -374.46992432 556.91461649 -373.72265625 555.36328125 C-371.2924836 550.46396816 -368.53824763 545.89510104 -365.5625 541.3125 C-361.00814576 534.2017895 -356.55902586 527.03702816 -352.1875 519.8125 C-346.71334662 510.77870515 -341.15830198 501.79926752 -335.5402832 492.85424805 C-332.53762574 488.07128492 -329.55180192 483.28057855 -326.62109375 478.453125 C-320.05907869 467.66245179 -313.15505607 457.28007747 -305.60400391 447.15527344 C-303.9771999 444.96936388 -302.36833509 442.77109026 -300.76171875 440.5703125 C-299.71686799 439.15050994 -298.6713231 437.73121787 -297.625 436.3125 C-297.16150146 435.67723389 -296.69800293 435.04196777 -296.22045898 434.38745117 C-293.30496998 430.47569377 -290.15783226 427.01430736 -286.64477539 423.62817383 C-284.94383791 421.94440478 -283.37376259 420.18830155 -281.8125 418.375 C-278.62174248 414.67285697 -275.32432818 411.08161962 -272 407.5 C-268.78825847 404.03727209 -265.58896567 400.57350931 -262.5 397 C-259.36577292 393.38832309 -256.16347938 389.84214737 -252.9375 386.3125 C-252.4425 385.76529297 -251.9475 385.21808594 -251.4375 384.65429688 C-249.0269318 382.029527 -246.5965083 379.5938078 -243.8359375 377.3359375 C-241.50775043 375.4182297 -239.61484406 373.60838014 -237.6875 371.3125 C-235.04005154 368.21120323 -232.35737174 365.15199269 -229.625 362.125 C-228.47837891 360.85269531 -228.47837891 360.85269531 -227.30859375 359.5546875 C-225.82403287 357.91187393 -224.33723442 356.27107814 -222.84765625 354.6328125 C-217.94918073 349.22943082 -213.17838133 343.73012112 -208.44873047 338.17944336 C-205.45539738 334.67385406 -202.41720372 331.22063026 -199.3125 327.8125 C-196.28287132 324.47772886 -193.39391908 321.06712361 -190.5625 317.5625 C-186.70174863 312.788597 -182.62562925 308.26611572 -178.46875 303.75 C-176.05621896 301.06262366 -173.7674379 298.31034556 -171.5 295.5 C-167.7555178 290.85895164 -163.82233005 286.44888074 -159.75 282.09375 C-150.32805742 271.62028376 -142.56235546 260.25299485 -134.75 248.5625 C-133.48358138 246.67592931 -132.21689328 244.78953949 -130.94995117 242.90332031 C-119.29650217 225.5303015 -107.78507895 208.06324746 -96.30078125 190.578125 C-89.26749674 179.8722505 -82.17160394 169.21106673 -75.00297546 158.59533691 C-72.58991915 155.01916963 -70.18309899 151.43882801 -67.77709961 147.85791016 C-66.55179878 146.03760259 -65.32361075 144.21923513 -64.0925293 142.40283203 C-56.32115344 130.93016152 -49.12780499 119.43633946 -43 107 C-42.52296631 106.03884277 -42.04593262 105.07768555 -41.55444336 104.08740234 C-40.34702739 101.60990915 -39.16821443 99.12118889 -38 96.625 C-34.60444286 89.43529596 -31.16352074 82.270497 -27.66015625 75.1328125 C-26.89382226 73.56822499 -26.12754651 72.00360897 -25.36132812 70.43896484 C-24.22353883 68.11590817 -23.08410495 65.7937485 -21.9387207 63.47442627 C-14.68418394 48.77992685 -9.7428736 34.05221146 -5.25 18.3125 C-4.73863434 16.53179961 -4.22691832 14.75119979 -3.71484375 12.97070312 C-2.47252159 8.64828392 -1.23494358 4.32453281 0 0 Z " fill="#030303" transform="translate(497,0)"/>
<path d="M0 0 C0.99 0 1.98 0 3 0 C3.32049316 1.21655273 3.64098633 2.43310547 3.97119141 3.68652344 C10.17170884 27.02302159 16.60629385 48.8286213 28.3671875 69.99755859 C30.98037706 74.80273283 33.29659673 79.73985381 35.625 84.6875 C36.0777832 85.62803223 36.53056641 86.56856445 36.99707031 87.53759766 C39.211804 92.14408497 41.34144345 96.76308191 43.328125 101.47265625 C51.96156806 121.36117146 64.54695126 138.6899877 76.82876587 156.45155334 C80.97289056 162.45920116 84.98784183 168.53617274 88.92765808 174.679245 C92.29224389 179.92234025 95.71880611 185.12076751 99.1796875 190.30078125 C99.71439667 191.10119843 100.24910583 191.9016156 100.80001831 192.72628784 C102.49087679 195.25556273 104.18282247 197.78410745 105.875 200.3125 C113.62478595 211.8950383 121.34274636 223.49577891 128.95703125 235.16796875 C130.26375768 237.16696111 131.57056023 239.16590372 132.87744141 241.16479492 C134.7653294 244.05282797 136.65029395 246.94253787 138.52557373 249.83877563 C144.80613944 259.53809504 150.92039655 268.69732333 159 277 C160.49745763 278.79741785 161.98141422 280.60640621 163.4375 282.4375 C167.29825137 287.211403 171.37437075 291.73388428 175.53125 296.25 C178.72881296 299.81184229 181.71388343 303.52565833 184.71875 307.25 C187.86194258 311.03905407 191.20158595 314.63269352 194.53515625 318.25390625 C196.92707297 320.91875166 199.19254884 323.64831825 201.4375 326.4375 C205.57644887 331.56540126 209.96804325 336.40111655 214.4453125 341.23046875 C216.50113722 343.45918393 218.51616957 345.70767919 220.5 348 C223.43845764 351.39052805 226.46183989 354.69903035 229.5 358 C230.44554621 359.03103572 231.39086303 360.06228186 232.3359375 361.09375 C233.96237593 362.86804647 235.59183027 364.63959201 237.2265625 366.40625 C237.85304687 367.0971875 238.47953125 367.788125 239.125 368.5 C239.66382813 369.0878125 240.20265625 369.675625 240.7578125 370.28125 C242.24114886 372.33366509 242.9519443 373.44343677 243 376 C241.15625 378.296875 241.15625 378.296875 238.5 380.75 C235.28893933 383.79983587 232.18489059 386.81556322 229.3125 390.1875 C227.13191112 392.735776 224.89277491 395.14966899 222.5 397.5 C219.51106799 400.44264324 216.75347702 403.52355707 214.015625 406.69921875 C211.55519731 409.5077302 209.03025008 412.25461879 206.5 415 C203.46095466 418.30013347 200.43843541 421.6094976 197.5 425 C196.96632812 425.60714844 196.43265625 426.21429688 195.8828125 426.83984375 C194.81969967 428.05955619 193.7610335 429.28328359 192.71777344 430.52001953 C191.28525072 432.21439592 189.83153325 433.88874741 188.375 435.5625 C187.91931641 436.11228516 187.46363281 436.66207031 186.99414062 437.22851562 C183.70598313 440.95573043 183.70598313 440.95573043 180.6328125 441.1484375 C176.93306254 439.53459998 173.78100817 437.39881429 170.5 435.0625 C169.79512451 434.56814453 169.09024902 434.07378906 168.36401367 433.56445312 C158.8630855 426.85262116 149.7690689 419.74203794 140.94018555 412.17138672 C137.08412331 408.8767413 133.13587454 405.72852584 129.125 402.625 C123.35689659 398.15385226 117.83047013 393.44987893 112.34228516 388.64086914 C108.78880069 385.53238739 105.19869873 382.49904263 101.5 379.5625 C100.32244141 378.62470703 100.32244141 378.62470703 99.12109375 377.66796875 C97.83341972 376.65537794 96.53626548 375.65449231 95.22265625 374.67578125 C89.94112422 370.53754557 86.09045807 365.21650778 82.0390625 359.9296875 C78.36797276 355.14497762 74.53107869 350.49764685 70.67919922 345.85791016 C69.09216262 343.92536193 67.53955809 341.97056805 66 340 C65.17858521 338.9625061 65.17858521 338.9625061 64.34057617 337.90405273 C58.50483438 330.10290138 54.69091533 321.44363101 50.8125 312.5625 C50.43104828 311.68987518 50.04959656 310.81725037 49.65658569 309.91818237 C16.68025376 233.83923543 1.93335482 155.04938807 -3.0625 11.25 C-2.78889648 9.75919922 -2.78889648 9.75919922 -2.50976562 8.23828125 C-1.17811575 1.17811575 -1.17811575 1.17811575 0 0 Z " fill="#030303" transform="translate(5,0)"/>
<path d="M0 0 C2.32973789 1.04972863 3.01162886 2.01260998 4.33276367 4.18676758 C5.00130371 5.26583374 5.00130371 5.26583374 5.68334961 6.36669922 C6.160625 7.16454834 6.63790039 7.96239746 7.12963867 8.78442383 C7.64558594 9.62416748 8.1615332 10.46391113 8.69311523 11.32910156 C9.82681793 13.17663564 10.95514093 15.02747863 12.07885742 16.88110352 C13.92566129 19.92272137 15.7906392 22.95248426 17.66088867 25.97973633 C21.05046026 31.468256 24.42801631 36.9640465 27.80200195 42.4621582 C31.21983753 48.03029833 34.64325848 53.59499915 38.06713867 59.15942383 C38.72875 60.23482422 39.39036133 61.31022461 40.07202148 62.41821289 C44.33101832 69.33829326 48.60122839 76.251332 52.87963867 83.15942383 C53.67543335 84.44610962 53.67543335 84.44610962 54.48730469 85.75878906 C56.76611552 89.44222264 59.04931696 93.12240247 61.35620117 96.78833008 C61.72487305 97.37767334 62.09354492 97.9670166 62.47338867 98.57421875 C63.41011023 100.07088868 64.35163829 101.56454767 65.29370117 103.05786133 C67.76338811 107.40110388 69.89373305 111.9173957 70.87963867 116.84692383 C66.91667859 119.24871782 62.90503035 121.55211868 58.87963867 123.84692383 C56.98365836 137.27524653 56.98365836 137.27524653 61.82104492 149.37036133 C64.72044287 152.59342565 67.8829888 155.48233205 71.17626953 158.296875 C72.81261579 159.78593368 74.13135846 161.30825816 75.48901367 163.05004883 C77.97739864 165.9612966 80.06126401 167.41491131 83.44213867 169.15942383 C84.37155273 169.65055664 85.3009668 170.14168945 86.25854492 170.64770508 C88.75761267 171.88976052 88.75761267 171.88976052 91.08666992 172.38989258 C93.75779704 173.07076812 95.03067869 174.87469985 96.87963867 176.84692383 C97.53963867 177.17692383 98.19963867 177.50692383 98.87963867 177.84692383 C99.35678188 179.9489331 99.81991432 182.05492456 100.21923828 184.1730957 C103.15919229 199.54182927 108.88525198 213.71049016 114.77075195 228.12854004 C116.01851456 231.18737156 117.26178662 234.2480079 118.50463867 237.30883789 C122.40112599 246.90193452 126.30024877 256.4939047 130.22509766 266.07543945 C130.92523987 267.78586929 130.92523987 267.78586929 131.63952637 269.53085327 C132.51364012 271.66532209 133.3888698 273.79933444 134.26550293 275.93276978 C136.413749 281.17936482 138.52821798 286.43877688 140.59936523 291.71630859 C141.00358704 292.74409927 141.40780884 293.77188995 141.82427979 294.83082581 C143.5201759 299.67750782 144.39110693 304.60009346 145.19213867 309.65942383 C145.36036133 310.65006836 145.52858398 311.64071289 145.7019043 312.66137695 C146.10659382 315.05482643 146.49906627 317.44954364 146.87963867 319.84692383 C147.44158936 319.73485596 148.00354004 319.62278809 148.58251953 319.50732422 C154.6442715 318.5287597 158.17457258 319.24081382 163.44213867 322.28442383 C164.38283203 322.79199219 164.38283203 322.79199219 165.3425293 323.30981445 C166.86593308 324.13547605 168.37451861 324.98838451 169.87963867 325.84692383 C169.61151367 327.06379883 169.34338867 328.28067383 169.06713867 329.53442383 C168.89512939 330.36989746 168.72312012 331.20537109 168.54589844 332.06616211 C167.87963867 334.84692383 167.87963867 334.84692383 166.88330078 337.5612793 C163.31582479 348.39662899 167.12415685 356.2702414 171.25463867 366.28442383 C172.2245025 368.69870924 173.18390086 371.11624482 174.12783813 373.54078674 C174.71319725 375.03775948 175.31444609 376.52864889 175.93392944 378.01182556 C177.69301706 382.43080087 178.01411843 385.24733942 176.87963867 389.84692383 C176.87963867 391.16692383 176.87963867 392.48692383 176.87963867 393.84692383 C178.77808828 395.25518463 178.77808828 395.25518463 181.19213867 396.40942383 C185.15050403 398.87406641 186.66006022 400.65957986 187.94213867 405.15942383 C188.29500737 407.0481599 188.60977982 408.94455255 188.87963867 410.84692383 C189.15227539 411.94520508 189.15227539 411.94520508 189.43041992 413.06567383 C190.08423286 417.28788748 189.05561028 419.82176394 186.59448242 423.20239258 C184.20471744 426.27287095 181.69951745 429.24524576 179.20043945 432.22680664 C176.05603692 436.08378542 172.959363 440.05657232 172.81323242 445.17114258 C173.04713379 447.62900332 173.04713379 447.62900332 173.87963867 450.84692383 C168.72665271 454.89569851 168.72665271 454.89569851 165.09838867 454.68676758 C161.3697922 453.7138935 158.38851421 452.18582279 155.00463867 450.34692383 C149.9118381 447.66058926 145.6787668 445.96290639 139.87963867 445.84692383 C137.87963867 440.22192383 137.87963867 440.22192383 137.87963867 436.84692383 C137.3150293 436.57493164 136.75041992 436.30293945 136.16870117 436.02270508 C125.91749329 430.75715291 125.91749329 430.75715291 123.92260742 425.16333008 C123.19549708 420.52282909 122.91089196 415.88458844 122.76953125 411.19116211 C121.97620702 394.70466335 116.00805811 379.27889103 110.77984619 363.7833252 C109.75722602 360.73422465 108.75691566 357.67801926 107.7566452 354.62152863 C101.68943615 336.10914851 94.90833264 318.10656884 87.27874756 300.18035889 C85.06268572 294.90049947 82.97601247 289.57187491 80.89526367 284.23754883 C72.26767869 262.2149411 63.38143978 240.54423723 52.69396973 219.43669128 C49.46421182 213.05726818 46.37200878 206.61386234 43.28259277 200.1656189 C41.83550063 197.15077838 40.37665261 194.14168434 38.91870117 191.13208008 C37.14955207 187.47962578 35.39106471 183.82288515 33.65307617 180.15551758 C29.0061939 170.45478643 23.40172456 161.50380906 17.56860352 152.47631836 C14.54688418 147.77208053 11.59104347 143.0267674 8.62963867 138.28442383 C8.0031543 137.28596436 7.37666992 136.28750488 6.73120117 135.25878906 C3.38612498 129.91591192 0.09056781 124.54902114 -3.13989258 119.13598633 C-10.4992006 106.85418017 -18.05757615 95.40042594 -27.53149414 84.65063477 C-29.99579596 81.85311451 -32.40000847 79.00549986 -34.80786133 76.15942383 C-35.46733765 75.38598633 -35.46733765 75.38598633 -36.14013672 74.59692383 C-39.97465923 70.08088178 -43.62835307 65.43233034 -47.25317383 60.74707031 C-50.31066689 56.81210794 -53.51053318 53.08238997 -56.97583008 49.49536133 C-58.12036133 47.84692383 -58.12036133 47.84692383 -58.12036133 43.84692383 C-56.66259766 42.2019043 -56.66259766 42.2019043 -54.63989258 40.58911133 C-51.66630252 38.13411747 -48.79275058 35.64719449 -46.00708008 32.97973633 C-35.13579991 22.60126705 -24.52949417 13.11945339 -11.68286133 5.22192383 C-10.80525146 4.67568359 -9.9276416 4.12944336 -9.0234375 3.56665039 C-8.19046143 3.06875 -7.35748535 2.57084961 -6.49926758 2.05786133 C-5.75233643 1.60717285 -5.00540527 1.15648437 -4.23583984 0.69213867 C-2.12036133 -0.15307617 -2.12036133 -0.15307617 0 0 Z " fill="#040404" transform="translate(316.120361328125,451.153076171875)"/>
<path d="M0 0 C1.2271875 0.36222656 2.454375 0.72445312 3.71875 1.09765625 C4.9665625 1.47792969 6.214375 1.85820313 7.5 2.25 C8.6240625 2.58515625 9.748125 2.9203125 10.90625 3.265625 C15.22730104 5.6880324 16.74100782 8.69186738 19 13 C19.46180664 13.86206055 19.92361328 14.72412109 20.39941406 15.61230469 C21.91444215 18.48007242 23.3963817 21.36330908 24.875 24.25 C26.45190748 27.2825881 28.03339443 30.312756 29.61523438 33.34277344 C30.43825609 34.9220697 31.25838569 36.50288727 32.07226562 38.08691406 C39.67644977 52.79864935 49.94675464 58.44078533 65.1875 63.73828125 C72.86992405 66.59545244 78.78346568 69.69460914 83 77 C83.3811041 81.94205965 80.77234748 85.70429845 78.125 89.75 C77.72788818 90.36053223 77.33077637 90.97106445 76.92163086 91.60009766 C72.78227454 97.70618898 67.69657712 102.34282663 62 107 C60.71029297 108.14855469 60.71029297 108.14855469 59.39453125 109.3203125 C51.11032854 116.48711112 43.73716106 117.65649655 33 117 C29.51723091 116.40500508 26.14226984 115.5196879 22.734375 114.59375 C20.77103997 114.09163925 18.80749081 113.59036515 16.84375 113.08984375 C13.81407053 112.3037411 10.78699807 111.50991495 7.76367188 110.69970703 C-16.03087216 104.36728805 -35.05977239 105.15135987 -58.75 111.5 C-61.77809011 112.29434054 -64.80781032 113.08068339 -67.84136963 113.85388184 C-69.70369082 114.33015892 -71.56290056 114.81886353 -73.41790771 115.32287598 C-81.72717772 117.47779541 -91.96208245 118.71564113 -100 115 C-104.06723328 112.00467303 -107.80135118 108.74203483 -111.52099609 105.33056641 C-113.40570128 103.63501618 -115.39394768 102.08099515 -117.375 100.5 C-122.01167409 96.44168483 -124.92580832 91.27671383 -128 86 C-128.58136719 85.16726563 -129.16273438 84.33453125 -129.76171875 83.4765625 C-131.31026231 80.37947538 -130.94515153 79.27611415 -130 76 C-125.43291768 67.95296201 -118.06053162 65.5689605 -109.75 62.625 C-87.88477792 54.15394541 -81.56895188 41.89276477 -71.69189453 21.26855469 C-64.14920581 5.65303903 -64.14920581 5.65303903 -57.0625 2.625 C-55.05378621 2.03998799 -53.03214259 1.49756069 -51 1 C-49.01407789 0.2680751 -47.03449665 -0.48134539 -45.0625 -1.25 C-30.81469997 -6.49353425 -13.94552075 -5.48116473 0 0 Z " fill="#010101" transform="translate(281,771)"/>
<path d="M0 0 C-0.875 5.75 -0.875 5.75 -2 8 C-2.39136759 10.88657045 -2.39136759 10.88657045 -2.5 14.1875 C-2.5721875 15.29480469 -2.644375 16.40210938 -2.71875 17.54296875 C-1.93484476 21.31338256 -1.40754999 21.85602314 1.3046875 24.3359375 C5.52973069 28.20282637 6.99875518 32.02814479 8.625 37.4375 C8.90931885 38.33766846 9.1936377 39.23783691 9.48657227 40.1652832 C11.64903192 47.25905011 13.3807049 54.43884946 14.9375 61.6875 C15.14906738 62.66581787 15.36063477 63.64413574 15.57861328 64.65209961 C17.99851388 76.71350204 16.56153229 87.81502203 14.91870117 99.87988281 C14.55971299 102.52050047 14.21175881 105.16240819 13.86523438 107.8046875 C13.64126531 109.4844605 13.41667863 111.16415129 13.19140625 112.84375 C13.03509483 114.02801575 13.03509483 114.02801575 12.87562561 115.23620605 C12.11589743 120.76820514 12.11589743 120.76820514 11 123 C8.0859375 124.0703125 8.0859375 124.0703125 4.375 125.125 C3.16585937 125.47820312 1.95671875 125.83140625 0.7109375 126.1953125 C-7.96642906 128.07693093 -16.36833607 126.63373935 -24 122 C-27.82225183 118.74233133 -30.76459423 114.72273826 -33.72412109 110.69433594 C-34.97500071 109.03319845 -36.28482762 107.45561529 -37.64453125 105.8828125 C-47.83627475 94.03792006 -46.54301993 78.12913855 -46 63 C-45.97099609 62.16678223 -45.94199219 61.33356445 -45.91210938 60.47509766 C-45.13821795 42.09517631 -45.13821795 42.09517631 -41.125 37.4375 C-39.78216904 36.25413022 -38.40213809 35.11246025 -37 34 C-35.01568109 32.14521301 -33.06018375 30.27940366 -31.125 28.375 C-30.60953613 27.87476318 -30.09407227 27.37452637 -29.56298828 26.85913086 C-25.27709243 22.57525348 -22.03178265 17.91755781 -18.94189453 12.72021484 C-15.86122068 7.53983037 -13.02854489 4.13399884 -7.4375 1.75 C-6.67308594 1.41484375 -5.90867188 1.0796875 -5.12109375 0.734375 C-3 0 -3 0 0 0 Z " fill="#060606" transform="translate(236,628)"/>
<path d="M0 0 C5.53289777 0.71392229 11.74710417 2.52073664 15.58178711 6.74072266 C16.98260175 8.8451723 18.25286873 10.98856151 19.5 13.1875 C23.91923225 20.47856655 28.86323398 26.04924863 35.125 31.8125 C43.96081384 40.1108463 43.96081384 40.1108463 45 46.9375 C45.05513869 48.95758096 45.05956972 50.98004485 45 53 C45.18776799 54.68991189 45.39502681 56.37781268 45.625 58.0625 C46.39515407 66.64421681 46.05526215 75.22122656 45.625 83.8125 C45.59422363 84.51769775 45.56344727 85.22289551 45.53173828 85.94946289 C45.08316071 93.84051938 43.28566443 99.3930157 37.875 105.3125 C36.86643092 106.44217582 35.85993419 107.57370507 34.85546875 108.70703125 C34.36353027 109.26084473 33.8715918 109.8146582 33.36474609 110.38525391 C31.46280082 112.63560561 29.85833373 115.07529769 28.1875 117.5 C23.53206028 123.40586774 17.19024028 125.45981324 10 127 C4.82653015 127.34916557 0.58842227 126.57486962 -4.375 125.125 C-5.59960938 124.77695312 -6.82421875 124.42890625 -8.0859375 124.0703125 C-11 123 -11 123 -12 121 C-12.43752046 118.28196247 -12.83127306 115.57223532 -13.19140625 112.84375 C-13.30097153 112.02684692 -13.4105368 111.20994385 -13.52342224 110.36828613 C-13.75473029 108.63347064 -13.98409109 106.89839458 -14.21166992 105.16308594 C-14.55757737 102.53736674 -14.91415785 99.91324872 -15.27148438 97.2890625 C-17.0443867 84.05240418 -17.42369661 73.12853732 -14.375 60 C-14.10357178 58.81825195 -13.83214355 57.63650391 -13.55249023 56.41894531 C-7.07446754 28.90558761 -7.07446754 28.90558761 0.64453125 22.703125 C3.17429925 19.5245116 2.59801516 15.75715073 2.44140625 11.8671875 C1.99638999 8.97655093 1.09236925 6.69775402 0 4 C0 2.68 0 1.36 0 0 Z " fill="#060606" transform="translate(278,628)"/>
<path d="M0 0 C-0.144375 0.886875 -0.28875 1.77375 -0.4375 2.6875 C-0.52 3.33332031 -0.6025 3.97914063 -0.6875 4.64453125 C-0.91464358 6.35662601 -1.19231685 8.06225008 -1.5 9.76171875 C-3.39214305 23.22634385 2.08440081 35.35066294 10 46 C13.38333304 51.10722178 16.3387801 55.77191492 17.5 61.83203125 C18.12070619 64.52337448 19.13391027 66.98497844 20.125 69.5625 C23.62381441 79.87616934 23.62102528 92.49062543 18.8359375 102.4140625 C14.13735786 110.19683801 6.5825627 116.81576753 -2 120 C-7.74653938 121.04437537 -13.41582048 120.60648901 -19 119 C-21.9921875 116.53515625 -21.9921875 116.53515625 -24 114 C-24 113.34 -24 112.68 -24 112 C-24.58007812 111.79375 -25.16015625 111.5875 -25.7578125 111.375 C-28.8702124 109.46635058 -30.03333773 107.13600323 -31.875 104 C-32.57124858 102.81488907 -33.26786677 101.6299952 -33.96484375 100.4453125 C-34.30628418 99.85911133 -34.64772461 99.27291016 -34.99951172 98.66894531 C-35.88976637 97.18388411 -36.8487728 95.74053068 -37.81640625 94.3046875 C-41.2068645 89.22308501 -42.80042791 85.19303662 -42.93115234 79.04785156 C-42.97600028 77.06245557 -43.07162921 75.07735681 -43.2253418 73.09741211 C-43.71748225 63.73483091 -41.07888735 57.15777471 -36.9375 48.875 C-36.37611328 47.69035156 -35.81472656 46.50570312 -35.23632812 45.28515625 C-31.64175818 37.83309924 -27.54852817 30.90126369 -23 24 C-22.22856562 22.75698959 -21.46317115 21.51018558 -20.70703125 20.2578125 C-19.76923828 18.70707031 -19.76923828 18.70707031 -18.8125 17.125 C-18.17957031 16.07570313 -17.54664063 15.02640625 -16.89453125 13.9453125 C-14.04593037 9.51676598 -11.17097132 5.84425029 -6.9375 2.6875 C-6.26589844 2.17574219 -5.59429687 1.66398438 -4.90234375 1.13671875 C-3 0 -3 0 0 0 Z " fill="#080808" transform="translate(179,696)"/>
<path d="M0 0 C5.791838 0.99859276 9.93707405 4.97481021 14 9 C16.01742523 11.89351826 17.69753927 14.83128845 19.359375 17.94140625 C20.91233525 20.83656787 22.61441079 23.51947225 24.4375 26.25 C28.49164428 32.5624931 31.75381729 39.20046001 34.99609375 45.95361328 C35.97991044 47.95904895 37.01303803 49.93061221 38.0625 51.90234375 C42.3268929 60.10309932 43.86210625 66.67248935 43 76 C43.01546875 77.36705078 43.01546875 77.36705078 43.03125 78.76171875 C42.89156284 90.72243165 33.63557723 103.2172938 26 112 C25.34 112 24.68 112 24 112 C23.731875 112.598125 23.46375 113.19625 23.1875 113.8125 C21.90173412 116.18101609 21.15223464 117.3715198 19 119 C10.90985343 121.0043973 3.20948368 121.39728462 -4.15087891 117.09570312 C-11.51444439 112.15280399 -17.33687547 106.20409843 -21 98 C-23.31095674 86.2302436 -22.68162568 76.13209378 -18.21484375 65.0703125 C-17.23856193 62.602925 -16.62589865 60.52459328 -16.1875 57.9375 C-14.58568245 50.73709685 -9.08240365 43.95756016 -4.91796875 38.04296875 C1.32558265 28.13721204 2.87157615 18.40245976 1 7 C0.81229685 5.56252651 0.62475368 4.12503211 0.4375 2.6875 C0.293125 1.800625 0.14875 0.91375 0 0 Z " fill="#080808" transform="translate(335,696)"/>
<path d="M0 0 C1.98 0.495 1.98 0.495 4 1 C4 2.98 4 4.96 4 7 C3.67 7 3.34 7 3 7 C2.67 5.35 2.34 3.7 2 2 C1.82460693 2.5762915 1.64921387 3.15258301 1.46850586 3.74633789 C1.21979736 4.56352295 0.97108887 5.38070801 0.71484375 6.22265625 C0.2967041 7.599375 0.2967041 7.599375 -0.12988281 9.00390625 C-0.7643297 11.0846263 -1.40316992 13.1640107 -2.04589844 15.2421875 C-3.58345219 20.23288676 -5.08261838 25.21203715 -6.35546875 30.27734375 C-10.96877109 47.96083453 -19.38140301 63.86940863 -27.55212402 80.11741638 C-30.87455705 86.72464983 -34.08924214 93.37619264 -37.25 100.0625 C-38.82040215 103.38137784 -40.40527678 106.69274407 -42 110 C-42.51030762 111.07733398 -43.02061523 112.15466797 -43.54638672 113.26464844 C-47.30895463 121.03883297 -51.52260015 128.21589988 -56.41378784 135.35629272 C-58.62031677 138.57843985 -60.79729199 141.82060108 -62.98046875 145.05859375 C-63.45603714 145.76214493 -63.93160553 146.46569611 -64.42158508 147.19056702 C-70.06053688 155.54372042 -75.57819958 163.97634925 -81.10842896 172.40167236 C-93.02175796 190.54666529 -105.07919746 208.58878738 -117.28295898 226.53979492 C-122.90474122 234.82337581 -128.44445861 243.13303654 -133.67778015 251.66900635 C-139.59284181 261.30255116 -146.07700111 270.29780646 -153.7890625 278.578125 C-156.11187125 281.12254447 -158.2771639 283.75413516 -160.4375 286.4375 C-164.29825137 291.211403 -168.37437075 295.73388428 -172.53125 300.25 C-174.94378104 302.93737634 -177.2325621 305.68965444 -179.5 308.5 C-183.33951802 313.25883923 -187.39859679 317.76062975 -191.5390625 322.2578125 C-193.91039895 324.90015883 -196.15252997 327.60694167 -198.375 330.375 C-202.76177191 335.8117971 -207.45989882 340.90371523 -212.22265625 346.0078125 C-214.9364646 348.91837875 -217.55739756 351.90011992 -220.16015625 354.91015625 C-222.56670435 357.64370877 -225.03317236 360.32100778 -227.5 363 C-234.84509098 370.80101439 -234.84509098 370.80101439 -241.546875 379.140625 C-243 381 -243 381 -245.25 382.25 C-249.28660448 384.81874831 -251.93075801 388.36765111 -255 392 C-260.23839861 397.90311964 -265.57009058 403.72137072 -270.90869141 409.53369141 C-274.57407319 413.52727806 -278.212185 417.54405248 -281.82421875 421.5859375 C-283.26912086 423.18907844 -284.73008403 424.77789484 -286.20703125 426.3515625 C-291.41149964 431.94796108 -295.92279898 437.87000158 -300.28125 444.12890625 C-302.15388939 446.81738302 -304.07285379 449.46319428 -306.03125 452.08984375 C-314.16139485 463.0360931 -321.29156954 474.42714155 -328.27685547 486.13037109 C-330.9944484 490.65609896 -333.77657629 495.14112157 -336.5625 499.625 C-337.09705811 500.48689941 -337.63161621 501.34879883 -338.18237305 502.23681641 C-339.25601072 503.96781971 -340.32998367 505.6986151 -341.40429688 507.42919922 C-345.11510089 513.40759063 -348.81975007 519.38978155 -352.51953125 525.375 C-354.71290958 528.92320585 -356.91220205 532.46764684 -359.11650085 536.00907898 C-360.5604245 538.33078903 -362.00065045 540.65478013 -363.4402771 542.97915649 C-364.4680407 544.63597948 -365.50018672 546.29008146 -366.5324707 547.9440918 C-370.00391548 553.55591799 -373.19910319 559.15747723 -375.97460938 565.14770508 C-377 567 -377 567 -379 568 C-376.71136947 556.55684736 -368.4930418 545.81731725 -362.296875 536.171875 C-358.83476507 530.77396167 -355.5059238 525.29955103 -352.1875 519.8125 C-346.71358325 510.77856505 -341.15829917 501.79926304 -335.5402832 492.85424805 C-332.53762574 488.07128492 -329.55180192 483.28057855 -326.62109375 478.453125 C-320.05907869 467.66245179 -313.15505607 457.28007747 -305.60400391 447.15527344 C-303.9771999 444.96936388 -302.36833509 442.77109026 -300.76171875 440.5703125 C-299.71686799 439.15050994 -298.6713231 437.73121787 -297.625 436.3125 C-297.16150146 435.67723389 -296.69800293 435.04196777 -296.22045898 434.38745117 C-293.30496998 430.47569377 -290.15783226 427.01430736 -286.64477539 423.62817383 C-284.94383791 421.94440478 -283.37376259 420.18830155 -281.8125 418.375 C-278.62174248 414.67285697 -275.32432818 411.08161962 -272 407.5 C-268.78825847 404.03727209 -265.58896567 400.57350931 -262.5 397 C-259.36577292 393.38832309 -256.16347938 389.84214737 -252.9375 386.3125 C-252.4425 385.76529297 -251.9475 385.21808594 -251.4375 384.65429688 C-249.0269318 382.029527 -246.5965083 379.5938078 -243.8359375 377.3359375 C-241.50775043 375.4182297 -239.61484406 373.60838014 -237.6875 371.3125 C-235.04005154 368.21120323 -232.35737174 365.15199269 -229.625 362.125 C-228.86058594 361.27679688 -228.09617187 360.42859375 -227.30859375 359.5546875 C-225.82403287 357.91187393 -224.33723442 356.27107814 -222.84765625 354.6328125 C-217.94918073 349.22943082 -213.17838133 343.73012112 -208.44873047 338.17944336 C-205.45539738 334.67385406 -202.41720372 331.22063026 -199.3125 327.8125 C-196.28287132 324.47772886 -193.39391908 321.06712361 -190.5625 317.5625 C-186.70174863 312.788597 -182.62562925 308.26611572 -178.46875 303.75 C-176.05621896 301.06262366 -173.7674379 298.31034556 -171.5 295.5 C-167.7555178 290.85895164 -163.82233005 286.44888074 -159.75 282.09375 C-150.32805742 271.62028376 -142.56235546 260.25299485 -134.75 248.5625 C-133.48358138 246.67592931 -132.21689328 244.78953949 -130.94995117 242.90332031 C-119.29650217 225.5303015 -107.78507895 208.06324746 -96.30078125 190.578125 C-89.26749674 179.8722505 -82.17160394 169.21106673 -75.00297546 158.59533691 C-72.58991915 155.01916963 -70.18309899 151.43882801 -67.77709961 147.85791016 C-66.55179878 146.03760259 -65.32361075 144.21923513 -64.0925293 142.40283203 C-56.32115344 130.93016152 -49.12780499 119.43633946 -43 107 C-42.52296631 106.03884277 -42.04593262 105.07768555 -41.55444336 104.08740234 C-40.34702739 101.60990915 -39.16821443 99.12118889 -38 96.625 C-34.60444286 89.43529596 -31.16352074 82.270497 -27.66015625 75.1328125 C-26.89382226 73.56822499 -26.12754651 72.00360897 -25.36132812 70.43896484 C-24.22353883 68.11590817 -23.08410495 65.7937485 -21.9387207 63.47442627 C-14.68418394 48.77992685 -9.7428736 34.05221146 -5.25 18.3125 C-4.73863434 16.53179961 -4.22691832 14.75119979 -3.71484375 12.97070312 C-2.47252159 8.64828392 -1.23494358 4.32453281 0 0 Z " fill="#F7F7F7" transform="translate(497,0)"/>
<path d="M0 0 C0.99 0 1.98 0 3 0 C3.32049316 1.21655273 3.64098633 2.43310547 3.97119141 3.68652344 C10.17170884 27.02302159 16.60629385 48.8286213 28.3671875 69.99755859 C30.98037706 74.80273283 33.29659673 79.73985381 35.625 84.6875 C36.0777832 85.62803223 36.53056641 86.56856445 36.99707031 87.53759766 C39.211804 92.14408497 41.34144345 96.76308191 43.328125 101.47265625 C51.96156806 121.36117146 64.54695126 138.6899877 76.82876587 156.45155334 C80.97289056 162.45920116 84.98784183 168.53617274 88.92765808 174.679245 C92.29224389 179.92234025 95.71880611 185.12076751 99.1796875 190.30078125 C99.71439667 191.10119843 100.24910583 191.9016156 100.80001831 192.72628784 C102.49087679 195.25556273 104.18282247 197.78410745 105.875 200.3125 C113.62478595 211.8950383 121.34274636 223.49577891 128.95703125 235.16796875 C130.26375768 237.16696111 131.57056023 239.16590372 132.87744141 241.16479492 C134.7653294 244.05282797 136.65029395 246.94253787 138.52557373 249.83877563 C144.80613944 259.53809504 150.92039655 268.69732333 159 277 C160.49745763 278.79741785 161.98141422 280.60640621 163.4375 282.4375 C167.29825137 287.211403 171.37437075 291.73388428 175.53125 296.25 C178.72881296 299.81184229 181.71388343 303.52565833 184.71875 307.25 C187.86194258 311.03905407 191.20158595 314.63269352 194.53515625 318.25390625 C196.92707297 320.91875166 199.19254884 323.64831825 201.4375 326.4375 C205.57644887 331.56540126 209.96804325 336.40111655 214.4453125 341.23046875 C216.50113722 343.45918393 218.51616957 345.70767919 220.5 348 C223.43845764 351.39052805 226.46183989 354.69903035 229.5 358 C230.44554621 359.03103572 231.39086303 360.06228186 232.3359375 361.09375 C233.96237593 362.86804647 235.59183027 364.63959201 237.2265625 366.40625 C237.85304687 367.0971875 238.47953125 367.788125 239.125 368.5 C239.66382813 369.0878125 240.20265625 369.675625 240.7578125 370.28125 C242.12850303 372.17780293 242.58873769 373.71298031 243 376 C238.86219153 372.77049095 235.45234184 369.36095085 232.05078125 365.37109375 C229.5911067 362.52724146 227.04941585 359.76301789 224.5 357 C217.77074119 349.68436017 211.28604564 342.17671914 204.82446289 334.62548828 C201.06626173 330.23579798 197.28829191 325.86373583 193.5 321.5 C189.31666947 316.68077837 185.14865544 311.84910444 181 307 C177.41082311 302.80563339 173.8130413 298.61908167 170.1965332 294.44824219 C169.10071117 293.18361805 168.00681837 291.91731979 166.91479492 290.64941406 C164.29397966 287.61229461 161.65250548 284.6069711 158.921875 281.66796875 C149.23804939 271.12052935 141.58676402 259.27122699 133.80322266 247.30322266 C128.90999627 239.78274886 123.96791206 232.29422632 119.03237915 224.80148315 C117.80083131 222.93135496 116.56985533 221.06085005 115.33944702 219.18997192 C104.59752653 202.8570717 93.70813902 186.62748187 82.7175293 170.4609375 C77.09619501 162.17772967 71.59312441 153.85384005 66.33746338 145.33332825 C63.72468412 141.11098349 60.97521207 137.03277232 58.05957031 133.01171875 C50.88818196 123.07562686 45.71292462 112.65023158 40.64013672 101.53417969 C37.30461431 94.34676938 33.79081114 87.24409277 30.3125 80.125 C28.21620605 75.8303516 26.12487671 71.5335543 24.05151367 67.2277832 C22.70810916 64.44110573 21.33120233 61.67519255 19.92700195 58.91870117 C14.29370592 47.68348328 10.83317684 36.16955849 7.5625 24.0625 C6.77374059 21.20056777 5.98077803 18.33982994 5.18675232 15.47935486 C4.69967589 13.7187222 4.21648428 11.95700897 3.73768616 10.19410706 C2.64021687 5.99863771 2.64021687 5.99863771 1 2 C0.67 3.65 0.34 5.3 0 7 C-0.33 7 -0.66 7 -1 7 C-1.04254356 5.00045254 -1.04080783 2.99958364 -1 1 C-0.67 0.67 -0.34 0.34 0 0 Z " fill="#F6F6F6" transform="translate(5,0)"/>
<path d="M0 0 C2.32973789 1.04972863 3.01162886 2.01260998 4.33276367 4.18676758 C5.00130371 5.26583374 5.00130371 5.26583374 5.68334961 6.36669922 C6.160625 7.16454834 6.63790039 7.96239746 7.12963867 8.78442383 C7.64558594 9.62416748 8.1615332 10.46391113 8.69311523 11.32910156 C9.82681793 13.17663564 10.95514093 15.02747863 12.07885742 16.88110352 C13.92566129 19.92272137 15.7906392 22.95248426 17.66088867 25.97973633 C21.05046026 31.468256 24.42801631 36.9640465 27.80200195 42.4621582 C31.21983753 48.03029833 34.64325848 53.59499915 38.06713867 59.15942383 C38.72875 60.23482422 39.39036133 61.31022461 40.07202148 62.41821289 C44.33101832 69.33829326 48.60122839 76.251332 52.87963867 83.15942383 C53.67543335 84.44610962 53.67543335 84.44610962 54.48730469 85.75878906 C56.76611552 89.44222264 59.04931696 93.12240247 61.35620117 96.78833008 C61.72487305 97.37767334 62.09354492 97.9670166 62.47338867 98.57421875 C63.41011023 100.07088868 64.35163829 101.56454767 65.29370117 103.05786133 C67.76338811 107.40110388 69.89373305 111.9173957 70.87963867 116.84692383 C67.48077703 113.80699369 65.76949909 110.91357197 63.87963867 106.78442383 C60.25853407 99.21184014 55.83458905 92.2647793 51.30541992 85.21020508 C47.50107181 79.28332602 43.81280841 73.28712313 40.12963867 67.28442383 C39.45562012 66.18727051 38.78160156 65.09011719 38.0871582 63.9597168 C36.0171041 60.58932575 33.94828558 57.21817871 31.87963867 53.84692383 C29.19350929 49.4710804 26.50585523 45.09617801 23.81713867 40.72192383 C23.16648437 39.66223389 22.51583008 38.60254395 21.84545898 37.51074219 C18.43894402 31.97156646 15.00882794 26.44863947 11.53979492 20.94848633 C10.84184814 19.84005371 10.14390137 18.73162109 9.42480469 17.58959961 C8.08686054 15.4682466 6.74505183 13.34932484 5.39892578 11.2331543 C4.80474854 10.29101074 4.21057129 9.34886719 3.59838867 8.37817383 C3.07180664 7.54866211 2.54522461 6.71915039 2.00268555 5.86450195 C0.87963867 3.84692383 0.87963867 3.84692383 0.87963867 1.84692383 C-2.77763584 3.90130681 -6.42001767 5.9795689 -10.05175781 8.07861328 C-11.2825297 8.78576801 -12.5168 9.48687704 -13.75488281 10.18115234 C-21.86423115 14.7354468 -28.4204524 19.58345484 -34.79785156 26.37988281 C-36.89319434 28.60562009 -39.04562462 30.61628912 -41.37036133 32.59692383 C-44.5622642 35.3198124 -47.50635208 38.21012821 -50.44458008 41.20239258 C-52.87549733 43.58797804 -55.46804845 45.71213541 -58.12036133 47.84692383 C-58.12036133 43.84692383 -58.12036133 43.84692383 -56.66259766 42.2019043 C-55.99510498 41.66968262 -55.3276123 41.13746094 -54.63989258 40.58911133 C-51.66630252 38.13411747 -48.79275058 35.64719449 -46.00708008 32.97973633 C-35.13579991 22.60126705 -24.52949417 13.11945339 -11.68286133 5.22192383 C-10.80525146 4.67568359 -9.9276416 4.12944336 -9.0234375 3.56665039 C-8.19046143 3.06875 -7.35748535 2.57084961 -6.49926758 2.05786133 C-5.75233643 1.60717285 -5.00540527 1.15648437 -4.23583984 0.69213867 C-2.12036133 -0.15307617 -2.12036133 -0.15307617 0 0 Z " fill="#F6F6F6" transform="translate(316.120361328125,451.153076171875)"/>
<path d="M0 0 C1.2271875 0.36222656 2.454375 0.72445312 3.71875 1.09765625 C14.25086705 4.30734068 14.25086705 4.30734068 17.125 8.8125 C17.78476289 10.19224223 18.40975898 11.58911686 19 13 C19.78991159 14.45928472 20.58152453 15.91765004 21.375 17.375 C22.179375 19.169375 22.179375 19.169375 23 21 C22.67 21.66 22.34 22.32 22 23 C21.52691406 22.03578125 21.05382812 21.0715625 20.56640625 20.078125 C16.68465626 11.86517579 16.68465626 11.86517579 9.8125 6.4375 C8.21489788 5.93688153 6.60987876 5.45961045 5 5 C2.93611203 4.1282789 0.87371688 3.25301835 -1.1875 2.375 C-20.34132361 -4.84109169 -37.68441118 -1.71982584 -56 6 C-57.01271973 6.41942871 -58.02543945 6.83885742 -59.06884766 7.27099609 C-62.52054562 9.30705514 -63.54523901 10.91869632 -65.3671875 14.453125 C-65.93848389 15.54044922 -66.50978027 16.62777344 -67.09838867 17.74804688 C-67.97781128 19.48151367 -67.97781128 19.48151367 -68.875 21.25 C-69.49717361 22.43916345 -70.12128915 23.62731284 -70.74731445 24.81445312 C-73.33664734 29.74221503 -75.86809248 34.69603744 -78.30078125 39.703125 C-86.17665325 55.77649522 -95.90422691 61.08020408 -112.34106445 66.89550781 C-119.89592918 69.66873827 -124.30538285 72.45990012 -129 79 C-129.99 79.99 -129.99 79.99 -131 81 C-130.13590516 75.08851435 -127.56518195 71.77016481 -123 68 C-118.72533021 65.79422476 -114.27865661 64.2292519 -109.75 62.625 C-87.88477792 54.15394541 -81.56895188 41.89276477 -71.69189453 21.26855469 C-64.14920581 5.65303903 -64.14920581 5.65303903 -57.0625 2.625 C-55.05378621 2.03998799 -53.03214259 1.49756069 -51 1 C-49.01407789 0.2680751 -47.03449665 -0.48134539 -45.0625 -1.25 C-30.81469997 -6.49353425 -13.94552075 -5.48116473 0 0 Z " fill="#F5F5F5" transform="translate(281,771)"/>
<path d="M0 0 C0.33 0 0.66 0 1 0 C1.02578125 0.99902344 1.0515625 1.99804688 1.078125 3.02734375 C1.81941696 8.17880451 5.17865277 11.03091473 8.75 14.5625 C9.9961969 15.83325887 11.24101059 17.10537582 12.484375 18.37890625 C13.08773682 18.98790771 13.69109863 19.59690918 14.31274414 20.22436523 C15.85002099 21.84216505 17.23064349 23.50231667 18.60546875 25.2578125 C21.0978572 28.11206486 23.21485443 29.58513351 26.5625 31.3125 C27.49191406 31.80363281 28.42132813 32.29476562 29.37890625 32.80078125 C31.87797399 34.04283669 31.87797399 34.04283669 34.20703125 34.54296875 C36.87815837 35.22384429 38.15104002 37.02777602 40 39 C40.99 39.495 40.99 39.495 42 40 C42.47714321 42.10200927 42.94027565 44.20800073 43.33959961 46.32617188 C46.27955361 61.69490544 52.0056133 75.86356633 57.89111328 90.28161621 C59.13887589 93.34044774 60.38214794 96.40108407 61.625 99.46191406 C65.52148732 109.0550107 69.4206101 118.64698088 73.34545898 128.22851562 C73.81222046 129.36880219 74.27898193 130.50908875 74.7598877 131.68392944 C75.63400144 133.81839826 76.50923113 135.95241061 77.38586426 138.08584595 C79.53860058 143.34340742 81.65385266 148.61466658 83.72290039 153.90576172 C84.12771133 154.94030487 84.53252228 155.97484802 84.94960022 157.04074097 C87.05480653 162.97167403 88.12172691 168.71446526 88 175 C86.33292747 171.97779857 85.51696846 169.19974899 84.80078125 165.83203125 C82.97214651 158.30068954 80.12147956 151.29702347 77.19155884 144.14202881 C76.15633612 141.61131657 75.13294128 139.07608022 74.11206055 136.53955078 C70.34568126 127.1931686 66.5363039 117.86469217 62.71080017 108.54237366 C60.7234177 103.68932424 58.74980439 98.83073428 56.77798462 93.97134399 C55.81434753 91.60654915 54.8444484 89.24429466 53.86776733 86.88485718 C48.70187384 74.40220124 43.88244117 62.3872358 42.04304504 48.91879272 C41.20678752 43.98329316 41.20678752 43.98329316 37.95767212 40.35179138 C35.67860708 39.07344883 33.40948452 38.00646851 31 37 C23.48709872 33.06861661 17.68563433 29.25313398 12.24609375 22.67578125 C9.9920086 19.91044608 9.9920086 19.91044608 7.22265625 17.23046875 C0.3008163 10.28921269 0.3008163 10.28921269 -0.62890625 6.3046875 C-0.625 3.8125 -0.625 3.8125 0 0 Z " fill="#F2F2F2" transform="translate(373,589)"/>
<path d="M0 0 C0.33 0 0.66 0 1 0 C1.56009795 3.92068566 2.04381025 7.5088425 -0.3125 10.875 C-1.51259229 12.03223185 -2.74408369 13.15751157 -4 14.25390625 C-6.05227204 16.04563594 -7.78735635 17.93560304 -9.5625 20 C-10.15160156 20.6703125 -10.74070312 21.340625 -11.34765625 22.03125 C-12.98736287 23.92650657 -12.98736287 23.92650657 -14.24609375 25.78125 C-18.41539909 31.49618567 -24.25532452 34.11008414 -30.44140625 37.203125 C-31.61574219 37.79609375 -32.79007813 38.3890625 -34 39 C-34.93457031 39.37125 -35.86914062 39.7425 -36.83203125 40.125 C-40.39306209 43.20481046 -40.34243221 47.25417924 -41.125 51.75 C-43.8490866 64.80328226 -48.62015103 76.825267 -53.6875 89.125 C-54.09583069 90.118414 -54.50416138 91.111828 -54.92486572 92.13534546 C-57.48927746 98.36339016 -60.07648949 104.5818003 -62.66790771 110.79864502 C-66.22715489 119.352417 -69.74717256 127.92212937 -73.24624634 136.50067139 C-74.46869222 139.48604235 -75.70576611 142.46503602 -76.9440918 145.44384766 C-80.96299843 155.21277663 -84.37565679 164.50723105 -86 175 C-86.33 175 -86.66 175 -87 175 C-86.31428855 159.81149143 -79.74312116 146.0890483 -74.00585938 132.24578857 C-71.75419175 126.80894945 -69.52511908 121.36284285 -67.29296875 115.91796875 C-66.84472748 114.82579041 -66.39648621 113.73361206 -65.93466187 112.6083374 C-62.06551437 103.17608729 -58.22367664 93.73349732 -54.45230103 84.26168823 C-53.82838222 82.69800235 -53.20135811 81.1355511 -52.57089233 79.57449341 C-47.92504308 68.06357859 -43.92529114 56.58128324 -42.0625 44.25 C-41.33629495 40.26247411 -41.33629495 40.26247411 -38.4375 38 C-37.2309375 37.505 -37.2309375 37.505 -36 37 C-35.505 36.01 -35.505 36.01 -35 35 C-33.50298482 34.35800518 -31.97583407 33.78548117 -30.4375 33.25 C-19.93095935 29.14262717 -13.25521301 21.3288544 -6 13 C-5.29943481 12.22052002 -5.29943481 12.22052002 -4.5847168 11.42529297 C-1.26154837 7.63468333 -0.30337532 5.05625527 0 0 Z " fill="#F2F2F2" transform="translate(131,589)"/>
<path d="M0 0 C2.59874133 2.32925275 4.01382738 4.676814 5.56640625 7.7890625 C6.05302734 8.73136719 6.53964844 9.67367187 7.04101562 10.64453125 C8.0402142 12.60188302 9.02760859 14.56531451 10.00195312 16.53515625 C17.3925378 30.70124443 27.5797563 35.66080893 42.1875 40.73828125 C49.69352961 43.52984956 56.01641104 46.70086715 60 54 C59.69384766 56.27539062 59.69384766 56.27539062 59 58 C58.45472656 57.20335937 58.45472656 57.20335937 57.8984375 56.390625 C57.39570313 55.68421875 56.89296875 54.9778125 56.375 54.25 C55.88773437 53.55390625 55.40046875 52.8578125 54.8984375 52.140625 C50.39381125 47.0613345 45.11543111 45.17526811 38.85302734 42.9609375 C17.34642511 35.27976143 10.80195205 24.42447476 1.01879883 4.36328125 C0 2 0 2 0 0 Z " fill="#F3F3F3" transform="translate(304,794)"/>
<path d="M0 0 C-0.33 1.32 -0.66 2.64 -1 4 C-1.99 4 -2.98 4 -4 4 C-11.06450935 8.31247157 -14.94072768 14.69478009 -18.64111328 21.8359375 C-20.65071987 25.70359085 -22.82773682 29.21036368 -25.40625 32.73046875 C-29.37708152 38.29283086 -32.12696271 44.20068351 -34.875 50.4375 C-35.3596875 51.51193359 -35.844375 52.58636719 -36.34375 53.69335938 C-38.93064623 59.45606815 -41.04034058 64.34699273 -41.5625 70.6875 C-41.64628906 71.68136719 -41.73007813 72.67523437 -41.81640625 73.69921875 C-41.87699219 74.45847656 -41.93757812 75.21773437 -42 76 C-42.33 76 -42.66 76 -43 76 C-43.95622155 65.46951435 -41.61581581 58.23163161 -36.9375 48.875 C-36.37611328 47.69035156 -35.81472656 46.50570312 -35.23632812 45.28515625 C-31.64175818 37.83309924 -27.54852817 30.90126369 -23 24 C-22.22856562 22.75698959 -21.46317115 21.51018558 -20.70703125 20.2578125 C-19.76923828 18.70707031 -19.76923828 18.70707031 -18.8125 17.125 C-18.17957031 16.07570313 -17.54664063 15.02640625 -16.89453125 13.9453125 C-14.04593037 9.51676598 -11.17097132 5.84425029 -6.9375 2.6875 C-6.26589844 2.17574219 -5.59429687 1.66398438 -4.90234375 1.13671875 C-3 0 -3 0 0 0 Z " fill="#D9D9D9" transform="translate(179,696)"/>
<path d="M0 0 C-0.33 1.32 -0.66 2.64 -1 4 C-1 3.34 -1 2.68 -1 2 C-10.46718876 5.68003576 -15.02024282 9.56503199 -19.81762695 18.3918457 C-23.44584269 24.77005026 -28.19073711 29.24749512 -33.5625 34.1875 C-41.06945684 41.03648107 -41.06945684 41.03648107 -43.5 50.5 C-43.4071875 51.5209375 -43.314375 52.541875 -43.21875 53.59375 C-43.1465625 54.3878125 -43.074375 55.181875 -43 56 C-43.66 56.66 -44.32 57.32 -45 58 C-45.1339442 42.23285409 -45.1339442 42.23285409 -41.1875 37.75 C-39.82255884 36.4663387 -38.42195262 35.22020549 -37 34 C-35.02278806 32.14070778 -33.06453761 30.27263308 -31.125 28.375 C-30.6096167 27.87516602 -30.0942334 27.37533203 -29.56323242 26.86035156 C-25.27838571 22.5748323 -22.03208071 17.91805915 -18.94189453 12.72021484 C-15.86122068 7.53983037 -13.02854489 4.13399884 -7.4375 1.75 C-6.67308594 1.41484375 -5.90867188 1.0796875 -5.12109375 0.734375 C-3 0 -3 0 0 0 Z " fill="#E4E4E4" transform="translate(236,628)"/>
<path d="M0 0 C5.791838 0.99859276 9.93707405 4.97481021 14 9 C16.01742523 11.89351826 17.69753927 14.83128845 19.359375 17.94140625 C20.91233525 20.83656787 22.61441079 23.51947225 24.4375 26.25 C28.90020534 33.19420965 32.43066951 40.57114954 36 48 C36.31453125 48.64453125 36.6290625 49.2890625 36.953125 49.953125 C40.84277056 57.93019471 40.84277056 57.93019471 42 61 C41.505 61.99 41.505 61.99 41 63 C40.1703125 61.340625 39.34067123 59.68122687 38.51123047 58.02172852 C37.78837683 56.57651431 37.0647288 55.1316972 36.34033203 53.68725586 C34.58220634 50.17906928 32.83287374 46.66778182 31.12109375 43.13671875 C28.25697064 37.27391641 25.35031605 31.68413551 21.58984375 26.34765625 C19.61969499 23.43841939 17.89589034 20.40933258 16.125 17.375 C12.86196637 12.03264359 9.42130177 7.30567181 4 4 C3.01 4 2.02 4 1 4 C0.67 2.68 0.34 1.36 0 0 Z " fill="#EFEFEF" transform="translate(335,696)"/>
<path d="M0 0 C5.53289777 0.71392229 11.74710417 2.52073664 15.58178711 6.74072266 C16.9825016 8.84502184 18.25201794 10.98927542 19.5 13.1875 C25.87620981 23.61369647 34.09616178 31.71492459 43 40 C42.67 40.99 42.34 41.98 42 43 C24.1993846 26.33410837 24.1993846 26.33410837 18.6875 16.3125 C14.35754146 8.4689804 9.32968973 5.23787312 1 2 C0.67 2.66 0.34 3.32 0 4 C0 2.68 0 1.36 0 0 Z " fill="#F2F2F2" transform="translate(278,628)"/>
<path d="M0 0 C-0.33 1.32 -0.66 2.64 -1 4 C-1.99 4 -2.98 4 -4 4 C-12.04428621 8.91056829 -15.94849097 16.61679288 -20.15234375 24.68359375 C-22 28 -22 28 -24 29 C-23.43086037 24.44688294 -21.61580352 21.35645235 -19.1875 17.5 C-18.50042969 16.3965625 -17.81335938 15.293125 -17.10546875 14.15625 C-14.13055405 9.69663761 -11.25127959 5.90413333 -6.9375 2.6875 C-5.93009766 1.91986328 -5.93009766 1.91986328 -4.90234375 1.13671875 C-3 0 -3 0 0 0 Z " fill="#EFEFEF" transform="translate(179,696)"/>
<path d="M0 0 C3.79789507 1.26596502 4.3520003 2.63005283 6.50390625 5.953125 C7.16197266 6.96503906 7.82003906 7.97695312 8.49804688 9.01953125 C9.17931641 10.08558594 9.86058594 11.15164062 10.5625 12.25 C11.24763672 13.30058594 11.93277344 14.35117188 12.63867188 15.43359375 C15.50402903 19.87082005 18.17824726 24.02103087 20 29 C19.34 29 18.68 29 18 29 C16.52902288 27.08493989 15.18935102 25.17906734 13.8671875 23.1640625 C13.47048859 22.56951263 13.07378967 21.97496277 12.66506958 21.36239624 C11.82628581 20.10187623 10.99091923 18.83907675 10.15869141 17.57421875 C8.88139564 15.63471144 7.59203736 13.70367079 6.30078125 11.7734375 C5.48885103 10.54996482 4.67762913 9.32602174 3.8671875 8.1015625 C3.47973358 7.52129303 3.09227966 6.94102356 2.69308472 6.34317017 C0 2.23101073 0 2.23101073 0 0 Z " fill="#EEEEEE" transform="translate(76,151)"/>
<path d="M0 0 C1.20235332 3.60705995 0.44496285 4.79924893 -1.19848633 8.09130859 C-1.54548584 8.74180176 -1.89248535 9.39229492 -2.25 10.0625 C-2.60408936 10.72846191 -2.95817871 11.39442383 -3.32299805 12.08056641 C-7.2866515 19.1095469 -13.14043121 26.38014374 -21 29 C-19.4708246 25.10675459 -17.09113139 23.28100985 -13.875 20.6875 C-7.19549438 14.81763142 -3.71188619 7.97683279 0 0 Z " fill="#EEEEEE" transform="translate(204,803)"/>
<path d="M0 0 C0.66 0.33 1.32 0.66 2 1 C-6.91 14.365 -6.91 14.365 -16 28 C-16.66 27.34 -17.32 26.68 -18 26 C-2.28458498 2.28458498 -2.28458498 2.28458498 0 0 Z " fill="#F1F1F1" transform="translate(425,155)"/>
<path d="M0 0 C0.66 0.66 1.32 1.32 2 2 C0.94512267 2.96671756 -0.11933281 3.92298745 -1.1875 4.875 C-1.77917969 5.40867187 -2.37085938 5.94234375 -2.98046875 6.4921875 C-5 8 -5 8 -7.625 8.625 C-10.12462089 9.73469048 -10.12462089 9.73469048 -10.67895508 11.84033203 C-11.17132309 14.26473455 -11.51723786 16.66887032 -11.8125 19.125 C-11.93302734 19.97449219 -12.05355469 20.82398438 -12.17773438 21.69921875 C-12.47232468 23.79670174 -12.73885374 25.89809111 -13 28 C-13.33 28 -13.66 28 -14 28 C-14.39682824 21.12164385 -13.94227094 14.31722879 -11 8 C-7.9517002 5.08120313 -4.67846529 3.0369996 -1 1 C-0.67 0.67 -0.34 0.34 0 0 Z " fill="#E6E6E6" transform="translate(14,843)"/>
<path d="M0 0 C12.4875 8.325 12.4875 8.325 14.4375 16.0234375 C15.2112195 20.11770318 15.20437671 23.84434013 15 28 C14.67 28 14.34 28 14 28 C13.84144531 26.72382812 13.68289063 25.44765625 13.51953125 24.1328125 C13.28505927 22.46337197 13.04931601 20.79410964 12.8125 19.125 C12.71130859 18.28324219 12.61011719 17.44148437 12.50585938 16.57421875 C12.16522647 14.27264509 11.8056263 12.18367892 11 10 C8.6807393 8.50560887 8.6807393 8.50560887 6 8 C3.98046875 6.4921875 3.98046875 6.4921875 2.1875 4.875 C1.58292969 4.33617187 0.97835938 3.79734375 0.35546875 3.2421875 C-0.09183594 2.83226562 -0.53914063 2.42234375 -1 2 C-0.67 1.34 -0.34 0.68 0 0 Z " fill="#E8E8E8" transform="translate(490,843)"/>
<path d="M0 0 C-0.33 1.32 -0.66 2.64 -1 4 C-1 3.34 -1 2.68 -1 2 C-9.1119498 5.8006207 -15.03232273 8.62379242 -19 17 C-20 14 -20 14 -19.171875 11.9140625 C-14.85713982 4.96781301 -8.52424651 0 0 0 Z " fill="#F0F0F0" transform="translate(236,628)"/>
<path d="M0 0 C0.33 0.66 0.66 1.32 1 2 C2.19625 1.690625 3.3925 1.38125 4.625 1.0625 C11.84489437 0.16145718 17.95038151 4.54922189 24 8 C23.67 8.99 23.34 9.98 23 11 C22.17757813 10.50628906 21.35515625 10.01257813 20.5078125 9.50390625 C13.71463222 5.60527969 8.01256078 2.87339069 0 3 C0 2.01 0 1.02 0 0 Z " fill="#FCFCFC" transform="translate(462,769)"/>
<path d="M0 0 C0.33 0.99 0.66 1.98 1 3 C0.16082031 2.98646484 0.16082031 2.98646484 -0.6953125 2.97265625 C-9.23483068 3.28842621 -15.68122385 6.9609636 -23 11 C-22.875 9.20703125 -22.875 9.20703125 -22 7 C-16.50268191 3.35966287 -10.38512134 0.34521315 -3.6875 1.125 C-2.470625 1.41375 -1.25375 1.7025 0 2 C0 1.34 0 0.68 0 0 Z " fill="#FCFCFC" transform="translate(42,769)"/>
<path d="M0 0 C0.33 0 0.66 0 1 0 C0.99097656 0.78503906 0.98195312 1.57007813 0.97265625 2.37890625 C1.00992013 8.64102312 1.00992013 8.64102312 3.58984375 14.14453125 C4.84022274 15.27728768 6.11337489 16.38551857 7.41015625 17.46484375 C9.72672685 19.70172888 9.92359042 21.86720735 10 25 C9.46375 24.29875 8.9275 23.5975 8.375 22.875 C6.2901059 20.11251399 6.2901059 20.11251399 4.3984375 18.82421875 C2.41055003 17.30268403 1.25299908 16.19070101 0 14 C-0.51549529 9.29216039 -0.34888174 4.71636432 0 0 Z " fill="#E6E6E6" transform="translate(232,637)"/>
<path d="M0 0 C0.33 0 0.66 0 1 0 C2.22680894 12.13177726 2.22680894 12.13177726 -0.7109375 16.60546875 C-2.72448945 18.54269472 -4.81726431 20.25994766 -7 22 C-7.66 22.99 -8.32 23.98 -9 25 C-8.92359042 21.86720735 -8.72672685 19.70172888 -6.41015625 17.46484375 C-5.77980469 16.94019531 -5.14945312 16.41554688 -4.5 15.875 C-0.96534487 12.67284821 -0.42304451 10.28285971 -0.0625 5.5625 C-0.01019135 3.70895425 0.0213122 1.85416122 0 0 Z " fill="#E8E8E8" transform="translate(281,637)"/>
<path d="M0 0 C0.33 0 0.66 0 1 0 C1.57804414 4.04630897 2.01731911 7.55389349 -0.41796875 11.015625 C-2.21240906 12.77563042 -4.06316716 14.39910604 -6 16 C-7.2065625 17.2065625 -7.2065625 17.2065625 -8.4375 18.4375 C-8.953125 18.953125 -9.46875 19.46875 -10 20 C-10 15.90439742 -8.40697473 15.1077874 -5.5625 12.25 C-1.65956907 8.07790142 0.12428762 5.71723072 0 0 Z " fill="#EDEDED" transform="translate(131,589)"/>
<path d="M0 0 C0.33 0.99 0.66 1.98 1 3 C0.44570313 3.48210937 -0.10859375 3.96421875 -0.6796875 4.4609375 C-1.40414063 5.09257812 -2.12859375 5.72421875 -2.875 6.375 C-3.59429687 7.00148438 -4.31359375 7.62796875 -5.0546875 8.2734375 C-6.4076598 9.47426834 -7.7208345 10.7208345 -9 12 C-9 8 -9 8 -7.28515625 6.11328125 C-6.55167969 5.51902344 -5.81820313 4.92476563 -5.0625 4.3125 C-4.33160156 3.71050781 -3.60070312 3.10851562 -2.84765625 2.48828125 C-2.23792969 1.99714844 -1.62820313 1.50601562 -1 1 C-0.67 0.67 -0.34 0.34 0 0 Z " fill="#F4F4F4" transform="translate(267,487)"/>
<path d="M0 0 C0.66 0.66 1.32 1.32 2 2 C0.8758824 3.29243468 -0.24932592 4.58392075 -1.375 5.875 C-2.00148437 6.59429688 -2.62796875 7.31359375 -3.2734375 8.0546875 C-4.47426834 9.4076598 -5.7208345 10.7208345 -7 12 C-6.67566492 6.64847115 -3.50295176 3.71719957 0 0 Z " fill="#EFEFEF" transform="translate(157,840)"/>
<path d="M0 0 C-1.47559669 4.42679007 -3.90057368 4.91432696 -8 7 C-8.66 7 -9.32 7 -10 7 C-8.60449526 2.81348579 -4.64858615 0 0 0 Z " fill="#FAFAFA" transform="translate(109,619)"/>
<path d="M0 0 C0.66 0.33 1.32 0.66 2 1 C0.02 3.97 -1.96 6.94 -4 10 C-4.66 9.34 -5.32 8.68 -6 8 C-4.02 5.36 -2.04 2.72 0 0 Z " fill="#E8E8E8" transform="translate(364,247)"/>
<path d="M0 0 C0.33 0.66 0.66 1.32 1 2 C0.00390625 3.9453125 0.00390625 3.9453125 -1.4375 6.125 C-1.91058594 6.84945313 -2.38367188 7.57390625 -2.87109375 8.3203125 C-3.24363281 8.87460937 -3.61617188 9.42890625 -4 10 C-4.66 9.34 -5.32 8.68 -6 8 C-4.02 5.36 -2.04 2.72 0 0 Z " fill="#F1F1F1" transform="translate(358,256)"/>
<path d="M0 0 C0.66 0.33 1.32 0.66 2 1 C0.02 3.97 -1.96 6.94 -4 10 C-4.66 9.34 -5.32 8.68 -6 8 C-4.02 5.36 -2.04 2.72 0 0 Z " fill="#E8E8E8" transform="translate(425,155)"/>
<path d="M0 0 C0.99 0.99 1.98 1.98 3 3 C-0.96 2.67 -4.92 2.34 -9 2 C-5.53076119 -0.31282587 -4.07794425 -0.42478586 0 0 Z " fill="#E1E1E1" transform="translate(268,767)"/>
<path d="M0 0 C1 3 1 3 0.29296875 5.0078125 C-0.25423828 6.05582031 -0.25423828 6.05582031 -0.8125 7.125 C-1.16957031 7.82882812 -1.52664062 8.53265625 -1.89453125 9.2578125 C-3 11 -3 11 -5 12 C-4.35550393 8.98782888 -3.34977818 6.48344164 -1.9375 3.75 C-1.57527344 3.04359375 -1.21304688 2.3371875 -0.83984375 1.609375 C-0.56269531 1.07828125 -0.28554687 0.5471875 0 0 Z " fill="#EBEBEB" transform="translate(123,556)"/>
<path d="M0 0 C0.66 0.66 1.32 1.32 2 2 C-0.97 3.65 -3.94 5.3 -7 7 C-4.91100178 2.82200357 -3.94455388 2.07608099 0 0 Z " fill="#EEEEEE" transform="translate(298,461)"/>
<path d="M0 0 C0.66 0 1.32 0 2 0 C5.28571429 7.42857143 5.28571429 7.42857143 6 11 C2.1334716 7.777893 1.11940982 4.85077588 0 0 Z " fill="#EBEBEB" transform="translate(381,557)"/>
<path d="M0 0 C0 0.66 0 1.32 0 2 C-4.625 4.125 -4.625 4.125 -8 3 C-3.375 0 -3.375 0 0 0 Z " fill="#FBFBFB" transform="translate(227,774)"/>
</svg>
