<?xml version="1.0" encoding="UTF-8"?>
<svg id="Layer_1" data-name="Layer 1" xmlns="http://www.w3.org/2000/svg" viewBox="0 0 538.77 898">
  <defs>
    <style>
      .cls-1 {
        fill: #fff;
      }
    </style>
  </defs>
  <g>
    <path d="M295.3,3.7c-1.4,4.8-1.4,20.3-.1,23.7,.7,2,1.6,2.5,3.5,2.4,4.4-.4,5-2.2,5-14.2-.1-12.3-1.1-15.6-5-15.6-1.9,0-2.6,.7-3.4,3.7Z"/>
    <path d="M392.4,30.3c-2.8,3-5.2,8.9-5.2,12.8,0,2.8,.3,3.1,2.3,2.5,1.2-.3,2.5-.6,2.9-.6,1.2,0,5.8-8.6,5.8-10.9,0-2.5-1.7-6.1-2.9-6.1-.4,0-1.7,1-2.9,2.3Z"/>
    <path d="M199.2,33.5c0,3.8,3.5,9.9,8.4,14.5,2.3,2.1,2.9,2.2,3.6,1,.5-.8,1-2.6,1-4,0-4.2-6.7-13.3-10.7-14.5-2.1-.6-2.3-.3-2.3,3Z"/>
    <path d="M286.7,97c-4.4,.4-11.8,2-16.5,3.4-4.7,1.5-9.4,2.9-10.5,3.2-1.1,.2-2.4,1-3,1.7-1.7,2.2-8.8,7.3-13.1,9.5-6,3-13.6,10.4-16.4,15.8-1.4,2.7-3.2,5.6-4,6.4-2.8,2.8-8,13.8-10.2,21.7-2,7-2.2,10.1-2.1,31.3,.1,28.5,1,33.2,8.8,49,7.4,15.1,10.7,18.4,26,25.9,7,3.5,13.6,7.5,16,9.8,2.1,2.1,7.6,5.7,12.1,7.9,7.6,3.8,23.7,15.1,29.3,20.4,3.8,3.7,10.8,15.2,12.7,20.9,2.4,7.4,1.5,31.4-1.7,45.6-1.9,8.6-2.9,11-7.4,17.5-3.1,4.4-6.4,10.7-7.9,15.2-5.6,16.1-9.7,47.4-7.5,56.4,1.4,5.9,4.4,12.1,7.3,15.2,2.4,2.7,8.3,6.1,7.1,4.2-.4-.7-.1-1.6,.6-2.1,1.2-.7,1.1-1.3-.2-3.7-1.7-3.1-1.5-5.2,.7-5.2,1.7,0,1.8-2.2,.2-3.8-.9-.9-.8-1.2,.5-1.2,1.5,0,1.4-.5-.8-4-2.9-4.6-3-5-1.1-5,2.4,0,2.6-2.9,.6-8.3-2.6-6.7-2.5-9.7,.3-13.5,4.3-6,21-26.2,21.6-26.2,1,0,6.8-13.3,8-18.5,2.8-11.6,3.5-24.8,2.4-44.5-1-18-1.3-20.2-4.2-28-4.8-12.9-6.8-16.4-14.3-24.8-3.7-4.2-6.8-7.9-6.8-8.3,0-1.6-18.5-15.9-29.1-22.4-13.6-8.3-24.5-18.7-29-27.8-4.8-9.5-8.7-25.4-10.9-44.7-1.5-12.7-.1-19.9,4.9-25.5,1.7-2,3.1-4,3.1-4.5,0-1.5,14.5-12.6,20.2-15.5,7.5-3.8,18.9-5.5,36.5-5.5,21.4,0,29.1,2,36.1,9.1,5,5.1,6.4,11.4,5.9,26.6-.4,13.7-.8,16.7-2.4,19.8-1.5,2.7-6.2,7-6.9,6.3-.5-.6-11.4,3-22.9,7.5-2.2,.8-6.9,1.8-10.5,2.1-5.4,.5-7.1,.3-9.7-1.3-4.2-2.6-5-4.4-5.2-12.1-.2-7.1,1.7-11.3,6.9-15.2,2.3-1.7,3.2-1.7,8-.7,3.6,.8,6.4,2.1,8.3,4,1.6,1.6,3.3,2.9,3.8,2.9,1.5,0,2.2-4.7,1.7-11.7-.4-5.9-.7-6.8-3.7-9.5-3.3-2.9-3.5-3-12.8-2.6l-9.5,.3-5.8,6.1c-3.1,3.4-7.1,9-8.9,12.4-2.9,5.9-3.1,7-3.1,16.9,0,8.1,.5,11.5,1.9,14.6,2.5,5.4,15.4,17.5,21.6,20.1,13.4,5.8,13.1,5.7,21.5,5.1,6.6-.5,8.1-.4,8.8,.9,.8,1.4,1.4,1.3,5.3-.7,2.4-1.3,5.6-2.4,7-2.5,5.5-.4,17.8-9.2,20.4-14.7,.9-1.7,3.1-5.3,5-8,6-8.4,8.8-18.3,11.5-41.3,.9-7.7,.9-10.7,.1-12.3-.7-1.2-2-5.4-3.1-9.4-2.8-10.8-8.5-23.7-12.8-28.5-4.5-5.2-18.3-15-27.2-19.5l-6.5-3.2-18.5-.1c-10.2-.1-22.1,.2-26.5,.6Z"/>
    <path d="M440.2,99.1c-3.9,1.6-6,4-6,7.1,0,2.3,.4,2.8,2.5,2.8,3.7,0,9.2-2.5,10.4-4.8,.5-1,.7-2.8,.4-4-.6-2.4-3.1-2.8-7.3-1.1Z"/>
    <path d="M147.9,113.7c-1.3,1.2-.7,6.8,.9,9.1,1.7,2.4,8.3,6.2,10.9,6.2,2,0,2.8-2.1,1.8-4.8-.8-2.1-10.7-11.2-12.2-11.2-.4,0-1.1,.3-1.4,.7Z"/>
    <path d="M516.6,343.8c-1.7,1.5-4.7,4.1-6.6,5.8-2,1.7-5.6,6.2-8,10-2.5,3.8-7.6,11.6-11.3,17.4s-7,9.9-7.3,9.2c-.2-.8,1-5.2,2.8-9.8l3.3-8.5-3.3-3.4c-1.9-1.9-3.7-3.5-4.2-3.5-.4,0-3.3,2.4-6.4,5.2-3.1,2.9-6.2,5.6-6.9,6.1-.8,.4-8,10.7-16.1,23-8,12.2-15.7,23.8-17,25.7-1.2,1.9-3.4,6.9-4.8,11-1.3,4.1-4.5,13.5-7.1,20.9l-4.6,13.5,2.2,6.1,2.2,6.2-9.5,22.1c-8.4,19.4-10.6,23.6-18.4,34.6-4.9,6.9-9.5,12.5-10.3,12.6-.8,0-1.1-.7-.8-1.8,.3-.9,1.7-6,3.2-11.2,1.6-5.8,6.7-18,13.1-31.3,5.8-11.9,10.7-22.9,10.9-24.5,.4-2-.3-3.6-2.8-6.6l-3.4-3.8-12.8,4.8-12.7,4.9-11.2,13.7c-6.2,7.5-15,19.6-19.7,26.8-7.2,11.3-12.6,19-29.1,40.9-4.1,5.5-10,14.3-13.3,20.1-1.6,2.8-4.6,7.7-6.6,10.8s-4.4,7-5.3,8.5-4,3.8-6.9,5.2c-42.3,19.6-53.8,24.3-62.4,25.5-11.4,1.5-16,2.7-16.6,4.3-.3,.7-3.4,5.4-7,10.3-5.7,8-6.5,9.6-6.9,14.7-.5,6.4-1,6.9-9.5,11.3-2.8,1.5-6.6,4.4-8.5,6.6-3.2,3.8-3.4,3.9-8.3,3.3-7.7-1-27.8-6.1-39.5-10-5.8-1.9-10.8-3.5-11.1-3.5-.4,0-3.3,5.3-6.5,11.7-4.5,9.1-7.3,13.2-11.9,17.9-9.6,9.7-19.1,14.6-31.3,16-3.4,.3-6.8,1.2-7.7,1.8-.8,.6-6.4,12.6-12.5,26.6s-12.3,27.5-13.7,30c-1.5,2.5-6.1,7.9-10.2,12.1-4.2,4.2-11.3,11.7-15.9,16.7l-8.4,9.2,4.4,1.9c2.4,1,8.8,4,14.3,6.6,5.5,2.5,17.9,7.9,27.5,12,9.6,4,31,13.2,47.4,20.4,16.5,7.2,30.5,13.1,31.2,13.1s1.4,.3,1.6,.7c.3,.8,24.1,12.4,33.1,16.3,3,1.2,5.8,1.8,7.3,1.4,2.4-.6,2.4-.7,.8-2.5-.9-1.1-1.3-1.9-.8-1.9,.4,0,7.1,3.1,14.9,6.9,17.2,8.5,32.1,14.1,37.3,14.1,2.2,0,5.6-.7,7.7-1.6,2.1-.8,4.4-1.3,5.1-1,.8,.3,1.4,.1,1.4-.4,0-.6,.6-1,1.4-1,2.4,0,2.9-3.7,1.6-12.3-.7-4.6-1-10.3-.7-12.7,.3-2.5,1.1-8.8,1.6-14,1.2-11.3,4.5-23.2,10-35.9,7.9-18.3,14.9-28.7,23.9-35.5,4.4-3.4,5.6-5.2,9.7-14.5,2.6-5.8,6.1-14.9,7.7-20.1,1.7-5.2,3.7-10.1,4.4-10.9,1.9-2.1,6.4,.1,6.4,3.1,.1,2.1,.2,2.1,1.1,.5,.8-1.3,.3-2.7-2.2-6.1-2.6-3.8-3-5-2.5-8,.7-3.6,.6-3.6-2.7-3.6-1.9,0-4-.6-4.6-1.4-.7-.8-2.3-1.7-3.6-2l-2.5-.6,2.1-2.4c1.2-1.3,3.6-2.7,5.5-3.1,3.6-.6,4-1.5,2.4-4.4-.8-1.6,.3-2.4,8.6-6.5,5.3-2.5,13.9-7.9,19.1-11.9,14.5-11,15.8-11.9,30.3-20.2,7.4-4.3,19.1-11,26-15,6.9-3.9,13.4-7.7,14.5-8.3,1.1-.7,8.5-2.8,16.4-4.6l14.4-3.4,7.7-7.7c7.1-7.1,7.9-8.2,10-15.3,1.3-4.7,12.3-27.9,27.6-58.7,13.9-28.1,26.4-54.4,27.7-58.5,7-21.4,23.9-64.3,29.1-73.5,2.5-4.4,5.8-10.5,7.5-13.5,1.6-3,4.1-7,5.5-8.9,2.2-3,2.4-4.1,2-9-.3-3.1-.9-5.9-1.2-6.2-.4-.3-2.6-1.1-5-1.7l-4.3-1-13.4,13.4c-7.4,7.4-13.9,13.4-14.5,13.4-1.9,0-.4-3.4,15.6-35.7,8.5-17.1,15.4-31.4,15.4-31.7,0-.7-8.9-4.6-10.4-4.6-.6,0-2.5,1.3-4.2,2.8Z"/>
    <path d="M305.2,555.4c-6.9,3.4-16.8,7.8-22,9.8-5.2,2.1-15.7,6.1-23.2,9l-13.7,5.3-12.7,12c-12.3,11.7-12.8,12.3-18.6,23.8-3.2,6.6-5.8,12-5.6,12.2s5.7-.8,12.3-2.2c11.2-2.3,12.6-2.8,21.1-8.4,7.3-4.8,30-15.8,43.4-21,1.4-.6,3.4-2.4,4.6-4.2,1.1-1.8,7.7-11.6,14.5-21.8,15-22.1,14.2-20.9,13.2-20.8-.4,0-6.4,2.8-13.3,6.3Z"/>
  </g>
  <ellipse class="cls-1" cx="161.93" cy="772.85" rx="64.12" ry="65.95"/>
  <ellipse cx="161.93" cy="772.85" rx="36.25" ry="37.28"/>
</svg>