<?xml version="1.0" encoding="UTF-8"?>
<svg version="1.1" xmlns="http://www.w3.org/2000/svg" width="502" height="931">
<path d="M0 0 C-0.89063802 20.56486046 -0.89063802 20.56486046 -1.5625 27.1875 C-3.85625026 50.63664728 -1.27176485 87.4266565 13.32421875 106.75341797 C16.44638167 110.17191799 20.1400608 112.50266035 24 115 C25.12721927 115.94719818 26.24002804 116.91174141 27.33984375 117.890625 C41.33850712 130.01221227 60.57614566 137.08578015 79 138 C81.475 147.405 81.475 147.405 84 157 C87.96 157.99 87.96 157.99 92 159 C92.66 148.77 93.32 138.54 94 128 C97.96 126.515 97.96 126.515 102 125 C103.90332442 123.46849078 103.90332442 123.46849078 105.08203125 121.6015625 C105.76749023 120.63476562 105.76749023 120.63476562 106.46679688 119.6484375 C106.91087891 118.98070313 107.35496094 118.31296875 107.8125 117.625 C108.27591797 116.965 108.73933594 116.305 109.21679688 115.625 C110.50899811 113.76896275 111.75618881 111.88863191 113 110 C113.54785156 109.22914062 114.09570312 108.45828125 114.66015625 107.6640625 C116.72514667 103.55816318 117.59825896 99.21188698 118.625 94.75 C119.05166824 92.93158059 119.48119974 91.1138298 119.9140625 89.296875 C120.0992041 88.49604492 120.2843457 87.69521484 120.47509766 86.87011719 C121 85 121 85 122 84 C124.46605058 83.72999446 126.90091975 83.52500373 129.375 83.375 C130.09365234 83.32996338 130.81230469 83.28492676 131.55273438 83.23852539 C137.4428017 82.92261076 143.15120395 83.19455139 149 84 C149.4125 85.19625 149.825 86.3925 150.25 87.625 C150.53617187 88.45386719 150.82234375 89.28273438 151.1171875 90.13671875 C152 93 152 93 152.6328125 96.08203125 C154.41245158 104.12787318 157.52175617 109.98926667 162.25 116.6875 C163.0551001 117.85526978 163.0551001 117.85526978 163.87646484 119.04663086 C164.4173877 119.77760986 164.95831055 120.50858887 165.515625 121.26171875 C165.99290039 121.91100342 166.47017578 122.56028809 166.96191406 123.22924805 C169.65361998 125.77595073 169.65361998 125.77595073 177 128 C177.66 138.23 178.32 148.46 179 159 C181.64 158.34 184.28 157.68 187 157 C188.65 150.73 190.3 144.46 192 138 C193.53527344 137.92136719 195.07054687 137.84273437 196.65234375 137.76171875 C215.44412134 136.0162315 233.15634429 127.35179496 246.95727539 114.7722168 C249 113 249 113 251.54077148 111.14379883 C257.92623333 106.45924475 261.18932561 102.39981091 263.8125 94.9375 C264.17722412 93.93960449 264.54194824 92.94170898 264.91772461 91.91357422 C272.35607242 69.55387094 274.28830436 43.76892757 272 20.4375 C271.33096363 13.58891826 270.88633487 6.88384463 271 0 C274.3404343 0.57550046 275.87015214 1.53228826 278.13671875 4.02734375 C278.99583862 4.96090698 278.99583862 4.96090698 279.87231445 5.91333008 C280.47132568 6.58130615 281.07033691 7.24928223 281.6875 7.9375 C282.62178833 8.95976685 282.62178833 8.95976685 283.57495117 10.00268555 C285.39168027 11.99438506 287.19712264 13.99576501 289 16 C289.85851562 16.94617188 290.71703125 17.89234375 291.6015625 18.8671875 C293.05104717 20.47032779 294.49526321 22.078251 295.93359375 23.69140625 C297.3303173 25.25182897 298.73958207 26.80110246 300.16015625 28.33984375 C309.8156696 38.8468133 318.32867618 50.29250378 326.82421875 61.7421875 C329.02606971 64.70884831 331.26259902 67.64536781 333.51953125 70.5703125 C340.39076227 79.55426299 346.37822803 88.53987207 351.35205078 98.70751953 C353.09882157 102.24351879 354.92291586 105.72013445 356.81982422 109.17773438 C365.18655915 124.70000535 369.9573599 140.20544839 374 157.3125 C374.32116852 158.63455948 374.64346554 159.95634529 374.96685791 161.27786255 C379.96702559 181.75226841 383.63360034 201.96101935 385 223 C385.33 227.29 385.66 231.58 386 236 C371.15 241.28 356.3 246.56 341 252 C354.68670528 254.59003663 354.68670528 254.59003663 368.37426758 257.17553711 C370.08938669 257.50097482 371.8044766 257.82656651 373.51953125 258.15234375 C374.41103882 258.31996216 375.30254639 258.48758057 376.22106934 258.66027832 C377.07342163 258.82257935 377.92577393 258.98488037 378.80395508 259.15209961 C379.54341873 259.29199814 380.28288239 259.43189667 381.04475403 259.57603455 C383 260 383 260 386 261 C386.40774501 291.36132099 382.08746571 319.99226558 373.73950577 349.09890747 C373.1350817 351.21470876 372.54174275 353.33335447 371.95053101 355.45288086 C366.81519333 373.73964193 360.20956376 389.86654764 350.5783844 406.29135132 C348.60368033 409.68011998 346.72092824 413.11462329 344.84793091 416.56034851 C343.30621571 419.38642093 341.72572587 422.18971583 340.13818359 424.99023438 C339.37635678 426.33544209 338.61889654 427.68313165 337.86572266 429.03320312 C333.42128595 436.97120961 328.80230393 443.78365214 322.46484375 450.39453125 C320.01778283 452.98120262 317.78676787 455.65815637 315.5625 458.4375 C311.90299472 462.97477021 308.05004979 467.26030973 304.08178711 471.52368164 C301.13082563 474.71306313 298.34014247 477.9835583 295.625 481.375 C291.4608041 486.55761338 286.99578431 491.4047952 282.42822266 496.22998047 C281.8976123 496.79217285 281.36700195 497.35436523 280.8203125 497.93359375 C280.32047852 498.46194824 279.82064453 498.99030273 279.30566406 499.53466797 C277.86068619 501.09144196 277.86068619 501.09144196 276.3671875 503.41015625 C275.69042969 504.19712891 275.69042969 504.19712891 275 505 C273.68 505 272.36 505 271 505 C270.6833371 496.85032848 271.8697911 489.50394407 273.578125 481.5625 C275.09494974 473.97837629 275.22710566 466.71744451 275 459 C274.97373535 457.82405273 274.9474707 456.64810547 274.92041016 455.43652344 C273.97216606 426.83438516 266.16661236 398.87484636 247.36621094 376.71337891 C245.38935044 374.23417824 243.91224005 371.48258764 242.3125 368.75 C237.46255783 362.26007738 230.57187995 360.01417514 222.86914062 358.41162109 C213.34346805 357.04502103 203.58226865 357.60012171 194 358 C192.35 355.03 190.7 352.06 189 349 C187.41610952 351.68717298 185.83287323 354.37472789 184.25 357.0625 C183.8065625 357.81466797 183.363125 358.56683594 182.90625 359.34179688 C182.02343262 360.84128816 181.14312547 362.34226025 180.26538086 363.84472656 C179.45343007 365.22769039 178.63209969 366.60521433 177.79907227 367.97558594 C175.94380864 371.07640213 174.66444539 373.50851547 174.4375 377.125 C173.30687536 383.41953524 168.58241649 387.69213042 164.43359375 392.27734375 C161.51809877 395.53914151 160.87259607 396.8386461 160.89808655 401.05900574 C160.90065932 401.90522901 160.9032321 402.75145227 160.90588284 403.62331867 C160.91381894 404.55224021 160.92175505 405.48116175 160.92993164 406.43823242 C160.93436059 407.41568767 160.93878954 408.39314291 160.9433527 409.40021801 C160.95334609 411.51097235 160.96549152 413.62171735 160.97954178 415.73244858 C160.99963671 418.94197651 161.01111147 422.15141487 161.01974487 425.36099243 C161.05945389 438.68230331 161.16589467 452.00248157 161.31599331 465.32299519 C161.39024147 472.01428111 161.44836381 478.7046047 161.46655273 485.39624023 C161.48436089 491.93211889 161.54878016 498.4665737 161.6417408 505.00182152 C161.66944942 507.47553346 161.68176759 509.94946981 161.67803764 512.42333412 C160.94417908 527.30683087 160.94417908 527.30683087 167.39086914 539.91870117 C169.70327674 541.67073423 169.70327674 541.67073423 172 543 C173.010625 543.845625 174.02125 544.69125 175.0625 545.5625 C175.701875 546.036875 176.34125 546.51125 177 547 C176.46523506 551.18391224 175.16434351 553.36520254 172.5234375 556.609375 C168.50587427 562.18099821 167.9220638 566.52639665 167.625 573.25 C167.5523878 574.84119943 167.5523878 574.84119943 167.47830868 576.4645443 C166.08434524 608.51145417 165.81359549 640.56217629 165.69667697 672.63513136 C165.67424472 678.55182108 165.64711226 684.46848967 165.62062073 690.38516235 C165.57674652 700.32740285 165.53592977 710.26965181 165.49731445 720.21191406 C165.45816818 730.28842331 165.41663701 740.36491841 165.37231445 750.44140625 C165.36417239 752.29719586 165.36417239 752.29719586 165.35586584 754.19047618 C165.33406879 759.15242678 165.31223343 764.1143772 165.29021955 769.07632685 C165.23183625 782.28074495 165.17840309 795.48514064 165.14096069 808.68963623 C165.12779233 813.22635943 165.11445726 817.76308212 165.10107422 822.29980469 C165.09795377 823.38952119 165.09483331 824.4792377 165.0916183 825.60197592 C165.05344471 838.41903602 164.96935685 851.23356144 164.79083574 864.04943824 C164.72912266 868.70252932 164.68662061 873.35583662 164.64149666 878.00911331 C164.59946369 881.39353071 164.52582187 884.77619922 164.45030212 888.16000366 C164.43129492 890.10355989 164.41394555 892.04713343 164.39868164 893.99072266 C164.36910685 894.82458622 164.33953205 895.65844978 164.30906105 896.51758194 C164.31467133 901.09146872 164.96337937 903.40920109 168.0375824 906.87557983 C168.58903144 907.409168 169.14048048 907.94275616 169.7086401 908.49251366 C171 910 171 910 171 913 C170.29875 913.06574219 169.5975 913.13148438 168.875 913.19921875 C165.54000916 913.76562344 163.01467153 914.43237081 160 916 C157.85115974 919.03024852 157.85115974 919.03024852 156.125 922.5625 C154.26597288 926.1305309 152.87599377 928.60118308 149.07421875 930.33203125 C141.42663119 931.60510271 133.657551 930.9645007 126 930 C124.79601562 929.95230469 123.59203125 929.90460937 122.3515625 929.85546875 C119 929 119 929 116.953125 926.1640625 C116.39109375 924.99617187 115.8290625 923.82828125 115.25 922.625 C113.33803435 919.00250793 111.80022379 916.41387236 108.046875 914.47265625 C105.34822064 913.77723378 102.77270971 913.25994154 100 913 C100.37327017 909.76499185 101.17707585 908.8179488 103.51930237 906.40991211 C106.82394788 902.49579374 106.64743159 899.0190716 106.50366211 894.06640625 C106.49780909 893.13781799 106.49195606 892.20922974 106.48592567 891.25250244 C106.46931047 889.16069792 106.44074631 887.06896553 106.40234566 884.97744751 C106.33721243 881.41873126 106.30227283 877.86070428 106.27366638 874.30151367 C106.23863904 870.14104762 106.20129002 865.98071516 106.15246296 861.82038879 C105.99929421 848.68766851 105.94213173 835.55538425 105.90283203 822.421875 C105.89598278 820.19335934 105.88912319 817.96484372 105.88225365 815.73632812 C105.8716764 812.29548664 105.86112189 808.85464512 105.85071933 805.4138031 C105.81001788 792.21852672 105.7520039 779.02333182 105.69335938 765.828125 C105.67142959 760.87825538 105.64953777 755.92838559 105.62768555 750.97851562 C105.62223359 749.7461618 105.61678162 748.51380798 105.61116445 747.24411011 C105.5671379 737.22323611 105.52718701 727.20234861 105.48800808 717.18145466 C105.44932626 707.3453733 105.40738631 697.50930895 105.36312145 687.67325115 C105.33707045 681.86905672 105.31224388 676.06486454 105.29092598 670.26065063 C110.43285564 608.23108975 110.43285564 608.23108975 95.58203125 552.13671875 C94 550 94 550 94.2331543 548.0390625 C95.5054735 544.65593292 98.33576394 542.62989427 101 540.3125 C101.55945313 539.81427734 102.11890625 539.31605469 102.6953125 538.80273438 C104.12544191 537.52978102 105.56223048 536.26431767 107 535 C108.5653849 533.4346151 108.15900209 531.88438252 108.19618225 529.70663452 C108.21438522 528.77928497 108.2325882 527.85193542 108.25134277 526.89648438 C108.26644897 525.87022949 108.28155518 524.84397461 108.29711914 523.78662109 C108.31677231 522.71151276 108.33642548 521.63640442 108.35667419 520.52871704 C108.42095089 516.94368998 108.47813159 513.35858671 108.53515625 509.7734375 C108.57819646 507.27405161 108.62161314 504.77467217 108.66539001 502.27529907 C108.75657996 497.01089091 108.8446296 491.74644003 108.92993164 486.48193359 C109.03826622 479.79735741 109.15285409 473.11290935 109.26950932 466.42847252 C109.35956502 461.24967232 109.44742847 456.07083676 109.53457451 450.89198685 C109.57601871 448.4325045 109.6178724 445.97302901 109.66017342 443.51356125 C109.75715526 437.82345259 109.84448576 432.13363715 109.90823364 426.4430542 C109.95818229 422.11882881 110.06665288 417.80127349 110.21359253 413.47930908 C110.26316164 411.42062333 110.3123435 409.3619282 110.36108398 407.30322266 C110.40460778 406.37758703 110.44813158 405.45195141 110.49297428 404.49826622 C110.60821811 397.89423714 108.93572468 393.98616368 104.625 389 C103.62446585 387.97203203 102.61686283 386.95088639 101.6015625 385.9375 C98.66343062 382.61996971 97.99463652 380.26684653 97 376 C92.94022921 366.52276458 87.38731615 357.7633676 82 349 C80.35 351.97 78.7 354.94 77 358 C75.33195313 357.93039062 73.66390625 357.86078125 71.9453125 357.7890625 C51.55520725 356.740662 51.55520725 356.740662 33 364 C28.3693905 368.6018256 24.9256881 374.00334726 21.56225586 379.56274414 C19.86865902 382.20490342 17.98502744 384.62478514 16.05859375 387.1015625 C11.16168505 393.78683156 8.12141026 401.00523748 5.1875 408.6875 C4.90452057 409.41811646 4.62154114 410.14873291 4.32998657 410.90148926 C-1.71514095 426.75726606 -3.62195814 442.07392969 -4 459 C-4.03528809 460.19915039 -4.07057617 461.39830078 -4.10693359 462.63378906 C-4.23408448 470.10212365 -3.56863901 476.95794837 -2 484.25 C-0.51304845 491.28287893 0.27973902 497.80060542 0 505 C-4.57691551 504.53590717 -6.30332422 503.08461564 -9.25 499.625 C-10.03117187 498.7175 -10.81234375 497.81 -11.6171875 496.875 C-14.6445053 493.22236737 -17.63463192 489.54078631 -20.6171875 485.8515625 C-23.60101113 482.28075717 -26.74647952 478.88415005 -29.91577148 475.47875977 C-32.8868675 472.26736593 -35.69946588 468.97390237 -38.4375 465.5625 C-42.30288436 460.75162594 -46.4051098 456.22740688 -50.66381836 451.76586914 C-58.13656513 443.8476682 -63.36847867 435.10458121 -68.5625 425.5625 C-69.21492851 424.37403791 -69.86792048 423.18588497 -70.52148438 421.99804688 C-71.77840041 419.71053642 -73.02945136 417.4197911 -74.27392578 415.12548828 C-75.35261635 413.17224972 -76.46110716 411.23483852 -77.61279297 409.32373047 C-78.31299561 408.15608154 -78.31299561 408.15608154 -79.02734375 406.96484375 C-79.435896 406.30991943 -79.84444824 405.65499512 -80.26538086 404.98022461 C-81.2828751 402.23748755 -80.86219913 400.78373791 -80 398 C-79.04301101 395.95200888 -78.0139308 393.93702968 -76.9375 391.94921875 C-76.6299025 391.37728287 -76.32230499 390.80534698 -76.00538635 390.21607971 C-75.01003316 388.36965165 -74.00529449 386.52853132 -73 384.6875 C-72.31589792 383.42373363 -71.63222393 382.15973543 -70.94897461 380.89550781 C-66.06394092 371.87487007 -61.08541554 362.90919674 -56 354 C-56.77601562 354.4031543 -57.55203125 354.80630859 -58.3515625 355.22167969 C-61.26618753 356.73551089 -64.18109646 358.24879276 -67.09619141 359.76171875 C-68.35118615 360.41319589 -69.60607156 361.06488368 -70.86083984 361.71679688 C-73.84648949 363.26790729 -76.83374358 364.81561404 -79.82421875 366.35742188 C-81.72847685 367.34234258 -83.62847195 368.33567223 -85.51953125 369.34570312 C-89.03211493 371.19323091 -90.94051091 372 -95 372 C-104.6019627 343.47653007 -112.20992756 316.25930169 -114.5 286.1875 C-114.59123138 284.99851105 -114.68246277 283.80952209 -114.77645874 282.58450317 C-115.32682182 275.06083042 -115.73251686 267.53891681 -116 260 C-116.02966858 259.17735657 -116.05933716 258.35471313 -116.08990479 257.50714111 C-116.49113771 244.41946995 -115.26167497 231.50329538 -113.875 218.5 C-113.70843903 216.91161316 -113.70843903 216.91161316 -113.53851318 215.2911377 C-111.94139699 200.25595223 -109.85412783 185.70869735 -105.83984375 171.10449219 C-104.86229281 167.49096379 -103.95713582 163.86126483 -103.0625 160.2265625 C-102.73685763 158.90526328 -102.41117434 157.58397414 -102.08544922 156.26269531 C-101.92622986 155.61675415 -101.7670105 154.97081299 -101.60296631 154.30529785 C-100.4210597 149.53209159 -99.20912016 144.76637109 -98 140 C-92.13541667 139.26692708 -86.27083333 138.53385417 -80.40625 137.80078125 C-78.77623047 137.59702881 -78.77623047 137.59702881 -77.11328125 137.38916016 C-71.62760417 136.70345052 -66.14192708 136.01774089 -60.65625 135.33203125 C-59.7796875 135.22246094 -58.903125 135.11289063 -58 135 C-58.41507813 134.44957031 -58.83015625 133.89914063 -59.2578125 133.33203125 C-61.54331925 130.24803155 -63.77606711 127.12845686 -66 124 C-66.87567627 122.77772705 -66.87567627 122.77772705 -67.76904297 121.53076172 C-69.72234333 118.78538088 -71.64445776 116.02010396 -73.5625 113.25 C-74.20654785 112.35128174 -74.8505957 111.45256348 -75.51416016 110.52661133 C-79.9815236 103.99259302 -79.9815236 103.99259302 -80.0703125 99.22265625 C-76.29776528 87.86370932 -69.12393497 78.98679957 -61.7578125 69.76171875 C-57.96704409 65.00407817 -54.38447627 60.11030228 -50.8125 55.1875 C-42.23939436 43.45743811 -32.86347083 32.73971053 -22.93359375 22.1484375 C-20.68059995 19.74116801 -18.47311088 17.30355725 -16.3125 14.8125 C-15.79816406 14.22082031 -15.28382812 13.62914062 -14.75390625 13.01953125 C-13.32311583 11.37205096 -11.89376883 9.72331719 -10.46484375 8.07421875 C-9.56048766 7.04895683 -8.65554128 6.02421528 -7.75 5 C-6.50476563 3.576875 -6.50476563 3.576875 -5.234375 2.125 C-3 0 -3 0 0 0 Z " fill="#010101" transform="translate(116,0)"/>
<path d="M0 0 C0.66 0 1.32 0 2 0 C4.09146617 3.67475792 6.17225108 7.35530797 8.24389648 11.04125977 C8.94811423 12.29089633 9.65508305 13.53898715 10.36499023 14.78540039 C17.03831343 26.50956863 17.03831343 26.50956863 18.29296875 31.50390625 C19.325035 35.40794127 21.19792066 37.12493059 24.1186676 39.82846069 C30.52931553 46.22770951 31.78346773 52.46882827 31.91972351 61.37522888 C31.90978741 68.40019905 31.66202029 75.41333562 31.35428238 82.43067551 C31.17865182 86.65262551 31.05813642 90.8761185 30.93432617 95.09985352 C30.78029819 100.28361734 30.62218086 105.46697673 30.43791199 110.64976501 C30.07147686 121.2236097 29.96459649 131.76083827 30.12826157 142.33949089 C30.19026575 146.66108469 30.21617631 150.98309582 30.2457943 155.30501652 C30.27280521 158.68295887 30.33057435 162.05409629 30.42956543 165.43112183 C31.03793403 187.17790415 31.03793403 187.17790415 25.79443359 193.58642578 C22.50830589 196.92220015 18.96990871 199.53258365 15 202 C16.2727628 205.5205302 17.77761214 208.19459215 20.04296875 211.16015625 C28.83067617 224.17215815 25.21793532 248.7250684 25.52368164 264.04833984 C25.54518662 265.11632647 25.56669159 266.1843131 25.58884823 267.28466296 C26.1625305 296.45026298 26.24305661 325.61880545 26.30859375 354.7890625 C26.31192267 356.23445495 26.31525331 357.6798474 26.31858563 359.12523985 C26.34943416 372.66293374 26.37596822 386.20063313 26.39300442 399.73835182 C26.3969502 402.81889479 26.40095397 405.89943767 26.4050293 408.97998047 C26.40603766 409.74511044 26.40704602 410.51024041 26.40808494 411.29855613 C26.42525695 423.81573004 26.46662677 436.33271223 26.51705229 448.8497916 C26.56880875 461.80587449 26.59793626 474.76185737 26.6052013 487.71804273 C26.60984616 494.95227345 26.62442975 502.18618034 26.6649456 509.42030716 C26.70279326 516.18272194 26.71025592 522.94448423 26.69693947 529.70702362 C26.69699349 532.18384143 26.70731936 534.66068361 26.7286911 537.13740921 C26.75630805 540.51762416 26.74689324 543.89580056 26.72825623 547.27603149 C26.74505115 548.25361502 26.76184608 549.23119855 26.77914995 550.23840582 C26.69456918 556.3763009 25.37403068 559.85927672 21.48220974 564.62701452 C20 566 20 566 18 566 C18.37327017 562.76499185 19.17707585 561.8179488 21.51930237 559.40991211 C24.82394788 555.49579374 24.64743159 552.0190716 24.50366211 547.06640625 C24.49780909 546.13781799 24.49195606 545.20922974 24.48592567 544.25250244 C24.46931047 542.16069792 24.44074631 540.06896553 24.40234566 537.97744751 C24.33721243 534.41873126 24.30227283 530.86070428 24.27366638 527.30151367 C24.23863904 523.14104762 24.20129002 518.98071516 24.15246296 514.82038879 C23.99929421 501.68766851 23.94213173 488.55538425 23.90283203 475.421875 C23.89598278 473.19335934 23.88912319 470.96484372 23.88225365 468.73632812 C23.8716764 465.29548664 23.86112189 461.85464512 23.85071933 458.4138031 C23.81001788 445.21852672 23.7520039 432.02333182 23.69335938 418.828125 C23.67142959 413.87825538 23.64953777 408.92838559 23.62768555 403.97851562 C23.62223359 402.7461618 23.61678162 401.51380798 23.61116445 400.24411011 C23.5671379 390.22323611 23.52718701 380.20234861 23.48800808 370.18145466 C23.44932626 360.3453733 23.40738631 350.50930895 23.36312145 340.67325115 C23.33707045 334.86905672 23.31224388 329.06486454 23.29092598 323.26065063 C28.43285564 261.23108975 28.43285564 261.23108975 13.58203125 205.13671875 C12 203 12 203 12.2331543 201.0390625 C13.5054735 197.65593292 16.33576394 195.62989427 19 193.3125 C19.55945313 192.81427734 20.11890625 192.31605469 20.6953125 191.80273438 C22.12544191 190.52978102 23.56223048 189.26431767 25 188 C26.5653849 186.4346151 26.15900209 184.88438252 26.19618225 182.70663452 C26.22348671 181.3156102 26.22348671 181.3156102 26.25134277 179.89648438 C26.26644897 178.87022949 26.28155518 177.84397461 26.29711914 176.78662109 C26.31677231 175.71151276 26.33642548 174.63640442 26.35667419 173.52871704 C26.42095089 169.94368998 26.47813159 166.35858671 26.53515625 162.7734375 C26.57819646 160.27405161 26.62161314 157.77467217 26.66539001 155.27529907 C26.75657996 150.01089091 26.8446296 144.74644003 26.92993164 139.48193359 C27.03826622 132.79735741 27.15285409 126.11290935 27.26950932 119.42847252 C27.35956502 114.24967232 27.44742847 109.07083676 27.53457451 103.89198685 C27.57601871 101.4325045 27.6178724 98.97302901 27.66017342 96.51356125 C27.75715526 90.82345259 27.84448576 85.13363715 27.90823364 79.4430542 C27.95818229 75.11882881 28.06665288 70.80127349 28.21359253 66.47930908 C28.26316164 64.42062333 28.3123435 62.3619282 28.36108398 60.30322266 C28.40460778 59.37758703 28.44813158 58.45195141 28.49297428 57.49826622 C28.60821811 50.89423714 26.93572468 46.98616368 22.625 42 C21.62446585 40.97203203 20.61686283 39.95088639 19.6015625 38.9375 C16.66411851 35.62074643 15.99541346 33.26537071 15 29 C11.57383982 21.10298161 7.17215227 13.63003197 2.89624023 6.16821289 C0 1.09932665 0 1.09932665 0 0 Z " fill="#F6F6F6" transform="translate(198,347)"/>
<path d="M0 0 C-1.41738489 3.25207092 -3.12526412 5.31361067 -5.6875 7.75 C-8.97396131 10.95400529 -12.02792107 14.25671374 -15.01953125 17.734375 C-18.32444736 21.51514688 -21.74875686 25.18688977 -25.15625 28.875 C-30.89625999 35.14972381 -36.36204068 41.58333838 -41.5625 48.3125 C-42.15820801 49.08086182 -42.75391602 49.84922363 -43.36767578 50.64086914 C-49.54638838 58.64728218 -55.54144183 66.78541124 -61.49902344 74.95703125 C-62.79771829 76.72467577 -64.11350255 78.47602658 -65.4453125 80.21875 C-73.68258064 90.37339438 -73.68258064 90.37339438 -76.75634766 102.35888672 C-75.8893911 105.38623858 -74.63277226 107.40416435 -72.83203125 109.984375 C-72.18556641 110.92023438 -71.53910156 111.85609375 -70.87304688 112.8203125 C-70.19306641 113.78710938 -69.51308594 114.75390625 -68.8125 115.75 C-67.48528663 117.66118725 -66.15845927 119.57264261 -64.83203125 121.484375 C-64.18959473 122.40798828 -63.5471582 123.33160156 -62.88525391 124.28320312 C-61.0859303 126.87616779 -59.28847619 129.46963832 -57.51171875 132.078125 C-56.78214966 133.14401855 -56.78214966 133.14401855 -56.0378418 134.23144531 C-55 136 -55 136 -55 138 C-75.295 139.98 -75.295 139.98 -96 142 C-96.99 147.445 -96.99 147.445 -98 153 C-98.69975846 155.72048134 -99.42387555 158.40703182 -100.20703125 161.1015625 C-105.52817653 180.20397049 -109.1877307 198.99974702 -111.125 218.75 C-111.22704742 219.76668762 -111.32909485 220.78337524 -111.43423462 221.83087158 C-113.59107899 243.83946036 -113.24046862 265.40848378 -111.4375 287.4375 C-111.29618149 289.18877701 -111.29618149 289.18877701 -111.15200806 290.97543335 C-108.86410544 317.6857078 -101.81755671 342.71125624 -93.53581238 368.11750793 C-93 370 -93 370 -93 372 C-93.66 372 -94.32 372 -95 372 C-104.6019627 343.47653007 -112.20992756 316.25930169 -114.5 286.1875 C-114.59123138 284.99851105 -114.68246277 283.80952209 -114.77645874 282.58450317 C-115.32682182 275.06083042 -115.73251686 267.53891681 -116 260 C-116.02966858 259.17735657 -116.05933716 258.35471313 -116.08990479 257.50714111 C-116.49113771 244.41946995 -115.26167497 231.50329538 -113.875 218.5 C-113.70843903 216.91161316 -113.70843903 216.91161316 -113.53851318 215.2911377 C-111.94139699 200.25595223 -109.85412783 185.70869735 -105.83984375 171.10449219 C-104.86229281 167.49096379 -103.95713582 163.86126483 -103.0625 160.2265625 C-102.73685763 158.90526328 -102.41117434 157.58397414 -102.08544922 156.26269531 C-101.92622986 155.61675415 -101.7670105 154.97081299 -101.60296631 154.30529785 C-100.4210597 149.53209159 -99.20912016 144.76637109 -98 140 C-92.13541667 139.26692708 -86.27083333 138.53385417 -80.40625 137.80078125 C-78.77623047 137.59702881 -78.77623047 137.59702881 -77.11328125 137.38916016 C-71.62760417 136.70345052 -66.14192708 136.01774089 -60.65625 135.33203125 C-59.7796875 135.22246094 -58.903125 135.11289063 -58 135 C-58.41507813 134.44957031 -58.83015625 133.89914063 -59.2578125 133.33203125 C-61.54331925 130.24803155 -63.77606711 127.12845686 -66 124 C-66.87567627 122.77772705 -66.87567627 122.77772705 -67.76904297 121.53076172 C-69.72234333 118.78538088 -71.64445776 116.02010396 -73.5625 113.25 C-74.20654785 112.35128174 -74.8505957 111.45256348 -75.51416016 110.52661133 C-79.9815236 103.99259302 -79.9815236 103.99259302 -80.0703125 99.22265625 C-76.29776528 87.86370932 -69.12393497 78.98679957 -61.7578125 69.76171875 C-57.96704409 65.00407817 -54.38447627 60.11030228 -50.8125 55.1875 C-42.23939436 43.45743811 -32.86347083 32.73971053 -22.93359375 22.1484375 C-20.68059995 19.74116801 -18.47311088 17.30355725 -16.3125 14.8125 C-15.79816406 14.22082031 -15.28382812 13.62914062 -14.75390625 13.01953125 C-13.32311583 11.37205096 -11.89376883 9.72331719 -10.46484375 8.07421875 C-9.56048766 7.04895683 -8.65554128 6.02421528 -7.75 5 C-6.50476563 3.576875 -6.50476563 3.576875 -5.234375 2.125 C-3 0 -3 0 0 0 Z " fill="#F3F3F3" transform="translate(116,0)"/>
<path d="M0 0 C3.78630702 0.75567052 5.4041044 2.12597273 8 5 C7.67 5.66 7.34 6.32 7 7 C5.68 5.68 4.36 4.36 3 3 C2.87021845 9.76936951 3.22690672 16.33972263 4 23.0625 C4.19205324 24.7403705 4.37958576 26.41876488 4.5625 28.09765625 C4.64628906 28.82476807 4.73007812 29.55187988 4.81640625 30.30102539 C5.28789629 37.23230523 4.95202593 44.06569906 4.2578125 50.96875 C4.17462769 51.79901199 4.09144287 52.62927399 4.0057373 53.48469543 C-0.91785063 100.73213917 -0.91785063 100.73213917 -15.34301758 113.45239258 C-17.84794385 115.40316284 -20.45165922 117.12349512 -23.14892578 118.79541016 C-24.92505322 119.95122825 -26.48748308 121.19085954 -28.08984375 122.57421875 C-35.62374801 128.90900064 -44.04342747 132.29136679 -53.25 135.625 C-55.04473755 136.28266357 -55.04473755 136.28266357 -56.87573242 136.95361328 C-63.76161852 139.32495615 -69.71131094 140.65786162 -77 140 C-77.11593506 140.57032959 -77.23187012 141.14065918 -77.35131836 141.72827148 C-77.87613125 144.29883176 -78.40673615 146.86816218 -78.9375 149.4375 C-79.21110352 150.78424805 -79.21110352 150.78424805 -79.49023438 152.15820312 C-79.66748047 153.01220703 -79.84472656 153.86621094 -80.02734375 154.74609375 C-80.18968506 155.53685303 -80.35202637 156.3276123 -80.51928711 157.14233398 C-81 159 -81 159 -82 160 C-83.68183948 160.23287008 -85.3712416 160.41264166 -87.0625 160.5625 C-87.98160156 160.64628906 -88.90070313 160.73007813 -89.84765625 160.81640625 C-90.55792969 160.87699219 -91.26820313 160.93757812 -92 161 C-92 160.34 -92 159.68 -92 159 C-88.04 158.01 -88.04 158.01 -84 157 C-82.35 150.73 -80.7 144.46 -79 138 C-77.46472656 137.92136719 -75.92945313 137.84273437 -74.34765625 137.76171875 C-55.55587866 136.0162315 -37.84365571 127.35179496 -24.04272461 114.7722168 C-22 113 -22 113 -19.45922852 111.14379883 C-13.07376667 106.45924475 -9.81067439 102.39981091 -7.1875 94.9375 C-6.82277588 93.93960449 -6.45805176 92.94170898 -6.08227539 91.91357422 C1.35607242 69.55387094 3.28830436 43.76892757 1 20.4375 C0.33096363 13.58891826 -0.11366513 6.88384463 0 0 Z " fill="#F5F5F5" transform="translate(387,0)"/>
<path d="M0 0 C0.33 0 0.66 0 1 0 C1.13735861 33.75060446 1.24307079 67.50113932 1.30639198 101.25196126 C1.31389614 105.23731057 1.32166208 109.22265933 1.32958984 113.20800781 C1.33116371 114.00141286 1.33273757 114.7948179 1.33435912 115.61226553 C1.36046102 128.45593471 1.40776511 141.29944262 1.46291678 154.14301616 C1.51904281 167.32350937 1.55235625 180.50391816 1.56453097 193.68452597 C1.57276028 201.81656789 1.5987431 209.94815395 1.6474988 218.08005553 C1.68298958 224.31757513 1.68672686 230.55474781 1.67864609 236.79235458 C1.6802974 239.34976381 1.69224105 241.90719021 1.71523285 244.46449661 C1.74509223 247.95682415 1.73790663 251.44720243 1.7215271 254.9395752 C1.73900415 255.95126471 1.7564812 256.96295423 1.77448785 258.005301 C1.69546955 264.23950977 0.45207767 267.79920414 -3.51755369 272.63884306 C-5 274 -5 274 -7 274 C-6.6294431 270.78850691 -5.9371074 269.94240095 -3.48370361 267.69549561 C0.63139985 262.81170469 -0.35657328 256.54519031 -0.44824219 250.49707031 C-0.45127415 249.10957069 -0.45207361 247.72206468 -0.45082855 246.3345623 C-0.45362095 242.54565372 -0.48726157 238.75755631 -0.52586079 234.96886683 C-0.56141702 230.92371078 -0.56749839 226.87850816 -0.57659912 222.83322144 C-0.59582247 215.90692739 -0.63196748 208.98090093 -0.67993164 202.05474854 C-0.75421699 191.26035073 -0.79439964 180.46598407 -0.82617188 169.67138672 C-0.82884378 168.77825453 -0.83151569 167.88512233 -0.83426857 166.96492553 C-0.84505995 163.35417183 -0.85580135 159.74341805 -0.86617565 156.13266313 C-0.88191003 150.70549184 -0.90023655 145.2783368 -0.92058468 139.85118091 C-1.03633508 108.74136374 -0.88775017 77.64111464 -0.53822327 46.53294373 C-0.4999256 43.11836693 -0.46287307 39.70377861 -0.42614746 36.28918457 C-0.29542164 24.1926428 -0.15509137 12.09625404 0 0 Z " fill="#E4E4E4" transform="translate(223,639)"/>
<path d="M0 0 C-1.41738489 3.25207092 -3.12526412 5.31361067 -5.6875 7.75 C-8.97396131 10.95400529 -12.02792107 14.25671374 -15.01953125 17.734375 C-18.32444736 21.51514688 -21.74875686 25.18688977 -25.15625 28.875 C-30.89625999 35.14972381 -36.36204068 41.58333838 -41.5625 48.3125 C-42.15820801 49.08086182 -42.75391602 49.84922363 -43.36767578 50.64086914 C-49.54963364 58.6514874 -55.54732374 66.79414966 -61.5078125 74.97021484 C-62.77827803 76.69839717 -64.07405242 78.40792727 -65.375 80.11328125 C-70.8228229 87.29546964 -74.93261255 94.98421781 -79 103 C-79.33 103 -79.66 103 -80 103 C-78.59179791 89.69663205 -69.8196068 79.85803527 -61.7578125 69.76171875 C-57.96704409 65.00407817 -54.38447627 60.11030228 -50.8125 55.1875 C-42.23939436 43.45743811 -32.86347083 32.73971053 -22.93359375 22.1484375 C-20.68059995 19.74116801 -18.47311088 17.30355725 -16.3125 14.8125 C-15.79816406 14.22082031 -15.28382812 13.62914062 -14.75390625 13.01953125 C-13.32311583 11.37205096 -11.89376883 9.72331719 -10.46484375 8.07421875 C-9.56048766 7.04895683 -8.65554128 6.02421528 -7.75 5 C-6.50476563 3.576875 -6.50476563 3.576875 -5.234375 2.125 C-3 0 -3 0 0 0 Z " fill="#FBFBFB" transform="translate(116,0)"/>
<path d="M0 0 C0.66 0 1.32 0 2 0 C3.27758789 1.46191406 3.27758789 1.46191406 4.72265625 3.515625 C5.26212891 4.27359375 5.80160156 5.0315625 6.35742188 5.8125 C6.92009766 6.616875 7.48277344 7.42125 8.0625 8.25 C9.15623209 9.79780859 10.25131289 11.34466492 11.34765625 12.890625 C11.92515625 13.71328857 12.50265625 14.53595215 13.09765625 15.38354492 C14.41941666 17.20147437 15.79093426 18.98383863 17.19921875 20.7355957 C23.44228351 28.57315508 27.35402288 36.40032731 30.875 45.6875 C31.15548187 46.41400757 31.43596375 47.14051514 31.72494507 47.88903809 C37.85582492 64.01981878 39.62780387 79.82515267 40 97 C40.03456299 98.22178955 40.06912598 99.4435791 40.10473633 100.70239258 C40.22144088 107.81176508 39.69014191 114.27494137 38.0625 121.1875 C36.54737753 128.12017343 35.32610847 134.89083546 35 142 C34.34 142 33.68 142 33 142 C32.6833371 133.85032848 33.8697911 126.50394407 35.578125 118.5625 C37.09494974 110.97837629 37.22710566 103.71744451 37 96 C36.97373535 94.82405273 36.9474707 93.64810547 36.92041016 92.43652344 C35.97345751 63.87333962 28.17423967 35.90992111 9.4453125 13.73535156 C7.22085007 11.06449363 5.21646071 8.25947 3.1875 5.4375 C2.56230469 4.59058594 1.93710937 3.74367188 1.29296875 2.87109375 C0 1 0 1 0 0 Z " fill="#EFEFEF" transform="translate(354,363)"/>
<path d="M0 0 C0 0.33 0 0.66 0 1 C-12.375 1.495 -12.375 1.495 -25 2 C-26.051875 7.1046875 -26.051875 7.1046875 -27.125 12.3125 C-30.03619609 24.58797013 -35.91109071 35.14167614 -45 44 C-48.08151416 45.69636697 -49.49856597 46 -53 46 C-53.02505615 46.61931396 -53.0501123 47.23862793 -53.07592773 47.87670898 C-53.19322658 50.73044888 -53.31533586 53.58396441 -53.4375 56.4375 C-53.47681641 57.41138672 -53.51613281 58.38527344 -53.55664062 59.38867188 C-53.81368167 65.30061599 -54.27719621 71.12645997 -55 77 C-58.3 76.67 -61.6 76.34 -65 76 C-65 75.01 -65 74.02 -65 73 C-62.36 73.66 -59.72 74.32 -57 75 C-56.34 64.77 -55.68 54.54 -55 44 C-52.36 43.01 -49.72 42.02 -47 41 C-45.09667558 39.46849078 -45.09667558 39.46849078 -43.91796875 37.6015625 C-43.46099609 36.95703125 -43.00402344 36.3125 -42.53320312 35.6484375 C-41.86708008 34.64683594 -41.86708008 34.64683594 -41.1875 33.625 C-40.72408203 32.965 -40.26066406 32.305 -39.78320312 31.625 C-38.49100189 29.76896275 -37.24381119 27.88863191 -36 26 C-35.45214844 25.22914062 -34.90429688 24.45828125 -34.33984375 23.6640625 C-32.27485333 19.55816318 -31.40174104 15.21188698 -30.375 10.75 C-29.94833176 8.93158059 -29.51880026 7.1138298 -29.0859375 5.296875 C-28.9007959 4.49604492 -28.7156543 3.69521484 -28.52490234 2.87011719 C-28 1 -28 1 -27 0 C-18.02991009 -1.62436236 -9.0098405 -0.73480506 0 0 Z " fill="#F5F5F5" transform="translate(265,84)"/>
<path d="M0 0 C0 4.0434503 -1.81489313 6.80354919 -3.69140625 10.2734375 C-4.26579689 11.35282089 -4.26579689 11.35282089 -4.85179138 12.45401001 C-6.08291516 14.76414648 -7.32258094 17.06957444 -8.5625 19.375 C-9.3710045 20.88902305 -10.17895313 22.40334308 -10.98632812 23.91796875 C-11.38266449 24.66000549 -11.77900085 25.40204224 -12.18734741 26.16656494 C-12.9796954 27.65068781 -13.77073871 29.13550799 -14.56045532 30.62103271 C-16.3935176 34.05679571 -18.25392647 37.464783 -20.22216797 40.82519531 C-20.87975098 41.96827148 -21.53733398 43.11134766 -22.21484375 44.2890625 C-22.80257568 45.2785791 -23.39030762 46.2680957 -23.99584961 47.28759766 C-25.2708328 49.93996049 -25.2708328 49.93996049 -24.35083008 52.52026367 C-23.90505615 53.33857666 -23.45928223 54.15688965 -23 55 C-22.56268555 55.86197998 -22.12537109 56.72395996 -21.67480469 57.61206055 C-21.17883789 58.52769775 -20.68287109 59.44333496 -20.171875 60.38671875 C-19.61886719 61.40830078 -19.06585938 62.42988281 -18.49609375 63.48242188 C-17.91988281 64.54009766 -17.34367187 65.59777344 -16.75 66.6875 C-16.18925781 67.72583984 -15.62851562 68.76417969 -15.05078125 69.83398438 C-11.92335518 75.59408204 -8.69809822 81.26767051 -5.27050781 86.85473633 C-4.08001481 88.86489429 -3.0160223 90.89721588 -2 93 C-6.2160585 90.01954154 -8.37354912 87.1098152 -10.8125 82.58203125 C-11.14870361 81.9653508 -11.48490723 81.34867035 -11.83129883 80.71330261 C-12.89780243 78.75172652 -13.94914294 76.78249445 -15 74.8125 C-15.704721 73.50921998 -16.41044208 72.20648021 -17.1171875 70.90429688 C-18.14707967 69.00633639 -19.17408126 67.10718608 -20.19042969 65.20193481 C-22.41913372 61.02555974 -24.77096183 56.94704193 -27.28515625 52.9362793 C-28.28682193 50.22309266 -27.8486585 48.75252999 -27 46 C-26.04301101 43.95200888 -25.0139308 41.93702968 -23.9375 39.94921875 C-23.63003845 39.3773735 -23.3225769 38.80552826 -23.00579834 38.21635437 C-22.01053556 36.36970395 -21.00576312 34.52844949 -20 32.6875 C-19.31378977 31.42222092 -18.62791838 30.15675802 -17.94238281 28.89111328 C-16.58929871 26.39700457 -15.23149135 23.90556269 -13.86914062 21.41650391 C-12.27571172 18.50395896 -10.69150016 15.58665768 -9.109375 12.66796875 C-8.32419022 11.23627997 -7.53785975 9.80521849 -6.75 8.375 C-6.40453125 7.73780029 -6.0590625 7.10060059 -5.703125 6.4440918 C-4.01112823 3.41700382 -2.95409245 1.96939496 0 0 Z " fill="#F5F5F5" transform="translate(63,352)"/>
<path d="M0 0 C3.63 0 7.26 0 11 0 C11.33 0.66 11.66 1.32 12 2 C8.7 2 5.4 2 2 2 C1.72285156 3.35996094 1.44570313 4.71992188 1.16015625 6.12109375 C0.79446907 7.89327008 0.42857287 9.6654033 0.0625 11.4375 C-0.11990234 12.33533203 -0.30230469 13.23316406 -0.49023438 14.15820312 C-0.66748047 15.01220703 -0.84472656 15.86621094 -1.02734375 16.74609375 C-1.18968506 17.53685303 -1.35202637 18.3276123 -1.51928711 19.14233398 C-2 21 -2 21 -3 22 C-4.68183948 22.23287008 -6.3712416 22.41264166 -8.0625 22.5625 C-9.44115234 22.68818359 -9.44115234 22.68818359 -10.84765625 22.81640625 C-11.55792969 22.87699219 -12.26820313 22.93757813 -13 23 C-13 22.34 -13 21.68 -13 21 C-10.36 20.34 -7.72 19.68 -5 19 C-2.525 9.595 -2.525 9.595 0 0 Z " fill="#F5F5F5" transform="translate(308,138)"/>
<path d="M0 0 C0.33 0 0.66 0 1 0 C3.08805343 15.6935444 3.08805343 15.6935444 -0.37402344 21.17578125 C-4.08898678 25.39647909 -8.43017711 28.75332736 -13 32 C-12.67 33.32 -12.34 34.64 -12 36 C-12.99 35.67 -13.98 35.34 -15 35 C-15.89453125 32.88671875 -15.89453125 32.88671875 -16 30 C-14.22311137 27.57711294 -11.97759635 25.74037508 -9.6875 23.8125 C-8.77581055 23.01295898 -8.77581055 23.01295898 -7.84570312 22.19726562 C-6.71588081 21.20695831 -5.57997768 20.22351654 -4.4362793 19.24926758 C-1.29599554 16.54454524 -1.29599554 16.54454524 -0.5859375 12.3046875 C-0.50614935 10.8286067 -0.43622145 9.35196737 -0.375 7.875 C-0.31699219 6.74384766 -0.31699219 6.74384766 -0.2578125 5.58984375 C-0.16348969 3.72696816 -0.08065338 1.86351745 0 0 Z " fill="#E7E7E7" transform="translate(226,517)"/>
<path d="M0 0 C0 0.33 0 0.66 0 1 C-12.375 1.495 -12.375 1.495 -25 2 C-27.475 11.405 -27.475 11.405 -30 21 C-30.66 21 -31.32 21 -32 21 C-30.29787234 3.29787234 -30.29787234 3.29787234 -27 0 C-18.02991009 -1.62436236 -9.0098405 -0.73480506 0 0 Z " fill="#FCFCFC" transform="translate(265,84)"/>
<path d="M0 0 C3.78630702 0.75567052 5.4041044 2.12597273 8 5 C7.67 5.66 7.34 6.32 7 7 C5.68 5.68 4.36 4.36 3 3 C2.87961757 9.16625568 3.15690448 15.17020347 3.77734375 21.3046875 C4.10045203 25.21599828 4.06430627 29.07731774 4 33 C3.34 32.67 2.68 32.34 2 32 C1.58935547 29.91796875 1.58935547 29.91796875 1.3671875 27.1875 C1.28339844 26.19363281 1.19960938 25.19976563 1.11328125 24.17578125 C1.03464844 23.12777344 0.95601563 22.07976563 0.875 21 C0.78863281 19.98292969 0.70226562 18.96585938 0.61328125 17.91796875 C0.12860523 11.92491135 -0.08767085 6.01171513 0 0 Z " fill="#FBFBFB" transform="translate(387,0)"/>
<path d="M0 0 C0.33 0 0.66 0 1 0 C0.54745744 6.26414172 -0.2010722 12.29154411 -1.5234375 18.4296875 C-2.3553595 22.9166111 -2.67147771 27.45255984 -3 32 C-3.66 32 -4.32 32 -5 32 C-5.27535135 24.7293428 -4.51402494 18.05449254 -3.0625 10.9375 C-2.88009766 9.98939453 -2.69769531 9.04128906 -2.50976562 8.06445312 C-1.14589146 1.14589146 -1.14589146 1.14589146 0 0 Z " fill="#FAFAFA" transform="translate(392,473)"/>
<path d="M0 0 C0.33 0 0.66 0 1 0 C1 2.31 1 4.62 1 7 C-2.3 6.67 -5.6 6.34 -9 6 C-9 5.01 -9 4.02 -9 3 C-6.36 3.66 -3.72 4.32 -1 5 C-0.67 3.35 -0.34 1.7 0 0 Z " fill="#F1F1F1" transform="translate(209,154)"/>
<path d="M0 0 C3.63 0 7.26 0 11 0 C11.33 0.66 11.66 1.32 12 2 C8.7 2 5.4 2 2 2 C1.67 2.66 1.34 3.32 1 4 C0.67 2.68 0.34 1.36 0 0 Z " fill="#DADADA" transform="translate(308,138)"/>
<path d="M0 0 C0.33 0.66 0.66 1.32 1 2 C0.04956626 3.33897583 -0.91059147 4.67105427 -1.875 6 C-2.40867188 6.7425 -2.94234375 7.485 -3.4921875 8.25 C-3.98976562 8.8275 -4.48734375 9.405 -5 10 C-5.66 10 -6.32 10 -7 10 C-6.42424336 6.64749299 -5.40693737 5.06181371 -2.9375 2.75 C-2.38964844 2.22921875 -1.84179688 1.7084375 -1.27734375 1.171875 C-0.64505859 0.59179688 -0.64505859 0.59179688 0 0 Z " fill="#F5F5F5" transform="translate(223,903)"/>
<path d="M0 0 C0.33 0 0.66 0 1 0 C0.67 2.97 0.34 5.94 0 9 C-0.66 9 -1.32 9 -2 9 C-1.125 1.125 -1.125 1.125 0 0 Z " fill="#FBFBFB" transform="translate(308,141)"/>
</svg>
