<?xml version="1.0" encoding="UTF-8"?>
<svg id="Layer_1" data-name="Layer 1" xmlns="http://www.w3.org/2000/svg" viewBox="0 0 311.56 1032.83">
  <defs>
    <style>
      .cls-1 {
        fill: #f0f0f0;
      }

      .cls-2 {
        fill: #f4f4f4;
      }

      .cls-3 {
        fill: #fff;
      }

      .cls-4 {
        fill: #f6f6f6;
      }

      .cls-5 {
        fill: #f5f5f5;
      }

      .cls-6 {
        fill: #e6e6e6;
      }

      .cls-7 {
        fill: #e7e7e7;
      }

      .cls-8 {
        fill: #030303;
      }

      .cls-9 {
        fill: #f9f9f9;
      }

      .cls-10 {
        fill: #e5e5e5;
      }

      .cls-11 {
        fill: #f7f7f7;
      }

      .cls-12 {
        fill: #efefef;
      }

      .cls-13 {
        fill: #f1f1f1;
      }

      .cls-14 {
        fill: #f8f8f8;
      }

      .cls-15 {
        fill: #f2f2f2;
      }

      .cls-16 {
        fill: #ededed;
      }
    </style>
  </defs>
  <path class="cls-8" d="M181.83,9.13c5.07,3.07,9.31,6.78,13.53,10.93,.76,.73,1.51,1.46,2.29,2.21,5.14,5.43,6.22,9.26,6.27,16.72h10l2-4q1.88-2.75,4-5h4c.68,1.37,1.34,2.74,2,4.12,.37,.77,.74,1.53,1.12,2.32,1.27,3.72,1.62,6.71,.12,10.44-1.02,2.04-2.11,4.02-3.24,5.99-.38,.69-.76,1.38-1.16,2.09-.94,1.69-1.89,3.36-2.84,5.04q-4.77-.86-6.88-2.12c-1.8-3-.81-5.58-.12-8.88h-9c.33,4.95,.66,9.9,1,15,5.61,.33,11.22,.66,17,1q.99-1.98,2-4,1.88-2.75,4-5h4c.68,1.37,1.34,2.74,2,4.12,.37,.77,.74,1.53,1.12,2.32,1.26,3.67,1.67,6.68,.12,10.34-1.02,1.91-2.11,3.75-3.24,5.59-.38,.64-.76,1.28-1.16,1.94-.94,1.57-1.89,3.13-2.84,4.68q-4.77,.13-6.88-1.06-1.12-1.94-.12-8.94h-16c.33,5.94,.66,11.88,1,18,1.65,.33,3.3,.66,5,1,.25-.56,.5-1.11,.75-1.69,1.5-2.78,3.08-5.02,5.25-7.31h4c.68,1.37,1.34,2.74,2,4.12,.37,.77,.74,1.53,1.12,2.32,1.27,3.72,1.62,6.71,.12,10.44-1.02,2.04-2.11,4.02-3.24,5.99-.38,.69-.76,1.38-1.16,2.09-.94,1.69-1.89,3.36-2.84,5.04q-4.77-.86-6.88-2.12c-1.8-3-.81-5.58-.12-8.88h-4v19h9l2-4q1.88-2.75,4-5h4c.68,1.37,1.34,2.74,2,4.12,.37,.77,.74,1.53,1.12,2.32,1.26,3.67,1.67,6.68,.12,10.34-1.02,1.91-2.11,3.75-3.24,5.59-.38,.64-.76,1.28-1.16,1.94-.94,1.57-1.89,3.13-2.84,4.68q-4.77,.13-6.88-1.06c-1.77-3.05-.82-5.6-.12-8.94h-7q.16,1.33,.33,2.7c.81,11.96-3.26,19.09-9.64,28.93-.89,1.43-1.78,2.86-2.67,4.29-1.63,2.62-3.27,5.22-4.93,7.81-.69,1.08-1.38,2.16-2.08,3.27-.53,.77-1.07,1.54-1.62,2.34-1.62,3.12-1.7,5-1.6,8.5q.04,1.73,.08,3.49c.04,1.21,.09,2.43,.13,3.68,.03,1.19,.06,2.39,.08,3.62,.09,3.99,.21,7.99,.34,11.98,.05,1.54,.09,3.07,.14,4.61,.13,4.19,.25,8.38,.38,12.57,.08,2.68,.16,5.37,.24,8.05,1.06,35.07,2.19,70.14,3.33,105.21,.15,4.44,.29,8.88,.43,13.32,.04,1.1,.07,2.21,.11,3.34,.58,17.88,1.13,35.75,1.66,53.63,.55,18.39,1.13,36.77,1.75,55.16,.38,11.32,.73,22.64,1.05,33.97,.22,7.77,.47,15.53,.76,23.3,.16,4.47,.31,8.94,.41,13.42q.32,25.25,11.93,47.14c2.3,2.83,4.22,5.89,6.2,8.95,.82,1.22,1.65,2.45,2.48,3.67,3.22,4.8,6.3,9.69,9.4,14.58,5.01,7.91,10.07,15.78,15.19,23.62,.59,.91,1.19,1.82,1.8,2.76q.87,1.33,1.76,2.69c.58,.9,1.17,1.8,1.77,2.73,1.18,1.76,2.41,3.49,3.7,5.17,7.63,10.29,11.16,22.36,15.35,34.34,.86,2.43,1.73,4.85,2.59,7.28,1.35,3.78,2.69,7.56,4.03,11.34,3.17,8.94,6.43,17.84,9.74,26.72,1.36,3.67,2.72,7.33,4.08,11,.86,2.33,1.73,4.65,2.61,6.97,4.83,12.85,8.91,25.3,11.19,38.84,.62,3.58,1.28,7.15,1.96,10.72,1.24,6.59,2.45,13.18,3.64,19.78,.69,3.82,1.38,7.64,2.09,11.45,.7,3.76,1.38,7.53,2.06,11.29,.25,1.41,.51,2.82,.78,4.22,1.86,9.83,2.04,18.64,.99,28.57-.22,2.53-.44,5.05-.66,7.58-.6,6.36-1.25,12.71-1.93,19.06-.41,3.8-.8,7.59-1.14,11.4-1.73,18.93-4.48,34.16-14.82,50.6-2.36,3.85-4.39,7.86-6.45,11.87-.8,1.52-1.61,3.05-2.42,4.57-1.93,3.67-3.82,7.35-5.7,11.05-.53,1.04-1.06,2.08-1.61,3.15-1.03,2.02-2.06,4.05-3.08,6.08-6.74,13.13-17.82,18.34-31.2,23.65-4.89,1.54-9.83,2.38-14.89,3.09-4.29,.62-8.55,1.34-12.81,2.14-18.43,3.35-36.3,4.71-55.02,4.6-2.19-.01-4.39-.02-6.58-.02-34.31-.12-72.95-.67-102.7-19.8-.85-.45-1.69-.9-2.56-1.36-2.78-1.87-3.71-3.32-5.2-6.3q-.71-1.4-1.44-2.82c-.49-1-.98-2-1.49-3.03-1.07-2.1-2.13-4.21-3.2-6.31-.53-1.05-1.05-2.1-1.6-3.18-2.12-4.2-4.31-8.35-6.52-12.51-2.76-5.22-5.5-10.45-8.22-15.69-.55-1.05-1.09-2.1-1.65-3.18-1.07-2.05-2.13-4.11-3.2-6.16q-.73-1.4-1.46-2.82-.64-1.24-1.3-2.51-1.23-2.34-3.17-5.15c-.44-2.42-.78-4.77-1.05-7.21q-.13-1.1-.27-2.21c-.29-2.42-.57-4.83-.84-7.25-.2-1.68-.4-3.37-.6-5.05-.42-3.53-.83-7.06-1.24-10.59-.52-4.51-1.05-9.03-1.59-13.54-.41-3.48-.82-6.96-1.22-10.43-.19-1.66-.39-3.33-.59-4.99-.27-2.33-.54-4.67-.81-7-.08-.68-.16-1.36-.25-2.06-.8-7.04-.57-13.57,.57-20.54,.12-.76,.24-1.52,.37-2.3,.4-2.51,.81-5.01,1.23-7.51q.21-1.3,.43-2.63c1.09-6.6,2.21-13.2,3.35-19.8q.25-1.45,.51-2.93c4.92-28.35,10.73-55.01,21.84-81.66,3.83-9.27,7.13-18.75,10.54-28.17,2.17-5.99,4.38-11.96,6.6-17.94,1.67-4.52,3.33-9.04,4.94-13.57,.31-.86,.62-1.72,.93-2.6,.57-1.59,1.14-3.19,1.69-4.78,2.27-6.3,5.5-11.56,9.46-16.96,3.82-5.34,7.29-10.9,10.8-16.44,4.93-7.73,9.87-15.44,14.88-23.12q.78-1.2,1.57-2.42c2.74-4.2,5.48-8.4,8.22-12.6q.87-1.33,1.75-2.68c1.09-1.67,2.18-3.34,3.28-5.01,.98-1.5,1.94-3,2.9-4.51,1.02-1.59,2.07-3.16,3.15-4.7,4.3-6.47,5.37-11.55,5.52-19.24,.04-1.12,.09-2.23,.13-3.38,.14-3.72,.24-7.44,.34-11.15,.09-2.68,.19-5.36,.28-8.03,.2-5.77,.39-11.55,.56-17.32,.25-8.44,.53-16.89,.82-25.33,.47-13.82,.92-27.65,1.35-41.48,.41-13.21,.83-26.42,1.27-39.63,.03-.8,.05-1.61,.08-2.43,.13-4.04,.27-8.08,.4-12.12,.27-8,.53-16.01,.79-24.01,.03-.79,.05-1.57,.08-2.38,.39-11.76,.77-23.52,1.14-35.28,.02-.76,.05-1.52,.07-2.31,.12-3.8,.24-7.6,.36-11.4,.71-22.15,1.43-44.31,2.2-66.46,.04-1.05,.07-2.11,.11-3.19,.33-9.51,.67-19.02,1.01-28.53,.12-3.25,.23-6.5,.35-9.75,.08-2.13,.15-4.25,.23-6.38,.21-6.05,.39-12.1,.46-18.16,.01-1.02,.03-2.05,.04-3.1-.25-4.18-1.5-6.48-3.7-10.04q-.55-.91-1.11-1.84c-1.15-1.9-2.34-3.77-3.54-5.64-.78-1.27-1.56-2.54-2.33-3.81q-3.95-6.46-8.14-12.76c-3.29-4.79-3.92-7.78-3.66-13.62,.02-.68,.05-1.36,.07-2.06,.06-1.65,.15-3.3,.24-4.94h-7c.27,1.07,.54,2.14,.81,3.25q.09,1.86,.19,3.75-2.25,2.44-5,4h-3c-1.35-2.37-2.68-4.74-4-7.12-.38-.67-.76-1.33-1.16-2.02-2.26-4.11-3.48-7.06-2.84-11.86q.88-2.55,2-4.88,.56-1.17,1.12-2.37c.29-.58,.58-1.16,.88-1.76,2.67,.15,4.45,.49,6.45,2.33q3.55,4.17,3.55,6.67h9v-19h-4c.27,1.07,.54,2.14,.81,3.25,.06,1.24,.12,2.47,.19,3.75q-2.25,2.44-5,4h-3c-1.35-2.37-2.68-4.74-4-7.12-.38-.67-.76-1.33-1.16-2.02-2.26-4.11-3.48-7.06-2.84-11.86q.88-2.55,2-4.88,.56-1.17,1.12-2.37c.29-.58,.58-1.16,.88-1.76,2.67,.15,4.45,.49,6.45,2.33q3.55,4.17,3.55,6.67c1.65-.33,3.3-.66,5-1,.33-5.94,.66-11.88,1-18h-16q.5,3.46,1,7-1.12,1.94-3,3c-1.67,.04-3.33,.05-5,0-1.35-2.2-2.68-4.41-4-6.62-.38-.62-.76-1.23-1.16-1.87-2.35-3.98-3.47-6.76-2.84-11.5q.88-2.55,2-4.88,.56-1.17,1.12-2.37c.29-.58,.58-1.16,.88-1.76,2.67,.15,4.45,.49,6.45,2.33q3.55,4.17,3.55,6.67h18v-16h-9c.23,1.09,.45,2.19,.69,3.31q.31,3.69-.81,5.62c-2.4,1.36-4.16,1.14-6.88,1.06-1.35-2.2-2.68-4.41-4-6.62-.38-.62-.76-1.23-1.16-1.87-2.35-3.98-3.47-6.76-2.84-11.5q.88-2.55,2-4.88,.56-1.17,1.12-2.37c.29-.58,.58-1.16,.88-1.76,2.67,.15,4.45,.49,6.45,2.33q3.55,4.17,3.55,6.67h10c.01-1.47,.03-2.93,.04-4.45,.68-6.55,3.74-9.94,8.34-14.43,.78-.77,1.55-1.54,2.35-2.33C138.8-.8,158.08-3.48,181.83,9.13ZM113.92,758c-10.25,13.23-13.29,27.62-12,44,2.56,13.95,10.43,26.36,21.64,35.04,13.66,9.14,28.94,12.24,45.09,9.27,14.76-4.24,26.94-13.31,34.81-26.54,6.99-13.22,9.01-28.25,4.84-42.78-5.18-14.39-14.73-25.96-28.38-33-23.91-10.2-48.12-5.08-66,14Zm-47.56,16.5q-1.21,1.24-2.44,2.5c1.32,.33,2.64,.66,4,1,.66-1.98,1.32-3.96,2-6q-1.48-.12-3.56,2.5Zm177.56-2.5c.66,1.98,1.32,3.96,2,6,1.32-.66,2.64-1.32,4-2-1.98-1.32-3.96-2.64-6-4Zm-183,8c-8.98,10.18-10.62,21.01-10.25,34.25,.02,1.23,.04,2.47,.05,3.74,.05,3,.11,6.01,.2,9.01h1c0-.66,.02-1.32,.03-2,.29-16.22,.83-29.16,9.97-43-.33-.66-.66-1.32-1-2Zm191,0c1.63,4.25,3.63,8.2,5.78,12.21,3.33,7.64,3.61,15.07,3.84,23.29,.04,1.11,.08,2.22,.12,3.36,.09,2.71,.18,5.43,.26,8.14h1q1.5-23.71-7.75-44.88-1.86-2.24-3.25-2.12Zm-200,49c1.16,15.67,10,24.09,20.66,34.6q17.12,16.89,22.34,25.4c.52,.7,1.04,1.39,1.57,2.11,3.86,5.94,3.91,12,3.99,18.89,.01,.93,.03,1.85,.04,2.81-.1,7.04-1.3,14.42-6.09,19.89-3.74,3.25-6.88,4.44-11.75,4.41-.8,0-1.6,0-2.43,0-.83,0-1.67-.02-2.53-.03-.84,0-1.69,0-2.56-.01-2.08-.01-4.17-.03-6.25-.05-.06-.64-.12-1.28-.18-1.93-.08-.83-.17-1.65-.25-2.5-.08-.82-.16-1.65-.25-2.5q-.11-2.05-1.32-3.07c-4.71-.59-8.03-.64-12.06,2q-.96,.99-1.94,2c1.35,5.99,4.65,9.86,9,14,6.94,4.27,16.1,1.75,23.53,.02,10.29-3.04,16-8.93,21.47-18.02,3.8-11.41,2.23-28.26-3-39-5.74-10.22-14.29-17.75-23.4-24.93-11.87-9.46-21.44-20.06-27.6-34.07h-1Zm209,0c-.23,.56-.47,1.12-.71,1.7-7.74,17.01-21.6,28.73-35.82,40.25-9.72,8.06-16.55,17.24-18.47,30.05-.34,3.94-.46,7.86-.5,11.81-.02,.98-.04,1.96-.06,2.97,.07,8.23,2.4,14.6,7.97,20.78,8.34,7.6,18.99,10.31,30.08,10.82,6.58-.71,10.19-3.54,14.24-8.52,1.68-2.47,2.55-4.96,3.26-7.85-2.28-2.36-4.01-3.89-7.34-4.27-2.23,.01-4.44,.09-6.66,.27-1.62,3.54-2.1,6.13-2,10-2.88,.08-5.75,.14-8.62,.19-.81,.03-1.62,.05-2.45,.08-5.09,.06-8.51-.45-12.93-3.26-5.84-5.84-7.38-12.94-7.57-20.92,.03-10.04,.39-17.73,6.57-26.08,.67-.92,1.35-1.85,2.04-2.8,4.5-5.66,9.49-10.77,14.61-15.86,.51-.5,1.01-1.01,1.54-1.53,2.57-2.55,5.15-5.08,7.75-7.6,6.57-6.4,12.35-12.48,14.94-21.47,.24-.81,.49-1.62,.74-2.45,.41-2.45,.16-3.96-.62-6.3Zm-161,144v22h111v-22H99.92Z"/>
  <path class="cls-13" d="M114.92,545h1c1.51,18.01,1.06,30.32-10.25,44.71-3.03,3.97-5.63,8.2-8.31,12.41-1.1,1.69-2.2,3.37-3.3,5.06-10.14,15.55-20.16,31.17-30.14,46.82-.54,.79-1.08,1.58-1.63,2.4-4.39,6.59-7.39,13.06-9.98,20.53-.41,1.13-.81,2.26-1.23,3.43-1.09,3.05-2.17,6.11-3.24,9.17-1.13,3.21-2.27,6.42-3.42,9.62-.47,1.31-.94,2.62-1.4,3.93-.23,.65-.47,1.31-.71,1.98-.71,2-1.42,3.99-2.13,5.99-3.2,9-6.47,17.98-9.79,26.94-.44,1.19-.88,2.37-1.33,3.59q-3.37,9.12-5.07,13.66c-1.16,3.11-2.31,6.22-3.46,9.33-.34,.9-.68,1.79-1.03,2.72-2.25,6.15-3.6,12.22-4.59,18.69h-1c-.15-11.52,4.01-21.56,7.94-32.19,.71-1.97,1.43-3.93,2.14-5.9,1.9-5.23,3.81-10.45,5.73-15.67,1.61-4.38,3.21-8.75,4.81-13.13,3.77-10.32,7.55-20.64,11.37-30.94,1.67-4.52,3.33-9.04,4.94-13.57,.31-.86,.62-1.72,.93-2.6,.57-1.59,1.14-3.19,1.69-4.78,2.27-6.3,5.5-11.56,9.46-16.96,3.82-5.34,7.29-10.9,10.8-16.44,4.93-7.73,9.87-15.44,14.88-23.12,.52-.8,1.04-1.6,1.57-2.42,2.74-4.2,5.48-8.4,8.22-12.6,.58-.89,1.16-1.77,1.75-2.68,1.09-1.67,2.18-3.34,3.28-5.01,1.01-1.54,2-3.09,2.99-4.65,1.02-1.58,2.08-3.13,3.18-4.65,4.76-6.97,5.21-12.98,5.19-21.3,.02-1.19,.04-2.39,.06-3.62,.05-2.92,.07-5.83,.06-8.75Z"/>
  <path class="cls-2" d="M196.92,571c3.14,3.76,5.77,7.7,8.31,11.88,4.27,6.92,8.67,13.76,13.12,20.56,.64,.99,1.29,1.97,1.95,2.99,1.28,1.95,2.55,3.9,3.83,5.85,2.52,3.86,5.03,7.73,7.53,11.6,.44,.67,.87,1.35,1.32,2.04,2.26,3.49,4.51,6.99,6.77,10.48,.48,.74,.95,1.48,1.44,2.24,.89,1.38,1.78,2.75,2.66,4.13,.41,.64,.83,1.28,1.25,1.94,.44,.69,.87,1.37,1.32,2.08,1.03,1.55,2.13,3.05,3.26,4.52,7.68,10.36,11.24,22.45,15.46,34.5,.86,2.42,1.72,4.84,2.59,7.25,1.35,3.77,2.69,7.54,4.03,11.31,3.22,9.07,6.5,18.12,9.82,27.16,.46,1.27,.93,2.53,1.39,3.8,1.79,4.87,3.58,9.75,5.37,14.62,1.24,3.35,2.46,6.71,3.69,10.07,.36,.98,.73,1.96,1.1,2.98,2.74,7.54,5.18,14.89,4.77,23h-1c-.11-.7-.21-1.4-.32-2.12-2.31-12.7-7.03-24.6-11.48-36.68-1.18-3.19-2.35-6.39-3.52-9.59-1.45-3.95-2.9-7.89-4.35-11.84-2.8-7.58-5.56-15.18-8.28-22.79-1.65-4.6-3.32-9.19-4.99-13.78-.77-2.14-1.54-4.28-2.3-6.43-4.51-12.7-9.61-23.85-17.42-34.86-2.37-3.41-4.59-6.91-6.83-10.41-.51-.79-1.03-1.59-1.56-2.41-.4-.62-.8-1.24-1.21-1.87-1.77-2.73-3.53-5.46-5.3-8.19-4.15-6.4-8.29-12.81-12.39-19.24-.7-1.09-1.39-2.18-2.11-3.31-1.36-2.13-2.72-4.27-4.09-6.41-.64-1-1.28-2-1.94-3.04-.63-.99-1.26-1.98-1.91-3-1.39-2.13-2.81-4.24-4.25-6.33q-1.1-1.59-2.22-3.22c-.67-.96-1.34-1.91-2.04-2.9q-1.48-2.59-1.48-6.59Z"/>
  <path class="cls-15" d="M100.92,786h1c.03,1,.05,2.01,.08,3.04,.65,17.62,5.72,32.67,18.92,44.96,13.28,10.22,27.58,13.29,44,12,13.32-2.45,25.75-9.77,33.98-20.61,3.86-5.83,6.72-11.8,9.02-18.39,1.3,3.91,.41,5.95-1.4,9.64-.36,.7-.73,1.4-1.1,2.11q-.55,1.08-1.12,2.18c-6.9,13.03-17.58,21-31.38,26.07-15.48,4.54-30.52,2.49-44.81-4.81-13.57-7.9-21.84-20.01-26.32-34.96-1.06-4.43-1.1-8.69-1-13.23,0-.77,.02-1.55,.03-2.35,.02-1.88,.06-3.77,.1-5.65Z"/>
  <path class="cls-2" d="M181.83,9.09c8.05,4.96,15.44,12.32,21.1,19.91v2c-5.05-1.85-8.06-6.29-11.49-10.21q-.76-.85-1.54-1.72c-.45-.52-.9-1.03-1.37-1.56-5.1-4.77-12.29-7.32-18.54-10.25-1.07-.52-2.14-1.04-3.25-1.57-1.04-.49-2.08-.97-3.15-1.47-.94-.45-1.88-.89-2.86-1.35-9.53-2.88-22.54,5.45-30.9,9.54-7.28,4.03-12.09,9.91-17.08,16.46-.6,.71-1.21,1.42-1.83,2.15h-2c6.16-13.26,19.21-21.37,32.06-27.06q1.75-.78,3.53-1.57c13.89-5.77,24.61,0,37.31,6.73Z"/>
  <path class="cls-1" d="M260.92,833h1c-.82,17.76-15.48,28.73-27.44,40.38-.85,.87-1.69,1.73-2.56,2.62-.67,.67-1.34,1.34-2.02,2.04-13.09,13.74-16.36,24.35-15.98,42.96h-1q-1.26-24.19,6-34c.67-.92,1.35-1.85,2.04-2.8,4.5-5.66,9.49-10.77,14.61-15.86,.51-.5,1.01-1.01,1.54-1.53,2.57-2.55,5.15-5.08,7.75-7.6,6.67-6.49,12.45-12.53,14.87-21.72,.23-.86,.47-1.71,.71-2.59q.24-.94,.48-1.91Z"/>
  <path class="cls-13" d="M51.92,833c1.08,2.03,1.99,3.96,2.68,6.16,3.31,10.3,11.49,17.06,18.98,24.45q17.12,16.89,22.34,25.4c.52,.7,1.04,1.39,1.57,2.11,5.61,8.65,3.85,20.01,3.43,29.89h-1q0-.87,0-1.75,.05-16.12-7-30.25-.97-1.3-1.96-2.63c-1.95-2.51-3.97-4.95-6.04-7.37q-.77-.96-1.56-1.93c-3.11-3.79-6.51-6.94-10.23-10.12-9.25-8.14-18.45-16.54-21.21-28.95q-.19-3.06,0-5Z"/>
  <path class="cls-14" d="M204.92,903h1c0,.59,.02,1.19,.03,1.8,.05,2.73,.14,5.47,.22,8.2,.01,.93,.03,1.87,.04,2.83,.22,6.3,1.37,10.81,4.71,16.17q.8,1.3,1.62,2.62c8.32,8.32,19.33,11.22,30.88,11.75,4.83-.52,7.91-1.52,11.13-5.29,1.05-1.4,2.08-2.81,3.07-4.25q1.3-1.84,3.3-3.84c-.29,5.89-2.91,9.05-7,13-6.76,4.51-18.64,2.74-26.41,1.42-8.65-2.73-15.82-9.04-20.71-16.61-3.78-8.3-2.25-18.91-1.88-27.81Z"/>
  <path class="cls-9" d="M107.92,903h1q1.05,24.56-5,32c-.53,.66-1.06,1.32-1.61,2-6.43,7.09-15.26,10.86-24.8,11.34-1.55,.02-3.1,.04-4.65,.04-.78,.02-1.55,.05-2.35,.07-5.35,.03-8.35-.91-12.58-4.45q-1.71-1.78-2.94-3.5c-.42-.57-.84-1.13-1.28-1.72-1.01-2.29-.6-3.47,.21-5.78,.54,1.05,1.07,2.1,1.62,3.19,2.71,4.75,6.08,8.05,11.38,9.81,11.11,.84,23.4-1.62,32-9,4.74-5.58,8-10.47,8.32-17.89q.06-1.41,.13-2.84c.04-.98,.08-1.95,.12-2.96q.06-1.48,.13-2.99c.11-2.44,.21-4.88,.31-7.32Z"/>
  <path class="cls-7" d="M105.92,104h1v21q-10,0-12.73-1.97l-5.27-7.03c-1.65,3.63-3.3,7.26-5,11-1.09-4.35-.91-4.95,.94-8.75q.57-1.2,1.15-2.42c.3-.6,.6-1.21,.91-1.83,2.67,.15,4.45,.49,6.45,2.33q3.55,4.17,3.55,6.67h9v-19Z"/>
  <path class="cls-3" d="M227.92,56h4c.7,1.41,1.39,2.83,2.06,4.25,.38,.79,.77,1.58,1.16,2.39q.78,2.36-.22,6.36c-1.65-3.63-3.3-7.26-5-11-.95,1.48-1.9,2.97-2.88,4.5-2.21,2.57-3.88,4.25-7.27,4.93-5.31,.38-10.56,.03-15.85-.43l1-3c5.61,.33,11.22,.66,17,1,.66-1.32,1.32-2.64,2-4q1.88-2.75,4-5Z"/>
  <path class="cls-14" d="M79.92,56c2.67,.15,4.45,.49,6.45,2.33q3.55,4.17,3.55,6.67h18v2q-15.95,1.38-20.98-2-2.15-2.5-5.02-7c-1.65,3.63-3.3,7.26-5,11-1.09-4.35-.91-4.95,.94-8.75,.38-.8,.76-1.6,1.15-2.42,.3-.6,.6-1.21,.91-1.83Z"/>
  <path class="cls-11" d="M219.92,30h4c.7,1.41,1.39,2.83,2.06,4.25,.38,.79,.77,1.58,1.16,2.39q.78,2.36-.22,6.36c-1.65-3.63-3.3-7.26-5-11q-1.64,2.23-3.31,4.5c-2.54,2.91-3.85,4.33-7.67,5.1-2.72-.03-5.33-.2-8.02-.6v-6c.33,1.32,.66,2.64,1,4h10c.66-1.32,1.32-2.64,2-4q1.88-2.75,4-5Z"/>
  <path class="cls-11" d="M87.92,30c2.67,.15,4.45,.49,6.45,2.33q3.55,4.17,3.55,6.67h10c.33-1.32,.66-2.64,1-4v6c-3.81,.57-7.21,.76-11,0-3.38-2.7-5.4-5.47-8-9-1.65,3.63-3.3,7.26-5,11-1.09-4.35-.91-4.95,.94-8.75,.38-.8,.76-1.6,1.15-2.42,.3-.6,.6-1.21,.91-1.83Z"/>
  <path class="cls-16" d="M71.92,769l1,2q-1,2.6-2.44,5.62c-.47,1-.95,2.01-1.43,3.04-.37,.77-.75,1.54-1.13,2.34l-1-3c-3.99,3.44-5.9,7.34-8.12,12-.35,.71-.69,1.42-1.05,2.16-.66,1.36-1.32,2.72-1.97,4.08-.93,1.93-1.88,3.85-2.85,5.77,.3-7.69,3.41-13.3,7-20,.51-1.1,1.02-2.2,1.54-3.34q.72-1.32,1.46-2.66,1.21-.22,2.44-.44,2.63-.29,3.77-2.16c.99-1.77,1.9-3.58,2.79-5.4Z"/>
  <path class="cls-12" d="M240.92,770h2c.56,1.13,1.11,2.27,1.69,3.44q1.04,1.95,2.31,3.56,2.57,.65,5,1c.73,1.64,1.38,3.31,2,5,1.01,1.94,2.03,3.88,3.06,5.81,2.49,4.9,3.73,8.71,3.94,14.19-1.3-2.57-2.56-5.16-3.8-7.75-.69-1.42-1.38-2.83-2.07-4.25-.34-.71-.68-1.42-1.03-2.16-1.92-3.92-3.73-6.94-7.1-9.84l-1,3c-1.65-3.96-3.3-7.92-5-12Z"/>
  <path class="cls-4" d="M220.92,114h4c.7,1.41,1.39,2.83,2.06,4.25,.38,.79,.77,1.58,1.16,2.39q.78,2.36-.22,6.36c-1.65-3.63-3.3-7.26-5-11q-1.7,2.23-3.44,4.5-3.77,4.31-7.1,5.1c-2.22-.03-4.29-.19-6.46-.6v-2h9c.66-1.32,1.32-2.64,2-4q1.88-2.75,4-5Z"/>
  <path class="cls-5" d="M216.92,85h4c.7,1.41,1.39,2.83,2.06,4.25,.38,.79,.77,1.58,1.16,2.39q.78,2.36-.22,6.36c-1.65-3.63-3.3-7.26-5-11-1.2,1.48-2.39,2.97-3.62,4.5q-2.04,2.53-4.38,4.5-3.27,.28-6,0l1-3c1.65,.33,3.3,.66,5,1,.25-.56,.49-1.11,.75-1.69,1.5-2.78,3.08-5.02,5.25-7.31Z"/>
  <path class="cls-5" d="M90.92,85c2.67,.15,4.45,.49,6.45,2.33q3.55,4.17,3.55,6.67c1.98-.33,3.96-.66,6-1v3q-2.73,.28-6,0c-3.16-2.67-5.39-5.76-8-9-1.65,3.63-3.3,7.26-5,11-1.09-4.35-.91-4.95,.94-8.75,.38-.8,.76-1.6,1.15-2.42,.3-.6,.6-1.21,.91-1.83Z"/>
  <path class="cls-1" d="M207.92,807c1.3,3.91,.41,5.95-1.4,9.64-.36,.7-.73,1.39-1.1,2.11-.37,.71-.73,1.43-1.11,2.16q-6.84,12.97-12.6,14.78c-.59,.1-1.19,.2-1.8,.31,.85-.95,1.69-1.9,2.56-2.88,6.89-8.11,11.71-16.13,15.44-26.12Z"/>
  <path class="cls-15" d="M231.92,56c.7,1.41,1.39,2.83,2.06,4.25,.38,.79,.77,1.58,1.16,2.39q.78,2.36-.22,6.36c-1.65-3.63-3.3-7.26-5-11-1.65,1.98-3.3,3.96-5,6-.66-.66-1.32-1.32-2-2q4.5-6,9-6Z"/>
  <path class="cls-1" d="M259.92,933q.7,1.71,1,4-1.29,2.29-3.19,4.62-.92,1.16-1.86,2.35c-1.91,1.98-3.44,2.98-5.96,4.02,1.67-3.67,3.87-6.26,6.56-9.22,1.48-1.84,2.46-3.64,3.44-5.78Z"/>
  <path class="cls-6" d="M112.92,828c4.27,1.58,6.27,4.51,9,8-4.88-1.35-6.49-3.72-9-8Z"/>
  <path class="cls-10" d="M196.92,828l1,2c-2.48,3.45-3.8,5.23-8,6,.98-1.15,1.96-2.29,2.94-3.44,.55-.64,1.09-1.28,1.65-1.93,.78-.9,1.57-1.79,2.41-2.63Z"/>
  <path class="cls-12" d="M188.92,835l2,2c-2.31,1.65-4.62,3.3-7,5v-3q2.5-2.19,5-4Z"/>
  <ellipse class="cls-3" cx="154.65" cy="760.59" rx="92.45" ry="95.09"/>
  <ellipse cx="154.65" cy="760.59" rx="52.26" ry="53.76"/>
</svg>