<?xml version="1.0" encoding="UTF-8"?>
<svg id="Layer_1" data-name="Layer 1" xmlns="http://www.w3.org/2000/svg" viewBox="0 0 279.96 913.6">
  <defs>
    <style>
      .cls-1 {
        fill: #fff;
      }
    </style>
  </defs>
  <g>
    <path d="M157.21,1.75c-9.87-2.26-11.56-2.29-21.64-.31-5.96,1.19-11.21,2.53-11.57,2.87-1.58,1.53,1.21,14.44,4.58,20.93,4.06,7.77,4.11,8.97,1.2,34.1-1.05,8.82-1.74,22.18-1.7,29.68s.2,29.92,.2,49.86c.07,19.87,.13,40.03,.27,44.77,.07,4.67-.34,8.55-1.04,8.54-.57,0-3.02-1.53-5.47-3.33l-4.41-3.39-4.17,4.47-4.17,4.47-16.25-1.37c-8.97-.77-22.24-2.23-29.58-3.33-7.27-1.17-14.05-1.55-15.05-1-.93,.62-3.43,2.21-5.43,3.74l-3.79,2.7,5.32,8.63c8.71,14.13,7.16,13.54,16.11,6.1,8.66-7.16,6.32-6.7,23.55-5.03,4.52,.49,11.37,1.08,15.04,1.28,3.74,.27,8.34,.54,10.24,.64l3.39,.19,3.68,9.67c1.98,5.19,3.53,10.09,3.31,10.73-.15,.7-2.23,2.3-4.65,3.68l-4.35,2.41,.23,8.42c0,4.6,.14,14.92,.23,22.92,.02,8.06,.19,20.86,.3,28.43s.18,26.73,.3,42.65,.49,29.5,.98,30.14c.69,1.14,4.42-2.2,29.96-27.57l29.2-29.07,.38-11.38c1.03-32.37,2.38-62.13,2.68-62.83,.15-.42-1.53-1.86-3.84-3.1s-4.49-2.61-4.77-2.9c-.63-.65,3.07-11.77,5.85-17.95,1.39-3.16,1.53-3.16,11.02-3.73,5.31-.28,9.98-.49,10.4-.49s6.23-.33,12.88-.8c11.04-.69,12.31-.53,14.61,1.84,3.56,3.52,11.59,10.35,12.3,10.36,.35,.08,3.74-4.47,7.57-10l6.93-10.08-3.98-3.24c-2.17-1.66-4.76-3.46-5.67-3.97-.91-.37-7.07-.1-13.66,.72-6.52,.9-19.76,1.91-29.38,2.47l-17.41,1.02-4.1-4.8-4.17-4.73-4.58,3.61c-2.5,1.87-5,3.46-5.42,3.32-.77-.22-.71-4.61,.75-51.61,2.38-76.48,2.47-67.92-.66-101.14-.43-4.74,.03-6.72,3.3-12.96,3.85-7.23,7.3-20.76,5.69-22.12-.42-.43-5.63-1.78-11.55-3.14Z"/>
    <path d="M.17,434.68l.5,186.17,4,23.61,4,23.61,16.2,14.92c15.9,14.68,16.6,15.16,40.8,30.24,20.9,12.95,27,17.29,40.5,28.58,8.7,7.34,19.9,17.29,24.8,22.03l8.9,8.76,8.1-7.9c20.5-20.13,39.4-34.82,66.7-51.87,18.6-11.53,25.1-16.11,31.9-22.34,4.7-4.34,12.1-11.13,16.6-15.16,7.4-6.71,8.2-7.66,8.8-11.53,.3-2.37,2-12.08,3.7-21.63l3-17.37,.5-112.9c1.1-267.72,1.1-263.38-.4-262.91-.7,.16-8.3,4.5-16.8,9.55-19.9,11.68-30.9,15.95-47.8,18.47-9.8,1.42-13.7,1.66-22,1.18-9.6-.47-10.8-.79-23.1-5.29l-13-4.66-8-9.71-8-9.63-8.3,9.79c-7.1,8.29-8.9,9.95-12.5,11.13-2.3,.79-8,2.92-12.7,4.66-7.8,2.92-9.4,3.24-19.5,3.71-9.4,.39-12.7,.24-23-1.42-16.7-2.68-26.8-6.71-47-18.63-8.8-5.21-16.3-9.55-16.7-9.55s-.5,83.77-.2,186.09Z"/>
    <path d="M157.3,579.02c-3.01,2.79-11.69,10.93-19.14,18.04l-13.63,13.1,.57,53.82c.35,29.64,.61,55.59,.58,57.57,.04,2.05,.08,8.84,.06,15.28,.05,6.37,.32,31.47,.54,55.8,.55,40.18,.88,46.4,4.31,68.87,2,13.54,4.51,30.76,5.6,38.34,1.02,7.51,2.06,13.75,2.35,13.75,.21-.07,1.2-5.07,2.21-11.21,.94-6.07,2.63-15.94,3.64-21.8,6.05-31.95,8.15-45.42,8.49-54.12,.45-11.31,2.56-64.53,2.58-65.66,.09-1.06,1.01-25.94,1.75-42.69,.77-19.29,1.65-40.64,2.15-55.91,.31-6.86,1.06-24.45,1.63-39.22,.64-14.7,1.31-31.8,1.47-37.95l.3-11.17-5.45,5.15Z"/>
  </g>
  <ellipse class="cls-1" cx="143.64" cy="475.48" rx="105" ry="108"/>
  <ellipse cx="143.64" cy="475.48" rx="59.36" ry="61.06"/>
</svg>