<?xml version="1.0" standalone="no"?>
<!DOCTYPE svg PUBLIC "-//W3C//DTD SVG 20010904//EN"
 "http://www.w3.org/TR/2001/REC-SVG-20010904/DTD/svg10.dtd">
<svg version="1.0" xmlns="http://www.w3.org/2000/svg"
 width="452.000000pt" height="1102.000000pt" viewBox="0 0 452.000000 1102.000000"
 preserveAspectRatio="xMidYMid meet">

<g transform="translate(0.000000,1102.000000) scale(0.100000,-0.100000)"
fill="#000000" stroke="none">
<path d="M2262 10880 c-1 -52 -7 -183 -12 -290 -5 -107 -14 -312 -20 -455 -6
-143 -17 -384 -24 -535 l-14 -275 -107 -574 c-58 -315 -104 -578 -102 -585 3
-6 66 -37 141 -69 l136 -57 145 61 c93 40 145 67 145 77 0 8 -36 211 -81 451
-138 746 -137 742 -143 926 -4 94 -11 251 -16 350 -5 99 -17 358 -25 575 -19
489 -21 518 -23 400z"/>
<path d="M555 8695 c4 -11 61 -182 127 -380 67 -198 123 -362 124 -364 8 -9
543 -130 578 -131 l40 0 -115 118 c-570 583 -761 774 -754 757z"/>
<path d="M3541 8258 c-354 -364 -418 -433 -398 -436 27 -4 565 122 576 134 9
9 252 734 247 734 -2 0 -193 -195 -425 -432z"/>
<path d="M2230 7693 c-48 -46 -245 -143 -291 -143 -52 0 -73 27 -67 85 3 25 3
45 -1 45 -4 0 -31 -25 -61 -56 -30 -30 -77 -72 -105 -93 -27 -20 -93 -69 -145
-108 -142 -105 -328 -193 -495 -234 -76 -18 -105 -20 -192 -15 l-103 7 0 -66
c0 -102 -30 -151 -123 -198 -40 -20 -94 -42 -122 -48 -27 -7 -70 -18 -95 -24
-40 -11 -41 -13 -15 -14 31 -1 133 -45 182 -79 15 -11 80 -47 143 -82 139 -75
293 -177 376 -246 33 -28 78 -63 100 -76 21 -14 66 -50 99 -79 33 -30 98 -86
145 -125 59 -50 99 -93 130 -143 l45 -71 52 6 c109 13 219 -31 315 -127 42
-43 78 -70 98 -74 48 -11 95 -58 110 -110 13 -46 13 -46 53 -43 39 3 41 5 57
52 19 57 56 92 105 102 24 4 44 18 65 44 42 53 126 115 185 136 32 11 80 18
135 18 l84 1 35 59 c19 32 49 73 66 90 51 51 289 252 315 266 14 7 50 34 80
60 86 74 222 165 359 242 69 39 151 85 181 103 91 54 121 67 169 74 l46 7 -94
22 c-60 14 -121 37 -168 63 -92 51 -123 102 -123 199 l0 61 -96 -7 c-106 -8
-188 6 -319 54 -96 34 -240 105 -296 144 -161 113 -233 169 -301 234 -43 41
-83 74 -89 74 -8 0 -9 -14 -5 -45 16 -102 -37 -111 -194 -34 -57 27 -124 67
-149 88 l-46 38 -35 -34z m-300 -659 c122 -38 220 -73 232 -83 4 -3 -9 -67
-29 -142 l-36 -137 78 -198 c43 -110 80 -205 83 -212 2 -7 43 83 89 200 l85
213 -33 130 c-18 72 -34 135 -36 140 -6 17 261 107 379 127 83 15 94 7 137
-96 79 -189 64 -407 -41 -584 -18 -31 -62 -86 -98 -122 -76 -75 -148 -120
-252 -158 -66 -24 -86 -27 -218 -27 -132 0 -152 3 -218 27 -108 39 -178 84
-262 168 -157 156 -221 375 -175 592 14 68 43 143 72 187 14 22 20 23 72 17
31 -3 108 -22 171 -42z m-496 -49 c-4 -8 -8 -15 -10 -15 -2 0 -4 7 -4 15 0 8
4 15 10 15 5 0 7 -7 4 -15z"/>
<path d="M674 5326 l-299 -234 -38 -109 c-129 -363 -270 -753 -302 -835 -8
-21 -13 -38 -10 -38 4 0 476 539 740 845 71 83 164 188 206 235 43 47 87 97
99 113 l22 27 -38 95 c-20 52 -47 104 -59 115 l-21 20 -300 -234z"/>
<path d="M3538 5532 c-22 -23 -98 -186 -98 -210 0 -4 32 -43 71 -87 38 -44
139 -158 222 -254 573 -659 787 -902 787 -898 0 3 -39 110 -86 239 -71 193
-184 509 -262 730 -16 45 -33 60 -304 272 -157 123 -290 226 -295 229 -6 4
-21 -6 -35 -21z"/>
<path d="M2053 5198 c-128 -34 -193 -55 -193 -64 0 -7 45 -244 101 -526 l100
-513 19 -365 c10 -201 26 -500 35 -665 9 -165 34 -664 56 -1110 22 -445 42
-848 44 -895 3 -47 14 -276 25 -510 25 -534 26 -545 28 -445 1 45 9 211 17
370 8 160 19 384 25 500 5 116 25 518 44 895 20 377 40 789 46 915 6 127 24
473 39 770 l28 540 103 523 c56 288 100 526 97 528 -8 9 -381 104 -402 103
-11 0 -107 -23 -212 -51z"/>
<path d="M1303 5102 c-11 -7 -364 -2126 -362 -2171 0 -14 1 -14 6 -1 3 8 179
449 391 980 211 531 385 971 386 979 1 13 -374 220 -399 221 -5 0 -16 -4 -22
-8z"/>
<path d="M3006 5005 c-110 -58 -202 -107 -204 -110 -2 -2 175 -454 394 -1004
219 -550 399 -999 401 -997 1 1 -67 429 -152 952 -85 522 -165 1010 -176 1084
-25 152 -33 180 -51 180 -7 0 -103 -48 -212 -105z"/>
</g>
</svg>
