<?xml version="1.0" encoding="utf-8"?>
<!-- Generator: Adobe Illustrator 27.0.0, SVG Export Plug-In . SVG Version: 6.00 Build 0)  -->
<svg version="1.1" id="Layer_1" xmlns="http://www.w3.org/2000/svg" xmlns:xlink="http://www.w3.org/1999/xlink" x="0px" y="0px"
	 viewBox="0 0 441.9 1033" style="enable-background:new 0 0 441.9 1033;" xml:space="preserve">
<style type="text/css">
	.st0{fill:#030303;}
	.st1{fill:#F1F1F1;}
	.st2{fill:#F4F4F4;}
	.st3{fill:#F2F2F2;}
	.st4{fill:#F0F0F0;}
	.st5{fill:#F8F8F8;}
	.st6{fill:#F9F9F9;}
	.st7{fill:#E7E7E7;}
	.st8{fill:#FFFFFF;}
	.st9{fill:#F7F7F7;}
	.st10{fill:#EDEDED;}
	.st11{fill:#EFEFEF;}
	.st12{fill:#F6F6F6;}
	.st13{fill:#F5F5F5;}
	.st14{fill:#E6E6E6;}
	.st15{fill:#E5E5E5;}
</style>
<path class="st0" d="M247,9.2c5.1,3.1,9.3,6.8,13.5,10.9c0.8,0.7,1.5,1.5,2.3,2.2c5.1,5.4,6.2,9.3,6.3,16.7c3.3,0,6.6,0,10,0
	c0.7-1.3,1.3-2.6,2-4c1.9-2.8,1.9-2.8,4-5c1.3,0,2.6,0,4,0c0.7,1.4,1.3,2.7,2,4.1c0.4,0.8,0.7,1.5,1.1,2.3c1.3,3.7,1.6,6.7,0.1,10.4
	c-1,2-2.1,4-3.2,6c-0.4,0.7-0.8,1.4-1.2,2.1c-0.9,1.7-1.9,3.4-2.8,5c-4.8-0.9-4.8-0.9-6.9-2.1c-1.8-3-0.8-5.6-0.1-8.9
	c-3,0-5.9,0-9,0c0.3,5,0.7,9.9,1,15c5.6,0.3,11.2,0.7,17,1c1-2,1-2,2-4c1.9-2.8,1.9-2.8,4-5c1.3,0,2.6,0,4,0c0.7,1.4,1.3,2.7,2,4.1
	c0.4,0.8,0.7,1.5,1.1,2.3c1.3,3.7,1.7,6.7,0.1,10.3c-1,1.9-2.1,3.7-3.2,5.6c-0.4,0.6-0.8,1.3-1.2,1.9c-0.9,1.6-1.9,3.1-2.8,4.7
	c-4.8,0.1-4.8,0.1-6.9-1.1c-1.1-1.9-1.1-1.9-0.1-8.9c-5.3,0-10.6,0-16,0c0.3,5.9,0.7,11.9,1,18c1.7,0.3,3.3,0.7,5,1
	c0.2-0.6,0.5-1.1,0.8-1.7c1.5-2.8,3.1-5,5.2-7.3c1.3,0,2.6,0,4,0c0.7,1.4,1.3,2.7,2,4.1c0.4,0.8,0.7,1.5,1.1,2.3
	c1.3,3.7,1.6,6.7,0.1,10.4c-1,2-2.1,4-3.2,6c-0.4,0.7-0.8,1.4-1.2,2.1c-0.9,1.7-1.9,3.4-2.8,5c-4.8-0.9-4.8-0.9-6.9-2.1
	c-1.8-3-0.8-5.6-0.1-8.9c-1.3,0-2.6,0-4,0c0,6.3,0,12.5,0,19c3,0,5.9,0,9,0c1-2,1-2,2-4c1.9-2.8,1.9-2.8,4-5c1.3,0,2.6,0,4,0
	c0.7,1.4,1.3,2.7,2,4.1c0.4,0.8,0.7,1.5,1.1,2.3c1.3,3.7,1.7,6.7,0.1,10.3c-1,1.9-2.1,3.7-3.2,5.6c-0.4,0.6-0.8,1.3-1.2,1.9
	c-0.9,1.6-1.9,3.1-2.8,4.7c-4.8,0.1-4.8,0.1-6.9-1.1c-1.8-3.1-0.8-5.6-0.1-8.9c-2.3,0-4.6,0-7,0c0.2,1.3,0.2,1.3,0.3,2.7
	c0.8,12-3.3,19.1-9.6,28.9c-0.9,1.4-1.8,2.9-2.7,4.3c-1.6,2.6-3.3,5.2-4.9,7.8c-0.7,1.1-1.4,2.2-2.1,3.3c-0.5,0.8-1.1,1.5-1.6,2.3
	c-1.6,3.1-1.7,5-1.6,8.5c0,1.7,0,1.7,0.1,3.5c0,1.2,0.1,2.4,0.1,3.7c0,1.2,0.1,2.4,0.1,3.6c0.1,4,0.2,8,0.3,12
	c0,1.5,0.1,3.1,0.1,4.6c0.1,4.2,0.3,8.4,0.4,12.6c0.1,2.7,0.2,5.4,0.2,8c1.1,35.1,2.2,70.1,3.3,105.2c0.1,4.4,0.3,8.9,0.4,13.3
	c0,1.1,0.1,2.2,0.1,3.3c0.6,17.9,1.1,35.8,1.7,53.6c0.5,18.4,1.1,36.8,1.8,55.2c0.4,11.3,0.7,22.6,1,34c0.2,7.8,0.5,15.5,0.8,23.3
	c0.2,4.5,0.3,8.9,0.4,13.4c0.3,25.3,0.3,25.3,11.9,47.1c2.3,2.8,4.2,5.9,6.2,8.9c0.8,1.2,1.6,2.4,2.5,3.7c3.2,4.8,6.3,9.7,9.4,14.6
	c5,7.9,10.1,15.8,15.2,23.6c0.6,0.9,1.2,1.8,1.8,2.8c0.9,1.3,0.9,1.3,1.8,2.7c0.6,0.9,1.2,1.8,1.8,2.7c1.2,1.8,2.4,3.5,3.7,5.2
	c7.6,10.3,11.2,22.4,15.4,34.3c0.9,2.4,1.7,4.9,2.6,7.3c1.3,3.8,2.7,7.6,4,11.3c3.2,8.9,6.4,17.8,9.7,26.7c1.4,3.7,2.7,7.3,4.1,11
	c0.9,2.3,1.7,4.7,2.6,7c4.8,12.8,8.9,25.3,11.2,38.8c0.6,3.6,1.3,7.1,2,10.7c1.2,6.6,2.4,13.2,3.6,19.8c0.7,3.8,1.4,7.6,2.1,11.5
	c0.7,3.8,1.4,7.5,2.1,11.3c0.3,1.4,0.5,2.8,0.8,4.2c1.9,9.8,2,18.6,1,28.6c-0.2,2.5-0.4,5.1-0.7,7.6c-0.6,6.4-1.3,12.7-1.9,19.1
	c-0.4,3.8-0.8,7.6-1.1,11.4c-1.7,18.9-4.5,34.2-14.8,50.6c-2.4,3.8-4.4,7.9-6.5,11.9c-0.8,1.5-1.6,3-2.4,4.6
	c-1.9,3.7-3.8,7.4-5.7,11c-0.5,1-1.1,2.1-1.6,3.2c-1,2-2.1,4.1-3.1,6.1c-6.7,13.1-17.8,18.3-31.2,23.7c-4.9,1.5-9.8,2.4-14.9,3.1
	c-4.3,0.6-8.6,1.3-12.8,2.1c-18.4,3.3-36.3,4.7-55,4.6c-2.2,0-4.4,0-6.6,0c-34.3-0.1-73-0.7-102.7-19.8c-0.8-0.4-1.7-0.9-2.6-1.4
	c-2.8-1.9-3.7-3.3-5.2-6.3c-0.7-1.4-0.7-1.4-1.4-2.8c-0.5-1-1-2-1.5-3c-1.1-2.1-2.1-4.2-3.2-6.3c-0.5-1-1.1-2.1-1.6-3.2
	c-2.1-4.2-4.3-8.4-6.5-12.5c-2.8-5.2-5.5-10.4-8.2-15.7c-0.5-1-1.1-2.1-1.7-3.2c-1.1-2.1-2.1-4.1-3.2-6.2c-0.7-1.4-0.7-1.4-1.5-2.8
	c-0.6-1.2-0.6-1.2-1.3-2.5c-1.2-2.3-1.2-2.3-3.2-5.2c-0.4-2.4-0.8-4.8-1.1-7.2c-0.1-1.1-0.1-1.1-0.3-2.2c-0.3-2.4-0.6-4.8-0.8-7.3
	c-0.2-1.7-0.4-3.4-0.6-5c-0.4-3.5-0.8-7.1-1.2-10.6c-0.5-4.5-1.1-9-1.6-13.5c-0.4-3.5-0.8-7-1.2-10.4c-0.2-1.7-0.4-3.3-0.6-5
	c-0.3-2.3-0.5-4.7-0.8-7c-0.1-0.7-0.2-1.4-0.2-2.1c-0.8-7-0.6-13.6,0.6-20.5c0.1-0.8,0.2-1.5,0.4-2.3c0.4-2.5,0.8-5,1.2-7.5
	c0.2-1.3,0.2-1.3,0.4-2.6c1.1-6.6,2.2-13.2,3.3-19.8c0.3-1.5,0.3-1.5,0.5-2.9c4.9-28.4,10.7-55,21.8-81.7
	c3.8-9.3,7.1-18.7,10.5-28.2c2.2-6,4.4-12,6.6-17.9c1.7-4.5,3.3-9,4.9-13.6c0.3-0.9,0.6-1.7,0.9-2.6c0.6-1.6,1.1-3.2,1.7-4.8
	c2.3-6.3,5.5-11.6,9.5-17c3.8-5.3,7.3-10.9,10.8-16.4c4.9-7.7,9.9-15.4,14.9-23.1c0.8-1.2,0.8-1.2,1.6-2.4c2.7-4.2,5.5-8.4,8.2-12.6
	c0.9-1.3,0.9-1.3,1.8-2.7c1.1-1.7,2.2-3.3,3.3-5c1-1.5,1.9-3,2.9-4.5c1-1.6,2.1-3.2,3.2-4.7c4.3-6.5,5.4-11.6,5.5-19.2
	c0-1.1,0.1-2.2,0.1-3.4c0.1-3.7,0.2-7.4,0.3-11.2c0.1-2.7,0.2-5.4,0.3-8c0.2-5.8,0.4-11.5,0.6-17.3c0.2-8.4,0.5-16.9,0.8-25.3
	c0.5-13.8,0.9-27.6,1.3-41.5c0.4-13.2,0.8-26.4,1.3-39.6c0-0.8,0.1-1.6,0.1-2.4c0.1-4,0.3-8.1,0.4-12.1c0.3-8,0.5-16,0.8-24
	c0-0.8,0.1-1.6,0.1-2.4c0.4-11.8,0.8-23.5,1.1-35.3c0-0.8,0-1.5,0.1-2.3c0.1-3.8,0.2-7.6,0.4-11.4c0.7-22.2,1.4-44.3,2.2-66.5
	c0-1.1,0.1-2.1,0.1-3.2c0.3-9.5,0.7-19,1-28.5c0.1-3.2,0.2-6.5,0.3-9.7c0.1-2.1,0.2-4.3,0.2-6.4c0.2-6.1,0.4-12.1,0.5-18.2
	c0-1,0-2,0-3.1c-0.2-4.2-1.5-6.5-3.7-10c-0.5-0.9-0.5-0.9-1.1-1.8c-1.2-1.9-2.3-3.8-3.5-5.6c-0.8-1.3-1.6-2.5-2.3-3.8
	c-3.9-6.5-3.9-6.5-8.1-12.8c-3.3-4.8-3.9-7.8-3.7-13.6c0-0.7,0-1.4,0.1-2.1c0.1-1.6,0.1-3.3,0.2-4.9c-2.3,0-4.6,0-7,0
	c0.3,1.1,0.5,2.1,0.8,3.2c0.1,1.9,0.1,1.9,0.2,3.8c-2.2,2.4-2.2,2.4-5,4c-1,0-2,0-3,0c-1.3-2.4-2.7-4.7-4-7.1
	c-0.4-0.7-0.8-1.3-1.2-2c-2.3-4.1-3.5-7.1-2.8-11.9c0.9-2.6,0.9-2.6,2-4.9c0.6-1.2,0.6-1.2,1.1-2.4c0.3-0.6,0.6-1.2,0.9-1.8
	c2.7,0.2,4.5,0.5,6.4,2.3c3.6,4.2,3.6,4.2,3.6,6.7c3,0,5.9,0,9,0c0-6.3,0-12.5,0-19c-1.3,0-2.6,0-4,0c0.3,1.1,0.5,2.1,0.8,3.2
	c0.1,1.2,0.1,2.5,0.2,3.8c-2.2,2.4-2.2,2.4-5,4c-1,0-2,0-3,0c-1.3-2.4-2.7-4.7-4-7.1c-0.4-0.7-0.8-1.3-1.2-2
	c-2.3-4.1-3.5-7.1-2.8-11.9c0.9-2.6,0.9-2.6,2-4.9c0.6-1.2,0.6-1.2,1.1-2.4c0.3-0.6,0.6-1.2,0.9-1.8c2.7,0.2,4.5,0.5,6.4,2.3
	c3.6,4.2,3.6,4.2,3.6,6.7c1.6-0.3,3.3-0.7,5-1c0.3-5.9,0.7-11.9,1-18c-5.3,0-10.6,0-16,0c0.5,3.5,0.5,3.5,1,7c-1.1,1.9-1.1,1.9-3,3
	c-1.7,0-3.3,0-5,0c-1.3-2.2-2.7-4.4-4-6.6c-0.4-0.6-0.8-1.2-1.2-1.9c-2.3-4-3.5-6.8-2.8-11.5c0.9-2.6,0.9-2.6,2-4.9
	c0.6-1.2,0.6-1.2,1.1-2.4c0.3-0.6,0.6-1.2,0.9-1.8c2.7,0.2,4.5,0.5,6.4,2.3c3.6,4.2,3.6,4.2,3.6,6.7c5.9,0,11.9,0,18,0
	c0-5.3,0-10.6,0-16c-3,0-5.9,0-9,0c0.2,1.1,0.5,2.2,0.7,3.3c0.3,3.7,0.3,3.7-0.8,5.6c-2.4,1.4-4.2,1.1-6.9,1.1
	c-1.3-2.2-2.7-4.4-4-6.6c-0.4-0.6-0.8-1.2-1.2-1.9c-2.3-4-3.5-6.8-2.8-11.5c0.9-2.6,0.9-2.6,2-4.9c0.6-1.2,0.6-1.2,1.1-2.4
	c0.3-0.6,0.6-1.2,0.9-1.8c2.7,0.2,4.5,0.5,6.4,2.3c3.6,4.2,3.6,4.2,3.6,6.7c3.3,0,6.6,0,10,0c0-1.5,0-2.9,0-4.4
	c0.7-6.6,3.7-9.9,8.3-14.4c0.8-0.8,1.6-1.5,2.4-2.3C204-0.7,223.3-3.4,247,9.2z M179.1,758.1c-10.2,13.2-13.3,27.6-12,44
	c2.6,14,10.4,26.4,21.6,35c13.7,9.1,28.9,12.2,45.1,9.3c14.8-4.2,26.9-13.3,34.8-26.5c7-13.2,9-28.3,4.8-42.8
	c-5.2-14.4-14.7-26-28.4-33C221.2,733.9,197,739,179.1,758.1z M131.5,774.6c-1.2,1.2-1.2,1.2-2.4,2.5c1.3,0.3,2.6,0.7,4,1
	c0.7-2,1.3-4,2-6C133.6,772,133.6,772,131.5,774.6z M309.1,772.1c0.7,2,1.3,4,2,6c1.3-0.7,2.6-1.3,4-2
	C313.1,774.8,311.1,773.4,309.1,772.1z M126.1,780.1c-9,10.2-10.6,21-10.2,34.2c0,1.2,0,2.5,0.1,3.7c0,3,0.1,6,0.2,9
	c0.3,0,0.7,0,1,0c0-0.7,0-1.3,0-2c0.3-16.2,0.8-29.2,10-43C126.8,781.4,126.4,780.8,126.1,780.1z M317.1,780.1
	c1.6,4.3,3.6,8.2,5.8,12.2c3.3,7.6,3.6,15.1,3.8,23.3c0,1.1,0.1,2.2,0.1,3.4c0.1,2.7,0.2,5.4,0.3,8.1c0.3,0,0.7,0,1,0
	c1.5-23.7,1.5-23.7-7.8-44.9C318.5,780,318.5,780,317.1,780.1z M117.1,829.1c1.2,15.7,10,24.1,20.7,34.6
	c17.1,16.9,17.1,16.9,22.3,25.4c0.5,0.7,1,1.4,1.6,2.1c3.9,5.9,3.9,12,4,18.9c0,0.9,0,1.9,0,2.8c-0.1,7-1.3,14.4-6.1,19.9
	c-3.7,3.2-6.9,4.4-11.7,4.4c-0.8,0-1.6,0-2.4,0c-0.8,0-1.7,0-2.5,0c-0.8,0-1.7,0-2.6,0c-2.1,0-4.2,0-6.3,0c-0.1-0.6-0.1-1.3-0.2-1.9
	c-0.1-0.8-0.2-1.7-0.3-2.5c-0.1-0.8-0.2-1.6-0.2-2.5c-0.1-2.1-0.1-2.1-1.3-3.1c-4.7-0.6-8-0.6-12.1,2c-1,1-1,1-1.9,2
	c1.3,6,4.6,9.9,9,14c6.9,4.3,16.1,1.8,23.5,0c10.3-3,16-8.9,21.5-18c3.8-11.4,2.2-28.3-3-39c-5.7-10.2-14.3-17.8-23.4-24.9
	c-11.9-9.5-21.4-20.1-27.6-34.1C117.8,829.1,117.4,829.1,117.1,829.1z M326.1,829.1c-0.2,0.6-0.5,1.1-0.7,1.7
	c-7.7,17-21.6,28.7-35.8,40.3c-9.7,8.1-16.6,17.2-18.5,30.1c-0.3,3.9-0.5,7.9-0.5,11.8c0,1,0,2-0.1,3c0.1,8.2,2.4,14.6,8,20.8
	c8.3,7.6,19,10.3,30.1,10.8c6.6-0.7,10.2-3.5,14.2-8.5c1.7-2.5,2.6-5,3.3-7.9c-2.3-2.4-4-3.9-7.3-4.3c-2.2,0-4.4,0.1-6.7,0.3
	c-1.6,3.5-2.1,6.1-2,10c-2.9,0.1-5.7,0.1-8.6,0.2c-0.8,0-1.6,0.1-2.4,0.1c-5.1,0.1-8.5-0.4-12.9-3.3c-5.8-5.8-7.4-12.9-7.6-20.9
	c0-10,0.4-17.7,6.6-26.1c0.7-0.9,1.3-1.8,2-2.8c4.5-5.7,9.5-10.8,14.6-15.9c0.5-0.5,1-1,1.5-1.5c2.6-2.5,5.2-5.1,7.8-7.6
	c6.6-6.4,12.4-12.5,14.9-21.5c0.2-0.8,0.5-1.6,0.7-2.5C327.1,832.9,326.9,831.4,326.1,829.1z M165.1,973.1c0,7.3,0,14.5,0,22
	c36.6,0,73.3,0,111,0c0-7.3,0-14.5,0-22C239.5,973.1,202.8,973.1,165.1,973.1z"/>
<path class="st1" d="M180.1,545.1c0.3,0,0.7,0,1,0c1.5,18,1.1,30.3-10.3,44.7c-3,4-5.6,8.2-8.3,12.4c-1.1,1.7-2.2,3.4-3.3,5.1
	c-10.1,15.5-20.2,31.2-30.1,46.8c-0.5,0.8-1.1,1.6-1.6,2.4c-4.4,6.6-7.4,13.1-10,20.5c-0.4,1.1-0.8,2.3-1.2,3.4
	c-1.1,3.1-2.2,6.1-3.2,9.2c-1.1,3.2-2.3,6.4-3.4,9.6c-0.5,1.3-0.9,2.6-1.4,3.9c-0.2,0.7-0.5,1.3-0.7,2c-0.7,2-1.4,4-2.1,6
	c-3.2,9-6.5,18-9.8,26.9c-0.4,1.2-0.9,2.4-1.3,3.6c-3.4,9.1-3.4,9.1-5.1,13.7c-1.2,3.1-2.3,6.2-3.5,9.3c-0.3,0.9-0.7,1.8-1,2.7
	c-2.3,6.1-3.6,12.2-4.6,18.7c-0.3,0-0.7,0-1,0c-0.2-11.5,4-21.6,7.9-32.2c0.7-2,1.4-3.9,2.1-5.9c1.9-5.2,3.8-10.4,5.7-15.7
	c1.6-4.4,3.2-8.8,4.8-13.1c3.8-10.3,7.6-20.6,11.4-30.9c1.7-4.5,3.3-9,4.9-13.6c0.3-0.9,0.6-1.7,0.9-2.6c0.6-1.6,1.1-3.2,1.7-4.8
	c2.3-6.3,5.5-11.6,9.5-17c3.8-5.3,7.3-10.9,10.8-16.4c4.9-7.7,9.9-15.4,14.9-23.1c0.5-0.8,1-1.6,1.6-2.4c2.7-4.2,5.5-8.4,8.2-12.6
	c0.6-0.9,1.2-1.8,1.8-2.7c1.1-1.7,2.2-3.3,3.3-5c1-1.5,2-3.1,3-4.6c1-1.6,2.1-3.1,3.2-4.7c4.8-7,5.2-13,5.2-21.3
	c0-1.2,0-2.4,0.1-3.6C180.1,550.9,180.1,548,180.1,545.1z"/>
<path class="st2" d="M262.1,571.1c3.1,3.8,5.8,7.7,8.3,11.9c4.3,6.9,8.7,13.8,13.1,20.6c0.6,1,1.3,2,2,3c1.3,1.9,2.6,3.9,3.8,5.8
	c2.5,3.9,5,7.7,7.5,11.6c0.4,0.7,0.9,1.3,1.3,2c2.3,3.5,4.5,7,6.8,10.5c0.5,0.7,1,1.5,1.4,2.2c0.9,1.4,1.8,2.8,2.7,4.1
	c0.4,0.6,0.8,1.3,1.3,1.9c0.4,0.7,0.9,1.4,1.3,2.1c1,1.5,2.1,3.1,3.3,4.5c7.7,10.4,11.2,22.4,15.5,34.5c0.9,2.4,1.7,4.8,2.6,7.3
	c1.3,3.8,2.7,7.5,4,11.3c3.2,9.1,6.5,18.1,9.8,27.2c0.5,1.3,0.9,2.5,1.4,3.8c1.8,4.9,3.6,9.7,5.4,14.6c1.2,3.4,2.5,6.7,3.7,10.1
	c0.4,1,0.7,2,1.1,3c2.7,7.5,5.2,14.9,4.8,23c-0.3,0-0.7,0-1,0c-0.1-0.7-0.2-1.4-0.3-2.1c-2.3-12.7-7-24.6-11.5-36.7
	c-1.2-3.2-2.3-6.4-3.5-9.6c-1.4-3.9-2.9-7.9-4.4-11.8c-2.8-7.6-5.6-15.2-8.3-22.8c-1.6-4.6-3.3-9.2-5-13.8c-0.8-2.1-1.5-4.3-2.3-6.4
	c-4.5-12.7-9.6-23.8-17.4-34.9c-2.4-3.4-4.6-6.9-6.8-10.4c-0.5-0.8-1-1.6-1.6-2.4c-0.4-0.6-0.8-1.2-1.2-1.9
	c-1.8-2.7-3.5-5.5-5.3-8.2c-4.2-6.4-8.3-12.8-12.4-19.2c-0.7-1.1-1.4-2.2-2.1-3.3c-1.4-2.1-2.7-4.3-4.1-6.4c-0.6-1-1.3-2-1.9-3
	c-0.6-1-1.3-2-1.9-3c-1.4-2.1-2.8-4.2-4.3-6.3c-1.1-1.6-1.1-1.6-2.2-3.2c-0.7-1-1.3-1.9-2-2.9C262.1,575.1,262.1,575.1,262.1,571.1z
	"/>
<path class="st3" d="M166.1,786.1c0.3,0,0.7,0,1,0c0,1,0.1,2,0.1,3c0.6,17.6,5.7,32.7,18.9,45c13.3,10.2,27.6,13.3,44,12
	c13.3-2.4,25.8-9.8,34-20.6c3.9-5.8,6.7-11.8,9-18.4c1.3,3.9,0.4,6-1.4,9.6c-0.4,0.7-0.7,1.4-1.1,2.1c-0.6,1.1-0.6,1.1-1.1,2.2
	c-6.9,13-17.6,21-31.4,26.1c-15.5,4.5-30.5,2.5-44.8-4.8c-13.6-7.9-21.8-20-26.3-35c-1.1-4.4-1.1-8.7-1-13.2c0-0.8,0-1.5,0-2.3
	C166,789.9,166.1,788,166.1,786.1z"/>
<path class="st2" d="M247,9.2c8.1,5,15.4,12.3,21.1,19.9c0,0.7,0,1.3,0,2c-5-1.9-8.1-6.3-11.5-10.2c-0.8-0.9-0.8-0.9-1.5-1.7
	c-0.5-0.5-0.9-1-1.4-1.6c-5.1-4.8-12.3-7.3-18.5-10.3c-1.1-0.5-2.1-1-3.2-1.6c-1-0.5-2.1-1-3.2-1.5c-0.9-0.4-1.9-0.9-2.9-1.4
	c-9.5-2.9-22.5,5.4-30.9,9.5c-7.3,4-12.1,9.9-17.1,16.5c-0.6,0.7-1.2,1.4-1.8,2.1c-0.7,0-1.3,0-2,0c6.2-13.3,19.2-21.4,32.1-27.1
	c1.7-0.8,1.7-0.8,3.5-1.6C223.6-3.3,234.3,2.4,247,9.2z"/>
<path class="st4" d="M326.1,833.1c0.3,0,0.7,0,1,0c-0.8,17.8-15.5,28.7-27.4,40.4c-0.8,0.9-1.7,1.7-2.6,2.6c-0.7,0.7-1.3,1.3-2,2
	c-13.1,13.7-16.4,24.4-16,43c-0.3,0-0.7,0-1,0c-1.3-24.2-1.3-24.2,6-34c0.7-0.9,1.3-1.8,2-2.8c4.5-5.7,9.5-10.8,14.6-15.9
	c0.5-0.5,1-1,1.5-1.5c2.6-2.5,5.2-5.1,7.8-7.6c6.7-6.5,12.4-12.5,14.9-21.7c0.2-0.9,0.5-1.7,0.7-2.6
	C325.9,834,325.9,834,326.1,833.1z"/>
<path class="st1" d="M117.1,833.1c1.1,2,2,4,2.7,6.2c3.3,10.3,11.5,17.1,19,24.4c17.1,16.9,17.1,16.9,22.3,25.4
	c0.5,0.7,1,1.4,1.6,2.1c5.6,8.7,3.9,20,3.4,29.9c-0.3,0-0.7,0-1,0c0-0.9,0-0.9,0-1.8c0-16.1,0-16.1-7-30.2c-1-1.3-1-1.3-2-2.6
	c-2-2.5-4-4.9-6-7.4c-0.8-1-0.8-1-1.6-1.9c-3.1-3.8-6.5-6.9-10.2-10.1c-9.3-8.1-18.5-16.5-21.2-28.9
	C116.9,835,116.9,835,117.1,833.1z"/>
<path class="st5" d="M270.1,903.1c0.3,0,0.7,0,1,0c0,0.6,0,1.2,0,1.8c0.1,2.7,0.1,5.5,0.2,8.2c0,0.9,0,1.9,0,2.8
	c0.2,6.3,1.4,10.8,4.7,16.2c0.8,1.3,0.8,1.3,1.6,2.6c8.3,8.3,19.3,11.2,30.9,11.8c4.8-0.5,7.9-1.5,11.1-5.3c1-1.4,2.1-2.8,3.1-4.2
	c1.3-1.8,1.3-1.8,3.3-3.8c-0.3,5.9-2.9,9.1-7,13c-6.8,4.5-18.6,2.7-26.4,1.4c-8.6-2.7-15.8-9-20.7-16.6
	C268.2,922.6,269.7,912,270.1,903.1z"/>
<path class="st6" d="M173.1,903.1c0.3,0,0.7,0,1,0c1,24.6,1,24.6-5,32c-0.5,0.7-1.1,1.3-1.6,2c-6.4,7.1-15.3,10.9-24.8,11.3
	c-1.6,0-3.1,0-4.7,0c-0.8,0-1.6,0-2.4,0.1c-5.3,0-8.4-0.9-12.6-4.4c-1.7-1.8-1.7-1.8-2.9-3.5c-0.4-0.6-0.8-1.1-1.3-1.7
	c-1-2.3-0.6-3.5,0.2-5.8c0.5,1.1,1.1,2.1,1.6,3.2c2.7,4.8,6.1,8,11.4,9.8c11.1,0.8,23.4-1.6,32-9c4.7-5.6,8-10.5,8.3-17.9
	c0.1-1.4,0.1-1.4,0.1-2.8c0-1,0.1-2,0.1-3c0.1-1.5,0.1-1.5,0.1-3C172.9,908,173,905.5,173.1,903.1z"/>
<path class="st7" d="M171.1,104.1c0.3,0,0.7,0,1,0c0,6.9,0,13.9,0,21c-10,0-10,0-12.7-2c-1.8-2.3-3.5-4.7-5.3-7
	c-1.6,3.6-3.3,7.3-5,11c-1.1-4.3-0.9-4.9,0.9-8.8c0.6-1.2,0.6-1.2,1.2-2.4c0.3-0.6,0.6-1.2,0.9-1.8c2.7,0.2,4.5,0.5,6.4,2.3
	c3.6,4.2,3.6,4.2,3.6,6.7c3,0,5.9,0,9,0C171.1,116.8,171.1,110.5,171.1,104.1z"/>
<path class="st8" d="M293.1,56.1c1.3,0,2.6,0,4,0c0.7,1.4,1.4,2.8,2.1,4.2c0.4,0.8,0.8,1.6,1.2,2.4c0.8,2.4,0.8,2.4-0.2,6.4
	c-1.6-3.6-3.3-7.3-5-11c-0.9,1.5-1.9,3-2.9,4.5c-2.2,2.6-3.9,4.3-7.3,4.9c-5.3,0.4-10.6,0-15.9-0.4c0.3-1,0.7-2,1-3
	c5.6,0.3,11.2,0.7,17,1c0.7-1.3,1.3-2.6,2-4C291,58.3,291,58.3,293.1,56.1z"/>
<path class="st5" d="M145.1,56.1c2.7,0.2,4.5,0.5,6.4,2.3c3.6,4.2,3.6,4.2,3.6,6.7c5.9,0,11.9,0,18,0c0,0.7,0,1.3,0,2
	c-15.9,1.4-15.9,1.4-21-2c-2.1-2.5-2.1-2.5-5-7c-1.6,3.6-3.3,7.3-5,11c-1.1-4.3-0.9-4.9,0.9-8.8c0.4-0.8,0.8-1.6,1.2-2.4
	C144.5,57.3,144.8,56.7,145.1,56.1z"/>
<path class="st9" d="M285.1,30.1c1.3,0,2.6,0,4,0c0.7,1.4,1.4,2.8,2.1,4.2c0.4,0.8,0.8,1.6,1.2,2.4c0.8,2.4,0.8,2.4-0.2,6.4
	c-1.6-3.6-3.3-7.3-5-11c-1.6,2.2-1.6,2.2-3.3,4.5c-2.5,2.9-3.8,4.3-7.7,5.1c-2.7,0-5.3-0.2-8-0.6c0-2,0-4,0-6c0.3,1.3,0.7,2.6,1,4
	c3.3,0,6.6,0,10,0c0.7-1.3,1.3-2.6,2-4C283,32.3,283,32.3,285.1,30.1z"/>
<path class="st9" d="M153.1,30.1c2.7,0.2,4.5,0.5,6.4,2.3c3.6,4.2,3.6,4.2,3.6,6.7c3.3,0,6.6,0,10,0c0.3-1.3,0.7-2.6,1-4
	c0,2,0,4,0,6c-3.8,0.6-7.2,0.8-11,0c-3.4-2.7-5.4-5.5-8-9c-1.6,3.6-3.3,7.3-5,11c-1.1-4.3-0.9-4.9,0.9-8.8c0.4-0.8,0.8-1.6,1.2-2.4
	C152.5,31.3,152.8,30.7,153.1,30.1z"/>
<path class="st10" d="M137.1,769.1c0.3,0.7,0.7,1.3,1,2c-1,2.6-1,2.6-2.4,5.6c-0.5,1-0.9,2-1.4,3c-0.4,0.8-0.7,1.5-1.1,2.3
	c-0.3-1-0.7-2-1-3c-4,3.4-5.9,7.3-8.1,12c-0.3,0.7-0.7,1.4-1.1,2.2c-0.7,1.4-1.3,2.7-2,4.1c-0.9,1.9-1.9,3.9-2.9,5.8
	c0.3-7.7,3.4-13.3,7-20c0.5-1.1,1-2.2,1.5-3.3c0.7-1.3,0.7-1.3,1.5-2.7c1.2-0.2,1.2-0.2,2.4-0.4c2.6-0.3,2.6-0.3,3.8-2.2
	C135.3,772.7,136.2,770.9,137.1,769.1z"/>
<path class="st11" d="M306.1,770.1c0.7,0,1.3,0,2,0c0.6,1.1,1.1,2.3,1.7,3.4c1,2,1,2,2.3,3.6c2.6,0.6,2.6,0.6,5,1
	c0.7,1.6,1.4,3.3,2,5c1,1.9,2,3.9,3.1,5.8c2.5,4.9,3.7,8.7,3.9,14.2c-1.3-2.6-2.6-5.2-3.8-7.8c-0.7-1.4-1.4-2.8-2.1-4.2
	c-0.3-0.7-0.7-1.4-1-2.2c-1.9-3.9-3.7-6.9-7.1-9.8c-0.3,1-0.7,2-1,3C309.4,778.1,307.8,774.2,306.1,770.1z"/>
<path class="st12" d="M286.1,114.1c1.3,0,2.6,0,4,0c0.7,1.4,1.4,2.8,2.1,4.2c0.4,0.8,0.8,1.6,1.2,2.4c0.8,2.4,0.8,2.4-0.2,6.4
	c-1.6-3.6-3.3-7.3-5-11c-1.7,2.2-1.7,2.2-3.4,4.5c-3.8,4.3-3.8,4.3-7.1,5.1c-2.2,0-4.3-0.2-6.5-0.6c0-0.7,0-1.3,0-2c3,0,5.9,0,9,0
	c0.7-1.3,1.3-2.6,2-4C284,116.3,284,116.3,286.1,114.1z"/>
<path class="st13" d="M282.1,85.1c1.3,0,2.6,0,4,0c0.7,1.4,1.4,2.8,2.1,4.2c0.4,0.8,0.8,1.6,1.2,2.4c0.8,2.4,0.8,2.4-0.2,6.4
	c-1.6-3.6-3.3-7.3-5-11c-1.2,1.5-2.4,3-3.6,4.5c-2,2.5-2,2.5-4.4,4.5c-3.3,0.3-3.3,0.3-6,0c0.3-1,0.7-2,1-3c1.7,0.3,3.3,0.7,5,1
	c0.2-0.6,0.5-1.1,0.8-1.7C278.3,89.6,279.9,87.4,282.1,85.1z"/>
<path class="st13" d="M156.1,85.1c2.7,0.2,4.5,0.5,6.4,2.3c3.6,4.2,3.6,4.2,3.6,6.7c2-0.3,4-0.7,6-1c0,1,0,2,0,3
	c-2.7,0.3-2.7,0.3-6,0c-3.2-2.7-5.4-5.8-8-9c-1.6,3.6-3.3,7.3-5,11c-1.1-4.3-0.9-4.9,0.9-8.8c0.4-0.8,0.8-1.6,1.2-2.4
	C155.5,86.3,155.8,85.7,156.1,85.1z"/>
<path class="st4" d="M273.1,807.1c1.3,3.9,0.4,6-1.4,9.6c-0.4,0.7-0.7,1.4-1.1,2.1c-0.4,0.7-0.7,1.4-1.1,2.2
	c-6.8,13-6.8,13-12.6,14.8c-0.6,0.1-1.2,0.2-1.8,0.3c0.8-0.9,1.7-1.9,2.6-2.9C264.6,825.1,269.4,817.1,273.1,807.1z"/>
<path class="st3" d="M297.1,56.1c0.7,1.4,1.4,2.8,2.1,4.2c0.4,0.8,0.8,1.6,1.2,2.4c0.8,2.4,0.8,2.4-0.2,6.4c-1.6-3.6-3.3-7.3-5-11
	c-1.6,2-3.3,4-5,6c-0.7-0.7-1.3-1.3-2-2C292.6,56.1,292.6,56.1,297.1,56.1z"/>
<path class="st4" d="M325.1,933.1c0.7,1.7,0.7,1.7,1,4c-1.3,2.3-1.3,2.3-3.2,4.6c-0.9,1.2-0.9,1.2-1.9,2.4c-1.9,2-3.4,3-6,4
	c1.7-3.7,3.9-6.3,6.6-9.2C323.1,937,324.1,935.2,325.1,933.1z"/>
<path class="st14" d="M178.1,828.1c4.3,1.6,6.3,4.5,9,8C182.2,834.7,180.6,832.4,178.1,828.1z"/>
<path class="st15" d="M262.1,828.1c0.3,0.7,0.7,1.3,1,2c-2.5,3.5-3.8,5.2-8,6c1-1.1,2-2.3,2.9-3.4c0.5-0.6,1.1-1.3,1.7-1.9
	C260.5,829.8,261.3,828.9,262.1,828.1z"/>
<path class="st11" d="M254.1,835.1c0.7,0.7,1.3,1.3,2,2c-2.3,1.7-4.6,3.3-7,5c0-1,0-2,0-3C251.6,836.9,251.6,836.9,254.1,835.1z"/>
</svg>
