<?xml version="1.0" encoding="UTF-8"?>
<svg id="Layer_1" data-name="Layer 1" xmlns="http://www.w3.org/2000/svg" viewBox="0 0 340.61 694.5">
  <defs>
    <style>
      .cls-1 {
        fill: #fff;
      }
    </style>
  </defs>
  <g>
    <path d="M177.8,2l-20.1,2.2-8.8,6c-4.8,3.3-8.8,6.2-9,6.5-.1,.3,.4,22.3,1.1,49l1.4,48.5-2.2,1.5c-1.3,.8-4.5,3.5-7.1,6.1-3.8,3.7-4.7,5.2-4.2,7.1,.3,1.2,1.9,11.5,3.5,22.8l2.9,20.5-3.7,3.6c-13.1,12.7-51.4,48-51.7,47.7-1.1-1.1,12.8-20.2,26.7-36.6l15.5-18.4-4.2-20.4c-2.3-11.2-4.4-20.7-4.7-21-.7-.6-29.5,4.8-58.5,11.2-11.5,2.4-26.2,5.6-32.8,7s-12.5,3.1-13.1,3.7c-.7,.7-2.9,5.2-5,10.2l-3.8,8.9,1.8,53.1c.9,29.1,2,59.2,2.3,66.8l.6,13.9,24.1,22.8c13.3,12.6,29.7,27.3,36.5,32.7l12.4,9.7-.7,28.1c-.4,15.4-1.3,62.6-2.1,105s-1.7,90.9-2,108l-.6,31,6.1,9.3c5,7.8,6.7,9.6,10.3,11.1,4.2,1.9,20.3,8.2,64.4,25.5l24.2,9.4,19.5-.5,19.5-.6,38.8-22.2,38.8-22.2,7.2-11.9,7.3-11.9-2-28c-1.1-15.4-2.4-34.1-3-41.5s-2.4-32.9-4-56.5c-1.7-23.7-3.9-55.2-5-70-3.6-50.3-4.2-60.6-3.6-61.3,.4-.4,6.1-5,12.8-10.2l12-9.5,9.9-31,9.9-31,2.7-42c2.2-34.9,2.6-48.7,2.5-82-.1-22-.5-44.4-.9-49.8l-.8-9.9-13.5-6.9c-9.9-5-15.7-7.3-21.8-8.6s-8.5-1.4-9-.6c-.4,.6-4.1,24.9-8.2,54-4.1,29-7.5,52.9-7.6,53.1-.2,.4-45.7-7.7-46.2-8.3-.3-.3,7.5-.5,17.4-.5s18.4-.4,19-.8,3.7-16.3,6.8-35.3c5.9-36.2,7.5-54.8,7.6-89.6v-13.2l-18.2-9.3c-16.8-8.5-19.4-9.5-31.2-12-7.1-1.5-13.1-2.6-13.4-2.3-.4,.4-4.3,86-5.8,126.5-.6,18.2-1,21-3,25.6l-2.3,5.2-5.8,.6c-12.2,1.3-50.3,3.7-52.5,3.4-1.4-.2,.4-1,4.7-2.1,3.9-.9,12-3,18-4.7,6.1-1.7,14.9-4,19.6-5.2l8.7-2.2,.6-8c.3-4.5,1.6-20,2.8-34.6,2-22.8,2.3-33.6,2.3-76.5V.2l-5-.2c-2.7,0-14,.9-25.1,2Zm154.5,188.2c-2.1,25.7-1.7,22.5-2.9,22.5-2.3,0-37.3-12.4-36.2-12.8,.7-.2,5.6,.4,10.8,1.3,8.3,1.5,10.6,1.6,16.6,.5,8.2-1.4,7.9-.8,10.2-17.5,1.8-12.2,2.6-16.8,3.1-16.3,.1,.2-.6,10.2-1.6,22.3Zm-165.5,96.4c13.2,9.2,25.1,17.4,26.2,18.1,2.3,1.4,2.2,1.5,43.7-13.4,7-2.5,12.7-4.4,12.7-4.2s-10.1,7-22.4,15c-20.2,13.2-22.4,15-23,17.9-.6,3.3-6.4,40.4-9.2,58.7-1.7,10.7-3.4,15.3-3.4,9,0-5-3.9-64.7-4.6-69.8-.5-4.1-1-4.6-24.4-23.8q-23.9-19.6-22.3-22c.8-1.3,1.8-2.4,2-2.4,.3,0,11.4,7.6,24.7,16.9Z"/>
    <path d="M84.9,40.8c-11.6,5.5-21.5,10.6-22.1,11.2-1.7,1.8-11.3,70.1-10.1,71.4,.4,.3,15.1-1.6,32.8-4.2,28.8-4.2,32.3-4.6,33.6-3.2,1.4,1.4,2,1.3,5.7-1.1,2.2-1.4,4.6-3.2,5.3-4,.9-1,1.2-12,1.3-40.8l.1-39.4-12.8,.1h-12.8l-21,10Z"/>
  </g>
  <ellipse class="cls-1" cx="188.17" cy="505.7" rx="105" ry="108"/>
  <ellipse cx="188.17" cy="505.7" rx="59.36" ry="61.06"/>
</svg>