<?xml version="1.0" encoding="UTF-8"?>
<svg id="Layer_1" data-name="Layer 1" xmlns="http://www.w3.org/2000/svg" viewBox="0 0 600.02 910">
  <defs>
    <style>
      .cls-1 {
        fill: #f0f0f0;
      }

      .cls-2 {
        fill: #f4f4f4;
      }

      .cls-3 {
        fill: #fff;
      }

      .cls-4 {
        fill: #fafafa;
      }

      .cls-5 {
        fill: #f6f6f6;
      }

      .cls-6 {
        fill: #f5f5f5;
      }

      .cls-7 {
        fill: #030303;
      }

      .cls-8 {
        fill: #eaeaea;
      }

      .cls-9 {
        fill: #f9f9f9;
      }

      .cls-10 {
        fill: #ebebeb;
      }

      .cls-11 {
        fill: #d5d5d5;
      }

      .cls-12 {
        fill: #f7f7f7;
      }

      .cls-13 {
        fill: #f1f1f1;
      }

      .cls-14 {
        fill: #f3f3f3;
      }

      .cls-15 {
        fill: #f8f8f8;
      }

      .cls-16 {
        fill: #eee;
      }

      .cls-17 {
        fill: #f2f2f2;
      }

      .cls-18 {
        fill: #ededed;
      }
    </style>
  </defs>
  <path class="cls-7" d="M111.02,0h3c.29,5.33,.57,10.67,.85,16,.1,1.81,.19,3.62,.29,5.43,.32,5.85,.6,11.71,.85,17.57,.05,1.09,.1,2.18,.15,3.3,.23,9.09-1.2,17.95-2.72,26.88-.14,.86-.29,1.71-.44,2.6-3.21,18.62-9.39,35.82-16.31,53.34q-6.82,16.39-10.07,33.69c-.06,.83-.13,1.66-.19,2.51-.18,2.56-.31,5.11-.43,7.68-.04,.81-.09,1.62-.13,2.45-.47,9.69,.14,18.94,1.81,28.5,.18,1.03,.35,2.06,.53,3.12,1.96,11.26,4.25,22.45,6.63,33.63,.74,3.49,1.46,6.97,2.18,10.46,.47,2.24,.95,4.48,1.42,6.72,.21,1.03,.43,2.06,.64,3.12,1.41,6.56,3.07,12.25,7.63,17.37,.52,.59,1.03,1.17,1.56,1.77,.55,.61,1.1,1.22,1.66,1.85,1.17,1.33,2.35,2.66,3.52,4,.59,.67,1.19,1.34,1.8,2.03,2.63,2.99,5.22,6.01,7.81,9.04,3.09,3.62,6.19,7.23,9.32,10.82,.55,.64,1.11,1.27,1.68,1.93,1.06,1.22,2.13,2.44,3.2,3.66,2.17,2.5,3.69,4.35,4.74,7.53,.64,.12,1.28,.24,1.94,.37,.86,.17,1.73,.34,2.62,.51,.85,.16,1.69,.32,2.57,.49q2.87,.63,5.93,1.7c5.33,1.56,10.87,1.15,16.38,1.06q1.67-.01,3.37-.03c2.73-.02,5.46-.06,8.19-.1,.29-.61,.58-1.21,.88-1.84,1.47-2.84,3.35-5.06,5.44-7.48,.76-.9,1.52-1.81,2.3-2.74q2.39-1.95,4.87-2.01c3.13,1.32,5.07,3.03,7.52,5.38,3.23,3.06,6.49,5.95,10,8.69,.96-1.35,1.92-2.71,2.88-4.06,.65-.92,1.3-1.83,1.96-2.78,1.49-2.18,2.91-4.35,4.29-6.6,5.66-9.12,12.29-16.4,20.04-23.8,3.23-3.1,6.16-6.37,9.08-9.77,2.93-3.32,6.09-6.39,9.25-9.48,4.48-4.43,8.89-8.84,12.91-13.7q1.59-1.8,3.16-3.12c6.04-5.16,8.8-12,11.89-19.12,.92-2.13,1.87-4.24,2.82-6.35,.6-1.36,1.21-2.72,1.81-4.08,.28-.63,.56-1.25,.85-1.89,1.61-3.73,2.57-7.2,3.07-11.23,1.65-.33,3.3-.66,5-1,.21,1.19,.42,2.38,.64,3.61,1.54,6.87,4.34,13.23,7.18,19.64,.28,.65,.57,1.29,.86,1.96,4.78,10.72,10.27,18.32,19.33,25.79,1.16,1.26,2.29,2.55,3.38,3.88,4.09,4.83,8.66,9.18,13.15,13.63,3.76,3.74,7.37,7.52,10.77,11.59q1.76,2.02,4.11,4.12c8.49,7.88,14.3,16.97,20.36,26.78,1.05,1.69,2.14,3.35,3.25,5,3.37-1.45,5.48-3.29,8-5.94q5.25-5.48,8-7.06c3.71-.04,4.92,.92,7.68,3.43,.87,.99,1.74,1.98,2.64,3,.45,.5,.91,1.01,1.38,1.53q3.31,3.75,3.31,6.04,18.02,.7,35.49-3.12,2.51-.88,5.51-.88c.25-.57,.49-1.13,.75-1.71,1.47-2.68,3.23-4.62,5.32-6.85,3.27-3.56,6.4-7.18,9.44-10.94,2.91-3.59,5.89-7.08,9-10.5,3.2-3.52,6.32-7.1,9.38-10.75,.72-.86,1.44-1.72,2.18-2.61,4.79-6.51,6.16-13.25,7.76-21.03,.26-1.21,.51-2.42,.77-3.67,.68-3.22,1.34-6.45,2.01-9.67,.67-3.21,1.35-6.42,2.02-9.63,2.26-10.76,4.48-21.53,6.24-32.38,.12-.71,.24-1.43,.36-2.17,1.28-8.35,1.17-16.67,.79-25.09-.03-.84-.06-1.69-.1-2.56-.68-15.44-4.76-28.14-10.49-42.38-7.35-18.32-13.5-36.17-16.79-55.69q-.21-1.26-.43-2.55c-1.55-9.33-2.64-18.36-2.19-27.83,.03-.72,.06-1.43,.09-2.17,.26-6.03,.58-12.05,.91-18.08,.1-1.82,.19-3.65,.29-5.47,.23-4.43,.47-8.85,.71-13.28h3c.06,.95,.12,1.91,.19,2.89,1.73,24,7.1,42.45,19.83,62.9,1.78,2.88,3.45,5.81,5.11,8.76,2.56,4.26,5.34,7.03,9.37,9.88,.6,.46,1.2,.92,1.83,1.4,3.02,2.3,6.09,4.45,9.31,6.46,11.25,7.37,15.23,17.51,20.13,29.71,1.15,2.79,2.39,5.51,3.69,8.23,.38,.8,.76,1.6,1.15,2.42,.69,1.46,1.4,2.92,2.11,4.37,4.47,9.7,1.59,19.58-.49,29.57-.51,2.45-1.01,4.9-1.51,7.36-1.06,5.21-2.13,10.41-3.21,15.61-1.25,6.04-2.49,12.07-3.72,18.12-.49,2.41-.99,4.81-1.5,7.21-.3,1.49-.61,2.97-.91,4.46q-.4,1.93-.81,3.9-.77,4.44-.57,11.75c5.61-22.11,11.22-44.22,17-67q1.98-.49,4-1c.18,.82,.36,1.64,.55,2.49,3.22,13.69,7.65,26.98,12.01,40.34,1.46,4.49,2.91,8.97,4.37,13.46,.77,2.38,1.54,4.76,2.32,7.13,.35,1.07,.69,2.14,1.05,3.24q.46,1.41,.93,2.84,.38,1.24,.78,2.5c.2,.61,.4,1.21,.61,1.83,1.24,6.83,.01,13.48-1.18,20.22-.17,.97-.33,1.95-.51,2.95-.36,2.1-.73,4.2-1.1,6.3-.58,3.32-1.15,6.64-1.73,9.96-1.21,7.04-2.43,14.08-3.66,21.11-1.42,8.18-2.84,16.35-4.25,24.53-.57,3.28-1.14,6.55-1.71,9.83-.34,2-.69,3.99-1.03,5.99-.16,.92-.33,1.83-.49,2.77-.14,.83-.28,1.67-.43,2.52-.13,.73-.25,1.45-.38,2.2q-.31,1.89,.86,3.79c.36-.66,.71-1.33,1.08-2.01,3.95-7.34,7.93-14.67,11.92-21.99,.41-.76,.83-1.53,1.25-2.31,.94-1.74,1.91-3.46,2.87-5.19,.5-.9,1-1.79,1.51-2.72,.45-.59,.9-1.18,1.37-1.78h3c-.31,8.33-.65,16.67-1,25-.05,1.14-.09,2.28-.14,3.46-.28,6.91-.63,13.81-1.04,20.71-.13,2.35-.24,4.69-.34,7.04-.72,17.65-4.34,30.64-13.48,45.78-.69,1.18-1.37,2.36-2.06,3.55-3.37,5.68-7.48,10.68-11.72,15.73-3.32,4.07-6.29,8.37-9.22,12.73,6.41-3.44,12.69-6.97,18.81-10.9q2.19-1.1,6.19-1.1c-.11,.58-.21,1.16-.32,1.76-.16,.85-.31,1.71-.47,2.59-.19,1.01-.37,2.01-.56,3.05-.46,2.59-.89,5.18-1.29,7.78q-4.91,31.02-13.06,37.48c-4.5,2.7-9.27,4.5-14.23,6.19-5.44,2.05-10.39,5.03-15.43,7.9-1.86,1.02-3.72,2.04-5.59,3.05q-1.17,.64-2.37,1.29c-.55,.3-1.1,.6-1.67,.91,7.84-.62,15.51-1.65,23.26-2.98,4.3-.71,8.36-1.18,12.74-1.02-.62,3.06-1.63,5.29-3.3,7.93-.48,.76-.96,1.51-1.45,2.29-.52,.81-1.04,1.61-1.57,2.45-.54,.84-1.07,1.67-1.63,2.53-1.14,1.76-2.28,3.52-3.42,5.28-1.75,2.69-3.46,5.4-5.17,8.12-1.11,1.71-2.22,3.42-3.34,5.13-.51,.81-1.02,1.63-1.54,2.47q-3.69,5.55-8.11,6.8c-1.15,0-2.29,0-3.47,0-.95,.06-1.91,.13-2.89,.19-.92,.03-1.85,.06-2.8,.09-1.03,.04-2.06,.07-3.12,.11l-6.39,.21c-5.34,.19-10.53,.5-15.8,1.39,3.3,1.32,6.6,2.64,10,4v3c.59,.05,1.18,.1,1.79,.15,4.4,.42,8.18,.9,12.21,2.85v3c-7.32,3.69-14.65,7.36-22,11-.93,.46-1.87,.93-2.83,1.4-2.57,1.27-5.15,2.53-7.74,3.78-.78,.39-1.56,.77-2.36,1.17q-7.5,3.6-11.08,2.64c-2.09-2-3.79-3.87-5.56-6.12-1.05-1.28-2.11-2.57-3.16-3.85-.54-.66-1.08-1.33-1.63-2.01-2.65-3.25-5.4-6.41-8.15-9.58-.97-1.13-1.94-2.25-2.91-3.38-.41-.47-.81-.94-1.23-1.43-.45-.54-.9-1.08-1.37-1.63-.71-.74-1.43-1.48-2.16-2.24-2.41-3.63-2.16-5.67-1.83-9.98q.07-1.05,.14-2.12c.16-2.24,.34-4.48,.53-6.72,.11-1.45,.21-2.89,.32-4.34,.05-.72,.1-1.44,.16-2.18,.11-1.49,.21-2.97,.32-4.46,.28-3.92,.6-7.82,1-11.73,1.22-13.51-1.11-25.28-4.42-38.36-.49-2.01-.98-4.02-1.46-6.04-.68-2.81-1.35-5.62-2.05-8.42-.2-.82-.41-1.63-.62-2.47-.18-.72-.36-1.43-.55-2.17q-.39-1.78-.39-3.78-13.53,3.08-25.47,9.86-1.53,1.14-3.53,1.14c.08,1.02,.15,2.04,.23,3.09,1.61,22.07,2.98,44.13,4.03,66.23,.37,7.59,.76,15.19,1.16,22.78,.34,6.49,.65,12.98,.93,19.47,.28,6.43,.6,12.85,.96,19.27,.13,2.4,.23,4.81,.32,7.22,.56,14.84,2.19,28.1,13.37,38.94,3.93,2.93,8.07,5.25,12.5,7.34,2.86,1.36,5.18,2.54,7.5,4.66v2c12.69,1.24,23.49,1.5,35.57-2.87,3.1-1.02,5.22-1.38,8.43-1.13v3q-1.88,1.8-4.56,3.88c-4.76,3.76-9.38,7.63-13.94,11.62-4.38,3.82-8.79,7.59-13.31,11.25-1.73,1.41-3.46,2.83-5.19,4.25-.8,.65-1.59,1.3-2.42,1.97-6.52,5.57-11.01,11.52-15.52,18.78-.72,1.14-1.45,2.27-2.17,3.41-1.53,2.39-3.04,4.78-4.56,7.18-3.48,5.49-7.06,10.91-10.63,16.34-2.01,3.05-4.01,6.11-6.01,9.17-.39,.6-.79,1.2-1.19,1.82-2.6,3.98-5.21,7.95-7.81,11.93-.69,1.06-1.39,2.12-2.1,3.21-1.39,2.13-2.78,4.27-4.17,6.4-3.25,5-6.53,9.98-9.91,14.89-12.46,18.12-22.34,36.83-31.53,56.79-1.56,3.37-3.15,6.73-4.75,10.09-1.16,2.46-2.32,4.92-3.48,7.39-.51,1.09-1.03,2.18-1.55,3.31-5.82,12.57-10.32,25.45-14.51,38.63-.46,1.43-.92,2.87-1.38,4.3-1.11,3.46-2.21,6.92-3.31,10.38h-3c-.02-1.09-.04-2.18-.06-3.3-.48-26.47-.96-52.94-1.45-79.42-.24-12.8-.47-25.6-.7-38.41-.2-11.16-.41-22.31-.61-33.47-.11-5.91-.22-11.82-.32-17.73-.1-5.56-.2-11.12-.31-16.67-.04-2.04-.07-4.09-.11-6.13-.05-2.78-.1-5.57-.16-8.35-.01-.81-.03-1.63-.04-2.46-.08-3.52-.34-6.67-1.23-10.07-.14-1.64-.25-3.29-.32-4.94-.04-.97-.08-1.94-.13-2.93q-.06-1.55-.12-3.13c-.04-1.07-.08-2.13-.12-3.23-.12-3.26-.22-6.51-.32-9.77-.03-.96-.06-1.92-.09-2.9-.07-2.64-.12-5.27-.16-7.91-.02-.77-.04-1.54-.06-2.33-.03-5.3,1.01-9.8,2.51-14.87,1.5-5.56,2.27-11.25,3.18-16.93,1.48-8.83,3.02-17.61,5.12-26.31,.18-.77,.35-1.53,.54-2.32,2.48-9.77,8.36-17.69,14.03-25.87,1.35-1.97,2.69-3.93,4.04-5.9,2.31-3.37,4.65-6.72,7.02-10.04q15.45-21,23.88-44.62c-4.73,.18-9.46,.43-14.18,.73-1.6,.09-3.2,.17-4.81,.23-11.98,.47-19.35,3.01-28.51,10.78-2.15,1.8-4.43,3.42-6.71,5.05-1.54,1.13-3.07,2.26-4.61,3.39-.77,.56-1.54,1.13-2.33,1.71-1.54,1.13-3.06,2.27-4.58,3.43q-2.28,1.67-4.68,3.17c-7.45,4.93-9.26,11.09-11.66,19.44-.39,1.26-.78,2.51-1.18,3.81-.95,3.08-1.87,6.16-2.76,9.26h-5c-.18-.74-.36-1.49-.54-2.26-4.34-17.24-8.82-28-24.22-37.36-2.78-1.71-5.38-3.61-8.01-5.54-2.12-1.56-4.27-3.08-6.46-4.56q-1.78-1.28-3.79-3.06c-7.86-6.47-15.73-6.6-25.49-7.1-2.34-.15-4.68-.31-7.01-.47-1.44-.1-2.89-.18-4.33-.26q-4.94-.29-7.15-1.39c8.61,18.04,17.15,35.47,29.16,51.53,10.85,14.59,19.77,27.39,22.84,45.47,.42,2.23,.85,4.46,1.28,6.69,.89,4.68,1.75,9.36,2.59,14.05q2.01,11.77,5.13,23.26c.1,2.91,.14,5.78,.12,8.69,0,.87,0,1.73,0,2.63-.05,7.23-.27,14.46-.55,21.69-.04,1.03-.08,2.06-.12,3.13q-.06,1.45-.13,2.93c-.04,.86-.07,1.71-.11,2.6q-.21,2.34-.71,4.25c-.83,3.49-.72,7.05-.77,10.62-.02,.87-.03,1.74-.05,2.63-.06,2.92-.11,5.83-.16,8.75-.04,2.09-.08,4.18-.12,6.27-.11,5.68-.21,11.35-.31,17.03-.11,5.93-.22,11.86-.33,17.79-.21,11.23-.41,22.47-.62,33.7-.23,12.79-.47,25.58-.7,38.36-.49,26.31-.97,52.62-1.44,78.93h-3c-.26-.9-.52-1.81-.79-2.74-5.68-19.58-12.23-38.01-21.29-56.31-2.55-5.15-5.01-10.34-7.46-15.54-.38-.81-.76-1.63-1.16-2.47-.77-1.64-1.54-3.27-2.3-4.91-1.79-3.81-3.59-7.63-5.39-11.43-.31-.65-.61-1.3-.93-1.97q-4.45-9.53-9.84-18.54-.9-1.34-1.82-2.7c-.65-.95-1.3-1.91-1.97-2.89-1.44-2.14-2.88-4.28-4.31-6.41q-.57-.85-1.15-1.71c-4.73-7.05-9.39-14.15-14.04-21.25-.9-1.37-1.8-2.75-2.7-4.12-4.83-7.37-9.65-14.75-14.47-22.13-2.06-3.15-4.12-6.3-6.19-9.45-2.58-3.93-5.14-7.88-7.68-11.83-1.57-2.45-3.16-4.88-4.75-7.32-1.1-1.7-2.19-3.4-3.27-5.11-6.87-10.49-15.8-17.86-25.48-25.67-4.27-3.52-8.42-7.16-12.58-10.81-4.19-3.65-8.47-7.09-13-10.31-.48-.45-.95-.9-1.44-1.37v-3c5.37,.36,9.66,1.21,14.69,3.12,9.5,3.15,19.49,1.72,29.31,.88v-2q1.55-1.26,3.75-2.69,1.23-.81,2.49-1.64,2.76-1.67,5.68-3.05c9.56-4.71,15.61-11.59,19.08-21.61,2.12-10.29,2.36-20.91,2.83-31.38,.19-4.1,.44-8.2,.68-12.31,.44-7.75,.84-15.51,1.22-23.26,.43-8.8,.92-17.59,1.42-26.39,.72-12.99,1.43-25.98,2.08-38.97,.07-1.4,.14-2.79,.21-4.19,.21-4.17,.4-8.34,.56-12.51,.04-1,.08-2,.12-3.03,.02-.9,.04-1.79,.06-2.72,.02-.77,.04-1.53,.06-2.32q-.1-2.26-2.53-4.51-1.59-.89-3.22-1.79c-.57-.32-1.14-.64-1.73-.97-6.82-3.6-14.26-5.19-21.77-6.65q-.33,1.59-.66,3.21c-.15,.72-.3,1.43-.45,2.17-.35,1.67-.69,3.33-1.02,5-1.02,4.95-2.16,9.83-3.53,14.7-3.53,13.13-4.73,24.89-3.77,38.36,.05,.73,.1,1.46,.16,2.21,.5,6.84,1.15,13.64,2.12,20.43q1.58,12.37-2.25,17.96c-2.67,3.32-5.64,6.25-8.74,9.16-3.05,2.97-5.74,6.23-8.47,9.48-.97,1.13-1.94,2.26-2.91,3.39-1.9,2.26-3.73,4.53-5.46,6.93-6.14-.49-10.75-2.51-16.21-5.25q-1.28-.63-2.59-1.27c-2.71-1.34-5.42-2.69-8.13-4.03-1.85-.91-3.69-1.82-5.54-2.73-4.51-2.22-9.02-4.46-13.52-6.71v-3c1.58-.51,3.17-1.01,4.75-1.5,.88-.28,1.76-.56,2.67-.84q2.58-.66,6.58-.66v-3c3.3-1.32,6.6-2.64,10-4-6.32-1.08-12.6-1.29-19-1.5-2.1-.07-4.21-.14-6.31-.22q-1.39-.05-2.8-.09t-2.89-.19c-1.15,0-2.3-.02-3.49-.03-5.14-1.43-6.64-4.46-9.37-8.84-.52-.79-1.04-1.58-1.57-2.4-1.65-2.52-3.26-5.07-4.88-7.61-1.11-1.71-2.21-3.41-3.32-5.11-2.44-3.75-4.86-7.52-7.26-11.29-1.02-1.58-2.06-3.15-3.1-4.72v-3c8.23,.48,16.29,1.6,24.41,2.98q1.17,.2,2.37,.4c.69,.12,1.39,.24,2.1,.36,2.39,.29,4.72,.3,7.12,.26-.76-.41-1.53-.81-2.32-1.23-2.92-1.56-5.85-3.12-8.77-4.68-1.25-.67-2.5-1.33-3.75-2-.6-.32-1.19-.64-1.81-.96q-.9-.48-1.83-.97c-1.24-.67-2.48-1.35-3.71-2.04-3.31-1.84-6.57-3.45-10.1-4.82-5.29-2.22-10.11-4.37-12.98-9.57-2.64-6.64-3.92-13.6-5.24-20.6-.45-2.1-.91-4.2-1.37-6.3q-3.13-14.46-3.13-18.82c3.71,.58,6.42,1.59,9.64,3.5,.84,.49,1.68,.99,2.55,1.49,.86,.52,1.73,1.03,2.62,1.56,.88,.52,1.77,1.04,2.68,1.58,2.17,1.28,4.34,2.57,6.51,3.86-1.7-3.53-3.74-6.45-6.12-9.56-1.63-2.14-3.26-4.28-4.88-6.44-.58-.77-1.16-1.54-1.76-2.33-16.92-22.85-22.48-41.51-23.52-69.39-.16-3.95-.4-7.89-.63-11.84-.64-11.47-1.24-22.95-1.09-34.44q1.89,.34,4,1,1.77,2.57,3.53,5.98c.32,.6,.64,1.21,.96,1.83,1.01,1.93,2.01,3.88,3.01,5.82,1,1.92,2,3.84,3.01,5.76,.91,1.75,1.82,3.51,2.73,5.27,1.85,3.5,3.79,6.92,5.77,10.35,1.02-3.05,1.01-4.02,.47-7.06-.14-.82-.28-1.65-.43-2.5-.16-.9-.33-1.8-.49-2.73q-.25-1.43-.5-2.88c-.36-2.07-.73-4.14-1.09-6.21-.58-3.28-1.16-6.56-1.73-9.84-1.42-8.15-2.86-16.3-4.29-24.45-1.21-6.88-2.42-13.75-3.61-20.63-.56-3.22-1.14-6.44-1.71-9.67-.35-1.99-.69-3.98-1.04-5.97q-.24-1.33-.49-2.69c-1.34-7.81-1.94-14.92,.59-22.55,.37-1.13,.73-2.26,1.11-3.42,.4-1.19,.81-2.39,1.22-3.62,.42-1.27,.83-2.54,1.25-3.81,1.09-3.34,2.2-6.67,3.31-10,1.98-5.93,3.93-11.87,5.88-17.81,.41-1.25,.82-2.5,1.25-3.79,2.83-8.71,5.35-17.41,7.3-26.36,1.32,.33,2.64,.66,4,1,5.61,22.11,11.22,44.22,17,67,0-5.68-.24-10.33-1.38-15.76-.15-.73-.29-1.46-.44-2.21-.32-1.57-.64-3.14-.96-4.71-.51-2.49-1.01-4.98-1.51-7.47-1.06-5.29-2.13-10.57-3.21-15.85-1.25-6.13-2.49-12.26-3.72-18.39-.49-2.44-.99-4.88-1.5-7.32-.3-1.51-.61-3.02-.91-4.53q-.21-1-.43-2.03c-1.22-6.17-1.95-12.37,.55-18.3,.33-.8,.66-1.6,1.01-2.43,.37-.84,.74-1.68,1.12-2.54,.39-.89,.77-1.78,1.17-2.7,.82-1.88,1.66-3.76,2.49-5.64,1.25-2.82,2.44-5.67,3.63-8.52,5.51-12.69,11.63-19.98,23.07-27.59,11.6-7.86,17.55-15.65,23.62-28.25,.77-1.53,1.54-3.06,2.31-4.59,1.73-3.43,3.43-6.88,5.11-10.33,.95-1.82,2.01-3.53,3.1-5.27,2.29-3.96,2.82-7.85,3.34-12.34,.11-.81,.21-1.62,.32-2.46,.33-2.57,.64-5.13,.95-7.7,.22-1.75,.44-3.5,.67-5.25,.54-4.27,1.07-8.54,1.58-12.81Z"/>
  <path class="cls-12" d="M303.02,204c.21,1.19,.42,2.38,.64,3.61,1.54,6.87,4.34,13.23,7.18,19.64,.28,.65,.57,1.29,.86,1.96,4.78,10.72,10.27,18.32,19.33,25.79,1.16,1.26,2.29,2.55,3.38,3.88,4.09,4.83,8.66,9.18,13.15,13.63,3.76,3.74,7.37,7.52,10.77,11.59q1.76,2.02,4.11,4.12c8.49,7.88,14.3,16.97,20.36,26.78,1.05,1.69,2.14,3.35,3.25,5,3.37-1.45,5.48-3.29,8-5.94q5.25-5.48,8-7.06c3.71-.04,4.92,.92,7.68,3.43q1.31,1.49,2.64,3c.45,.5,.91,1.01,1.38,1.53q3.31,3.75,3.31,6.04,18.02,.7,35.49-3.12,2.51-.88,5.51-.88,.37-.85,.75-1.71c1.47-2.68,3.23-4.62,5.32-6.85,3.27-3.56,6.4-7.18,9.44-10.94,2.91-3.59,5.89-7.08,9-10.5,3.2-3.52,6.32-7.1,9.38-10.75,.72-.86,1.44-1.72,2.18-2.61,2.03-2.76,3.5-5.54,4.95-8.64h1c-.36,5.97-1.81,8.54-6,12.75-1.01,1.04-2.02,2.09-3.02,3.13-.5,.52-1.01,1.04-1.53,1.58-2.15,2.29-4.11,4.72-6.08,7.17-3.56,4.42-7.28,8.63-11.11,12.82-3.18,3.59-6.16,7.34-9.12,11.11-6.76,7.73-15.13,9.79-25.01,10.71q-18.84,1.12-25.08-3.95c-3.36-3.36-5.93-7.07-8.05-11.32-3.31,1.43-5.35,3.19-7.81,5.81-3.49,3.59-7.03,6.42-11.19,9.19-3.96-5.29-7.78-10.58-11.22-16.22-4.09-6.67-8.57-11.96-14.23-17.34-2.1-2.01-3.99-4.02-5.86-6.25-3.36-3.94-7.01-7.55-10.69-11.19-4.23-4.19-8.35-8.36-12.13-12.97q-1.92-2.18-4.65-4.27c-9.06-7.54-13.62-16.67-18.47-27.19-.33-.72-.66-1.43-1.01-2.17-.95-2.08-1.89-4.17-2.82-6.26-.28-.63-.56-1.26-.85-1.9-1.61-3.73-2.57-7.2-3.07-11.23h-1c-.21,1.02-.42,2.05-.63,3.11-1.69,6.68-4.49,12.95-7.31,19.21-.3,.66-.6,1.32-.9,2.01-5.81,12.66-13.53,21.59-24.05,30.75-2.71,2.48-5.05,5.2-7.43,8-2.73,3.14-5.71,6.02-8.68,8.93-4.31,4.27-8.54,8.54-12.45,13.19-1.07,1.25-2.18,2.45-3.32,3.62-5.68,5.93-9.85,12.64-14.11,19.62-.49,.8-.98,1.6-1.49,2.43-.44,.72-.87,1.45-1.32,2.19-1.28,1.89-2.64,3.39-4.32,4.94q-.7-.67-1.42-1.36c-2.13-2.03-4.26-4.05-6.39-6.08-.74-.71-1.48-1.41-2.24-2.14-.71-.67-1.42-1.35-2.16-2.04-.65-.62-1.31-1.25-1.98-1.89q-1.85-1.7-4.81-2.49c-.61,.76-1.23,1.52-1.86,2.3-.81,.99-1.62,1.99-2.45,3.01-.8,.99-1.6,1.97-2.43,2.99-.75,.89-1.49,1.78-2.26,2.7-.43,.54-.87,1.07-1.32,1.63-5.77,4.71-19.58,2.68-26.68,2.37-9.8-1.01-16.92-4.66-23.27-12.21-1.26-1.58-2.5-3.19-3.73-4.79-1.54-1.88-3.08-3.75-4.62-5.62-.72-.9-1.45-1.8-2.2-2.73-2.16-2.62-4.39-5.14-6.68-7.65-4.71-5.17-9.12-10.55-13.5-16-.74-.87-1.48-1.75-2.25-2.65-2.03-2.72-2.13-4.04-1.75-7.35,.66,.99,1.32,1.98,2,3,5.56,7.3,11.59,14.2,17.62,21.11,3.78,4.34,7.52,8.71,11.26,13.08,3.28,3.84,6.61,7.62,10.02,11.35q1.11,1.45,1.11,3.45,.96,.18,1.94,.37c.86,.17,1.73,.34,2.62,.51,.85,.16,1.69,.32,2.57,.49q2.87,.63,5.93,1.7c5.33,1.56,10.87,1.15,16.38,1.06q1.67-.01,3.37-.03c2.73-.02,5.46-.06,8.19-.1,.29-.61,.58-1.21,.88-1.84,1.47-2.84,3.35-5.06,5.44-7.48,.76-.9,1.52-1.81,2.3-2.74q2.39-1.95,4.87-2.01c3.13,1.32,5.07,3.03,7.52,5.38,3.23,3.06,6.49,5.95,10,8.69,.96-1.35,1.92-2.71,2.88-4.06,.65-.92,1.3-1.83,1.96-2.78,1.49-2.18,2.91-4.35,4.29-6.6,5.66-9.12,12.29-16.4,20.04-23.8,3.23-3.1,6.16-6.37,9.08-9.77,2.93-3.32,6.09-6.39,9.25-9.48,4.48-4.43,8.89-8.84,12.91-13.7q1.59-1.8,3.16-3.12c6.04-5.16,8.8-12,11.89-19.12,.92-2.13,1.87-4.24,2.82-6.35,.6-1.36,1.21-2.72,1.81-4.08q.42-.94,.85-1.89c1.25-2.9,2.11-5.49,2.63-8.61,.15-.86,.29-1.73,.44-2.62q2-1,5-1Z"/>
  <path class="cls-14" d="M489.02,8h1c.03,.71,.06,1.42,.1,2.15,1.27,21.57,7.89,37.19,18.9,55.51,1.25,2.08,2.47,4.17,3.65,6.29,2.99,5.31,5.89,8.96,10.85,12.49,.6,.46,1.2,.92,1.83,1.4,3.02,2.3,6.09,4.45,9.31,6.46,11.25,7.37,15.23,17.51,20.13,29.71,1.15,2.79,2.39,5.51,3.69,8.23,.38,.8,.76,1.6,1.15,2.42,.69,1.46,1.4,2.92,2.11,4.37,2.34,5.08,2.67,9.41,2.28,14.97h-1c-.08-.57-.16-1.15-.24-1.74-1.26-7.66-4.16-14.12-7.51-21.08-1.04-2.19-2.07-4.39-3.11-6.58-.52-1.08-1.04-2.17-1.58-3.28-1.05-2.25-2.06-4.52-3.02-6.81-3.02-7.11-5.81-11.71-12.1-16.2-.7-.54-1.4-1.09-2.12-1.65-3.19-2.46-6.42-4.77-9.83-6.9-10.64-7.05-14.7-16.65-20.06-27.92-1.31-2.62-2.74-5.09-4.3-7.57-8.74-13.96-10.36-28-10.13-44.28Z"/>
  <path class="cls-13" d="M107.02,32h1c.28,5.16-.24,8.3-2.75,12.81-.59,1.07-1.17,2.14-1.77,3.24-.63,1.12-1.27,2.24-1.92,3.39-.65,1.17-1.3,2.34-1.95,3.5-1.28,2.31-2.58,4.61-3.87,6.91-1.46,2.65-2.85,5.31-4.18,8.02-4.23,8.48-8.89,13.87-16.63,19.36q-.97,.69-1.95,1.39c-1.26,.88-2.53,1.74-3.82,2.59-12.58,8.28-17.56,17.91-23.03,31.66-.79,1.87-1.58,3.74-2.37,5.61q-4.36,9.97-6.75,20.52h-1c-.45-6.74,.93-11.4,3.63-17.55,.39-.89,.77-1.78,1.17-2.7,.82-1.88,1.66-3.76,2.49-5.64,1.25-2.82,2.44-5.67,3.63-8.52,5.51-12.69,11.63-19.98,23.07-27.59,11.6-7.86,17.55-15.65,23.62-28.25,.77-1.53,1.54-3.06,2.31-4.59,1.41-2.8,2.81-5.61,4.18-8.42,1.27-2.57,2.63-5.06,4.08-7.54,1.63-2.89,2.41-4.94,2.81-8.2Z"/>
  <path class="cls-6" d="M425.02,608h1c-.06,.89-.11,1.77-.17,2.68-.06,11.68,3.92,20.91,12.17,29.32,3.87,3.02,8.07,5.25,12.5,7.34,2.86,1.36,5.18,2.54,7.5,4.66v2c12.69,1.24,23.49,1.5,35.57-2.87,3.1-1.02,5.22-1.38,8.43-1.13-5.72,5.72-17.32,7.76-25.12,8.16-3.13-.04-6.21-.21-9.32-.47-.98-.08-1.95-.15-2.96-.23-6-.69-8.52-1.83-12.6-6.46q-1.7-1-3.6-1.82c-11.01-5.02-17.59-11.68-22.58-22.8-2.08-6.03-1.66-12.15-.82-18.38Z"/>
  <path class="cls-5" d="M175.02,607h1c1.53,12.19-.37,20.88-7.51,31.01-4.77,5.94-10.89,8.96-17.71,12.03q-2.1,1.04-4.63,3.58c-4.31,3.25-7.99,3.62-13.28,4.06-.96,.09-1.91,.17-2.9,.26-10.03,.59-19.88-1.65-28.98-5.95-.66-.66-1.32-1.32-2-2,5.37,.36,9.66,1.21,14.69,3.12,9.5,3.15,19.49,1.72,29.31,.88v-2q1.55-1.26,3.75-2.69c.82-.54,1.64-1.09,2.49-1.64q2.76-1.67,5.68-3.05c9.4-4.64,15.39-11.83,19.08-21.61,1.2-5.31,1.24-10.59,1-16Z"/>
  <path class="cls-12" d="M390.02,510l1,2c-.95,2.36-1.97,4.59-3.09,6.86-.34,.69-.68,1.38-1.02,2.1-1.12,2.27-2.25,4.53-3.38,6.79-.39,.77-.77,1.54-1.17,2.34-6.75,13.44-14.48,25.75-23.33,37.91-8.62,11.91-15.72,22.41-18.59,36.99-.68,3.37-1.56,6.68-2.41,10.01h-1c.31-3,.64-6,1-9,.08-.68,.16-1.37,.25-2.07,2.48-17.59,13.65-30.95,23.75-44.93,10.3-14.35,18.06-29.54,25.7-45.42q1.3-2.58,2.3-3.58Z"/>
  <path class="cls-6" d="M210.02,510c3.04,2.6,4.39,5.56,6.08,9.15,.6,1.25,1.2,2.51,1.8,3.76,.31,.66,.63,1.31,.95,1.99,6.11,12.71,12.9,24.21,21.3,35.56,13.19,17.88,21.62,32.37,23.87,54.53-1.48-2.73-2.36-5.15-2.94-8.2-2.57-12.43-6.69-21.54-14.06-31.8-.99-1.4-1.98-2.8-2.96-4.21-1.52-2.16-3.05-4.31-4.58-6.47-8.67-12.22-15.88-24.81-22.58-38.2-.34-.68-.68-1.36-1.04-2.07-.98-1.95-1.94-3.91-2.91-5.86q-.85-1.72-1.71-3.47-1.22-2.73-1.22-4.73Z"/>
  <path class="cls-1" d="M567.02,167c1.51,3.02,.41,5.02-.42,8.27q-.24,.96-.49,1.95c-.54,2.13-1.09,4.26-1.64,6.39-.38,1.48-.76,2.96-1.13,4.45-1,3.91-2,7.82-3.01,11.73-.82,3.18-1.63,6.36-2.44,9.53-1.68,6.59-3.37,13.18-5.06,19.77q-.45,1.75-.91,3.54c-.92,3.47-1.89,6.92-2.89,10.37-.66-.33-1.32-.66-2-1v-14h1c.33,2.31,.66,4.62,1,7,.21-.84,.42-1.67,.64-2.54,1.98-7.87,3.97-15.75,5.96-23.62,1.02-4.05,2.04-8.1,3.06-12.14,.98-3.9,1.97-7.81,2.96-11.71,.38-1.49,.75-2.98,1.13-4.48,.52-2.08,1.05-4.17,1.58-6.25q.45-1.78,.91-3.6,.77-2.66,1.77-3.66Z"/>
  <path class="cls-8" d="M33.02,507c8.84,.64,17.6,1.65,26.38,2.88,1.23,.16,2.46,.32,3.73,.49,1.19,.17,2.38,.33,3.61,.5,1.07,.15,2.13,.29,3.23,.44,3.36,.76,6.05,2.04,9.06,3.69-3.96,1.32-7.17,.49-11.18-.21-.8-.13-1.61-.27-2.43-.41-2.57-.43-5.14-.87-7.7-1.31-2.56-.44-5.11-.87-7.67-1.3-1.59-.27-3.18-.54-4.77-.82-4.13-.7-8.03-1.08-12.24-.94v-3Z"/>
  <path class="cls-4" d="M567.02,507c-.33,.99-.66,1.98-1,3-.72,.05-1.43,.1-2.17,.15-7.65,.57-15.14,1.62-22.7,2.92-2.16,.37-4.33,.74-6.49,1.1-.94,.16-1.88,.32-2.85,.49-2.96,.37-5.81,.41-8.79,.35,3.49-3.23,7.06-3.78,11.62-4.39,.73-.11,1.47-.21,2.23-.32,1.55-.22,3.1-.44,4.65-.65,2.36-.32,4.72-.66,7.08-1.01,1.51-.22,3.02-.43,4.54-.64q1.05-.15,2.12-.3c3.95-.54,7.78-.78,11.76-.69Z"/>
  <path class="cls-5" d="M586.02,439c-.33,.99-.66,1.98-1,3-1.98,.72-3.99,1.38-6,2-1.88,1.04-3.73,2.14-5.55,3.29-1.01,.63-2.02,1.26-3.06,1.91-2.11,1.33-4.22,2.67-6.34,4.01-1,.63-2.01,1.25-3.04,1.9-.91,.58-1.83,1.16-2.77,1.75-.74,.38-1.48,.75-2.24,1.14l-2-1c3.12-3.46,6.57-5.67,10.62-7.88,1.25-.69,2.5-1.39,3.75-2.09,.61-.34,1.23-.68,1.86-1.03,3.3-1.88,6.49-3.93,9.68-5.97q2.09-1.03,6.09-1.03Z"/>
  <path class="cls-6" d="M14.02,439c3.85,.58,6.63,1.72,9.98,3.69,.92,.53,1.84,1.07,2.78,1.62,.95,.56,1.89,1.12,2.87,1.7,1.89,1.11,3.77,2.21,5.66,3.31,.83,.49,1.66,.98,2.52,1.49q2.26,1.32,5.19,2.2,1.69,2.56,3,5c-3.93-1.44-7.33-3.31-10.89-5.51-1.1-.67-2.21-1.35-3.34-2.04-1.74-1.07-3.48-2.14-5.21-3.22-1.69-1.04-3.38-2.08-5.07-3.11-1.01-.62-2.01-1.24-3.05-1.88-.81-.41-1.61-.81-2.44-1.23q-.99,.49-2,1v-3Z"/>
  <path class="cls-10" d="M104.02,551c-2.9,2.35-5.65,3.84-9.12,5.19q-1.3,.52-2.63,1.04-2.24,.77-4.24,.77l1,3q-.98,.18-1.98,.37c-4.81,.92-9.41,1.93-14.02,3.63v-3c1.58-.51,3.17-1.01,4.75-1.5,.88-.28,1.76-.56,2.67-.84q2.58-.66,6.58-.66v-3c1.89-.84,3.79-1.68,5.69-2.5,1.06-.46,2.11-.93,3.2-1.41,2.97-1.04,5.01-1.32,8.11-1.09Z"/>
  <path class="cls-9" d="M73.02,87v3c-2.04,1.96-4.06,3.73-6.25,5.5-.59,.49-1.17,.97-1.78,1.47-2.93,2.42-5.9,4.78-8.97,7.03l-2-1c3.83-4.01,7.93-7.43,12.31-10.81,.65-.5,1.29-1,1.96-1.52,1.58-1.23,3.15-2.45,4.73-3.67Z"/>
  <path class="cls-2" d="M496.02,551c6.18,.54,11.33,2.55,17,5-.33,.99-.66,1.98-1,3-5.28-2.31-10.56-4.62-16-7v-1Z"/>
  <path class="cls-1" d="M513.02,559c4.97,.41,9.45,.8,14,3-.33,.99-.66,1.98-1,3-.59-.2-1.18-.41-1.79-.62-4.04-1.38-7.98-2.7-12.21-3.38l1-2Z"/>
  <path class="cls-2" d="M87.02,559v2c-4.62,1.32-9.24,2.64-14,4v-3c1.58-.51,3.17-1.01,4.75-1.5q1.32-.42,2.67-.84,2.58-.66,6.58-.66Z"/>
  <path class="cls-15" d="M586.02,439c-.33,.99-.66,1.98-1,3-1.98,.72-3.99,1.38-6,2-.91,.56-1.81,1.11-2.75,1.69-.74,.43-1.48,.87-2.25,1.31l-2-1c1.57-1.18,3.16-2.34,4.75-3.5,.88-.65,1.76-1.3,2.67-1.97q2.58-1.53,6.58-1.53Z"/>
  <path class="cls-4" d="M191.02,311c0,4.34-2.09,6.17-4.91,9.32-2.38,1.91-3.52,2.2-6.53,2.18-1.18-.16-2.35-.33-3.56-.5v-1h7c.21-.54,.41-1.07,.62-1.62,1.95-3.38,4.56-5.68,7.38-8.38Z"/>
  <path class="cls-18" d="M366.02,554l1,2q-1.43,2.6-3.44,5.62c-.66,1-1.32,2.01-2,3.04-.52,.77-1.03,1.54-1.57,2.34-.66-.66-1.32-1.32-2-2,2.64-3.63,5.28-7.26,8-11Z"/>
  <path class="cls-17" d="M528.07,511.71c1.99,.1,3.97,.2,5.96,.29,.33,.66,.66,1.32,1,2q-5.94,.49-12,1,3-3,5.04-3.29Z"/>
  <path class="cls-11" d="M547.02,228h1v11h2c-.66,1.32-1.32,2.64-2,4q-1-1-1.1-4.16,.02-1.93,.04-3.9c0-1.29,.02-2.58,.03-3.91,.01-1,.02-2,.04-3.03Z"/>
  <path class="cls-8" d="M562.02,452q-1,3-3.44,4.75-1.27,.62-2.56,1.25c-.66-.33-1.32-.66-2-1q4.84-5,8-5Z"/>
  <path class="cls-16" d="M378.02,311c3.75,1.25,4.24,2.57,6,6v2h-2q-4-5.41-4-8Z"/>
  <path class="cls-10" d="M153.02,320c2.31,.66,4.62,1.32,7,2v2q-4.45-.99-9-2l2-2Z"/>
  <ellipse class="cls-3" cx="300.02" cy="392.51" rx="79.25" ry="81.51"/>
  <ellipse cx="300.02" cy="392.51" rx="44.8" ry="46.08"/>
</svg>