<?xml version="1.0" encoding="UTF-8"?>
<svg version="1.1" xmlns="http://www.w3.org/2000/svg" width="664" height="816">
<path d="M0 0 C0.8559375 0.00386719 1.711875 0.00773438 2.59375 0.01171875 C6.36517437 0.4020409 9.83788407 1.33045823 13.5 2.3125 C13.93611936 6.61260597 14.36286019 10.91352054 14.78173828 15.21533203 C14.92480792 16.67195378 15.07023163 18.12834666 15.21826172 19.58447266 C17.91296724 46.14656995 17.91296724 46.14656995 14.94140625 50.70166016 C13.2285475 52.4579126 11.47822525 53.86801432 9.5 55.3125 C7.33687266 57.01663418 6.60807295 57.85298982 5.97265625 60.5546875 C6.76977569 64.72332694 9.23458072 67.25562476 11.9375 70.4375 C12.96063267 71.66628106 13.98031555 72.89794489 14.99609375 74.1328125 C15.45169678 74.67180176 15.9072998 75.21079102 16.37670898 75.76611328 C18.84648681 79.16615083 18.60589454 82.46430812 18.5625 86.5 C18.55347656 87.58667969 18.54445313 88.67335938 18.53515625 89.79296875 C18.52355469 90.62441406 18.51195312 91.45585938 18.5 92.3125 C22.85799466 92.17309962 27.21253856 91.99645879 31.56762695 91.78759766 C33.04410883 91.72176214 34.52105406 91.66549866 35.99829102 91.61962891 C45.88668122 91.30443437 53.08497989 89.84308586 61.5 84.3125 C63.67451231 83.04446871 65.85455094 81.78588259 68.0390625 80.53515625 C70.4042827 79.15394813 72.76431154 77.76393616 75.125 76.375 C76.40689871 75.62239186 77.6887998 74.86978777 78.97070312 74.1171875 C88.01249377 68.80289984 97.01256017 63.42116727 105.99511719 58.00732422 C115.68119395 52.17920841 125.4335162 46.46621064 135.19726562 40.76953125 C136.0953746 40.24496086 136.0953746 40.24496086 137.0116272 39.70979309 C138.63860688 38.75970547 140.26630083 37.8108413 141.89404297 36.86206055 C143.79508939 35.73165567 145.65972129 34.53935247 147.5 33.3125 C149.99267578 32.71826172 149.99267578 32.71826172 152.9453125 32.2421875 C154.02296875 32.06816406 155.100625 31.89414062 156.2109375 31.71484375 C157.33757812 31.54082031 158.46421875 31.36679687 159.625 31.1875 C160.7284375 31.00574219 161.831875 30.82398437 162.96875 30.63671875 C169.21141952 29.65064387 175.17952142 28.91181526 181.5 29.3125 C182.16 29.9725 182.82 30.6325 183.5 31.3125 C185.78601838 32.14563969 188.05390899 32.90471083 190.375 33.625 C195.13498357 35.15293093 199.77836328 36.77089252 204.375 38.75 C209.18758624 40.81902293 214.05268062 42.60113913 219 44.3125 C223.90167729 46.00940015 228.72928914 47.76790963 233.5 49.8125 C250.22835582 56.94901393 267.7714901 61.84591743 285.234375 66.80859375 C289.83077701 68.1172223 294.41750909 69.45606949 299 70.8125 C308.8132345 73.71579558 318.65658662 76.51355563 328.5 79.3125 C328.5 80.3025 328.5 81.2925 328.5 82.3125 C326.97119141 83.75463867 326.97119141 83.75463867 324.8515625 85.23046875 C324.09359375 85.76220703 323.335625 86.29394531 322.5546875 86.84179688 C321.75289062 87.38900391 320.95109375 87.93621094 320.125 88.5 C319.3309375 89.05880859 318.536875 89.61761719 317.71875 90.19335938 C311.78396864 94.3125 311.78396864 94.3125 309.5 94.3125 C309.17 95.3025 308.84 96.2925 308.5 97.3125 C306.98193359 98.80493164 306.98193359 98.80493164 305.0234375 100.41015625 C299.21753384 105.33390453 293.99181619 110.80749986 288.68359375 116.25585938 C287.91402344 117.03638672 287.14445313 117.81691406 286.3515625 118.62109375 C285.65885254 119.33064209 284.96614258 120.04019043 284.25244141 120.77124023 C282.5 122.3125 282.5 122.3125 280.5 122.3125 C280.5 122.9725 280.5 123.6325 280.5 124.3125 C278.85648543 125.67426922 277.18477344 127.00212066 275.5 128.3125 C273.81257224 129.96172185 272.15249915 131.62864791 270.5 133.3125 C267.27599915 136.58847135 264.04549019 139.8579014 260.8125 143.125 C259.94560547 144.00865234 259.07871094 144.89230469 258.18554688 145.80273438 C257.35732422 146.63740234 256.52910156 147.47207031 255.67578125 148.33203125 C254.92208252 149.09620361 254.16838379 149.86037598 253.3918457 150.64770508 C251.5 152.3125 251.5 152.3125 249.5 152.3125 C249.5 152.9725 249.5 153.6325 249.5 154.3125 C248.84 154.3125 248.18 154.3125 247.5 154.3125 C247.17 155.3025 246.84 156.2925 246.5 157.3125 C242.23135991 159.87898821 237.79699691 161.19626779 232.99609375 162.36328125 C232.27752701 162.54457077 231.55896027 162.72586029 230.81861877 162.91264343 C228.52650254 163.49001347 226.23224239 164.05816637 223.9375 164.625 C202.96475566 169.84119783 182.55012545 175.7529175 162.3125 183.375 C160.30791203 184.1231308 158.30310728 184.87068099 156.2980957 185.61767578 C142.51684474 190.76179013 128.76316949 195.9812468 115.04418945 201.28930664 C95.77940514 208.73688724 95.77940514 208.73688724 89.5625 208.5625 C88.64597656 208.54703125 87.72945313 208.5315625 86.78515625 208.515625 C85.70105469 208.44859375 84.61695313 208.3815625 83.5 208.3125 C82.76475098 208.30355713 82.02950195 208.29461426 81.27197266 208.28540039 C73.85570472 207.95746024 68.92479935 205.18264532 62.75 201.25 C60.80617029 200.06090246 58.86216013 198.87209985 56.91796875 197.68359375 C55.11142234 196.56079125 53.30538382 195.4371709 51.5 194.3125 C42.10495159 188.50923265 33.05843139 184.38834556 22.5 181.3125 C22.52094727 181.98265137 22.54189453 182.65280273 22.56347656 183.34326172 C23.04375602 201.39021825 21.69008092 218.61004878 19.36619568 236.46405029 C18.31241723 244.61945184 17.43138438 252.79212165 16.5723877 260.97003174 C16.32122872 263.35462634 16.06467991 265.73859436 15.80761719 268.12255859 C14.77473425 277.84197788 14.02690421 287.55274036 13.5 297.3125 C28.82481776 296.10393882 43.27414593 294.71792119 57.63818359 289.04248047 C60.50019779 287.92034272 63.40222105 286.92636141 66.3125 285.9375 C67.20582031 285.62039063 68.09914063 285.30328125 69.01953125 284.9765625 C71.61857242 284.2807562 73.8220872 284.18749868 76.5 284.3125 C76.95528057 289.59700664 75.44912661 293.14105501 73 297.6875 C72.27046775 299.09095586 71.54131295 300.49460798 70.8125 301.8984375 C70.43351562 302.61870117 70.05453125 303.33896484 69.6640625 304.08105469 C67.724508 307.79907652 65.86618156 311.5572753 64 315.3125 C63.32329057 316.66685355 62.64624225 318.02103787 61.96875 319.375 C61.4840625 320.344375 60.999375 321.31375 60.5 322.3125 C54.79487952 321.33207831 54.79487952 321.33207831 52.5 318.3125 C52.5 317.6525 52.5 316.9925 52.5 316.3125 C51.84 316.3125 51.18 316.3125 50.5 316.3125 C45.73255814 312.01017442 45.73255814 312.01017442 44.5 308.3125 C41.87440156 308.6205144 39.24960194 308.93370182 36.625 309.25 C35.87863281 309.33701172 35.13226563 309.42402344 34.36328125 309.51367188 C30.3046769 309.94576063 30.3046769 309.94576063 26.5 311.3125 C26.00754512 330.31394596 26.00754512 330.31394596 32.1875 346.75 C32.950625 347.595625 33.71375 348.44125 34.5 349.3125 C34.32115291 351.18195986 34.12333392 353.0515214 33.83102036 354.90662766 C33.19082799 359.55957751 33.19473203 364.26158803 33.06689453 368.95166016 C33.03249362 370.09991555 32.99809271 371.24817095 32.96264935 372.43122196 C32.88836466 374.92644147 32.81582161 377.4217133 32.74482155 379.91702843 C32.63085155 383.92044454 32.51239105 387.92371423 32.39250183 391.92695618 C32.22191459 397.63719576 32.05333524 403.34749097 31.88613892 409.05783081 C31.45330911 423.82408142 31.00539833 438.589874 30.55078125 453.35546875 C30.5284734 454.08088875 30.50616556 454.80630875 30.48318172 455.55371118 C29.66784685 482.03720661 28.69350166 508.50990344 27.45166016 534.97705078 C27.33871724 537.38964142 27.22591985 539.80223888 27.11328125 542.21484375 C27.03327881 543.92000153 27.03327881 543.92000153 26.95166016 545.65960693 C26.4632025 556.41807757 26.15001014 567.18047723 25.87654114 577.9462738 C25.65729334 586.19266653 25.30912757 594.42312537 24.87979317 602.66121769 C24.41209351 611.76023538 24.10875785 620.86268959 23.81640625 629.96875 C23.72602608 632.7325394 23.63511645 635.49631102 23.5441246 638.26008034 C23.48112467 640.17370817 23.41831315 642.08734221 23.35568619 644.00098228 C23.12688458 650.96219148 22.88347344 657.92280315 22.6340332 664.88330078 C22.49255254 668.85187217 22.35156772 672.82046089 22.2109375 676.7890625 C22.17648466 677.75886173 22.14203182 678.72866096 22.10653496 679.72784805 C21.73575474 690.24407187 21.41782689 700.75006908 21.3515625 711.2734375 C20.96383128 746.80475847 12.64748095 781.63658563 5.5 816.3125 C4.51 816.3125 3.52 816.3125 2.5 816.3125 C-7.03613281 768.63183594 -7.03613281 768.63183594 -7.68411255 765.33715916 C-8.24336702 762.53100955 -8.84671355 759.73789893 -9.47195053 756.94575024 C-12.12249725 744.85017432 -13.30931348 733.1006681 -13.80859375 720.74633789 C-13.89989666 718.77289289 -13.99256065 716.79951047 -14.0864563 714.82618713 C-14.33570753 709.50833522 -14.56617248 704.18982176 -14.79314041 698.87097859 C-15.03886667 693.19280258 -15.30258769 687.51545927 -15.56420898 681.83799744 C-16.06031874 671.01462636 -16.54093267 660.19062647 -17.01573467 649.36630195 C-17.54207357 637.38156813 -18.08419853 625.39756914 -18.62845945 613.41363776 C-19.32017719 598.18112797 -20.00913917 582.94850018 -20.68792725 567.71540833 C-21.65117361 546.10376142 -22.62181251 524.49260822 -23.64160156 502.88354492 C-23.68716218 501.91798207 -23.7327228 500.95241923 -23.77966404 499.9575969 C-24.20437384 490.96444526 -24.63157359 481.97141489 -25.06253552 472.97856069 C-29.58867642 378.47597687 -29.58867642 378.47597687 -29.50097656 363.56762695 C-29.50014487 360.79540342 -29.8225217 358.93772842 -30.5 356.3125 C-31.07375164 350.00123193 -31.07375164 350.00123193 -28.55078125 346.97265625 C-26.16120249 343.87303122 -25.81181375 342.04447252 -25.375 338.1875 C-25.230625 336.97578125 -25.08625 335.7640625 -24.9375 334.515625 C-24.79046508 333.11470893 -24.64473204 331.71365586 -24.5 330.3125 C-24.31301349 328.59890222 -24.12548832 326.88536316 -23.9375 325.171875 C-23.43737533 320.55408585 -22.96314907 315.93413648 -22.5 311.3125 C-24.37387477 310.9728981 -26.24916697 310.64111309 -28.125 310.3125 C-29.16914063 310.126875 -30.21328125 309.94125 -31.2890625 309.75 C-37.22636316 308.71235281 -37.22636316 308.71235281 -42.58203125 310.7734375 C-43.43861328 311.72089844 -43.43861328 311.72089844 -44.3125 312.6875 C-44.89644531 313.31398438 -45.48039062 313.94046875 -46.08203125 314.5859375 C-47.56999813 316.2674459 -47.56999813 316.2674459 -48.5 318.3125 C-49.16 318.3125 -49.82 318.3125 -50.5 318.3125 C-50.726875 318.951875 -50.95375 319.59125 -51.1875 320.25 C-52.5 322.3125 -52.5 322.3125 -55.08203125 322.94140625 C-55.87996094 323.06386719 -56.67789062 323.18632812 -57.5 323.3125 C-57.9846875 322.343125 -58.469375 321.37375 -58.96875 320.375 C-59.4491272 319.41460815 -59.4491272 319.41460815 -59.93920898 318.43481445 C-60.65304195 317.00665566 -61.36608117 315.5780999 -62.07836914 314.14916992 C-63.95980915 310.37762348 -65.85360451 306.61344996 -67.77734375 302.86328125 C-68.13957031 302.15236328 -68.50179688 301.44144531 -68.875 300.70898438 C-69.56933878 299.34711033 -70.2683664 297.98761398 -70.97265625 296.63085938 C-72.69980721 293.22921449 -74.11014806 290.13304898 -74.5 286.3125 C-74.17 285.9825 -73.84 285.6525 -73.5 285.3125 C-67.71128977 285.64827206 -62.85929052 287.13212573 -57.42749023 289.09375 C-41.88881489 294.66147499 -26.84482916 296.2499112 -10.5 297.3125 C-11.13126651 288.26532583 -12.00994017 279.26943568 -13.05859375 270.26171875 C-13.28241478 268.31529228 -13.28241478 268.31529228 -13.51075745 266.32954407 C-13.82445399 263.60241618 -14.13971718 260.87547609 -14.45629883 258.14868164 C-14.8562994 254.70324062 -15.25351996 251.25748686 -15.64968204 247.81160259 C-16.03497507 244.46152441 -16.42178742 241.11162256 -16.80859375 237.76171875 C-16.95740494 236.47101974 -17.10621613 235.18032074 -17.25953674 233.85050964 C-17.94519624 227.94092866 -18.65545949 222.03787573 -19.44927979 216.14187622 C-20.41411956 208.93528606 -20.77756924 201.89216583 -20.6875 194.625 C-20.68685547 193.59439453 -20.68621094 192.56378906 -20.68554688 191.50195312 C-20.65898018 186.94724121 -20.50274548 182.77109149 -19.5 178.3125 C-37.05305587 183.11544242 -52.01716598 189.80619245 -67.5 199.3125 C-82.2386001 208.31924125 -82.2386001 208.31924125 -90.5 208.3125 C-91.36367187 208.36180664 -92.22734375 208.41111328 -93.1171875 208.46191406 C-101.24944941 208.78973898 -107.37415281 207.05420791 -114.875 204.0625 C-116.78362729 203.33314738 -118.69230399 202.60392118 -120.60185242 201.87698364 C-122.82246695 201.02922548 -125.03979524 200.17317687 -127.25732422 199.31738281 C-137.07364932 195.54630963 -146.94874215 191.92935227 -156.81109619 188.28088379 C-160.37541647 186.96049855 -163.93768341 185.63470802 -167.49951172 184.30761719 C-172.92358332 182.28874355 -178.35345705 180.28652553 -183.79031372 178.30233765 C-185.4235936 177.70570699 -187.05583065 177.1061945 -188.68600464 176.50112915 C-196.75227938 173.51994344 -204.81093809 171.5129142 -213.19921875 169.68359375 C-257.42111202 159.92109008 -257.42111202 159.92109008 -270.23046875 141.05566406 C-271.39793285 139.17198111 -271.39793285 139.17198111 -273.5 138.3125 C-273.5 137.6525 -273.5 136.9925 -273.5 136.3125 C-274.49 135.9825 -275.48 135.6525 -276.5 135.3125 C-276.5 134.6525 -276.5 133.9925 -276.5 133.3125 C-277.49 132.9825 -278.48 132.6525 -279.5 132.3125 C-279.5 131.6525 -279.5 130.9925 -279.5 130.3125 C-280.36262451 129.93992065 -280.36262451 129.93992065 -281.24267578 129.55981445 C-283.83764635 128.12592903 -285.54690985 126.47590731 -287.6171875 124.35546875 C-288.38933594 123.57236328 -289.16148437 122.78925781 -289.95703125 121.98242188 C-290.75496094 121.16322266 -291.55289063 120.34402344 -292.375 119.5 C-298.48021951 113.16974048 -298.48021951 113.16974048 -305.0703125 107.36328125 C-305.87210937 106.68652344 -306.67390625 106.00976562 -307.5 105.3125 C-307.5 104.6525 -307.5 103.9925 -307.5 103.3125 C-308.985 102.8175 -308.985 102.8175 -310.5 102.3125 C-310.5 101.6525 -310.5 100.9925 -310.5 100.3125 C-311.34884766 99.92964844 -311.34884766 99.92964844 -312.21484375 99.5390625 C-314.77657119 98.16404982 -316.82214042 96.54031798 -319.0625 94.6875 C-323.69601561 90.89644178 -328.50235539 87.44939583 -333.4453125 84.07421875 C-334.12335938 83.49285156 -334.80140625 82.91148438 -335.5 82.3125 C-335.5 81.3225 -335.5 80.3325 -335.5 79.3125 C-329.73394098 77.57731575 -323.96658185 75.84656213 -318.19775391 74.12060547 C-316.51215245 73.61568775 -314.82687536 73.10968444 -313.14208984 72.60205078 C-304.23919495 69.91988271 -295.32915483 67.45261449 -286.28125 65.3046875 C-281.94370752 64.16653069 -277.74175536 62.75955717 -273.5 61.3125 C-272.14142211 60.86864643 -270.78206204 60.42717881 -269.421875 59.98828125 C-259.39766347 56.72427828 -249.54638165 53.104695 -239.7109375 49.3125 C-234.13302824 47.16287384 -228.52654051 45.0962331 -222.91259766 43.04296875 C-218.28086088 41.34566634 -213.66026353 39.6216327 -209.046875 37.875 C-207.95028564 37.46048584 -206.85369629 37.04597168 -205.72387695 36.61889648 C-203.56252388 35.8008225 -201.40217261 34.98009599 -199.24291992 34.15649414 C-197.77495972 33.60143188 -197.77495972 33.60143188 -196.27734375 33.03515625 C-195.40327881 32.70265869 -194.52921387 32.37016113 -193.62866211 32.02758789 C-191.5 31.3125 -191.5 31.3125 -189.5 31.3125 C-189.5 30.6525 -189.5 29.9925 -189.5 29.3125 C-171.28301104 28.8755962 -154.57777497 31.89082925 -139.5 42.3125 C-138.64792969 42.87582031 -137.79585937 43.43914063 -136.91796875 44.01953125 C-135.47248664 44.97896684 -134.03440828 45.9496898 -132.60546875 46.93359375 C-129.41168413 49.02525603 -126.04740283 50.76943829 -122.68359375 52.5703125 C-111.71095702 58.57497014 -101.05208075 65.17021024 -90.3347168 71.61499023 C-83.69711542 75.60319626 -77.04073134 79.55900287 -70.375 83.5 C-69.42020752 84.06501221 -68.46541504 84.63002441 -67.48168945 85.2121582 C-66.15657349 85.99465942 -66.15657349 85.99465942 -64.8046875 86.79296875 C-64.02077637 87.25598389 -63.23686523 87.71899902 -62.42919922 88.19604492 C-58.20418519 90.64112074 -54.35236779 90.63354744 -49.5546875 90.84765625 C-48.6696756 90.89063339 -47.7846637 90.93361053 -46.87283325 90.97789001 C-44.04040489 91.11446541 -41.20772794 91.24480098 -38.375 91.375 C-36.45701166 91.46638669 -34.53904258 91.5581784 -32.62109375 91.65039062 C-27.91427319 91.87579754 -23.20722031 92.09560796 -18.5 92.3125 C-18.47764282 91.04732544 -18.47764282 91.04732544 -18.45483398 89.7565918 C-18.13098391 82.15557634 -17.2050926 77.16102151 -12.5625 71.125 C-12.10681641 70.48498047 -11.65113281 69.84496094 -11.18164062 69.18554688 C-9.41836843 66.73555373 -7.63632689 64.44882689 -5.5 62.3125 C-5.66873383 59.17814121 -6.14956132 57.69682726 -8.27734375 55.36328125 C-8.99019531 54.78964844 -9.70304687 54.21601562 -10.4375 53.625 C-11.14777344 53.04363281 -11.85804688 52.46226563 -12.58984375 51.86328125 C-13.22019531 51.35152344 -13.85054688 50.83976562 -14.5 50.3125 C-16.5 48.3125 -16.5 48.3125 -16.74804688 46.09863281 C-16.6542869 37.0320437 -15.87641176 28.07954176 -15 19.0625 C-14.85495808 17.52739191 -14.71042352 15.9922358 -14.56640625 14.45703125 C-14.2167708 10.74161688 -13.86032314 7.02689496 -13.5 3.3125 C-8.85669966 1.43236023 -5.06960892 -0.09925439 0 0 Z M-159.765625 108.71875 C-161.09853352 109.40748693 -162.42638425 110.1060688 -163.75 110.8125 C-165.1813518 111.55390066 -166.61366979 112.29343853 -168.046875 113.03125 C-168.77970703 113.41023438 -169.51253906 113.78921875 -170.26757812 114.1796875 C-173.80587571 115.97514909 -177.39838612 117.64860671 -181 119.3125 C-181.65258789 119.61478516 -182.30517578 119.91707031 -182.97753906 120.22851562 C-184.48412927 120.92511987 -185.99191887 121.61912937 -187.5 122.3125 C-184.2448897 124.48257354 -181.38525839 125.45855628 -177.66796875 126.67578125 C-176.97624069 126.90439346 -176.28451263 127.13300568 -175.57182312 127.36854553 C-172.48199507 128.3885906 -169.38823353 129.39647468 -166.29473877 130.40533447 C-156.89923022 133.47305841 -147.55807627 136.62267125 -138.29296875 140.06640625 C-135.79368774 140.97887859 -133.29326985 141.88815687 -130.79238892 142.79623413 C-129.20534591 143.38136019 -127.62301997 143.97947626 -126.04623413 144.59170532 C-114.16139851 149.19829623 -105.02855519 149.71764244 -92.5 147.3125 C-95.29748559 145.02700989 -98.04924294 142.85938177 -101.15234375 141.0078125 C-101.83506348 140.596521 -102.5177832 140.18522949 -103.22119141 139.76147461 C-104.31826416 139.10610718 -104.31826416 139.10610718 -105.4375 138.4375 C-112.56114665 134.13482923 -119.61211271 129.73086203 -126.625 125.25 C-128.47782754 124.06765028 -130.33069162 122.88535783 -132.18359375 121.703125 C-133.52139893 120.84944336 -133.52139893 120.84944336 -134.88623047 119.97851562 C-138.81348927 117.47528248 -142.74618608 114.98104294 -146.6875 112.5 C-147.34057129 112.08548584 -147.99364258 111.67097168 -148.66650391 111.24389648 C-153.91031255 107.62526074 -153.91031255 107.62526074 -159.765625 108.71875 Z M144.08984375 109.41015625 C143.35942871 109.87429932 142.62901367 110.33844238 141.87646484 110.81665039 C141.07160645 111.33090576 140.26674805 111.84516113 139.4375 112.375 C137.6996003 113.47976711 135.96129992 114.5839041 134.22265625 115.6875 C132.83071045 116.57115234 132.83071045 116.57115234 131.41064453 117.47265625 C127.43140587 119.98796765 123.43606354 122.47705585 119.44018555 124.96582031 C111.13743145 130.1372689 102.84771783 135.32696761 94.625 140.625 C93.92358887 141.07496338 93.22217773 141.52492676 92.49951172 141.98852539 C89.96375272 143.63121715 87.642977 145.169523 85.5 147.3125 C98.16113818 149.78469426 106.96414668 148.85257942 118.9375 144.3125 C120.4572945 143.76669375 121.97849864 143.22479917 123.50097656 142.68652344 C126.75618818 141.53304163 130.00510072 140.36367977 133.25146484 139.18554688 C141.74311286 136.12812682 150.32566531 133.33573388 158.89529419 130.50634766 C163.45917019 128.99739929 168.01851131 127.47489363 172.578125 125.953125 C174.12400118 125.43775875 175.66989722 124.92245206 177.21582031 124.40722656 C178.29959961 124.0459668 179.38337891 123.68470703 180.5 123.3125 C177.41302515 121.25451677 174.23158799 119.65657763 170.8984375 118.0546875 C170.26136871 117.74677277 169.62429993 117.43885803 168.96792603 117.12161255 C167.62530226 116.47337627 166.28213992 115.82625445 164.93847656 115.18017578 C162.87411311 114.18707334 160.81195789 113.18949206 158.75 112.19140625 C157.44544188 111.56223168 156.14075869 110.93331633 154.8359375 110.3046875 C154.21617035 110.0047287 153.5964032 109.7047699 152.95785522 109.39572144 C148.3411683 107.09560274 148.3411683 107.09560274 144.08984375 109.41015625 Z " fill="#020202" transform="translate(335.5,-0.3125)"/>
<path d="M0 0 C1.72525369 5.48267289 0.68305828 11.17346254 0.25 16.8125 C0.17523438 17.97587891 0.10046875 19.13925781 0.0234375 20.33789062 C-0.43874826 26.48986322 -0.99160661 31.56647316 -4 37 C-4.5775 37.474375 -5.155 37.94875 -5.75 38.4375 C-7.41735276 40.14477932 -7.41735276 40.14477932 -6.60144043 43.63793945 C-6.49867294 44.35793121 -6.39590546 45.07792297 -6.2900238 45.81973267 C-5.86792903 48.99284965 -5.75179681 52.15808917 -5.62695312 55.35546875 C-5.59915268 56.04294693 -5.57135223 56.73042511 -5.54270935 57.43873596 C-5.45245909 59.68821313 -5.36689675 61.9378433 -5.28125 64.1875 C-5.21816109 65.77442789 -5.15471869 67.36134177 -5.09094238 68.94824219 C-4.92408417 73.11762777 -4.76094975 77.28714965 -4.59893799 81.45672607 C-4.34052737 88.09936153 -4.07776185 94.74182132 -3.81248474 101.38418579 C-3.72164711 103.67687859 -3.63320912 105.96965428 -3.54504395 108.26245117 C-3.26731876 115.34850681 -2.93262203 122.42471265 -2.47265625 129.50146484 C-2.11067609 135.07851667 -1.82930831 140.63934911 -1.71875 146.2265625 C-1.68104177 147.78776168 -1.64327994 149.34895956 -1.60546875 150.91015625 C-1.55156053 153.28854728 -1.49909422 155.66696231 -1.44775391 158.04541016 C-1.39584374 160.39756002 -1.33878133 162.74954442 -1.28125 165.1015625 C-1.26767456 165.80785797 -1.25409912 166.51415344 -1.2401123 167.24185181 C-1.16709091 170.16248773 -1.00533743 172.96898191 -0.50949097 175.85055542 C-0.00500995 178.96903072 0.21420804 181.96798047 0.34130859 185.12304688 C0.39173309 186.32638168 0.44215759 187.52971649 0.49411011 188.76951599 C0.54503815 190.07276321 0.59596619 191.37601044 0.6484375 192.71875 C0.70560767 194.10878524 0.76316314 195.49880468 0.82107544 196.8888092 C0.94456676 199.86591221 1.0659884 202.84308931 1.18579102 205.82034302 C1.50720212 213.79600279 1.84409631 221.77102047 2.1796875 229.74609375 C2.21374947 230.55811689 2.24781143 231.37014004 2.28290558 232.20676994 C2.95978789 248.32847967 3.70993899 264.44590724 4.5 280.5625 C4.56102905 281.80865082 4.62205811 283.05480164 4.68493652 284.3387146 C4.99379234 290.63539297 5.30443883 296.93198102 5.61621094 303.22851562 C5.98692773 310.72152442 6.35245559 318.21477965 6.71709442 325.70808601 C6.95385603 330.57103112 7.19143342 335.43393645 7.42895508 340.29684448 C7.55762013 342.93121166 7.68598971 345.56559271 7.81420898 348.19998169 C8.61275367 364.72497319 8.61275367 364.72497319 9.5546875 381.2421875 C10.11036775 390.40977981 10.3599243 399.57522507 10.60546875 408.75585938 C10.95254878 420.67027909 11.78755776 432.0771763 14.25 443.75 C14.47034912 444.8234668 14.69069824 445.89693359 14.91772461 447.00292969 C15.60406911 450.33695105 16.3005653 453.6687023 17 457 C17.43367578 459.07289951 17.86727162 461.14581574 18.30078125 463.21875 C18.51033447 464.22043213 18.7198877 465.22211426 18.93579102 466.25415039 C19.14260498 467.24278076 19.34941895 468.23141113 19.5625 469.25 C19.86982056 470.71651001 19.86982056 470.71651001 20.18334961 472.21264648 C21.61429006 479.06897518 22.99019877 485.93438645 24.3125 492.8125 C24.48402588 493.69647461 24.65555176 494.58044922 24.83227539 495.49121094 C24.98688232 496.30493164 25.14148926 497.11865234 25.30078125 497.95703125 C25.43653564 498.66835205 25.57229004 499.37967285 25.7121582 500.11254883 C26 502 26 502 26 505 C25.34 505 24.68 505 24 505 C14.46386719 457.31933594 14.46386719 457.31933594 13.81588745 454.02465916 C13.25663298 451.21850955 12.65328645 448.42539893 12.02804947 445.63325024 C9.37750275 433.53767432 8.19068652 421.7881681 7.69140625 409.43383789 C7.60010334 407.46039289 7.50743935 405.48701047 7.4135437 403.51368713 C7.16429247 398.19583522 6.93382752 392.87732176 6.70685959 387.55847859 C6.46113333 381.88030258 6.19741231 376.20295927 5.93579102 370.52549744 C5.43968126 359.70212636 4.95906733 348.87812647 4.48426533 338.05380195 C3.95792643 326.06906813 3.41580147 314.08506914 2.87154055 302.10113776 C2.17982281 286.86862797 1.49086083 271.63600018 0.81207275 256.40290833 C-0.15117361 234.79126142 -1.12181251 213.18010822 -2.14160156 191.57104492 C-2.18716218 190.60548207 -2.2327228 189.63991923 -2.27966404 188.6450969 C-2.70437384 179.65194526 -3.13157359 170.65891489 -3.56253552 161.66606069 C-8.08867642 67.16347687 -8.08867642 67.16347687 -8.00097656 52.25512695 C-8.00014487 49.48290342 -8.3225217 47.62522842 -9 45 C-9.3125 41.5625 -9.3125 41.5625 -9 38 C-8.35675781 37.22914063 -7.71351563 36.45828125 -7.05078125 35.6640625 C-4.65221968 32.5482168 -4.31030048 30.68852663 -3.875 26.8125 C-3.72933594 25.59820312 -3.58367187 24.38390625 -3.43359375 23.1328125 C-3.28733974 21.75539017 -3.14292886 20.37777134 -3 19 C-2.73591798 16.54559062 -2.46983986 14.09141626 -2.20166016 11.63745117 C-2.02709906 10.01848571 -1.85869032 8.39884373 -1.69677734 6.77856445 C-1.10853587 1.10853587 -1.10853587 1.10853587 0 0 Z " fill="#E4E4E4" transform="translate(314,311)"/>
<path d="M0 0 C18.23155502 -0.43725314 34.90315264 2.59395878 50 13 C50.9796875 13.63292969 51.959375 14.26585937 52.96875 14.91796875 C55.00829283 16.2430421 57.01561108 17.59439118 59 19 C58.34 19.33 57.68 19.66 57 20 C54.99145508 18.9519043 54.99145508 18.9519043 52.51953125 17.32421875 C41.43076382 10.25085781 33.31265576 5.50389784 20 5 C18.17989161 4.66386507 16.36571136 4.29238478 14.5625 3.875 C10.25530026 2.96897802 6.39915709 2.68577449 2 3 C1.34 3.66 0.68 4.32 0 5 C-2.59349083 5.97914349 -5.182408 6.87890883 -7.8125 7.75 C-18.21402209 11.28877441 -28.4816469 15.15850776 -38.75 19.0625 C-39.92207504 19.50801208 -39.92207504 19.50801208 -41.11782837 19.96252441 C-42.6641865 20.55044463 -44.21047725 21.13854207 -45.75669861 21.7268219 C-47.2830214 22.30720266 -48.80960235 22.88690493 -50.33644104 23.46592712 C-53.92640809 24.8276788 -57.51269986 26.19720217 -61.09033203 27.59106445 C-70.71170792 31.31276674 -80.4391561 34.3019104 -90.375 37.0625 C-91.92253508 37.49816952 -93.46989711 37.93445416 -95.01708984 38.37133789 C-103.57918577 40.78463136 -112.15185012 43.16063049 -120.73022461 45.51538086 C-124.83690498 46.65006021 -128.87614057 47.90639861 -132.8984375 49.30859375 C-137.20959503 50.72694855 -141.61263749 51.84370446 -146 53 C-146 52.01 -146 51.02 -146 50 C-140.23394098 48.26481575 -134.46658185 46.53406213 -128.69775391 44.80810547 C-127.01215245 44.30318775 -125.32687536 43.79718444 -123.64208984 43.28955078 C-114.73919495 40.60738271 -105.82915483 38.14011449 -96.78125 35.9921875 C-92.44370752 34.85403069 -88.24175536 33.44705717 -84 32 C-82.64142211 31.55614643 -81.28206204 31.11467881 -79.921875 30.67578125 C-69.89766347 27.41177828 -60.04638165 23.792195 -50.2109375 20 C-44.63302824 17.85037384 -39.02654051 15.7837331 -33.41259766 13.73046875 C-28.78086088 12.03316634 -24.16026353 10.3091327 -19.546875 8.5625 C-18.45028564 8.14798584 -17.35369629 7.73347168 -16.22387695 7.30639648 C-14.06252388 6.4883225 -11.90217261 5.66759599 -9.74291992 4.84399414 C-8.27495972 4.28893188 -8.27495972 4.28893188 -6.77734375 3.72265625 C-5.90327881 3.39015869 -5.02921387 3.05766113 -4.12866211 2.71508789 C-2 2 -2 2 0 2 C0 1.34 0 0.68 0 0 Z " fill="#F2F2F2" transform="translate(146,29)"/>
<path d="M0 0 C0.99 0.99 0.99 0.99 2 2 C3.96488831 2.88778692 3.96488831 2.88778692 6.125 3.625 C7.21167969 4.01558594 7.21167969 4.01558594 8.3203125 4.4140625 C8.87460937 4.60742188 9.42890625 4.80078125 10 5 C8.16796875 5.58984375 8.16796875 5.58984375 6 6 C5.113125 5.525625 4.22625 5.05125 3.3125 4.5625 C-4.94342614 0.66819522 -14.48331321 3.87155884 -23.03442383 5.66552734 C-25 6 -25 6 -28.703125 6.12890625 C-34.4761941 6.82453271 -39.10800729 10.30776237 -43.91323853 13.36962891 C-46.35015275 14.922172 -48.80613401 16.44330731 -51.26158142 17.96630859 C-52.54837801 18.76460257 -53.83422622 19.56442715 -55.11915588 20.36572266 C-62.10410756 24.71346141 -69.20248035 28.86119326 -76.3125 33 C-78.74787921 34.42104781 -81.18256955 35.84327344 -83.6171875 37.265625 C-84.73061523 37.91595703 -85.84404297 38.56628906 -86.99121094 39.23632812 C-90.65456455 41.38368827 -94.30184533 43.5561421 -97.9375 45.75 C-104.20924091 49.53390069 -110.50740325 53.27194439 -116.8125 57 C-117.78759521 57.57717773 -118.76269043 58.15435547 -119.76733398 58.74902344 C-120.67555908 59.2855957 -121.58378418 59.82216797 -122.51953125 60.375 C-123.33526611 60.85710937 -124.15100098 61.33921875 -124.99145508 61.8359375 C-128.86928216 64.08335206 -132.0036111 64.21281049 -136.4140625 64.31640625 C-137.14370209 64.33718735 -137.87334167 64.35796844 -138.62509155 64.37937927 C-140.95829763 64.44481917 -143.29161721 64.50373368 -145.625 64.5625 C-147.20574095 64.60569053 -148.78647039 64.64930499 -150.3671875 64.69335938 C-154.24467504 64.80049481 -158.12227685 64.90177782 -162 65 C-162 64.34 -162 63.68 -162 63 C-160.67778442 62.95625244 -160.67778442 62.95625244 -159.32885742 62.91162109 C-156.00415898 62.78823382 -152.6824349 62.63975353 -149.35961914 62.47509766 C-147.93165225 62.40929273 -146.50320839 62.35302044 -145.07446289 62.30712891 C-135.3338165 61.98597115 -128.29675424 60.41768165 -120 55 C-117.82514671 53.73255363 -115.64513728 52.47392699 -113.4609375 51.22265625 C-111.09576004 49.84137497 -108.73568845 48.45143616 -106.375 47.0625 C-105.09310129 46.30989186 -103.8112002 45.55728777 -102.52929688 44.8046875 C-93.48750623 39.49039984 -84.48743983 34.10866727 -75.50488281 28.69482422 C-65.81880605 22.86670841 -56.0664838 17.15371064 -46.30273438 11.45703125 C-45.70399506 11.10731766 -45.10525574 10.75760406 -44.4883728 10.39729309 C-42.86139312 9.44720547 -41.23369917 8.4983413 -39.60595703 7.54956055 C-37.70491061 6.41915567 -35.84027871 5.22685247 -34 4 C-31.50732422 3.40576172 -31.50732422 3.40576172 -28.5546875 2.9296875 C-27.47703125 2.75566406 -26.399375 2.58164062 -25.2890625 2.40234375 C-24.16242188 2.22832031 -23.03578125 2.05429687 -21.875 1.875 C-20.7715625 1.69324219 -19.668125 1.51148437 -18.53125 1.32421875 C-12.28858048 0.33814387 -6.32047858 -0.40068474 0 0 Z " fill="#F5F5F5" transform="translate(517,29)"/>
<path d="M0 0 C1.72525369 5.48267289 0.68305828 11.17346254 0.25 16.8125 C0.17523438 17.97587891 0.10046875 19.13925781 0.0234375 20.33789062 C-0.43874826 26.48986322 -0.99160661 31.56647316 -4 37 C-4.5775 37.474375 -5.155 37.94875 -5.75 38.4375 C-7.41735276 40.14477932 -7.41735276 40.14477932 -6.60144043 43.63793945 C-6.49867294 44.35793121 -6.39590546 45.07792297 -6.2900238 45.81973267 C-5.86792903 48.99284965 -5.75179681 52.15808917 -5.62695312 55.35546875 C-5.59915268 56.04294693 -5.57135223 56.73042511 -5.54270935 57.43873596 C-5.45245909 59.68821313 -5.36689675 61.9378433 -5.28125 64.1875 C-5.21816109 65.77442789 -5.15471869 67.36134177 -5.09094238 68.94824219 C-4.92408417 73.11762777 -4.76094975 77.28714965 -4.59893799 81.45672607 C-4.34052737 88.09936153 -4.07776185 94.74182132 -3.81248474 101.38418579 C-3.72164711 103.67687859 -3.63320912 105.96965428 -3.54504395 108.26245117 C-3.2148856 116.68778808 -2.76341142 125.09620551 -2.21743774 133.51028442 C-1.96710734 137.52790302 -1.80016446 141.53498272 -1.68359375 145.55859375 C-1.66276733 146.26828812 -1.64194092 146.97798248 -1.6204834 147.70918274 C-1.55612403 149.95187682 -1.49638084 152.19465593 -1.4375 154.4375 C-1.41632111 155.20960815 -1.39514221 155.98171631 -1.37332153 156.77722168 C-0.99943989 170.52007062 -0.87342327 184.25181956 -1 198 C-1.33 198 -1.66 198 -2 198 C-3.60664063 162.92599632 -5.15882489 127.85014283 -6.58730698 92.76839447 C-6.68734164 90.31638161 -6.78800477 87.86439525 -6.88882446 85.41241455 C-7.04807879 81.53585139 -7.20555126 77.65921985 -7.36159134 73.78252602 C-7.41911692 72.35846163 -7.4771524 70.93441773 -7.53574753 69.51039696 C-8.03366315 57.38492864 -8.03366315 57.38492864 -8.00317383 52.21557617 C-8.00045643 49.46243228 -8.32663357 47.60929491 -9 45 C-9.3125 41.5625 -9.3125 41.5625 -9 38 C-8.35675781 37.22914063 -7.71351563 36.45828125 -7.05078125 35.6640625 C-4.65221968 32.5482168 -4.31030048 30.68852663 -3.875 26.8125 C-3.72933594 25.59820312 -3.58367187 24.38390625 -3.43359375 23.1328125 C-3.28733974 21.75539017 -3.14292886 20.37777134 -3 19 C-2.73591798 16.54559062 -2.46983986 14.09141626 -2.20166016 11.63745117 C-2.02709906 10.01848571 -1.85869032 8.39884373 -1.69677734 6.77856445 C-1.10853587 1.10853587 -1.10853587 1.10853587 0 0 Z " fill="#F0F0F0" transform="translate(314,311)"/>
<path d="M0 0 C3.40524711 0.66207677 5.95716255 1.98285129 8.9375 3.73828125 C9.90445801 4.30490479 10.87141602 4.87152832 11.86767578 5.45532227 C13.41817627 6.37462524 13.41817627 6.37462524 15 7.3125 C16.07362793 7.94406006 17.14725586 8.57562012 18.25341797 9.22631836 C25.6983004 13.61385482 33.11645104 18.04592952 40.51904297 22.50439453 C47.03628854 26.42947904 53.57576399 30.31604356 60.125 34.1875 C61.08035645 34.75283447 62.03571289 35.31816895 63.02001953 35.90063477 C63.90286621 36.42197998 64.78571289 36.9433252 65.6953125 37.48046875 C66.47922363 37.94348389 67.26313477 38.40649902 68.07080078 38.88354492 C72.29581481 41.32862074 76.14763221 41.32104744 80.9453125 41.53515625 C81.8303244 41.57813339 82.7153363 41.62111053 83.62716675 41.66539001 C86.45959511 41.80196541 89.29227206 41.93230098 92.125 42.0625 C94.04298834 42.15388669 95.96095742 42.2456784 97.87890625 42.33789062 C102.58572681 42.56329754 107.29277969 42.78310796 112 43 C112.01490479 42.15655029 112.02980957 41.31310059 112.04516602 40.4440918 C112.36901609 32.84307634 113.2949074 27.84852151 117.9375 21.8125 C118.39318359 21.17248047 118.84886719 20.53246094 119.31835938 19.87304688 C121.08163157 17.42305373 122.86367311 15.13632689 125 13 C124.67801034 9.90073181 124.67801034 9.90073181 124 7 C124.66 7 125.32 7 126 7 C128.06605505 10.40291419 128.06605505 10.40291419 127.80078125 12.80078125 C126.72048384 15.76764682 125.0286724 17.92367619 123.125 20.4375 C118.48085209 26.59827924 115.68103855 30.42577508 115.3125 38.3125 C115.24675781 39.56675781 115.18101562 40.82101563 115.11328125 42.11328125 C115.07589844 43.06589844 115.03851563 44.01851562 115 45 C105.26170546 45.10701423 95.54399014 45.03152167 85.8125 44.625 C84.94085205 44.59414307 84.0692041 44.56328613 83.17114258 44.53149414 C72.81829283 44.05031521 65.63705116 40.33883414 56.8125 35.125 C55.64638793 34.44290972 54.47996121 33.76135711 53.31323242 33.08032227 C49.86837997 31.06544563 46.43327146 29.03455014 43 27 C42.07832031 26.45424316 41.15664062 25.90848633 40.20703125 25.34619141 C35.33412374 22.45360217 30.47863623 19.53323825 25.63330078 16.59472656 C22.64313966 14.78388543 19.64765637 12.98199373 16.65234375 11.1796875 C14.51802637 9.8909608 12.38390837 8.60190384 10.25 7.3125 C9.23010986 6.69947021 8.21021973 6.08644043 7.15942383 5.45483398 C6.22509521 4.88837158 5.2907666 4.32190918 4.328125 3.73828125 C3.4918457 3.23337158 2.65556641 2.72846191 1.79394531 2.20825195 C1.20194336 1.80952881 0.60994141 1.41080566 0 1 C0 0.67 0 0.34 0 0 Z " fill="#F4F4F4" transform="translate(205,49)"/>
<path d="M0 0 C0 0.66 0 1.32 0 2 C-1.12978271 2.36649658 -2.25956543 2.73299316 -3.42358398 3.1105957 C-6.82155038 4.21314012 -10.21909102 5.31698775 -13.61645508 6.42138672 C-17.52026142 7.69037941 -21.42520178 8.95580488 -25.33081055 10.21923828 C-34.48855242 13.18754852 -43.62838974 16.1871198 -52.7109375 19.37890625 C-54.1881154 19.89250791 -55.66540709 20.40578244 -57.14282227 20.91870117 C-59.19763068 21.63221867 -61.24871386 22.35173469 -63.29220581 23.09707642 C-75.05128777 27.38513813 -85.69376305 27.96899791 -98 26 C-98 25.34 -98 24.68 -98 24 C-96.89205078 24.13092041 -95.78410156 24.26184082 -94.64257812 24.39672852 C-83.00429489 25.54725456 -74.35557277 24.01076518 -63.5 19.9375 C-61.98320338 19.39721935 -60.46509408 18.86061207 -58.94580078 18.32739258 C-55.70015878 17.18530978 -52.46040486 16.02830053 -49.22363281 14.86132812 C-40.76430129 11.82790909 -32.23916215 8.9865897 -23.71557617 6.1399231 C-20.90170597 5.19645431 -18.09226486 4.24063599 -15.28320312 3.28295898 C-13.56133002 2.70257018 -11.83933119 2.12255418 -10.1171875 1.54296875 C-9.32307465 1.26962708 -8.52896179 0.9962854 -7.71078491 0.71466064 C-2.22754282 -1.11377141 -2.22754282 -1.11377141 0 0 Z " fill="#FAFAFA" transform="translate(518,123)"/>
<path d="M0 0 C7.97735871 1.51992517 15.56012031 4.05869258 23.23635864 6.65325928 C25.6068258 7.4524441 27.98062757 8.24101065 30.35522461 9.02783203 C38.23116205 11.64856178 46.05333089 14.3591132 53.8125 17.30859375 C68.52513592 22.84277092 80.22980989 26.55115661 96 23 C96.66 23.33 97.32 23.66 98 24 C98 24.66 98 25.32 98 26 C83.60238669 27.82001432 72.20385264 26.67997012 58.625 21.8125 C57.0785333 21.27490265 55.53131393 20.73946616 53.98339844 20.20605469 C50.70977103 19.07636809 47.43950343 17.93758801 44.17089844 16.79345703 C36.10548055 13.98222046 27.99294446 11.31091497 19.88543701 8.62411499 C15.67717837 7.22833056 11.47147408 5.8248996 7.265625 4.421875 C5.84669226 3.94885551 4.42774832 3.47586961 3.00878906 3.00292969 C2.01588867 2.67196289 1.02298828 2.34099609 0 2 C0 1.34 0 0.68 0 0 Z " fill="#F2F2F2" transform="translate(148,123)"/>
<path d="M0 0 C18.23155502 -0.43725314 34.90315264 2.59395878 50 13 C50.9796875 13.63292969 51.959375 14.26585937 52.96875 14.91796875 C55.00829283 16.2430421 57.01561108 17.59439118 59 19 C58.34 19.33 57.68 19.66 57 20 C54.99145508 18.9519043 54.99145508 18.9519043 52.51953125 17.32421875 C41.43076382 10.25085781 33.31265576 5.50389784 20 5 C18.17989161 4.66386507 16.36571136 4.29238478 14.5625 3.875 C10.25530026 2.96897802 6.39915709 2.68577449 2 3 C1.34 3.66 0.68 4.32 0 5 C-1.83984375 5.8515625 -1.83984375 5.8515625 -3.9375 6.625 C-4.62714844 6.88539062 -5.31679687 7.14578125 -6.02734375 7.4140625 C-8 8 -8 8 -11 8 C-10.67 7.01 -10.34 6.02 -10 5 C-7.71484375 4.05078125 -7.71484375 4.05078125 -4.9375 3.3125 C-4.01839844 3.06113281 -3.09929687 2.80976563 -2.15234375 2.55078125 C-1.44207031 2.36902344 -0.73179687 2.18726563 0 2 C0 1.34 0 0.68 0 0 Z " fill="#EEEEEE" transform="translate(146,29)"/>
<path d="M0 0 C5.78288301 0.4511469 10.62857222 1.81524252 16.07250977 3.78125 C31.59724556 9.34398025 46.66139921 10.97111659 63 12 C63.33 10.02 63.66 8.04 64 6 C64.33 6 64.66 6 65 6 C65 8.64 65 11.28 65 14 C57.33171746 14.24780805 49.81689403 13.93303366 42.1875 13.1875 C41.40012451 13.11740723 40.61274902 13.04731445 39.80151367 12.97509766 C35.26625386 12.4970993 31.36235374 11.57308323 27.14086914 9.8581543 C22.87401237 8.14781087 18.48434205 6.76662593 14.125 5.3125 C13.17625 4.99216797 12.2275 4.67183594 11.25 4.34179688 C10.34507812 4.03951172 9.44015625 3.73722656 8.5078125 3.42578125 C7.68941895 3.15161377 6.87102539 2.87744629 6.02783203 2.5949707 C4.03236851 1.90615515 4.03236851 1.90615515 2 2 C2.144375 2.556875 2.28875 3.11375 2.4375 3.6875 C3.02769128 6.11384195 3.523429 8.54906345 4 11 C0.90588533 9.45294267 0.28441035 7.11928228 -1 4 C-0.6875 1.625 -0.6875 1.625 0 0 Z " fill="#D5D5D5" transform="translate(262,285)"/>
<path d="M0 0 C-2.46648472 2.46648472 -4.47743814 2.99309859 -7.78515625 4.09375 C-8.95626953 4.48433594 -10.12738281 4.87492187 -11.33398438 5.27734375 C-13.17959961 5.88255859 -13.17959961 5.88255859 -15.0625 6.5 C-16.86750977 7.10521484 -16.86750977 7.10521484 -18.70898438 7.72265625 C-28.57140212 10.98678795 -37.85365468 13.17062519 -48.1875 14.125 C-49.05052734 14.21136719 -49.91355469 14.29773438 -50.80273438 14.38671875 C-55.21984767 14.81254605 -59.5563875 15.10181763 -64 15 C-63.67 14.34 -63.34 13.68 -63 13 C-60.60180664 12.59277344 -60.60180664 12.59277344 -57.41015625 12.359375 C-56.24162109 12.26148682 -55.07308594 12.16359863 -53.86914062 12.06274414 C-52.61294922 11.95953857 -51.35675781 11.85633301 -50.0625 11.75 C-38.98255773 10.71143073 -29.19148852 8.81138453 -18.86181641 4.72998047 C-15.99980221 3.60784272 -13.09777895 2.61386141 -10.1875 1.625 C-9.29417969 1.30789063 -8.40085937 0.99078125 -7.48046875 0.6640625 C-4.88142758 -0.0317438 -2.6779128 -0.12500132 0 0 Z " fill="#E9E9E9" transform="translate(412,284)"/>
<path d="M0 0 C0 0.33 0 0.66 0 1 C-1.21816406 0.97679687 -2.43632812 0.95359375 -3.69140625 0.9296875 C-5.31509799 0.9109165 -6.93879642 0.89271773 -8.5625 0.875 C-9.76229492 0.84986328 -9.76229492 0.84986328 -10.98632812 0.82421875 C-12.1706543 0.81455078 -12.1706543 0.81455078 -13.37890625 0.8046875 C-14.0963501 0.79421387 -14.81379395 0.78374023 -15.55297852 0.77294922 C-18.81433265 0.99957855 -18.81433265 0.99957855 -25 3 C-25.99 17.52 -26.98 32.04 -28 47 C-28.66 46.67 -29.32 46.34 -30 46 C-30.25709896 36.15882311 -29.45042936 26.52857863 -28.5 16.75 C-28.35495808 15.21489191 -28.21042352 13.6797358 -28.06640625 12.14453125 C-27.7167708 8.42911688 -27.36032314 4.71439496 -27 1 C-17.56840032 -2.81899175 -9.76930015 -2.94922269 0 0 Z " fill="#E9E9E9" transform="translate(349,2)"/>
<path d="M0 0 C0.66 0 1.32 0 2 0 C4.06605505 3.40291419 4.06605505 3.40291419 3.80078125 5.80078125 C2.72048384 8.76764682 1.0286724 10.92367619 -0.875 13.4375 C-5.51914791 19.59827924 -8.31896145 23.42577508 -8.6875 31.3125 C-8.790625 33.519375 -8.89375 35.72625 -9 38 C-14.94 38 -20.88 38 -27 38 C-27 37.67 -27 37.34 -27 37 C-25.62553768 36.8289558 -24.25039051 36.66341273 -22.875 36.5 C-22.10929687 36.4071875 -21.34359375 36.314375 -20.5546875 36.21875 C-17.69305974 35.97371765 -14.87072757 35.9667162 -12 36 C-12.04382813 35.23558594 -12.08765625 34.47117188 -12.1328125 33.68359375 C-12.10594308 22.51935049 -6.80382879 13.80382879 1 6 C0.67801034 2.90073181 0.67801034 2.90073181 0 0 Z " fill="#F1F1F1" transform="translate(329,56)"/>
<path d="M0 0 C0.66 0.66 1.32 1.32 2 2 C3.96488831 2.88778692 3.96488831 2.88778692 6.125 3.625 C6.84945312 3.88539062 7.57390625 4.14578125 8.3203125 4.4140625 C9.15175781 4.70410156 9.15175781 4.70410156 10 5 C8.16796875 5.58984375 8.16796875 5.58984375 6 6 C5.113125 5.525625 4.22625 5.05125 3.3125 4.5625 C-4.45299418 0.89953105 -12.9818675 3.60431603 -21.03515625 5.24609375 C-23.79737584 5.80191043 -26.540867 6.20877992 -29.33984375 6.53125 C-32.48255763 6.93373203 -34.35923786 7.34952366 -37 9 C-35.125 5.125 -35.125 5.125 -34 4 C-30.02920527 3.15748978 -26.00789532 2.57686549 -22 1.9375 C-20.88753906 1.75123047 -19.77507812 1.56496094 -18.62890625 1.37304688 C-12.34887452 0.3633598 -6.3616777 -0.41064108 0 0 Z " fill="#EAEAEA" transform="translate(517,29)"/>
<path d="M0 0 C0.33 0 0.66 0 1 0 C1 5.28 1 10.56 1 16 C-4.94 16 -10.88 16 -17 16 C-17 15.67 -17 15.34 -17 15 C-15.62553768 14.8289558 -14.25039051 14.66341273 -12.875 14.5 C-12.10929687 14.4071875 -11.34359375 14.314375 -10.5546875 14.21875 C-7.69305974 13.97371765 -4.87072757 13.9667162 -2 14 C-1.93941406 13.07316406 -1.87882812 12.14632812 -1.81640625 11.19140625 C-1.73261719 9.99386719 -1.64882813 8.79632813 -1.5625 7.5625 C-1.48128906 6.36753906 -1.40007812 5.17257813 -1.31640625 3.94140625 C-1 1 -1 1 0 0 Z " fill="#DADADA" transform="translate(319,78)"/>
<path d="M0 0 C2.97 0.495 2.97 0.495 6 1 C5.38125 1.28875 4.7625 1.5775 4.125 1.875 C1.86674235 2.93720042 1.86674235 2.93720042 0 5 C-1.83984375 5.8515625 -1.83984375 5.8515625 -3.9375 6.625 C-4.62714844 6.88539062 -5.31679687 7.14578125 -6.02734375 7.4140625 C-8 8 -8 8 -11 8 C-10.67 7.01 -10.34 6.02 -10 5 C-7.71484375 4.05078125 -7.71484375 4.05078125 -4.9375 3.3125 C-4.01839844 3.06113281 -3.09929687 2.80976563 -2.15234375 2.55078125 C-1.44207031 2.36902344 -0.73179687 2.18726563 0 2 C0 1.34 0 0.68 0 0 Z " fill="#EBEBEB" transform="translate(146,29)"/>
<path d="M0 0 C0 0.66 0 1.32 0 2 C-2.05962852 2.67548578 -4.12284322 3.34004312 -6.1875 4 C-7.33605469 4.37125 -8.48460937 4.7425 -9.66796875 5.125 C-12.64320812 5.90630553 -14.95283896 6.18363306 -18 6 C-17 4 -17 4 -13.9453125 2.9296875 C-12.68460938 2.58164062 -11.42390625 2.23359375 -10.125 1.875 C-8.24167969 1.34519531 -8.24167969 1.34519531 -6.3203125 0.8046875 C-3 0 -3 0 0 0 Z " fill="#F9F9F9" transform="translate(72,59)"/>
<path d="M0 0 C1.258125 0.12375 2.51625 0.2475 3.8125 0.375 C4.87404297 0.47941406 4.87404297 0.47941406 5.95703125 0.5859375 C8 1 8 1 11 3 C8.03 2.67 5.06 2.34 2 2 C2.33 3.32 2.66 4.64 3 6 C3.34060811 7.66519519 3.67558396 9.33157466 4 11 C0.90588533 9.45294267 0.28441035 7.11928228 -1 4 C-0.6875 1.625 -0.6875 1.625 0 0 Z " fill="#E6E6E6" transform="translate(262,285)"/>
<path d="M0 0 C-2.05123248 2.05123248 -3.27005063 2.64147118 -5.9375 3.625 C-6.97197266 4.01558594 -6.97197266 4.01558594 -8.02734375 4.4140625 C-10 5 -10 5 -13 5 C-13 4.34 -13 3.68 -13 3 C-4.57142857 -0.42857143 -4.57142857 -0.42857143 0 0 Z " fill="#E9E9E9" transform="translate(412,284)"/>
<path d="M0 0 C0 0.66 0 1.32 0 2 C-5.445 3.485 -5.445 3.485 -11 5 C-10 2 -10 2 -8.22265625 1.015625 C-7.15337891 0.63664062 -7.15337891 0.63664062 -6.0625 0.25 C-5.35222656 -0.01296875 -4.64195312 -0.2759375 -3.91015625 -0.546875 C-2 -1 -2 -1 0 0 Z " fill="#F6F6F6" transform="translate(518,123)"/>
<path d="M0 0 C0 0.66 0 1.32 0 2 C-4.95 3.485 -4.95 3.485 -10 5 C-10 4.01 -10 3.02 -10 2 C-6.38026598 0.68373308 -3.90432869 0 0 0 Z " fill="#FAFAFA" transform="translate(10,77)"/>
<path d="M0 0 C0 0.66 0 1.32 0 2 C-6.96428571 5.34821429 -6.96428571 5.34821429 -11 4 C-9.5437455 3.32880451 -8.08492133 2.66318193 -6.625 2 C-5.81289062 1.62875 -5.00078125 1.2575 -4.1640625 0.875 C-2 0 -2 0 0 0 Z " fill="#F9F9F9" transform="translate(101,48)"/>
<path d="M0 0 C0.66 0 1.32 0 2 0 C3.42944945 2.35438733 4.08661261 3.48032433 3.625 6.25 C3.41875 6.8275 3.2125 7.405 3 8 C2.01 8 1.02 8 0 8 C0.185625 7.236875 0.37125 6.47375 0.5625 5.6875 C1.22819173 2.91032625 1.22819173 2.91032625 0 0 Z " fill="#C8C8C8" transform="translate(329,56)"/>
<path d="M0 0 C2.97 0.495 2.97 0.495 6 1 C3.33333333 2.33333333 0.66666667 3.66666667 -2 5 C-1.34 3.35 -0.68 1.7 0 0 Z " fill="#D1D1D1" transform="translate(146,29)"/>
</svg>
