<?xml version="1.0" standalone="no"?>
<!DOCTYPE svg PUBLIC "-//W3C//DTD SVG 20010904//EN"
 "http://www.w3.org/TR/2001/REC-SVG-20010904/DTD/svg10.dtd">
<svg version="1.0" xmlns="http://www.w3.org/2000/svg"
 width="343.000000pt" height="697.000000pt" viewBox="0 0 343.000000 697.000000"
 preserveAspectRatio="xMidYMid meet">

<g transform="translate(0.000000,697.000000) scale(0.100000,-0.100000)"
fill="#000000" stroke="none">
<path d="M1784 6937 l-201 -22 -88 -60 c-48 -33 -88 -62 -90 -65 -1 -3 4 -223
11 -490 l14 -485 -22 -15 c-13 -8 -45 -35 -71 -61 -38 -37 -47 -52 -42 -71 3
-12 19 -115 35 -228 l29 -205 -37 -36 c-131 -127 -514 -480 -517 -477 -11 11
128 202 267 366 l155 184 -42 204 c-23 112 -44 207 -47 210 -7 6 -295 -48
-585 -112 -115 -24 -262 -56 -328 -70 -66 -14 -125 -31 -131 -37 -7 -7 -29
-52 -50 -102 l-38 -89 18 -531 c9 -291 20 -592 23 -668 l6 -139 241 -228 c133
-126 297 -273 365 -327 l124 -97 -7 -281 c-4 -154 -13 -626 -21 -1050 -8 -424
-17 -909 -20 -1080 l-6 -310 61 -93 c50 -78 67 -96 103 -111 42 -19 203 -82
644 -255 l242 -94 195 5 195 6 388 222 388 222 72 119 73 119 -20 280 c-11
154 -24 341 -30 415 -6 74 -24 329 -40 565 -17 237 -39 552 -50 700 -36 503
-42 606 -36 613 4 4 61 50 128 102 l120 95 99 310 99 310 27 420 c22 349 26
487 25 820 -1 220 -5 444 -9 498 l-8 99 -135 69 c-99 50 -157 73 -218 86 -61
13 -85 14 -90 6 -4 -6 -41 -249 -82 -540 -41 -290 -75 -529 -76 -531 -2 -4
-457 77 -462 83 -3 3 75 5 174 5 98 0 184 4 190 8 6 4 37 163 68 353 59 362
75 548 76 896 l0 132 -182 93 c-168 85 -194 95 -312 120 -71 15 -131 26 -134
23 -4 -4 -43 -860 -58 -1265 -6 -182 -10 -210 -30 -256 l-23 -52 -58 -6 c-122
-13 -503 -37 -525 -34 -14 2 4 10 47 21 39 9 120 30 180 47 61 17 149 40 196
52 l87 22 6 80 c3 45 16 200 28 346 20 228 23 336 23 765 l0 500 -50 2 c-27 0
-140 -9 -251 -20z m1545 -1882 c-21 -257 -17 -225 -29 -225 -23 0 -373 124
-362 128 7 2 56 -4 108 -13 83 -15 106 -16 166 -5 82 14 79 8 102 175 18 122
26 168 31 163 1 -2 -6 -102 -16 -223z m-1655 -964 c132 -92 251 -174 262 -181
23 -14 22 -15 437 134 70 25 127 44 127 42 0 -2 -101 -70 -224 -150 -202 -132
-224 -150 -230 -179 -6 -33 -64 -404 -92 -587 -17 -107 -34 -153 -34 -90 0 50
-39 647 -46 698 -5 41 -10 46 -244 238 -239 196 -239 196 -223 220 8 13 18 24
20 24 3 0 114 -76 247 -169z"/>
<path d="M855 6549 c-116 -55 -215 -106 -221 -112 -17 -18 -113 -701 -101
-714 4 -3 151 16 328 42 288 42 323 46 336 32 14 -14 20 -13 57 11 22 14 46
32 53 40 9 10 12 120 13 408 l1 394 -128 -1 -128 0 -210 -100z"/>
</g>
</svg>
