<?xml version="1.0" encoding="utf-8"?>
<!-- Generator: Adobe Illustrator 27.0.0, SVG Export Plug-In . SVG Version: 6.00 Build 0)  -->
<svg version="1.1" id="Layer_1" xmlns="http://www.w3.org/2000/svg" xmlns:xlink="http://www.w3.org/1999/xlink" x="0px" y="0px"
	 viewBox="0 0 347.6 704" style="enable-background:new 0 0 347.6 704;" xml:space="preserve">
<style type="text/css">
	.st0{fill:#020202;}
	.st1{fill:#F2F2F2;}
	.st2{fill:#EBEBEB;}
	.st3{fill:#EFEFEF;}
	.st4{fill:#EEEEEE;}
	.st5{fill:#ECECEC;}
	.st6{fill:#F9F9F9;}
	.st7{fill:#E9E9E9;}
	.st8{fill:#E5E5E5;}
	.st9{fill:#F4F4F4;}
	.st10{fill:#D9D9D9;}
	.st11{fill:#D0D0D0;}
	.st12{fill:#F7F7F7;}
	.st13{fill:#C0C0C0;}
	.st14{fill:#FBFBFB;}
	.st15{fill:#FEFEFE;}
	.st16{fill:#CDCDCD;}
	.st17{fill:#E3E3E3;}
	.st18{fill:#DDDDDD;}
	.st19{fill:#C9C9C9;}
	.st20{fill:#FCFCFC;}
	.st21{fill:#808080;}
</style>
<path class="st0" d="M167.2,2c2.3,0,4.6,0,7,0c0,0.6,0.1,1.3,0.1,1.9c0.1,1.2,0.1,1.2,0.2,2.5c0.1,1.2,0.1,1.2,0.2,2.5
	c0.1,0.7,0.3,1.4,0.4,2.1c1,0.5,1,0.5,2,1c0.4,2.9,0.4,2.9,0.6,6.5c-0.1,4.1-0.1,4.1,1.4,7.5c0.1,1.9,0.1,3.7,0.1,5.6c0,1,0,2,0,3.1
	c0,1.2,0,1.2,0,2.4c0.7,0,1.3,0,2,0c0.2,2.1,0.5,4.1,0.7,6.2C182,45,182,45,183.2,46c0.3,2.1,0.4,4.1,0.6,6.2
	c0.1,0.6,0.3,1.2,0.4,1.8c0.7,0.3,1.3,0.7,2,1c0,5.9,0,11.9,0,18c0.7,0,1.3,0,2,0c0.1,0.8,0.2,1.5,0.2,2.3c1.4,14,2.9,27.9,5.8,41.7
	c0.6,2.9,1.1,5.8,1.6,8.8c0.1,0.7,0.3,1.4,0.4,2.1c0.9,5.3,1.5,10.6,1.8,16c0,2.1,0,2.1,1.2,3.1c0.1,1.5,0.2,3,0.3,4.5
	c0.4,4.6,1.6,7.9,3.6,12.1c1.7,3.9,2.5,7.9,3.4,12c0.4,2.3,0.4,2.3,1.6,3.4c0.2,1.5,0.2,1.5,0.3,2.9c0.7,5.8,3.4,11.1,5.7,16.5
	c1.5,4.1,2.3,8.4,3.2,12.6c0.7,3.1,0.7,3.1,2.8,6c0.6,2,1.1,4.1,1.6,6.1c0.6,3.7,0.6,3.7,2.4,6.9c0,2,0,4,0,6c0.7,0,1.3,0,2,0
	c1,3.5,2,7,3,10.5c1.8,6.3,3.6,12.4,6,18.5c0.3,0.9,0.6,1.9,0.9,2.8c1.4,4,3.2,7.8,5.1,11.6c1,2.6,1,2.6,1,6.6c0.7,0,1.3,0,2,0
	c4.9,10.5,4.9,10.5,6.4,15c1.2,3.3,2.8,6.3,4.5,9.4c3.7,6.6,6.7,13.2,8.1,20.6c0.7,0,1.3,0,2,0c0.5,1.4,0.5,1.4,1,2.7
	c0.4,1.2,0.9,2.4,1.4,3.6c0.4,1.2,0.9,2.3,1.3,3.6c1.2,3.2,1.2,3.2,3.3,6.1c0,1.3,0,2.6,0,4c0.7,0,1.3,0,2,0c0.3,0.9,0.6,1.7,1,2.6
	c2.7,7.4,2.7,7.4,6.4,14.5c1.7,2.9,1.7,2.9,1.7,6.9c0.7,0,1.3,0,2,0c0.2,1,0.4,2.1,0.6,3.2c0.3,1.4,0.5,2.8,0.8,4.1
	c0.2,1,0.2,1,0.4,2.1c0.7,3.4,1.3,5.6,3.2,8.6c0.4,2.3,0.7,4.7,1,7c0.3,0.3,0.7,0.7,1,1c0.3,2.3,0.7,4.7,1,7c0.3,0.3,0.7,0.7,1,1
	c0.3,1.3,0.6,2.7,0.9,4c1,4.7,2.2,9.2,3.5,13.8c1.8,6.3,3.4,12.5,4.9,18.9c0.6,2.5,0.6,2.5,2.7,5.3c0.6,2,1.1,4.1,1.6,6.1
	c0.6,3.7,0.6,3.7,2.4,6.9c0.3,2.3,0.7,4.7,1,7c0.3,0.3,0.7,0.7,1,1c1.7,6.7,2.6,13.5,3.5,20.3c0.3,2.6,0.3,2.6,1.5,4.7
	c0.2,2.3,0.3,4.6,0.4,7c0,1.1,0,1.1,0.1,2.1c0.1,2.3,0.1,4.6,0.2,6.9c0,0.8,0,1.6,0.1,2.4c1.1,38.1,1.1,38.1-1.7,43.6
	c-0.3,2-0.7,4-0.9,6c-2.4,16.4-2.4,16.4-4.1,18c-0.1,1-0.2,2-0.4,3.1c-0.6,3.5-1.4,6.4-2.7,9.6c-1,2.7-1.9,5.4-2.8,8.1
	c-2,5.9-4.5,11.5-7.1,17.2c-0.8,1.7-1.5,3.5-2.3,5.2c-0.3,0.7-0.7,1.5-1,2.2c-0.2,0.5-0.5,1-0.7,1.6c-0.7,0-1.3,0-2,0
	c-0.1,0.6-0.3,1.2-0.4,1.8c-0.4,1.7-1,3.5-1.6,5.2c-0.7,0-1.3,0-2,0c-0.3,0.9-0.5,1.8-0.8,2.7c-1.1,3.1-2.3,5.6-4.2,8.3
	c-0.7,0-1.3,0-2,0c0,1,0,2,0,3c-0.7,0-1.3,0-2,0c-0.3,0.6-0.6,1.2-0.9,1.9c-0.7,1.4-1.4,2.8-2.1,4.1c-0.7,0-1.3,0-2,0
	c-0.2,0.7-0.5,1.4-0.7,2.2c-1.6,3.4-3.5,5.4-6.3,7.8c-0.7,0-1.3,0-2,0c0,0.7,0,1.3,0,2c-0.7,0-1.3,0-2,0c0,0.7,0,1.3,0,2
	c-1.7,1.7-1.7,1.7-3.9,3.6c-0.7,0.6-1.4,1.3-2.2,1.9c-1.9,1.5-1.9,1.5-3.9,1.5c0,0.7,0,1.3,0,2c-1,0.3-2,0.7-3,1
	c-0.3,0.7-0.7,1.3-1,2c-1,0-2,0-3,0c0,0.7,0,1.3,0,2c-2,0.7-4,1.3-6,2c0,0.7,0,1.3,0,2c-1.3,0-2.6,0-4,0c-0.3,1-0.7,2-1,3
	c-1.3,0-2.6,0-4,0c0,0.7,0,1.3,0,2c-1.6,0-3.3,0-5,0c0,0.7,0,1.3,0,2c-12.2,4.6-22.9,8.3-36,7c0,1,0,2,0,3c-11.2,0-22.4,0-34,0
	c0-1,0-2,0-3c-1,0-2.1,0.1-3.1,0.1c-7.8,0.2-14.1,0-21.4-3.1c-2.5-1.1-5-1.8-7.6-2.5c-9.5-2.8-17.7-8.1-25.9-13.6
	c-0.7-0.4-1.3-0.8-2-1.3c-1.4-0.9-2.7-1.8-4-2.7c0-0.7,0-1.3,0-2c-0.6-0.3-1.2-0.5-1.8-0.8c-2.3-1.2-4.3-2.5-6.2-4.2
	c0-0.7,0-1.3,0-2c-0.6-0.2-1.1-0.5-1.7-0.7c-7.8-4.5-14-14.2-19.3-21.3c-0.6-0.7-1.1-1.5-1.7-2.2c-4.7-6.3-8.1-13.1-11.5-20.1
	c-1-2.1-2.1-4.1-3.3-6.1c-1.9-3.3-3.2-6.8-4.5-10.3c-0.2-0.7-0.5-1.3-0.8-2c-0.5-1.4-1-2.7-1.5-4.1c-0.5-1.4-1-2.7-1.5-4
	c-1.8-4.7-3.2-9.4-4.3-14.4c-1.1-4.9-1.1-4.9-2.9-9.6c-0.3-2.3-0.5-4.7-0.7-7c-0.1-2-0.1-2-1.3-3c-0.3-3.7-0.4-7.4-0.6-11.1
	c-0.2-3.9-0.2-3.9-1.4-7.2c-1-4-1.3-7.6-1.3-11.7c0-0.7,0-1.5,0-2.2c0-1.5,0-3.1,0-4.6c0-2.3,0-4.7,0-7c0-1.5,0-3,0-4.5
	c0-0.7,0-1.4,0-2.1c0-4.3,0.8-7.7,2.3-11.7c0.3-2.6,0.4-5.2,0.6-7.8c0.3-7.1,0.3-7.1,1.4-9.2c0.3-2.2,0.4-4.5,0.6-6.7
	c0.4-2.4,1.2-4.1,2.4-6.3c0.2-1.6,0.2-1.6,0.4-3.2c0.5-3.4,1.5-6.2,2.7-9.4c1.4-3.8,2.2-7.7,3.1-11.7c0.7-2.6,0.7-2.6,2.7-5.6
	c0.5-1.8,0.9-3.6,1.2-5.4c1.3-5.9,3-11.7,4.8-17.4c2.3-7.4,4.1-14.8,5.5-22.4c0.5-2.7,0.5-2.7,1.5-3.7c0.1-1,0.2-1.9,0.3-2.9
	c0.5-4.1,2-7.6,3.6-11.4c1.4-3.4,2.4-6.9,3.4-10.4c0.7-2.5,1.6-4.8,2.7-7.2c0.7,0,1.3,0,2,0c0.1-0.6,0.3-1.2,0.4-1.8
	c1.6-6.1,4-11.1,7.1-16.5c2-3.8,3.2-7.6,4.4-11.7c0.7,0,1.3,0,2,0c0.1-0.7,0.2-1.4,0.3-2.2c0.7-3.1,1.8-5.6,3.2-8.4
	c1.5-3.1,2.8-6,3.5-9.4c0.7,0,1.3,0,2,0c0.1-0.7,0.2-1.4,0.3-2.2c0.7-2.8,0.7-2.8,2.1-5.1c2.4-4.2,3.7-8.7,5.2-13.3
	c1.4-3.6,3.2-6.3,5.4-9.5c0.8-2.2,0.8-2.2,1-4c0.7,0,1.3,0,2,0c-0.1-0.7-0.2-1.3-0.2-2c0.3-3.4,1.6-5.6,3.2-8.6
	c1.7-3.7,2.4-7.5,3.4-11.5c0.9-3.8,2.3-7.3,3.7-10.9c0.7-2,1.3-4,2-6c0.2-0.7,0.5-1.4,0.8-2.2c1.5-4.3,2.7-8.3,3.2-12.8
	c0.7,0,1.3,0,2,0c-0.1-0.8-0.2-1.6-0.2-2.4c0.2-3.3,0.7-4.8,2.1-7.7c2.2-4.5,3.3-9,4.4-13.8c0.8-2.9,1.7-5.7,2.8-8.5
	c2.2-5.7,3.6-11.5,5-17.5c0.7,0,1.3,0,2,0c-0.1-0.8-0.1-1.6-0.2-2.5c0.2-3.5,1.1-6,2.4-9.3c1.2-3.3,1.8-6.7,2.4-10.2
	c0.4-2,0.4-2,1.4-3c0.2-1.8,0.4-3.6,0.5-5.4c0.4-5.3,0.4-5.3,1.5-7.6c0.3-2.9,0.5-5.7,0.7-8.6c0.3-2.4,0.3-2.4,1.3-3.4
	c0.4-2.3,0.7-4.6,1-6.9c0.9-6.8,0.9-6.8,2-9.1c0.2-1.9,0.4-3.7,0.6-5.6c0.1-1.5,0.1-1.5,0.3-3c0.1-0.8,0.1-1.5,0.2-2.3
	c0.7,0,1.3,0,2,0c0-0.8,0-1.6,0-2.4c0-1,0-2,0-3.1c0-1,0-2,0-3.1c0.1-2.5,0.1-2.5,1.1-3.5c0.2-2.5,0.4-5,0.6-7.6
	c0-0.7,0.1-1.4,0.1-2.2c0.1-1.8,0.2-3.5,0.3-5.3c0.7,0,1.3,0,2,0c0-3,0-5.9,0-9c0.7-0.3,1.3-0.7,2-1c0.3-2.5,0.5-5,0.6-7.5
	c0.3-7.4,0.3-7.4,1.4-8.5c0.2-2.9,0.4-5.7,0.6-8.6c0.1-1.2,0.1-1.2,0.1-2.4c0.1-2,0.2-4,0.3-6c0.7,0,1.3,0,2,0
	C167.2,19.4,167.2,10.8,167.2,2z M161.2,376c-3.3,8.2-3.5,16.2-3.4,24.9c0,2.3,0,4.6,0,6.9c0,1.5,0,3,0,4.4c0,0.7,0,1.4,0,2
	c0.1,5.7,1.9,9.9,4.6,14.8c3.7,8.2,2.1,20.4,2.1,29.2c0,1.3,0,2.6,0.1,4c0,6.7-0.1,11.7-3.3,17.7c-0.3,1-0.7,2-1,3.1
	c-2.9,8.2-6.3,11.1-14,14.9c-0.7,0.7-1.3,1.3-2,2c0,1,0,2,0,3c-1,0-2,0-3,0c0.1-2.9,0.3-5.9,0.4-8.8c0-0.8,0.1-1.7,0.1-2.5
	c0.1-1.2,0.1-1.2,0.1-2.4c0-0.7,0.1-1.5,0.1-2.2c0.2-2,0.2-2,1.2-5c0.4-6,0.4-11.4-2-17c-1,0.3-2,0.7-3,1c-0.8,2-0.8,2-1.3,4.4
	c-0.7,2.5-0.7,2.5-1.7,4.6c-3,1.1-3,1.1-6,2c-1.4,2.8-1.4,2.8-2.1,4.9c-1.5,3.6-4,6.5-6.3,9.6c-3.4,5.3-4,10.5-4.1,16.7
	c0,1.2,0,1.2-0.1,2.3c-0.1,1.6-0.1,3.2-0.1,4.9c-0.1,2.5-0.2,4.9-0.3,7.4c-0.4,11.5-0.4,11.5,3,22.3c0.5,0.5,1,1,1.6,1.5
	c1.8,1.9,1.9,3,2.2,5.5c0.1,0.8,0.2,1.5,0.2,2.3c0.1,0.8,0.1,1.6,0.2,2.4c0.1,0.8,0.2,1.6,0.2,2.4c0.2,2,0.4,3.9,0.6,5.9
	c-1,0-2,0-3,0c-0.3-0.8-0.6-1.6-0.9-2.4c-0.8-2.5-0.8-2.5-2.1-3.6c-2.8-0.5-5.7-1-8.5-1.4c-0.8-0.2-1.6-0.4-2.5-0.6
	c-1.4-2.8-1.6-5.5-2.1-8.6c-0.2-1.2-0.4-2.4-0.5-3.6c-0.1-0.9-0.3-1.8-0.4-2.8c-0.7,0-1.3,0-2,0c-2.1,4.2-2.3,8.1-2.3,12.8
	c0,0.7,0,1.4,0,2.1c0.1,5.2,0.4,10.6,3.3,15.1c1.3,0.7,2.7,1.3,4,2c0.1,0.9,0.2,1.9,0.4,2.9c0.3,3.4,0.3,3.4,3.6,5.1
	c1,0.7,2,1.3,3.1,2c1.4,3.2,1.4,3.2,2,6c1.3,0,2.6,0,4,0c0,1.2,0.1,2.3,0.1,3.5c0.1,1.5,0.1,3.1,0.2,4.6c0,0.8,0,1.5,0,2.3
	c0.3,6.3,2.2,9.9,6.6,14.5c2,1.7,4.1,3.4,6.1,5.1c0.6,0.5,1.3,1,1.9,1.5c4.8,3.4,8.9,4.1,14.8,4.1c0.8,0.1,1.5,0.2,2.3,0.3
	c0.7,1,1.3,2,2,3c3.1,1.1,4.6,1.1,7.7,0.1c4.5-1.4,8.6-1.8,13.3-1.1c1.8,1.1,1.8,1.1,3.4,2.5c4.5,3.9,10,2.9,15.6,2.5
	c2.7-4.6,3.3-7.7,3-13c1.5,0,1.5,0,3-0.1c3.6-0.5,5-1.7,7.4-4.2c4.4-4.3,9.1-5.2,14.9-6.2c3.5-0.7,5.4-1.3,8-3.8
	c1.7-2.9,2.6-5.3,3.3-8.5c1.2-5.2,1.2-5.2,2.3-6.2c0.1-1.4,0.2-2.8,0.2-4.1c0-1.3,0-1.3,0.1-2.5c0.1-1.8,0.1-3.6,0.2-5.3
	c0-0.8,0.1-1.7,0.1-2.6c0-1.2,0-1.2,0.1-2.3c0.3-2.1,0.3-2.1,2.3-5.1c1.3-7.5-0.7-13.8-5-20c-2.6-2.4-2.6-2.4-6-3
	c-2.5,7-1.9,12.9,0,20c-5,0.9-9.7,1-14.8,0.8c-2.5,0-2.5,0-5.2,2.2c0,0.7,0,1.3,0,2c-1,0-2,0-3,0c0.7-7.8,2.9-13.2,7.4-19.6
	c5.8-8.9,3.3-25.2,1.4-35.2c-1.8-7.3-5.4-12.3-10.1-18c-3.6-4.6-3.8-8.2-3.7-13.8c-0.1-3.9-1.1-7.6-2.1-11.4c-3,2.4-3.6,4.2-4,8
	c-0.1,3.3,0,6.5,0.1,9.8c0.1,27.4,0.1,27.4-9.1,39.2c-0.3,0.7-0.7,1.3-1,2c-1.6,0-3.3,0-5,0c0.1-2.2,0.2-4.5,0.4-6.7
	c0.1-1.2,0.1-2.5,0.2-3.8c0.4-3.6,0.4-3.6,1.4-6.1c6-15.2,0-41.4-2.9-56.9c-0.9-4.8-1.3-9.5-1.7-14.4c-0.7-11-3.5-19.3-8.4-29.1
	c-1-2.3-2-4.7-3-7c-0.4-0.8-0.8-1.5-1.2-2.3c-1.4-4.6-1.5-10-0.3-14.7c0.6-2.4,0.6-4.6,0.6-7.1c0-0.9,0-1.7,0-2.6
	c0-2.5,0-2.5-1.1-5.3C162.5,376,161.8,376,161.2,376z"/>
<path class="st1" d="M167.2,2c2.3,0,4.6,0,7,0c0,0.7,0,1.3,0,2c-1.6,0-3.3,0-5,0c0,8.2,0,16.5,0,25c-0.7,0-1.3,0-2,0
	c0,5.9,0,11.9,0,18c-1,0.5-1,0.5-2,1c-0.3,2.5-0.5,5-0.6,7.5c-0.3,7.4-0.3,7.4-1.4,8.5c-0.2,1.3-0.4,2.7-0.5,4
	c-0.4,3.9-0.4,3.9-1.5,5c-0.2,2.5-0.4,5-0.6,7.6c0,0.7-0.1,1.4-0.1,2.2c-0.1,1.8-0.2,3.5-0.3,5.3c-0.7,0-1.3,0-2,0
	c0,0.8,0,1.6,0,2.4c0,1,0,2,0,3.1c0,1,0,2,0,3.1c-0.1,2.5-0.1,2.5-1.1,3.5c-0.3,2.5-0.4,5-0.6,7.5c-0.4,2.5-0.4,2.5-1.4,4.5
	c-1.3,2.6-1.4,4.8-1.6,7.7c-0.3,5.2-0.3,5.2-1.4,7.4c-0.3,2.9-0.5,5.7-0.7,8.6c-0.3,2.4-0.3,2.4-1.3,3.4c-0.3,2.8-0.4,5.6-0.6,8.3
	c-0.4,2.7-0.4,2.7-2.4,5.7c-0.3,2-0.3,2-0.4,4.2c-0.4,4-1.3,7.2-2.8,10.9c-0.9,2.1-0.9,2.1-1.8,5.5c-1,3.4-1,3.4-2.4,6.6
	c-2,4.4-2.8,9.1-3.8,13.8c-0.7,3.1-1.7,5.9-2.9,8.9c-1.5,4.2-2.6,8.6-3.8,12.9c-0.8,2.7-1.6,5.2-2.7,7.8c-1.2,3.2-1.9,6.1-2.3,9.5
	c-0.7,0-1.3,0-2,0c0,0.9,0.1,1.9,0.1,2.8c-0.1,3.2-0.1,3.2-2.1,6.2c-0.6,1.9-1,3.8-1.5,5.8c-1.1,4.5-2.2,8.9-3.5,13.2
	c-0.7,0-1.3,0-2,0c-0.1,1.6-0.1,1.6-0.2,3.3c-0.6,4.8-2.5,8.8-4.6,13.1c-1.3,2.5-1.3,2.5-2.2,5c-1.5,3.6-3.3,7-5,10.4
	c-2.9,5.6-5.3,11.1-7.1,17.2c-0.7,0-1.3,0-2,0c-0.1,0.7-0.2,1.5-0.4,2.2c-0.7,2.8-1.6,4.9-3,7.5c-2.2,4.2-4,8.5-5.7,13
	c-1,2.3-1,2.3-2.5,4.7c-1.7,2.9-2.9,5.8-4,9c-1.7,4.6-3.5,9.1-5.5,13.6c-0.7,0-1.3,0-2,0c-0.1,0.7-0.3,1.5-0.4,2.2
	c-0.5,2.3-1,4.5-1.6,6.8c-0.7,0-1.3,0-2,0c-0.1,0.7-0.2,1.4-0.4,2.1c-1.7,8-1.7,8-3.6,9.9c-0.2,1.2-0.3,2.3-0.5,3.5
	c-0.5,3.5-0.5,3.5-1.5,4.5c-0.2,1.2-0.3,2.3-0.5,3.5c-0.5,3.5-0.5,3.5-1.5,4.5c-0.1,1.1-0.2,2.3-0.3,3.4c-0.5,4.4-2,8.1-3.8,12.2
	c-1.2,3.2-1.6,6.1-1.9,9.4c-0.3,0.3-0.7,0.7-1,1c-0.2,1.2-0.3,2.3-0.5,3.5c-0.5,3.5-0.5,3.5-1.5,4.5c-0.1,1-0.2,2-0.3,3
	c-0.4,3-1.2,5.4-2.6,8.1c-2.3,4.8-3.3,9.6-4.4,14.8c-0.7,3.2-1.8,6.1-3,9.2c-1.1,3-1.7,6-2.3,9.1c-0.4,1.8-0.4,1.8-1.4,2.8
	c-0.2,1.5-0.4,3-0.5,4.4c-0.4,4.3-0.4,4.3-1.5,6.6c-0.3,3.3-0.4,6.6-0.6,9.8c-0.3,2.9-0.9,4.7-2.4,7.2c-1.5-3.1-0.9-6.2-0.6-9.5
	c0-0.7,0.1-1.4,0.1-2.1c0.4-5.1,0.4-5.1,1.5-7.4c0.3-2.2,0.4-4.5,0.6-6.7c0.4-2.4,1.2-4.1,2.4-6.3c0.2-1.6,0.2-1.6,0.4-3.2
	c0.5-3.4,1.5-6.2,2.7-9.4c1.4-3.8,2.2-7.7,3.1-11.7c0.7-2.6,0.7-2.6,2.7-5.6c0.5-1.8,0.9-3.6,1.2-5.4c1.3-5.9,3-11.7,4.8-17.4
	c2.3-7.4,4.1-14.8,5.5-22.4c0.5-2.7,0.5-2.7,1.5-3.7c0.1-1,0.2-1.9,0.3-2.9c0.5-4.1,2-7.6,3.6-11.4c1.4-3.4,2.4-6.9,3.4-10.4
	c0.7-2.5,1.6-4.8,2.7-7.2c0.7,0,1.3,0,2,0c0.1-0.6,0.3-1.2,0.4-1.8c1.6-6.1,4-11.1,7.1-16.5c2-3.8,3.2-7.6,4.4-11.7c0.7,0,1.3,0,2,0
	c0.1-0.7,0.2-1.4,0.3-2.2c0.7-3.1,1.8-5.6,3.2-8.4c1.5-3.1,2.8-6,3.5-9.4c0.7,0,1.3,0,2,0c0.1-0.7,0.2-1.4,0.3-2.2
	c0.7-2.8,0.7-2.8,2.1-5.1c2.4-4.2,3.7-8.7,5.2-13.3c1.4-3.6,3.2-6.3,5.4-9.5c0.8-2.2,0.8-2.2,1-4c0.7,0,1.3,0,2,0
	c-0.1-0.7-0.2-1.3-0.2-2c0.3-3.4,1.6-5.6,3.2-8.6c1.7-3.7,2.4-7.5,3.4-11.5c0.9-3.8,2.3-7.3,3.7-10.9c0.7-2,1.3-4,2-6
	c0.2-0.7,0.5-1.4,0.8-2.2c1.5-4.3,2.7-8.3,3.2-12.8c0.7,0,1.3,0,2,0c-0.1-0.8-0.2-1.6-0.2-2.4c0.2-3.3,0.7-4.8,2.1-7.7
	c2.2-4.5,3.3-9,4.4-13.8c0.8-2.9,1.7-5.7,2.8-8.5c2.2-5.7,3.6-11.5,5-17.5c0.7,0,1.3,0,2,0c-0.1-0.8-0.1-1.6-0.2-2.5
	c0.2-3.5,1.1-6,2.4-9.3c1.2-3.3,1.8-6.7,2.4-10.2c0.4-2,0.4-2,1.4-3c0.2-1.8,0.4-3.6,0.5-5.4c0.4-5.3,0.4-5.3,1.5-7.6
	c0.3-2.9,0.5-5.7,0.7-8.6c0.3-2.4,0.3-2.4,1.3-3.4c0.4-2.3,0.7-4.6,1-6.9c0.9-6.8,0.9-6.8,2-9.1c0.2-1.9,0.4-3.7,0.6-5.6
	c0.1-1.5,0.1-1.5,0.3-3c0.1-0.8,0.1-1.5,0.2-2.3c0.7,0,1.3,0,2,0c0-0.8,0-1.6,0-2.4c0-1,0-2,0-3.1c0-1,0-2,0-3.1
	c0.1-2.5,0.1-2.5,1.1-3.5c0.2-2.5,0.4-5,0.6-7.6c0-0.7,0.1-1.4,0.1-2.2c0.1-1.8,0.2-3.5,0.3-5.3c0.7,0,1.3,0,2,0c0-3,0-5.9,0-9
	c0.7-0.3,1.3-0.7,2-1c0.3-2.5,0.5-5,0.6-7.5c0.3-7.4,0.3-7.4,1.4-8.5c0.2-2.9,0.4-5.7,0.6-8.6c0.1-1.2,0.1-1.2,0.1-2.4
	c0.1-2,0.2-4,0.3-6c0.7,0,1.3,0,2,0C167.2,19.4,167.2,10.8,167.2,2z"/>
<path class="st1" d="M167.2,2c2.3,0,4.6,0,7,0c0,0.7,0,1.3,0,2c-1.6,0-3.3,0-5,0c0,8.2,0,16.5,0,25c-0.7,0-1.3,0-2,0
	c0,5.9,0,11.9,0,18c-1,0.5-1,0.5-2,1c-0.3,2.5-0.5,5-0.6,7.5c-0.3,7.4-0.3,7.4-1.4,8.5c-0.2,1.3-0.4,2.7-0.5,4
	c-0.4,3.9-0.4,3.9-1.5,5c-0.2,2.5-0.4,5-0.6,7.6c0,0.7-0.1,1.4-0.1,2.2c-0.1,1.8-0.2,3.5-0.3,5.3c-0.7,0-1.3,0-2,0
	c0,0.8,0,1.6,0,2.4c0,1,0,2,0,3.1c0,1,0,2,0,3.1c-0.1,2.5-0.1,2.5-1.1,3.5c-0.3,2.5-0.4,5-0.6,7.5c-0.4,2.5-0.4,2.5-1.4,4.5
	c-1.3,2.6-1.4,4.8-1.6,7.7c-0.3,5.2-0.3,5.2-1.4,7.4c-0.3,2.9-0.5,5.7-0.7,8.6c-0.3,2.4-0.3,2.4-1.3,3.4c-0.2,1.8-0.4,3.7-0.6,5.6
	c-0.1,1-0.2,2-0.3,3.1c-0.1,0.8-0.1,1.6-0.2,2.4c-0.3,0-0.7,0-1,0c-0.2-1.8-0.4-3.6-0.6-5.4c-0.1-1-0.2-2-0.3-3
	c-0.1-2.6-0.1-2.6,0.9-4.6c0.3-2.9,0.5-5.7,0.7-8.6c0.3-2.4,0.3-2.4,1.3-3.4c0.4-2.3,0.7-4.6,1-6.9c0.9-6.8,0.9-6.8,2-9.1
	c0.2-1.9,0.4-3.7,0.6-5.6c0.1-1,0.2-2,0.3-3c0.1-0.8,0.1-1.5,0.2-2.3c0.7,0,1.3,0,2,0c0-0.8,0-1.6,0-2.4c0-1,0-2,0-3.1
	c0-1,0-2,0-3.1c0.1-2.5,0.1-2.5,1.1-3.5c0.2-2.5,0.4-5,0.6-7.6c0-0.7,0.1-1.4,0.1-2.2c0.1-1.8,0.2-3.5,0.3-5.3c0.7,0,1.3,0,2,0
	c0-3,0-5.9,0-9c1-0.5,1-0.5,2-1c0.3-2.5,0.5-5,0.6-7.5c0.3-7.4,0.3-7.4,1.4-8.5c0.2-2.9,0.4-5.7,0.6-8.6c0-0.8,0.1-1.6,0.1-2.4
	c0.1-2,0.2-4,0.3-6c0.7,0,1.3,0,2,0C167.2,19.4,167.2,10.8,167.2,2z"/>
<path class="st2" d="M163.2,376c0.7,0,1.3,0,2,0c1,2.9,1.1,4.9,1.1,7.9c0,0.9,0,1.7,0,2.6c-0.1,2.3-0.6,4.2-1.1,6.5
	c-1.1,12.4,3.7,21.9,9.3,32.6c2.4,4.7,2.9,8,3.1,13.2c0.3,6.8,1.3,13.2,2.6,19.9c1.7,9.3,2.7,18.5,3.3,27.9c0.1,1.8,0.1,1.8,0.2,3.7
	c1.4,23.6,1.4,23.6-1.5,28.7c-0.3,2.2-0.5,4.5-0.6,6.8c-0.1,1.2-0.1,2.3-0.2,3.5c0,0.9-0.1,1.8-0.1,2.7c-0.7,0-1.3,0-2,0
	c-0.1-2.2-0.1-4.5-0.1-6.7c0-1.2,0-2.5-0.1-3.8c0.2-3.4,0.9-5.4,2.2-8.6c1.6-17.8-0.6-37-3.9-54.5c-0.9-4.8-1.3-9.5-1.7-14.4
	c-0.7-11-3.5-19.3-8.4-29.1c-1-2.3-2-4.7-3-7c-0.4-0.8-0.8-1.5-1.2-2.3c-1.4-4.6-1.6-9.9-0.3-14.6c0.7-3,0.6-5.8,0.6-8.9
	c0-1.2,0-2.3,0-3.5C163.2,377.8,163.2,376.9,163.2,376z"/>
<path class="st3" d="M232.2,547c4,1.3,5.3,3.7,7.2,7.1c1.5,3.4,2,6.6,2,10.4c0,0.8,0,1.5,0,2.3c-0.2,2.2-0.2,2.2-1.2,4
	c-1.5,3.4-1.4,6.8-1.5,10.4c-0.3,6.5-1.1,11.8-3.6,17.8c-0.3,1.3-0.6,2.5-0.9,3.8c-1.2,3.6-2.1,4.8-5.1,7.2
	c-2.5,0.8-4.8,1.4-7.4,1.9c-6,1.3-6,1.3-11,4.6c-3.5,3.2-7.1,4.2-11.6,5.4c0,0.7-0.1,1.4-0.1,2.1c-0.1,1.4-0.1,1.4-0.2,2.7
	c-0.1,0.9-0.1,1.8-0.2,2.7c-0.6,2.9-1,3.9-3.5,5.5c-5.3,0.8-11.1,1.1-15.7-1.9c-2.3-2.1-2.3-2.1-3.3-4.1c2,1,4,2,6,3
	c2,0.1,4.1,0.1,6.1,0.1c1.1,0,2.2,0,3.3,0c0.8,0,1.7,0,2.6,0c1.7-4,2.5-7.7,3-12c0.6-0.1,1.2-0.3,1.8-0.4c5.2-1.5,7.6-2.9,11.2-7.1
	c3.6-2.6,8.1-3.2,12.4-4c3.1-0.6,5.2-1.1,7.5-3.2c1.3-2.6,2.1-5.1,2.7-7.9c1.3-5.2,1.3-5.2,2.4-6.3c0.1-1.4,0.2-2.8,0.2-4.1
	c0-0.8,0.1-1.7,0.1-2.5c0.1-1.8,0.1-3.6,0.2-5.3c0-0.8,0.1-1.7,0.1-2.6c0-1.2,0-1.2,0.1-2.3c0.3-2.1,0.3-2.1,2.3-5.1
	c1.4-7.8-1.1-13.4-5-20C232.7,548,232.7,548,232.2,547z"/>
<path class="st4" d="M147.2,141c0.3,0,0.7,0,1,0c0,1.8,0,3.6,0.1,5.4c0,1,0,2,0,3.1c-0.1,2.5-0.1,2.5-1.1,3.5
	c-0.2,1.4-0.3,2.7-0.4,4.1c-0.4,4-1.3,7.3-2.9,11c-0.9,2.1-0.9,2.1-1.8,5.5c-1,3.4-1,3.4-2.4,6.6c-2,4.4-2.8,9.1-3.8,13.8
	c-0.7,3.1-1.7,5.9-2.9,8.9c-1.5,4.2-2.5,8.6-3.7,13c-1.2,3.4-2.7,5.6-5.2,8.3c-0.5-3.6,0.3-5.9,1.8-9.1c2.1-4.5,3.3-9,4.4-13.9
	c0.8-2.9,1.7-5.7,2.8-8.5c2.2-5.7,3.6-11.5,5-17.5c0.7,0,1.3,0,2,0c-0.1-0.8-0.1-1.6-0.2-2.5c0.2-3.5,1.1-6,2.4-9.3
	c1.2-3.3,1.8-6.7,2.4-10.2c0.4-2,0.4-2,1.4-3c0.2-1.5,0.4-3,0.6-4.6c0.1-0.8,0.2-1.7,0.3-2.5C147.1,142,147.1,142,147.2,141z"/>
<path class="st5" d="M211.2,508c5,4,5.3,11,6,17c0.9,12.4,1.2,24.1-6.9,34.2c-1.8,2.8-2.2,5.7-2.7,9c-0.2,0.6-0.3,1.2-0.5,1.8
	c-1,0.5-1,0.5-2,1c-0.1-8.1,1.7-13,6.4-19.6c6.1-9.3,3.2-26.4,1.1-36.7C212.2,512.4,211.7,510.2,211.2,508z"/>
<path class="st5" d="M71.2,356c0.3,1,0.7,2,1,3c-1,0.3-2,0.7-3,1c-0.1,0.7-0.3,1.5-0.4,2.2c-0.5,2.3-1,4.5-1.6,6.8c-0.7,0-1.3,0-2,0
	c-0.1,0.7-0.2,1.4-0.4,2.1c-1.7,8-1.7,8-3.6,9.9c-0.2,1.2-0.3,2.3-0.5,3.5c-0.5,3.5-0.5,3.5-1.5,4.5c-0.2,1.2-0.3,2.3-0.5,3.5
	c-0.5,3.5-0.5,3.5-1.5,4.5c-0.2,2-0.5,3.9-0.7,5.9c-0.4,2.8-1.3,5.5-2.3,8.1c-2.2-3.5-2-5.7-1.2-9.7c0.3-1.5,0.3-1.5,0.6-2.9
	c0.6-2.4,0.6-2.4,1.6-3.4c0.1-1,0.2-1.9,0.3-2.9c0.5-4.1,2-7.6,3.6-11.4c1.4-3.4,2.4-6.9,3.4-10.4c0.7-2.5,1.6-4.8,2.7-7.2
	c0.7,0,1.3,0,2,0c0.3-0.8,0.6-1.6,0.9-2.4C69.2,358,69.2,358,71.2,356z"/>
<path class="st2" d="M232.2,547c4,1.3,5.3,3.7,7.2,7.1c1.5,3.4,2,6.6,2,10.4c0,0.8,0,1.5,0,2.3c-0.2,2.2-0.2,2.2-1.2,4
	c-1.5,3.3-1.3,6.6-1.4,10.2c-0.3,7.9-1.8,14.6-4.6,22.1c-0.7,0-1.3,0-2,0c0.1-1.4,0.2-2.9,0.4-4.3c0.1-0.8,0.1-1.6,0.2-2.4
	c0.4-2.3,0.4-2.3,2.4-5.3c0.3-2.1,0.3-2.1,0.3-4.3c0-0.8,0.1-1.7,0.1-2.5c0-0.9,0-1.7,0.1-2.6c0-1.7,0.1-3.4,0.2-5.2
	c0-0.8,0-1.5,0.1-2.3c0.3-2,0.3-2,2.3-5c1.4-7.8-1.1-13.4-5-20C232.8,548.3,232.5,547.7,232.2,547z"/>
<path class="st6" d="M157.2,89c0.3,0,0.7,0,1,0c0,1.6,0,3.3,0.1,4.9c0,0.9,0,1.8,0,2.8c-0.1,2.3-0.1,2.3-1.1,3.3
	c-0.3,2.5-0.4,5-0.6,7.5c-0.4,2.5-0.4,2.5-1.4,4.5c-1.3,2.6-1.4,4.8-1.6,7.7c-0.3,5.2-0.3,5.2-1.4,7.4c-0.3,2.9-0.5,5.7-0.7,8.6
	c-0.3,2.4-0.3,2.4-1.3,3.4c-0.2,1.8-0.4,3.7-0.6,5.6c-0.1,1-0.2,2-0.3,3.1c-0.1,1.2-0.1,1.2-0.2,2.4c-0.3,0-0.7,0-1,0
	c-0.2-1.8-0.4-3.6-0.6-5.4c-0.1-1-0.2-2-0.3-3c-0.1-2.6-0.1-2.6,0.9-4.6c0.3-2.9,0.5-5.7,0.7-8.6c0.3-2.4,0.3-2.4,1.3-3.4
	c0.4-2.3,0.7-4.6,1-6.9c0.9-6.8,0.9-6.8,2-9.1c0.3-2.9,0.4-5.7,0.6-8.6c0.1-0.8,0.3-1.6,0.4-2.4c0.7-0.3,1.3-0.7,2-1
	c0.5-1.9,0.5-1.9,0.6-4.1C156.9,91.6,157,90.3,157.2,89z"/>
<path class="st5" d="M125.2,221c0.3,0,0.7,0,1,0c0.3,4.3-0.7,7.9-2,12c-0.7,0-1.3,0-2,0c0,0.9,0.1,1.9,0.1,2.8
	c-0.1,3.2-0.1,3.2-2.1,6.2c-0.6,1.9-1,3.8-1.5,5.8c-1.1,4.5-2.2,8.9-3.5,13.2c-0.7,0-1.3,0-2,0c-0.3,0.7-0.7,1.3-1,2
	c-0.3-0.7-0.7-1.3-1-2c0.7-1.8,1.4-3.7,2.1-5.5c1.4-3.9,2.2-7.9,3.1-11.9c0.7-2.6,0.7-2.6,2.7-5.6c0.8-3.4,1.5-6.8,2.2-10.2
	c0.3-0.9,0.5-1.9,0.8-2.8c0.7-0.3,1.3-0.7,2-1C124.5,223,124.8,222,125.2,221z"/>
<path class="st7" d="M167.2,2c2.3,0,4.6,0,7,0c0,0.7,0,1.3,0,2c-1.6,0-3.3,0-5,0c0,8.2,0,16.5,0,25c-0.7,0-1.3,0-2,0
	c0,5.9,0,11.9,0,18c-0.3,0-0.7,0-1,0c-0.3-6.3-0.7-12.5-1-19c0.7,0,1.3,0,2,0C167.2,19.4,167.2,10.8,167.2,2z"/>
<path class="st8" d="M141.2,465c2.8,2.6,3.9,4.5,4.2,8.5c0,4.2,0.1,7.8-1.2,11.9c-1.6,5.8-1.1,11.7-1,17.7c-0.7,0-1.3,0-2,0
	c0-2.9,0-5.9-0.1-8.8c0-0.8,0-1.7,0-2.5c0-0.8,0-1.6,0-2.4c0-0.7,0-1.5,0-2.2c0.1-2,0.1-2,1.1-5C142.5,476.3,142.4,470.6,141.2,465z
	"/>
<path class="st9" d="M215.2,545c0.8,2.4,1.1,3.6,0.3,6c-0.4,0.7-0.7,1.3-1.1,2c-0.4,0.7-0.7,1.4-1.1,2.1c-1.1,1.9-1.1,1.9-2.7,3.8
	c-1.9,2.9-2.3,5.8-2.8,9.1c-0.3,1-0.3,1-0.5,1.9c-0.7,0.3-1.3,0.7-2,1c-0.1-8,1.7-13,6.3-19.6C212.9,549.3,214.1,547.3,215.2,545z"
	/>
<path class="st10" d="M183.2,501c0.3,0,0.7,0,1,0c0.1,2.2,0.1,4.5,0.1,6.8c0,1.3,0,2.5,0.1,3.8c-0.2,3.4-0.7,4.6-2.2,7.5
	c-0.3,2.2-0.5,4.5-0.6,6.8c-0.1,1.2-0.1,2.3-0.2,3.5c0,0.9-0.1,1.8-0.1,2.7c-0.7,0-1.3,0-2,0c-0.1-2.2-0.1-4.4-0.2-6.6
	c-0.1-1.8-0.1-1.8-0.1-3.7c0.3-4,1.5-6.2,3.3-9.6c0.6-3,0.6-3,0.7-5.9c0.1-1.5,0.1-1.5,0.2-2.9C183.1,502.5,183.1,501.7,183.2,501z"
	/>
<path class="st11" d="M197.2,627c0.3,0,0.7,0,1,0c0.4,4.5,0.4,4.5-1.1,6.6c-3.9,2.9-9.3,1.9-13.9,1.4c-3.2-1.3-5.4-2.8-7-6
	c2,1,4,2,6,3c2,0.2,4,0.3,5.9,0.4c1.6,0.1,1.6,0.1,3.2,0.1c3.1-0.2,3.1-0.2,4.7-3C196.4,628.7,196.8,627.8,197.2,627z"/>
<path class="st12" d="M111.2,262c0.3,0,0.7,0,1,0c0.7,6.7-1.5,12.3-5,18c-1,0.3-2,0.7-3,1c0-0.7,0-1.3,0-2c0.7,0,1.3,0,2,0
	c-0.1-0.7-0.2-1.3-0.2-2c0.3-3.6,1.5-5.9,3.3-9C110.2,266,110.7,264.2,111.2,262z"/>
<path class="st13" d="M157.2,89c0.3,0,0.7,0,1,0c0,1.6,0,3.3,0.1,4.9c0,0.9,0,1.8,0,2.8c-0.1,2.3-0.1,2.3-1.1,3.3
	c-0.2,1.7-0.4,3.4-0.6,5.1c-0.1,1.4-0.1,1.4-0.3,2.8c-0.1,0.7-0.1,1.4-0.2,2.2c-1,0-2,0-3,0c0.1-2,0.2-4,0.4-5.9
	c0.1-1.1,0.1-2.2,0.2-3.3c0.1-0.9,0.3-1.8,0.4-2.7c0.7-0.3,1.3-0.7,2-1c0.5-1.9,0.5-1.9,0.6-4.1C156.9,91.6,157,90.3,157.2,89z"/>
<path class="st3" d="M175.2,627c0.3,0.7,0.7,1.3,1,2c-0.9,0-0.9,0-1.9-0.1c-0.8,0-1.6,0-2.4-0.1c-1.2,0-1.2,0-2.4-0.1
	c-2.5,0-2.5,0-5.3,2.2c-2.2,0.2-2.2,0.2-4.6,0.2c-1.2,0-1.2,0-2.4,0c-2.1-0.2-2.1-0.2-4.1-1.2c0.3-0.7,0.7-1.3,1-2
	c1.1,0.3,1.1,0.3,2.1,0.6c2.9,0.6,2.9,0.6,5.6-0.6C166.3,626.6,170.5,626.8,175.2,627z"/>
<path class="st14" d="M138.2,177c0.3,0,0.7,0,1,0c0.3,4.6-0.5,7.8-2.2,12c-1.2,3-2,6-2.8,9c-0.7-0.7-1.3-1.3-2-2
	c0.6-2.2,1.2-4.5,1.9-6.7c0.5-1.9,0.5-1.9,1.1-3.8C136,182.6,137,179.8,138.2,177z"/>
<path class="st15" d="M165.2,30c0.3,0,0.7,0,1,0c0,2.8,0,5.6,0.1,8.4c0,0.8,0,1.6,0,2.4c0,2,0,4.1-0.1,6.1c-0.3,0.3-0.7,0.7-1,1
	c-0.2,2-0.4,4-0.6,6.1c-0.1,1.1-0.2,2.2-0.3,3.3c-0.1,0.9-0.1,1.7-0.2,2.6c-0.3,0-0.7,0-1,0c0-2.3,0-4.6-0.1-6.9c0-1.3,0-2.6,0-3.9
	c0.1-3.2,0.1-3.2,1.1-4.2c0.2-2.5,0.4-5,0.6-7.6c0-0.7,0.1-1.4,0.1-2.2C165,33.5,165.1,31.8,165.2,30z"/>
<path class="st6" d="M97.2,296c1.3,3.6,0.7,5.7-0.7,9.2c-0.3,0.9-0.7,1.8-1,2.7c-1.3,2.1-1.3,2.1-3.4,2.9c-0.9,0.1-0.9,0.1-1.9,0.2
	c1.8-5.8,1.8-5.8,4-8C95.2,300.7,96.2,298.4,97.2,296z"/>
<path class="st6" d="M147.2,141c0.3,0,0.7,0,1,0c0,1.8,0,3.6,0.1,5.4c0,1,0,2,0,3.1c-0.1,2.5-0.1,2.5-1.1,3.5
	c-0.2,1.5-0.4,3-0.6,4.6c-0.1,0.8-0.2,1.7-0.3,2.5c-0.1,0.6-0.1,1.3-0.2,1.9c-1-0.3-2-0.7-3-1c0.3-1.6,0.6-3.3,0.9-4.9
	c0.2-0.9,0.3-1.8,0.5-2.8c0.5-2.3,0.5-2.3,1.5-3.3c0.2-1.5,0.4-3,0.6-4.6c0.1-0.8,0.2-1.7,0.3-2.5C147,142.3,147.1,141.7,147.2,141z
	"/>
<path class="st15" d="M158.2,73c0.3,0,0.7,0,1,0c0,2.5,0,5,0.1,7.4c0,0.7,0,1.4,0,2.1c0,1.8,0,3.6-0.1,5.4c-0.3,0.3-0.7,0.7-1,1
	c-0.2,1.3-0.4,2.7-0.6,4.1c-0.1,1.3-0.3,2.6-0.4,3.9c-0.3,0-0.7,0-1,0c0-1.6,0-3.3-0.1-4.9c0-0.9,0-1.8,0-2.8
	c0.1-2.3,0.1-2.3,1.1-3.3c0.2-2.2,0.4-4.4,0.6-6.6c0.1-1.2,0.2-2.4,0.3-3.6C158,74.9,158.1,74,158.2,73z"/>
<path class="st16" d="M150.2,130c0.3,0,0.7,0,1,0c0.1,6.2,0.1,6.2,0,8c-0.3,0.3-0.7,0.7-1,1c-0.2,1.8-0.4,3.7-0.6,5.6
	c-0.1,1-0.2,2-0.3,3.1c-0.1,0.8-0.1,1.6-0.2,2.4c-0.3,0-0.7,0-1,0c-0.2-1.8-0.4-3.5-0.6-5.3c-0.1-1-0.2-2-0.4-3c0-2.7,0-2.7,2-5.7
	C149.6,134,149.9,132,150.2,130z"/>
<path class="st17" d="M39.2,453c0.3,0,0.7,0,1,0c0.2,5.2-0.4,9.1-2,14c-0.3,0-0.7,0-1,0C35.8,461.1,36.5,458.2,39.2,453z"/>
<path class="st9" d="M235.2,592c1.4,4.3,0.2,6.7-1,11c-0.7,0-1.3,0-2,0c0.1-1.5,0.2-2.9,0.4-4.4c0.1-0.8,0.1-1.6,0.2-2.5
	C233.2,594,233.2,594,235.2,592z"/>
<path class="st7" d="M48.2,426c0.6,1.9,0.6,1.9,1,4c-0.3,0.3-0.7,0.7-1,1c-0.4,2.3-0.7,4.7-1,7c-0.7-0.7-1.3-1.3-2-2
	C45.5,431.9,45.8,429.5,48.2,426z"/>
<path class="st18" d="M213.2,611c1.3,0.7,2.6,1.3,4,2c-2.9,1.8-5.9,3.5-9,5C209.5,615.1,210.8,613.1,213.2,611z"/>
<path class="st19" d="M55.2,399c0.3,0,0.7,0,1,0c0.2,4.5-0.4,7.8-2,12c-1.1-1.7-1.1-1.7-2-4c0.8-2.6,0.8-2.6,2-5
	C54.5,401,54.8,400,55.2,399z"/>
<path class="st14" d="M127.2,213c0.3,0,0.7,0,1,0c0.4,3.9,0.3,5.6-2,8.9c-0.7,0.7-1.3,1.4-2,2.1C123.8,219.6,125,216.9,127.2,213z"
	/>
<path class="st20" d="M79.2,335c0.7,1.6,0.7,1.6,1,4c-1.4,3.2-1.4,3.2-3,6c-0.7,0-1.3,0-2,0C76.2,341.2,77,338.3,79.2,335z"/>
<path class="st18" d="M114.2,254c0.7,0.3,1.3,0.7,2,1c-0.3,2-0.7,4-1,6c-0.7,0-1.3,0-2,0c-0.3,0.7-0.7,1.3-1,2c-0.3-0.7-0.7-1.3-1-2
	C112.1,258.6,113.1,256.3,114.2,254z"/>
<path class="st21" d="M123.2,558c0.3,0,0.7,0,1,0c0,2.3,0,4.6,0,7c-1,0-2,0-3,0c-0.7-1.7-1.3-3.3-2-5c1,0.3,2,0.7,3,1
	C122.5,560,122.8,559,123.2,558z"/>
<path class="st18" d="M125.2,221c0.3,0,0.7,0,1,0c0.3,4.3-0.7,7.9-2,12c-0.3,0-0.7,0-1,0c-0.3-2.6-0.7-5.3-1-8c0.7-0.3,1.3-0.7,2-1
	C124.5,223,124.8,222,125.2,221z"/>
</svg>
