<?xml version="1.0" encoding="utf-8"?>
<!-- Generator: Adobe Illustrator 27.0.0, SVG Export Plug-In . SVG Version: 6.00 Build 0)  -->
<svg version="1.1" id="Layer_1" xmlns="http://www.w3.org/2000/svg" xmlns:xlink="http://www.w3.org/1999/xlink" x="0px" y="0px"
	 viewBox="0 0 475.6 796.6" style="enable-background:new 0 0 475.6 796.6;" xml:space="preserve">
<style type="text/css">
	.st0{fill:#010101;}
	.st1{fill:#030303;}
	.st2{fill:#767676;}
	.st3{fill:#545454;}
	.st4{fill:#5C5C5C;}
	.st5{fill:#5B5B5B;}
	.st6{fill:#7E7E7E;}
	.st7{fill:#565656;}
	.st8{fill:#686868;}
	.st9{fill:#636363;}
	.st10{fill:#4E4E4E;}
	.st11{fill:#505050;}
	.st12{fill:#4B4B4B;}
	.st13{fill:#494949;}
	.st14{fill:#5F5F5F;}
</style>
<path class="st0" d="M336.3,50.1c2.7,0.7,2.7,0.7,5.6-0.5c2.7-0.1,5.3-0.2,7.9-0.2c0.8,0,1.6,0,2.4,0c2.7,0,5.3,0,8,0
	c1.9,0,3.7,0,5.6,0c3.9,0,7.8,0,11.7,0c5,0,10,0,15-0.1c3.8,0,7.7,0,11.5,0c1.8,0,3.7,0,5.5,0c2.6,0,5.2,0,7.7,0c0.8,0,1.5,0,2.3,0
	c7.9,0.1,14,2.4,19.7,8.1c0.8,0.8,1.7,1.6,2.5,2.4c4.2,5.7,4.4,12.5,4.4,19.4c0,0.8,0,1.6,0,2.5c0,2.7,0,5.3,0.1,8
	c0,1.9,0,3.8,0.1,5.6c0.1,5,0.1,9.9,0.1,14.9c0,5,0.1,9.9,0.1,14.9c0.1,8.4,0.1,16.9,0.2,25.3c0,5.1,0.1,10.1,0.2,15.1
	c0,1.1,0,2.2,0.1,3.4c0,1.9,0.1,3.8,0.2,5.8c0.1,6.2-1.5,10.6-4.4,16.1c-0.3,0.7-0.7,1.3-1,2c-0.7,0-1.3,0-2,0c0,0.7,0,1.3,0,2
	c-8.4,7.7-20.8,7.3-31.5,7.2c-1.1,0-2.2,0-3.3,0c-3.5,0-7,0-10.6,0c-2.5,0-4.9,0-7.4,0c-6.5,0-12.9,0-19.4-0.1
	c-10.4,0-20.7-0.1-31.1-0.1c-3.6,0-7.2,0-10.9,0c-2.2,0-4.4,0-6.6,0c-1,0-2,0-3.1,0c-1.4,0-1.4,0-2.8,0c-0.8,0-1.6,0-2.4,0
	c-2.3,0-2.3,0-5.1,1.1c-1.7,0.1-3.3,0.1-5,0.1c-0.9,0-1.7,0-2.6,0c-2.4-0.1-2.4-0.1-5.4-1.1c-1.9,0.1-3.7,0.3-5.6,0.5
	c-7.2,0.6-14.1,0.3-21.3-0.2c-4.7-0.3-9.3-0.6-14,0.2c-3.3,0.5-6.4,0.6-9.8,0.6c-1.3,0-2.6,0-4,0c-1.4,0-2.9,0-4.3,0
	c-1.5,0-3.1,0-4.6,0c-3.3,0-6.6,0-9.9,0c-5.2,0-10.4,0-15.6,0c-12,0-24,0-36-0.1c-11,0-22,0-33,0c-5.2,0-10.3,0-15.5,0
	c-3.2,0-6.5,0-9.7,0c-1.5,0-3,0-4.5,0c-7.1,0-14.2,0-21.2,0.9c-3.1,0.3-6-0.3-9-0.8c-1,0.3-2,0.7-3,1c-4.5,0.2-9,0.2-13.5,0.2
	c-1.2,0-2.5,0-3.8,0c-1.2,0-2.4,0-3.6,0c-1.1,0-2.2,0-3.3,0c-2.8-0.2-2.8-0.2-5.8-2.2c-0.4-2.7-0.4-2.7-0.5-6.1
	c0-1.3-0.1-2.6-0.1-3.9c0-1.4,0-2.8,0-4.2c0-1.4,0-2.9-0.1-4.3c-0.1-3-0.1-6.1-0.1-9.1c0-3.9-0.1-7.8-0.2-11.7c-0.1-3-0.1-6-0.1-9
	c0-1.4,0-2.9-0.1-4.3c0-2-0.1-4-0.1-6c0-1.1,0-2.3,0-3.5c0.3-2.8,0.3-2.8,1.7-4.7c2.2-1.6,4-1.6,6.7-1.7c5.5-0.4,10.6-1.2,15.9-2.4
	c1-0.2,1.9-0.4,2.9-0.7c6-1.4,11.7-3.2,17.5-5.4c9.3-3.5,9.3-3.5,13.8-4.4c0.6-0.2,1.2-0.4,1.8-0.5c0.3-0.7,0.7-1.3,1-2
	c1.8-0.9,3.6-1.8,5.4-2.6c1-0.4,2-0.9,3-1.4c2.6-1,2.6-1,4.6-1c0-0.7,0-1.3,0-2c2.1-1.5,2.1-1.5,4.9-3.1c0.9-0.5,1.8-1.1,2.7-1.6
	c2.4-1.2,2.4-1.2,4.4-1.2c0-0.7,0-1.3,0-2c1.3-0.3,2.6-0.7,4-1c0-0.7,0-1.3,0-2c1.9-1.5,1.9-1.5,4.3-3.1c0.8-0.5,1.6-1.1,2.4-1.6
	c2.3-1.3,2.3-1.3,5.3-2.3c0-0.7,0-1.3,0-2c1.4-1.6,1.4-1.6,3-3c0.7,0,1.3,0,2,0c0-0.7,0-1.3,0-2c0.7,0,1.3,0,2,0c0.3-1,0.7-2,1-3
	c0.7,0,1.3,0,2,0c0-0.7,0-1.3,0-2c0.7,0,1.3,0,2,0c0-0.7,0-1.3,0-2c0.7,0,1.3,0,2,0c0.3-0.6,0.6-1.2,0.9-1.8
	c1.1-2.2,1.1-2.2,3.1-5.2c0.7,0,1.3,0,2,0c0-0.7,0-1.3,0-2c0.7,0,1.3,0,2,0c0.3-0.7,0.5-1.4,0.8-2.1c1.4-3.4,3-6.5,4.9-9.7
	c0.6-1.1,1.3-2.3,1.9-3.5c2.2-2.5,3.4-2.8,6.8-3.3c1.3-0.1,2.6-0.1,4-0.2c0.7,0,1.4-0.1,2.2-0.1c7.1-0.3,14.1-0.4,21.2-0.3
	c1.4,0,2.8,0,4.1,0c2.9,0,5.9,0,8.8,0c4.6,0,9.3,0,13.9,0c9.8,0,19.6,0,29.4,0.1c10.6,0,21.3,0,31.9,0.1c4.6,0,9.2,0,13.8,0
	c2.9,0,5.7,0,8.6,0c2,0,3.9,0,5.9,0c1.7,0,1.7,0,3.5,0c1.5,0,1.5,0,3.1,0C332.4,50.6,333.4,49.5,336.3,50.1z"/>
<path class="st1" d="M222.7,216.4c2.8,0.1,5.4,0,8.2-0.3c5.8-0.5,11.5-0.7,17.3-0.7c1,0,2,0,3.1,0c2.1,0,4.3,0,6.4,0
	c3.3,0,6.6,0,9.9-0.1c2.1,0,4.2,0,6.3,0c1,0,2,0,3,0c0.9,0,1.8,0,2.7,0c1.2,0,1.2,0,2.4,0c1,0.2,1,0.2,2,0.4
	c2.3,3.5,2.2,4.7,2.2,8.8c0,1.2,0,2.4,0,3.7c0,0.7,0,1.3,0,2c0,3.6-0.1,7.3-0.1,10.9c0,0.8,0,1.6,0,2.4c-0.1,9.1,0,18.1,0.2,27.2
	c0,1.8,0,3.6,0.1,5.4c0,3.8,0.1,7.6,0.1,11.5c0.1,10.9,0.2,21.8,0.3,32.6c0,1.2,0,2.3,0,3.5c0.5,45.6,0.8,91.1,1.1,136.7
	c0,1.1,0,1.1,0,2.2c0,0.7,0,1.5,0,2.2c0,1.5,0,3,0,4.5c0,0.7,0,1.5,0,2.2c0.1,11.3,0.2,22.5,0.3,33.8c0.3,38.5,0.6,76.9,0.8,115.4
	c0,3.9,0,7.7,0.1,11.6c0.1,14,0.1,28,0.2,42.1c0,4.1,0,8.3,0.1,12.4c0,4.7,0,9.5,0,14.2c0,1.7,0,3.4,0,5.1
	c0.1,15.9,0.1,15.9-3.3,23.6c-2,1.7-2,1.7-4.2,2.5c-1.1,0.4-1.1,0.4-2.2,0.8c-6.7,1.7-13.3,1.8-20.3,1.8c-1,0-2,0-3.1,0
	c-2.1,0-4.3,0-6.4,0c-3.3,0-6.5,0-9.8,0c-2.1,0-4.2,0-6.3,0c-1,0-1.9,0-2.9,0c-6.3,0-12-0.2-17.2-4c-0.7-0.7-1.3-1.3-2-2
	c-0.7-0.7-1.3-1.3-2-2c-3.6-4.9-2.8-11.3-2.8-17.1c0-1,0-2,0-3c0-3.3-0.1-6.6-0.1-10c0-2.4,0-4.7-0.1-7.1c0-5-0.1-9.9-0.1-14.9
	c0-6.2-0.1-12.4-0.2-18.6c-0.2-26.3-0.4-52.7-0.3-79c0-19.9-0.2-39.8-0.4-59.7c-0.1-9.1-0.2-18.3-0.4-27.4c0-0.9,0-1.8,0-2.7
	c-0.2-15.2-0.2-30.3-0.2-45.5c0.1-16.9,0-33.9-0.2-50.8c0-1,0-1.9,0-2.9c-0.1-5.1-0.1-10.1-0.2-15.2c-0.4-37.6-0.7-75.3-0.6-112.9
	c0-1.1,0-2.2,0-3.3c0-13.4,0-26.7,0.1-40.1c1,0,1,0,2.1,0c0.9,0,1.8,0,2.8,0c1.4,0,1.4,0,2.7,0C221.6,216.3,221.6,216.3,222.7,216.4
	z"/>
<path class="st2" d="M320.8,199.5c1,0,1,0,2,0c16.7,0,33.4,0,50,0.1c-0.3,0.7-0.7,1.3-1,2c-0.8,0-1.6,0-2.4,0c-7.4,0-14.7,0-22.1,0
	c-3.8,0-7.6,0-11.4,0c-3.7,0-7.3,0-11,0c-1.4,0-2.8,0-4.2,0c-2,0-3.9,0-5.9,0c-1.1,0-2.2,0-3.4,0c-2.8,0-2.8,0-5.8,1.1
	c-1.7,0.1-3.3,0.1-5,0.1c-1.3,0-1.3,0-2.6,0c-2.4-0.1-2.4-0.1-5.4-1.1c-1.9,0.1-3.7,0.3-5.6,0.5c-7.2,0.6-14.1,0.3-21.3-0.2
	c-4.7-0.3-9.3-0.6-14,0.2c-3,0.5-5.8,0.6-8.9,0.6c-1.7,0-1.7,0-3.4,0c-1.2,0-2.4,0-3.7,0c-1.3,0-2.6,0-3.9,0c-3.5,0-7,0-10.6,0
	c-3.7,0-7.4,0-11.1,0c-7,0-13.9,0-20.9,0c-7.9,0-15.9,0-23.8,0c-16.3,0-32.6,0-49-0.1c0-0.7,0-1.3,0-2c20-0.2,40-0.3,59.9-0.5
	c0.8,0,1.5,0,2.3,0C226.3,199.7,273.6,199.5,320.8,199.5z"/>
<path class="st3" d="M336.3,50.1c2.7,0.7,2.7,0.7,5.6-0.5c2.7-0.1,5.3-0.1,8-0.1c0.8,0,1.6,0,2.5,0c2.7,0,5.4,0,8.1,0
	c1.9,0,3.7,0,5.6,0c3.9,0,7.9,0,11.8,0c5,0,10.1,0,15.1,0c3.9,0,7.7,0,11.6,0c1.9,0,3.7,0,5.6,0c2.6,0,5.2,0,7.8,0
	c0.8,0,1.5,0,2.3,0c5.3,0,5.3,0,7.5,2.3c-36.1,0.8-72.1,1.1-108.2,1.1c-1,0-2.1,0-3.1,0c-12.9,0-25.8,0-38.7-0.1c0-0.7,0-1.3,0-2
	c0.7,0,1.3,0,2,0c7,0,13.9,0,20.9,0c2.6,0,5.2,0,7.8,0c3.7,0,7.5,0,11.2,0c1.8,0,1.8,0,3.5,0c1.1,0,2.2,0,3.3,0c1.4,0,1.4,0,2.9,0
	C332.4,50.6,333.5,49.5,336.3,50.1z"/>
<path class="st4" d="M266.3,215.3c2.2,0,4.4,0,6.6,0c1.4,0,2.8,0,4.2,0c1.3,0,2.5,0,3.8,0c1,0.1,2,0.2,3,0.4
	c2.4,3.7,2.3,5.4,2.3,9.8c0,1,0,1,0,2c0,1.4,0,2.8,0,4.2c0,2.1,0,4.2,0,6.4c0,1.3,0,2.7,0,4c0,1.2,0,2.5,0,3.7
	c-0.3,2.9-0.3,2.9-2.3,4.9c0-10.6,0-21.1,0-32c-4.9,0-9.9,0-15,0c-3.7-0.1-7.3-0.3-10.9-0.5c-0.9,0-1.8-0.1-2.7-0.1
	c-2.1-0.1-4.3-0.2-6.4-0.4C254.1,214.3,260.4,215.3,266.3,215.3z"/>
<path class="st5" d="M251.9,199.6c18.1,0,36.3,0,55,0c0,0.3,0,0.7,0,1c-3.3,0.3-6.6,0.7-9.9,1c-0.9,0.1-1.8,0.2-2.8,0.3
	c-8.4,0.8-16.6,1-25,0.2c-3.5-0.3-6.9-0.5-10.4-0.4C255.9,201.6,255.9,201.6,251.9,199.6z"/>
<path class="st6" d="M215.9,730.6c1,0.2,2,0.3,3.1,0.5c5.9,0.7,11.9,0.6,17.8,0.5c11.7-0.1,23.4,0,35.1,1c-2.4,2.4-3.1,2.3-6.4,2.3
	c-0.9,0-1.8,0-2.8,0c-1.5,0-1.5,0-3,0c-1.5,0-1.5,0-3.1,0c-2.2,0-4.3,0-6.5,0c-3.3,0-6.6,0-9.9,0c-2.1,0-4.2,0-6.3,0c-1,0-2,0-3,0
	c-5.4,0-9.8-0.5-14.9-2.3C215.9,731.9,215.9,731.3,215.9,730.6z"/>
<path class="st7" d="M220.3,216.1c4.8,0.5,9.2,0.3,14-0.2c8.6-0.9,8.6-0.9,12.6,1.7c-8.4,1.2-16.6,1.1-25.1,1.1c-1.5,0-2.9,0-4.4,0
	c-3.5,0-7.1,0-10.6,0c0-0.7,0-1.3,0-2c1.1,0,2.2,0,3.4,0.1C214.1,216.6,216.4,215.5,220.3,216.1z"/>
<path class="st8" d="M77.9,200.6c12.2,0,24.4,0,37,0c0,0.7,0,1.3,0,2c-0.6,0-1.3,0-2,0c-3,0-5.9,0-8.9,0c-1.5,0-1.5,0-3.1,0
	c-5.7,0-11.2,0.2-16.9,1.1c-2.6,0-4-0.7-6.2-2C77.9,201.3,77.9,200.9,77.9,200.6z"/>
<path class="st9" d="M215.9,730.6c8.6,0.7,17.2,1.3,26,2c-2.6,2.6-4.4,2.3-7.9,2.3c-0.8,0-1.5,0-2.3,0c-0.7,0-1.5,0-2.3,0
	c-4.9,0-8.9-0.7-13.6-2.3C215.9,731.9,215.9,731.3,215.9,730.6z"/>
<path class="st10" d="M152.9,80.6c0.7,0,1.3,0,2,0c0,1,0,2,0,3c-0.7,0-1.3,0-2,0c-0.2,0.6-0.4,1.1-0.6,1.7c-2.1,3.4-5.1,5.2-8.4,7.3
	c-0.3-0.7-0.7-1.3-1-2c1.4-1.5,1.4-1.5,3-3c0.7,0,1.3,0,2,0c0-0.7,0-1.3,0-2c0.7,0,1.3,0,2,0c0.3-1,0.7-2,1-3c0.7,0,1.3,0,2,0
	C152.9,81.9,152.9,81.3,152.9,80.6z"/>
<path class="st11" d="M140.9,92.6c0.7,0.3,1.3,0.7,2,1c-2.1,1.8-4.2,3.7-6.3,5.5c-0.9,0.8-0.9,0.8-1.8,1.6c-4.5,3.9-4.5,3.9-7.9,3.9
	c0-0.7,0-1.3,0-2c1.3-0.3,2.6-0.7,4-1c0-0.7,0-1.3,0-2c1.9-1.5,1.9-1.5,4.4-3.1C138.2,94.8,138.2,94.8,140.9,92.6z"/>
<path class="st12" d="M91.9,123.6c-1.5,3-3.7,3.1-6.8,4.2c-1.6,0.5-1.6,0.5-3.2,1.1c-2.9,0.7-4.2,0.7-7-0.3c1.9-0.8,3.8-1.7,5.7-2.5
	c1.1-0.5,2.1-0.9,3.2-1.4C86.7,123.6,88.8,123.4,91.9,123.6z"/>
<path class="st13" d="M124.9,104.6c0.7,0.3,1.3,0.7,2,1c-1.4,1.2-2.9,2.3-4.3,3.5c-0.8,0.6-1.6,1.3-2.4,2c-2.3,1.5-2.3,1.5-5.3,1.5
	c0-0.7,0-1.3,0-2c2.1-1.5,2.1-1.5,4.9-3.2c0.9-0.6,1.8-1.1,2.7-1.7C123.7,105.2,123.7,105.2,124.9,104.6z"/>
<path class="st14" d="M286.9,721.6c1,3,1,3,0.3,5.6c-1.5,2.8-2.3,3.5-5.3,4.4c-1-0.3-2-0.7-3-1c1.4-1.1,1.4-1.1,2.9-2.2
	C284.2,726.3,285.7,724.6,286.9,721.6z"/>
<path class="st5" d="M434.9,194.6c1,0.3,2,0.7,3,1c-3.7,2.6-6.5,4.5-11,5c-0.3-0.7-0.7-1.3-1-2c1.4-0.4,1.4-0.4,2.8-0.9
	C432,196.7,432,196.7,434.9,194.6z"/>
<path class="st5" d="M-786.1-647.4"/>
<path class="st5" d="M-786.1-647.4"/>
<path class="st5" d="M-786.1-647.4"/>
</svg>
