<?xml version="1.0" encoding="UTF-8"?>
<svg id="Layer_1" data-name="Layer 1" xmlns="http://www.w3.org/2000/svg" viewBox="0 0 1233.37 1382.28">
  <defs>
    <style>
      .cls-1 {
        fill: #fff;
      }

      .cls-2 {
        fill: #565656;
      }

      .cls-3 {
        fill: #5c5c5c;
      }

      .cls-4 {
        fill: #4b4b4b;
      }

      .cls-5 {
        fill: #5f5f5f;
      }

      .cls-6 {
        fill: #4e4e4e;
      }

      .cls-7 {
        fill: #030303;
      }

      .cls-8 {
        fill: #505050;
      }

      .cls-9 {
        fill: #767676;
      }

      .cls-10 {
        fill: #494949;
      }

      .cls-11 {
        fill: #636363;
      }

      .cls-12 {
        fill: #7e7e7e;
      }

      .cls-13 {
        fill: #545454;
      }

      .cls-14 {
        fill: #5b5b5b;
      }

      .cls-15 {
        fill: #686868;
      }

      .cls-16 {
        fill: #010101;
      }
    </style>
  </defs>
  <path class="cls-16" d="M1122.44,697.5q2.67,.74,5.56-.5c2.65-.11,5.27-.16,7.92-.16,.81,0,1.61,0,2.45-.02,2.67-.01,5.34-.02,8.02-.03,1.86,0,3.72-.01,5.58-.02,3.9-.01,7.81-.02,11.71-.02,4.99,0,9.98-.03,14.97-.06,3.84-.02,7.69-.02,11.53-.03,1.84,0,3.68-.01,5.51-.02,2.58-.02,5.16-.02,7.74,0,.75,0,1.5-.02,2.28-.03,7.89,.06,14.01,2.38,19.67,8.07,.83,.81,1.67,1.62,2.52,2.45,4.22,5.75,4.4,12.48,4.42,19.38,.01,.81,.02,1.62,.03,2.46,.03,2.67,.05,5.33,.06,8,.02,1.88,.04,3.76,.06,5.64,.05,4.96,.09,9.91,.13,14.87,.04,4.96,.09,9.92,.14,14.88,.08,8.44,.15,16.87,.2,25.31,.03,5.05,.11,10.1,.22,15.15,.02,1.11,.04,2.22,.06,3.36,.03,1.92,.08,3.84,.15,5.76,.08,6.17-1.5,10.63-4.37,16.06l-1,2h-2v2c-8.38,7.69-20.82,7.31-31.5,7.21-1.08,0-2.16,0-3.27,0-3.52,0-7.05-.03-10.57-.05-2.46,0-4.93-.01-7.39-.02-6.45-.01-12.91-.04-19.36-.07-10.36-.04-20.72-.07-31.09-.1-3.62-.01-7.24-.03-10.85-.04-2.21,0-4.41-.01-6.62-.02-1.01,0-2.02-.01-3.06-.02q-1.38,0-2.79,0c-.8,0-1.6,0-2.42-.01q-2.27,.04-5.07,1.12c-1.66,.09-3.33,.13-5,.12-.87,0-1.73,0-2.62,0q-2.38-.13-5.38-1.13c-1.86,.12-3.71,.29-5.56,.5-7.17,.64-14.11,.25-21.27-.25-4.7-.31-9.3-.59-13.96,.25-3.33,.52-6.45,.62-9.82,.61-1.31,0-2.63,0-3.98,0-1.45,0-2.89-.01-4.34-.02-1.53,0-3.06,0-4.59,0-3.29,0-6.58,0-9.88-.02-5.21-.01-10.42-.02-15.64-.02-12.01-.01-24.02-.03-36.03-.06-11-.02-22-.04-33-.05-5.17,0-10.35-.01-15.52-.03-3.23,0-6.46-.01-9.69-.01-1.49,0-2.98,0-4.47-.01-7.12-.03-14.16,0-21.23,.94-3.08,.25-6-.34-9.03-.83-.99,.33-1.98,.66-3,1-4.5,.24-9,.19-13.5,.19-1.25,.01-2.5,.02-3.79,.04-1.19,0-2.39,0-3.62,0-1.1,0-2.19,0-3.32,.01q-2.77-.24-5.77-2.24-.42-2.69-.48-6.15c-.03-1.29-.06-2.58-.09-3.91-.02-1.42-.03-2.83-.05-4.25-.02-1.45-.05-2.89-.08-4.34-.05-3.04-.09-6.07-.13-9.11-.04-3.89-.11-7.78-.19-11.68-.06-2.99-.1-5.98-.14-8.97-.02-1.44-.05-2.87-.07-4.3-.04-2.01-.06-4.01-.07-6.02-.02-1.14-.03-2.28-.05-3.46q.34-2.81,1.71-4.68c2.25-1.57,3.97-1.58,6.69-1.7,5.46-.37,10.61-1.22,15.94-2.44,.96-.22,1.92-.43,2.91-.66,5.99-1.42,11.72-3.19,17.48-5.36q9.33-3.5,13.8-4.44c.6-.18,1.19-.36,1.81-.54,.33-.66,.66-1.32,1-2,1.78-.94,3.6-1.81,5.44-2.62,.99-.45,1.98-.89,3-1.35q2.57-1.02,4.57-1.02v-2q2.12-1.51,4.88-3.12c.9-.54,1.81-1.08,2.74-1.63q2.38-1.24,4.38-1.24v-2l4-1v-2q1.86-1.47,4.31-3.06c.8-.53,1.6-1.05,2.43-1.6q2.26-1.34,5.26-2.34v-2q1.38-1.62,3-3h2v-2h2c.33-.99,.66-1.98,1-3h2v-2h2v-2h2c.29-.6,.58-1.2,.88-1.81q1.12-2.19,3.12-5.19h2v-2h2c.26-.69,.51-1.37,.77-2.08,1.41-3.37,2.99-6.54,4.85-9.67,.63-1.15,1.26-2.3,1.91-3.48,2.2-2.47,3.45-2.76,6.78-3.25,1.31-.06,2.63-.12,3.98-.18,.71-.03,1.42-.07,2.15-.1,7.06-.31,14.12-.36,21.18-.33,1.38,0,2.76,0,4.14,0,2.93,0,5.86,0,8.79,.02,4.63,.01,9.26,.02,13.89,.02,9.81,.01,19.62,.03,29.42,.05,10.64,.02,21.28,.04,31.92,.05,4.61,0,9.21,.01,13.82,.03,2.85,0,5.7,.01,8.56,.01,1.96,0,3.92,.01,5.87,.02q1.74,0,3.51,0,1.51,0,3.06,0c2.87-.14,3.96-1.21,6.83-.62Z"/>
  <path class="cls-7" d="M1008.81,863.84c2.85,.14,5.36-.02,8.19-.32,5.77-.55,11.49-.7,17.29-.73,1.02,0,2.05-.01,3.1-.02,2.14,0,4.28-.02,6.42-.02,3.28,0,6.57-.04,9.85-.07,2.09,0,4.17-.01,6.26-.02,.98-.01,1.97-.02,2.98-.04,.91,0,1.81,0,2.74,0q1.2,0,2.42-.01,.97,.18,1.95,.37c2.31,3.47,2.23,4.7,2.18,8.78,0,1.21-.02,2.42-.03,3.67,0,.66-.02,1.31-.03,1.99-.05,3.64-.06,7.27-.08,10.91,0,.78-.01,1.56-.02,2.36-.05,9.08,.05,18.15,.15,27.22,.02,1.81,.04,3.62,.06,5.43,.04,3.82,.08,7.64,.13,11.47,.12,10.88,.23,21.76,.34,32.64,.01,1.17,.02,2.33,.04,3.54,.46,45.57,.78,91.13,1.12,136.7q0,1.11,.02,2.24c0,.74,.01,1.48,.02,2.24,.01,1.5,.02,2.99,.03,4.49,0,.74,.01,1.48,.02,2.25,.08,11.26,.17,22.51,.25,33.77,.3,38.47,.56,76.94,.78,115.41,.02,3.85,.04,7.7,.07,11.56,.08,14.02,.15,28.04,.18,42.06,.01,4.14,.03,8.29,.05,12.43,.03,4.73,.04,9.46,.04,14.19,0,1.7,.01,3.39,.02,5.09q.12,15.91-3.35,23.55-2.02,1.72-4.25,2.5-1.09,.42-2.2,.84c-6.74,1.74-13.35,1.82-20.27,1.82-1.02,0-2.03,0-3.08,.01-2.14,0-4.28,0-6.42,0-3.27,0-6.53,.02-9.8,.04-2.09,0-4.17,0-6.26,0-.97,0-1.94,.01-2.94,.02-6.28-.02-11.95-.17-17.18-4.02-.65-.67-1.3-1.35-1.98-2.04-.67-.67-1.34-1.33-2.02-2.02-3.59-4.86-2.77-11.28-2.81-17.07,0-1-.02-1.99-.03-3.02-.03-3.32-.06-6.63-.08-9.95-.02-2.35-.04-4.7-.06-7.06-.04-4.97-.08-9.94-.12-14.91-.05-6.19-.1-12.38-.16-18.58-.24-26.33-.36-52.66-.33-79,.02-19.91-.15-39.81-.44-59.72-.13-9.15-.24-18.29-.35-27.44-.01-.9-.02-1.8-.03-2.73-.18-15.15-.23-30.3-.19-45.45,.05-16.94-.03-33.88-.22-50.82-.01-.97-.02-1.94-.03-2.94-.06-5.05-.12-10.11-.18-15.16-.44-37.63-.66-75.26-.63-112.9,0-1.1,0-2.21,0-3.35,.01-13.36,.03-26.73,.06-40.09q1.05,.02,2.12,.04c.91,0,1.82,.02,2.76,.03q1.36,.02,2.74,.04,10.09-.41,11.19-.25Z"/>
  <path class="cls-9" d="M1106.94,846.94q1,0,2.02,0c16.68,.01,33.36,.03,50.05,.06-.33,.66-.66,1.32-1,2-.78,0-1.57,0-2.37,0-7.37-.02-14.74-.04-22.12-.05-3.79,0-7.58-.01-11.37-.02-3.66-.01-7.31-.02-10.97-.02-1.4,0-2.79,0-4.19-.01-1.95,0-3.91,0-5.86,0-1.11,0-2.23,0-3.37,0q-2.84,0-5.75,1.12c-1.66,.09-3.33,.13-5,.12q-1.3,0-2.62,0-2.38-.13-5.38-1.13c-1.86,.12-3.71,.29-5.56,.5-7.17,.64-14.11,.25-21.27-.25-4.72-.31-9.33-.57-14.01,.24-3.03,.48-5.82,.62-8.88,.62q-1.68,0-3.39,0c-1.21,0-2.43,0-3.67-.01-1.29,0-2.58,0-3.9,0-3.52,0-7.04,0-10.56-.01-3.68,0-7.37,0-11.05,0-6.97,0-13.94-.01-20.91-.02-7.94-.01-15.87-.02-23.81-.02-16.32-.01-32.64-.03-48.97-.05v-2c19.98-.18,39.96-.34,59.94-.5,.75,0,1.5-.01,2.27-.02,47.24-.37,94.48-.58,141.73-.54Z"/>
  <path class="cls-13" d="M1122.44,697.5q2.67,.74,5.56-.5c2.68-.1,5.34-.15,8.02-.15,.82,0,1.63,0,2.47-.01,2.7,0,5.4-.01,8.1-.01,1.87,0,3.75,0,5.62-.01,3.93,0,7.86,0,11.78,0,5.04,0,10.09-.01,15.13-.03,3.87-.01,7.74-.01,11.61-.01,1.86,0,3.72,0,5.58-.01,2.6,0,5.19,0,7.79,0,.77,0,1.55-.01,2.34-.02q5.32,.03,7.55,2.26c-36.07,.83-72.11,1.09-108.19,1.06-1.04,0-2.08,0-3.14,0-12.89-.01-25.78-.03-38.67-.06v-2c.67,0,1.34,0,2.04,0,6.97,.02,13.95,.04,20.92,.05,2.61,0,5.21,.01,7.82,.02,3.74,.01,7.48,.02,11.21,.02q1.76,0,3.55,.02c1.08,0,2.16,0,3.28,0q1.43,0,2.89,0c2.84-.15,3.87-1.21,6.73-.62Z"/>
  <path class="cls-3" d="M1052.44,862.68c2.19,0,4.38-.02,6.56-.05,1.39,0,2.78,0,4.16,0,1.26,0,2.53,0,3.83,0,.99,.12,1.99,.25,3.01,.37,2.43,3.65,2.26,5.44,2.27,9.79q0,.99,0,1.99c0,1.39,0,2.77-.01,4.16-.01,2.12,0,4.25,.01,6.37,0,1.35,0,2.69,0,4.04,0,1.23,0,2.45,0,3.72q-.26,2.93-2.26,4.93v-32h-15c-3.65-.14-7.29-.29-10.94-.5-.89-.05-1.77-.1-2.69-.14-2.13-.11-4.25-.23-6.38-.36,5.19-3.27,11.52-2.33,17.44-2.32Z"/>
  <path class="cls-14" d="M1038,847h55v1c-3.29,.34-6.58,.67-9.88,1-.92,.1-1.84,.19-2.78,.29-8.41,.83-16.61,.97-25.03,.21-3.48-.3-6.88-.55-10.38-.44q-2.94-.06-6.94-2.06Z"/>
  <path class="cls-12" d="M1002,1378c1.01,.17,2.02,.33,3.07,.5,5.93,.74,11.86,.57,17.82,.52,11.74-.1,23.41,0,35.11,.98-2.44,2.44-3.08,2.25-6.43,2.26-.92,0-1.84,.01-2.78,.02q-1.49,0-3.02-.01t-3.1,0c-2.17,0-4.34,0-6.51-.01-3.31-.01-6.62,0-9.93,.01-2.11,0-4.22,0-6.33,0-.99,0-1.97,0-2.99,.01-5.36-.04-9.84-.51-14.91-2.28v-2Z"/>
  <path class="cls-2" d="M1006.44,863.5c4.8,.55,9.22,.28,14.01-.23q8.61-.9,12.55,1.73c-8.35,1.19-16.65,1.11-25.06,1.06-1.45,0-2.9,0-4.36-.01-3.53-.01-7.05-.03-10.58-.05v-2c1.11,.02,2.23,.04,3.38,.06,3.88-.07,6.18-1.11,10.06-.56Z"/>
  <path class="cls-15" d="M864,848h37v2c-.64,0-1.29-.01-1.95-.02-2.97-.02-5.95-.03-8.92-.05q-1.52-.01-3.07-.03c-5.72-.02-11.24,.22-16.9,1.07-2.56,.03-3.98-.68-6.15-1.98v-1Z"/>
  <path class="cls-11" d="M1002,1378c8.58,.66,17.16,1.32,26,2-2.58,2.58-4.36,2.26-7.88,2.27-.76,0-1.52-.02-2.31-.02-.74,0-1.49,.02-2.25,.02-4.88-.02-8.93-.73-13.56-2.27v-2Z"/>
  <path class="cls-6" d="M939,728h2v3h-2c-.19,.56-.37,1.11-.56,1.69-2.1,3.38-5.14,5.16-8.44,7.31l-1-2q1.38-1.5,3-3h2v-2h2c.33-.99,.66-1.98,1-3h2v-2Z"/>
  <path class="cls-8" d="M927,740l2,1c-2.1,1.84-4.2,3.67-6.31,5.5q-.89,.79-1.8,1.59-4.54,3.91-7.88,3.91v-2c1.32-.33,2.64-.66,4-1v-2q1.93-1.47,4.44-3.06,2.93-1.77,5.56-3.94Z"/>
  <path class="cls-4" d="M878,771c-1.51,3.02-3.68,3.14-6.81,4.19q-1.59,.55-3.21,1.11c-2.9,.69-4.25,.75-6.98-.29,1.89-.84,3.79-1.68,5.69-2.5,1.06-.46,2.11-.93,3.2-1.41,2.97-1.04,5.01-1.32,8.11-1.09Z"/>
  <path class="cls-10" d="M911,752l2,1c-1.43,1.18-2.87,2.34-4.31,3.5-.8,.65-1.6,1.3-2.43,1.97q-2.26,1.53-5.26,1.53v-2q2.12-1.54,4.88-3.19c.9-.55,1.81-1.1,2.74-1.67q1.18-.57,2.38-1.14Z"/>
  <path class="cls-5" d="M1073,1369q1,3,.31,5.56c-1.49,2.77-2.33,3.53-5.31,4.44-.99-.33-1.98-.66-3-1q1.42-1.11,2.88-2.25c2.45-2.03,4-3.71,5.12-6.75Z"/>
  <path class="cls-14" d="M1221,842c.99,.33,1.98,.66,3,1-3.65,2.63-6.49,4.47-11,5-.33-.66-.66-1.32-1-2q1.39-.43,2.81-.88,3.29-1.01,6.19-3.12Z"/>
  <ellipse class="cls-1" cx="1038" cy="766.78" rx="59.81" ry="61.52"/>
  <ellipse cx="1038" cy="766.78" rx="33.81" ry="34.78"/>
</svg>