<?xml version="1.0" encoding="UTF-8"?>
<svg id="Layer_1" data-name="Layer 1" xmlns="http://www.w3.org/2000/svg" viewBox="0 0 292.62 704">
  <defs>
    <style>
      .cls-1 {
        fill: #ddd;
      }

      .cls-2 {
        fill: #e9e9e9;
      }

      .cls-3 {
        fill: #f4f4f4;
      }

      .cls-4 {
        fill: #fff;
      }

      .cls-5 {
        fill: silver;
      }

      .cls-6 {
        fill: #020202;
      }

      .cls-7 {
        fill: #c9c9c9;
      }

      .cls-8 {
        fill: gray;
      }

      .cls-9 {
        fill: #fbfbfb;
      }

      .cls-10 {
        fill: #f9f9f9;
      }

      .cls-11 {
        fill: #e5e5e5;
      }

      .cls-12 {
        fill: #ebebeb;
      }

      .cls-13 {
        fill: #f7f7f7;
      }

      .cls-14 {
        fill: #efefef;
      }

      .cls-15 {
        fill: #d9d9d9;
      }

      .cls-16 {
        fill: #cdcdcd;
      }

      .cls-17 {
        fill: #eee;
      }

      .cls-18 {
        fill: #ececec;
      }

      .cls-19 {
        fill: #f2f2f2;
      }

      .cls-20 {
        fill: #fefefe;
      }

      .cls-21 {
        fill: #e3e3e3;
      }

      .cls-22 {
        fill: #fcfcfc;
      }
    </style>
  </defs>
  <path class="cls-6" d="M141.28,0h7c.05,.64,.1,1.28,.15,1.93q.11,1.24,.23,2.5t.21,2.5c.14,.68,.27,1.36,.41,2.07l2,1q.38,2.91,.56,6.5-.14,4.07,1.44,7.5c.07,1.85,.08,3.71,.06,5.56,0,1.01-.02,2.02-.03,3.07q-.02,1.17-.04,2.37h2c.23,2.05,.46,4.1,.68,6.15q.14,1.86,1.32,2.85c.28,2.06,.45,4.12,.62,6.19,.13,.6,.25,1.2,.38,1.81,.66,.33,1.32,.66,2,1v18h2c.08,.76,.15,1.53,.23,2.32,1.4,14.04,2.91,27.86,5.77,41.68,.56,2.91,1.1,5.83,1.62,8.75,.13,.71,.25,1.41,.39,2.14,.92,5.31,1.47,10.6,1.78,15.98q-.02,2.11,1.21,3.12c.13,1.5,.23,3,.31,4.5,.41,4.61,1.61,7.94,3.64,12.05,1.67,3.88,2.51,7.93,3.44,12.04q.38,2.34,1.61,3.41,.15,1.45,.31,2.94c.75,5.83,3.4,11.1,5.72,16.45,1.52,4.11,2.28,8.37,3.18,12.65q.65,3.12,2.78,5.96c.57,2.03,1.09,4.07,1.56,6.12q.6,3.75,2.44,6.88c.04,2,.04,4,0,6h2c1,3.49,1.99,6.97,2.96,10.46,1.77,6.3,3.64,12.44,6.04,18.54,.29,.93,.58,1.86,.88,2.81,1.42,4.01,3.25,7.78,5.1,11.6q1.02,2.59,1.02,6.59h2q4.88,10.48,6.44,15c1.19,3.32,2.77,6.29,4.5,9.38,3.68,6.59,6.73,13.16,8.06,20.62h2q.51,1.36,1.02,2.74c.45,1.18,.89,2.36,1.35,3.57,.44,1.17,.88,2.34,1.34,3.55q1.2,3.22,3.29,6.14v4h2c.31,.86,.63,1.71,.95,2.6q2.72,7.45,6.36,14.46,1.69,2.94,1.69,6.94h2c.19,1.05,.39,2.1,.59,3.18,.26,1.38,.53,2.76,.79,4.14q.19,1.04,.38,2.09c.66,3.43,1.28,5.65,3.24,8.6,.36,2.33,.7,4.66,1,7,.33,.33,.66,.66,1,1,.33,2.33,.67,4.67,1,7,.33,.33,.66,.66,1,1,.34,1.33,.64,2.67,.91,4.01,1,4.66,2.22,9.22,3.53,13.8,1.77,6.27,3.43,12.55,4.89,18.9q.63,2.53,2.68,5.29c.57,2.03,1.09,4.07,1.56,6.12q.6,3.75,2.44,6.88c.33,2.33,.67,4.67,1,7,.33,.33,.66,.66,1,1,1.69,6.66,2.57,13.52,3.54,20.31q.33,2.65,1.46,4.69c.17,2.32,.27,4.65,.35,6.97q.04,1.06,.07,2.14c.07,2.32,.14,4.63,.2,6.95,.02,.78,.04,1.57,.07,2.38q1.06,38.06-1.69,43.56c-.35,1.99-.65,4-.94,6q-2.44,16.38-4.06,18c-.12,1.01-.25,2.02-.38,3.06-.55,3.48-1.44,6.39-2.75,9.65-1.03,2.67-1.88,5.38-2.75,8.1-1.96,5.95-4.46,11.53-7.12,17.19-.78,1.73-1.55,3.46-2.31,5.19-.33,.74-.65,1.47-.99,2.23-.23,.52-.46,1.04-.7,1.58h-2c-.14,.6-.29,1.2-.44,1.81-.45,1.75-.99,3.47-1.56,5.19h-2c-.27,.89-.54,1.77-.81,2.69-1.11,3.1-2.29,5.62-4.19,8.31h-2v3h-2c-.31,.62-.62,1.24-.94,1.88l-2.06,4.12h-2c-.23,.72-.45,1.44-.69,2.19-1.58,3.38-3.52,5.37-6.31,7.81h-2v2h-2v2q-1.68,1.73-3.88,3.62c-.72,.63-1.44,1.26-2.18,1.91q-1.95,1.46-3.95,1.46v2c-.99,.33-1.98,.66-3,1-.33,.66-.66,1.32-1,2h-3v2c-1.98,.66-3.96,1.32-6,2v2h-4c-.33,.99-.66,1.98-1,3h-4v2h-5v2c-12.19,4.64-22.85,8.27-36,7v3h-34v-3c-1.03,.05-2.05,.09-3.11,.14-7.76,.24-14.11,.03-21.38-3.07-2.5-1.07-4.95-1.8-7.57-2.51-9.55-2.82-17.68-8.14-25.94-13.56-.67-.42-1.34-.84-2.03-1.27-1.36-.86-2.67-1.79-3.97-2.73v-2c-.58-.27-1.15-.54-1.75-.81-2.31-1.22-4.27-2.49-6.25-4.19v-2c-.56-.23-1.12-.45-1.7-.68-7.81-4.47-14.02-14.18-19.3-21.32-.56-.73-1.12-1.46-1.7-2.22-4.68-6.33-8.1-13.08-11.5-20.14-1.03-2.14-2.09-4.1-3.34-6.13-1.91-3.29-3.17-6.76-4.45-10.32-.25-.67-.5-1.35-.75-2.04-.5-1.37-1-2.73-1.5-4.1-.5-1.35-1.01-2.7-1.53-4.05-1.84-4.72-3.19-9.44-4.34-14.38q-1.07-4.94-2.88-9.62c-.31-2.33-.51-4.66-.72-7q-.08-1.99-1.28-3c-.29-3.69-.45-7.38-.62-11.07q-.24-3.87-1.39-7.18c-1.05-3.96-1.28-7.59-1.26-11.66,0-.73,0-1.46,0-2.21,0-1.53,0-3.07,.01-4.6,.01-2.33,0-4.67-.01-7,0-1.5,0-3,0-4.49,0-.69,0-1.38-.01-2.09,.04-4.28,.81-7.68,2.28-11.68,.26-2.58,.44-5.16,.56-7.75q.34-7.05,1.44-9.25c.27-2.23,.44-4.47,.62-6.71,.4-2.44,1.25-4.11,2.38-6.29q.22-1.61,.44-3.25c.51-3.43,1.45-6.23,2.74-9.43,1.35-3.81,2.19-7.74,3.08-11.68q.75-2.64,2.75-5.64c.47-1.8,.88-3.61,1.25-5.44,1.29-5.92,2.95-11.65,4.75-17.44,2.3-7.43,4.1-14.79,5.46-22.45q.54-2.68,1.54-3.68c.1-.97,.21-1.94,.31-2.94,.53-4.12,2.04-7.63,3.64-11.44,1.36-3.41,2.37-6.89,3.39-10.42,.74-2.47,1.64-4.84,2.66-7.21h2c.15-.59,.29-1.19,.45-1.8,1.64-6.05,4.02-11.08,7.12-16.5,2.01-3.79,3.22-7.59,4.43-11.7h2c.11-.71,.23-1.42,.34-2.15,.71-3.06,1.8-5.58,3.16-8.41,1.5-3.13,2.79-6.03,3.5-9.44h2c.1-.72,.21-1.44,.31-2.19q.69-2.81,2.08-5.05c2.44-4.18,3.72-8.7,5.23-13.29,1.41-3.55,3.2-6.35,5.38-9.47q.77-2.23,1-4h2l-.25-2c.29-3.42,1.57-5.64,3.17-8.63,1.68-3.69,2.45-7.54,3.36-11.47,.94-3.79,2.28-7.27,3.72-10.9,.68-2,1.35-4,2-6,.25-.71,.5-1.43,.75-2.16,1.48-4.27,2.67-8.33,3.25-12.84h2c-.08-.8-.17-1.61-.25-2.44,.23-3.33,.67-4.78,2.06-7.69,2.16-4.51,3.28-8.98,4.41-13.84,.76-2.94,1.7-5.7,2.78-8.54,2.17-5.72,3.63-11.55,5-17.5h2c-.06-.82-.12-1.65-.19-2.5,.19-3.5,1.07-6.05,2.39-9.27,1.19-3.34,1.76-6.74,2.37-10.23q.43-2,1.43-3c.21-1.81,.37-3.62,.5-5.44q.39-5.34,1.5-7.56c.31-2.85,.51-5.7,.72-8.57q.28-2.43,1.28-3.43c.37-2.31,.7-4.62,1-6.94q.89-6.85,2-9.06c.23-1.87,.41-3.75,.56-5.62q.13-1.5,.25-3.04c.06-.77,.12-1.54,.18-2.34h2c-.01-.78-.02-1.56-.04-2.37,0-1.01-.02-2.02-.03-3.07-.01-1.01-.02-2.02-.04-3.06q.1-2.5,1.1-3.5c.24-2.53,.42-5.03,.56-7.56,.04-.71,.09-1.42,.13-2.15,.11-1.76,.21-3.52,.31-5.28h2v-9c.66-.33,1.32-.66,2-1,.29-2.53,.47-4.97,.56-7.5q.32-7.38,1.44-8.5c.24-2.86,.42-5.7,.56-8.56q.06-1.21,.13-2.44c.11-2,.21-4,.31-5.99h2V0Zm-6,374c-3.32,8.17-3.46,16.22-3.39,24.9,.02,2.3,0,4.59-.02,6.89,0,1.48,0,2.96,.01,4.44,0,.68-.01,1.35-.02,2.05,.08,5.67,1.89,9.92,4.57,14.83,3.7,8.24,2.07,20.36,2.1,29.21,.02,1.32,.04,2.64,.06,3.99,.03,6.74-.07,11.75-3.31,17.69-.34,1.02-.68,2.04-1.04,3.1-2.86,8.25-6.29,11.12-13.96,14.9-.66,.66-1.32,1.32-2,2v3h-3c.14-2.94,.29-5.88,.44-8.81,.04-.83,.08-1.67,.12-2.53q.06-1.2,.13-2.43c.04-.74,.07-1.48,.11-2.24q.21-1.99,1.21-4.99c.4-5.97,.41-11.42-2-17-.99,.33-1.98,.66-3,1q-.8,2.04-1.31,4.44-.74,2.49-1.69,4.56-3,1.12-6,2-1.4,2.77-2.09,4.87c-1.53,3.57-3.97,6.51-6.29,9.6-3.38,5.27-3.96,10.54-4.14,16.67q-.04,1.15-.08,2.33c-.05,1.62-.1,3.24-.14,4.86-.07,2.46-.17,4.91-.26,7.37q-.39,11.46,3.01,22.29c.51,.49,1.03,.97,1.56,1.47,1.78,1.89,1.92,2.98,2.17,5.54l.24,2.29c.07,.79,.14,1.57,.21,2.38,.08,.8,.16,1.59,.25,2.42,.2,1.96,.38,3.93,.56,5.9h-3c-.31-.8-.62-1.61-.94-2.44q-.83-2.45-2.06-3.56c-2.83-.53-5.68-.97-8.53-1.4-.81-.2-1.63-.39-2.47-.6-1.4-2.79-1.61-5.54-2.06-8.62-.18-1.19-.35-2.38-.54-3.6-.13-.92-.27-1.83-.4-2.77h-2c-2.06,4.24-2.35,8.12-2.31,12.75,0,.71,0,1.41,.01,2.14,.11,5.2,.38,10.64,3.3,15.11,1.33,.67,2.67,1.34,4,2,.12,.95,.25,1.9,.38,2.88q.3,3.41,3.56,5.12c1.01,.66,2.02,1.32,3.06,2q1.38,3.25,2,6h4c.03,1.16,.05,2.32,.08,3.51,.06,1.54,.11,3.08,.17,4.62,.01,.76,.03,1.52,.04,2.3,.27,6.29,2.16,9.91,6.57,14.51,2.02,1.73,4.05,3.42,6.14,5.06,.63,.5,1.26,1,1.91,1.52,4.83,3.44,8.88,4.06,14.77,4.14,.77,.11,1.53,.22,2.32,.34,.66,.99,1.32,1.98,2,3,3.06,1.11,4.6,1.14,7.69,.06,4.5-1.44,8.63-1.84,13.31-1.06q1.78,1.12,3.38,2.5c4.53,3.88,9.99,2.92,15.62,2.5,2.67-4.55,3.32-7.74,3-13q1.49-.03,3-.06c3.55-.48,4.98-1.69,7.44-4.25,4.39-4.25,9.07-5.16,14.93-6.18,3.47-.67,5.42-1.31,8.01-3.76,1.69-2.85,2.56-5.27,3.31-8.49q1.24-5.18,2.31-6.25c.13-1.38,.2-2.76,.25-4.15q.05-1.26,.1-2.55c.06-1.78,.12-3.56,.17-5.34,.03-.84,.07-1.69,.1-2.55q.04-1.16,.08-2.35,.3-2.07,2.3-5.07c1.3-7.48-.7-13.84-5-20q-2.64-2.43-6-3c-2.54,7.02-1.89,12.86,0,20-5.01,.87-9.68,1.04-14.77,.84q-2.52,0-5.23,2.16v2h-3c.74-7.84,2.89-13.17,7.44-19.59,5.76-8.91,3.29-25.19,1.43-35.16-1.82-7.29-5.45-12.28-10.12-18-3.59-4.61-3.84-8.19-3.69-13.82-.1-3.93-1.06-7.64-2.06-11.43-2.97,2.45-3.6,4.2-4,8-.06,3.25,0,6.5,.06,9.75q.14,27.42-9.06,39.25c-.33,.66-.66,1.32-1,2h-5c.11-2.23,.24-4.46,.38-6.69,.07-1.24,.14-2.48,.21-3.76q.41-3.55,1.44-6.09c6.02-15.15,.04-41.37-2.93-56.95-.9-4.81-1.35-9.54-1.66-14.42-.75-11.02-3.45-19.31-8.43-29.09-1.03-2.32-2.01-4.66-3-7-.39-.76-.78-1.53-1.19-2.31-1.4-4.63-1.5-9.97-.31-14.68,.59-2.41,.63-4.59,.62-7.07,0-.86,0-1.71,0-2.6q-.04-2.5-1.13-5.34h-2Z"/>
  <path class="cls-19" d="M141.28,0h7V2h-5V27h-2v18q-.99,.49-2,1c-.29,2.53-.47,4.97-.56,7.5q-.32,7.38-1.44,8.5c-.21,1.33-.37,2.66-.5,4q-.39,3.89-1.5,5c-.24,2.53-.42,5.03-.56,7.56-.04,.71-.09,1.42-.13,2.15-.11,1.76-.21,3.52-.31,5.28h-2c.01,.78,.02,1.56,.04,2.37,0,1.01,.02,2.02,.03,3.07,.01,1.01,.02,2.02,.04,3.06q-.1,2.5-1.1,3.5c-.28,2.48-.45,4.96-.62,7.46q-.38,2.54-1.38,4.52c-1.28,2.59-1.38,4.78-1.56,7.65q-.34,5.18-1.44,7.38c-.31,2.85-.51,5.7-.72,8.57q-.28,2.43-1.28,3.43c-.28,2.78-.45,5.55-.62,8.34q-.38,2.66-2.38,5.66-.35,2.01-.44,4.19c-.36,3.98-1.3,7.22-2.81,10.91q-.89,2.15-1.75,5.46t-2.44,6.56c-1.98,4.4-2.79,9.06-3.82,13.75-.74,3.12-1.73,5.94-2.93,8.9-1.55,4.21-2.63,8.56-3.84,12.88-.79,2.68-1.64,5.25-2.67,7.84-1.2,3.21-1.89,6.11-2.31,9.5h-2c.04,.93,.08,1.86,.12,2.81q-.12,3.19-2.12,6.19c-.56,1.9-1.05,3.82-1.5,5.75-1.07,4.46-2.2,8.86-3.5,13.25h-2q-.09,1.64-.19,3.31c-.58,4.8-2.46,8.75-4.56,13.07q-1.26,2.54-2.17,4.96c-1.47,3.58-3.25,6.97-5.02,10.4-2.87,5.65-5.32,11.14-7.06,17.25h-2c-.12,.73-.23,1.46-.36,2.21-.65,2.83-1.59,4.93-2.96,7.48-2.2,4.24-4.02,8.51-5.7,12.99q-.99,2.32-2.45,4.72c-1.72,2.91-2.86,5.81-4.04,8.98-1.73,4.6-3.52,9.13-5.5,13.62h-2c-.14,.74-.29,1.48-.44,2.25-.46,2.27-.98,4.51-1.56,6.75h-2c-.12,.7-.25,1.4-.38,2.12q-1.74,7.99-3.62,9.88c-.17,1.15-.33,2.31-.5,3.5q-.5,3.5-1.5,4.5c-.17,1.15-.33,2.31-.5,3.5q-.5,3.5-1.5,4.5c-.1,1.13-.21,2.27-.31,3.44-.48,4.43-2.03,8.08-3.77,12.16-1.2,3.15-1.56,6.06-1.92,9.41-.33,.33-.66,.66-1,1-.17,1.15-.33,2.31-.5,3.5q-.5,3.5-1.5,4.5c-.1,.99-.21,1.98-.31,3-.39,3.04-1.23,5.37-2.56,8.12-2.27,4.79-3.3,9.64-4.41,14.8-.75,3.21-1.79,6.12-3.03,9.16-1.07,2.98-1.66,6.03-2.26,9.13q-.43,1.79-1.43,2.79c-.21,1.47-.37,2.95-.5,4.44q-.39,4.34-1.5,6.56c-.28,3.28-.45,6.55-.62,9.84-.35,2.92-.87,4.68-2.38,7.16-1.53-3.07-.87-6.17-.62-9.5,.04-.69,.09-1.38,.13-2.09q.36-5.15,1.49-7.41c.27-2.23,.44-4.47,.62-6.71,.4-2.44,1.25-4.11,2.38-6.29q.22-1.61,.44-3.25c.51-3.43,1.45-6.23,2.74-9.43,1.35-3.81,2.19-7.74,3.08-11.68q.75-2.64,2.75-5.64c.47-1.8,.88-3.61,1.25-5.44,1.29-5.92,2.95-11.65,4.75-17.44,2.3-7.43,4.1-14.79,5.46-22.45q.54-2.68,1.54-3.68c.1-.97,.21-1.94,.31-2.94,.53-4.12,2.04-7.63,3.64-11.44,1.36-3.41,2.37-6.89,3.39-10.42,.74-2.47,1.64-4.84,2.66-7.21h2c.15-.59,.29-1.19,.45-1.8,1.64-6.05,4.02-11.08,7.12-16.5,2.01-3.79,3.22-7.59,4.43-11.7h2c.11-.71,.23-1.42,.34-2.15,.71-3.06,1.8-5.58,3.16-8.41,1.5-3.13,2.79-6.03,3.5-9.44h2c.1-.72,.21-1.44,.31-2.19q.69-2.81,2.08-5.05c2.44-4.18,3.72-8.7,5.23-13.29,1.41-3.55,3.2-6.35,5.38-9.47q.77-2.23,1-4h2l-.25-2c.29-3.42,1.57-5.64,3.17-8.63,1.68-3.69,2.45-7.54,3.36-11.47,.94-3.79,2.28-7.27,3.72-10.9,.68-2,1.35-4,2-6,.25-.71,.5-1.43,.75-2.16,1.48-4.27,2.67-8.33,3.25-12.84h2c-.08-.8-.17-1.61-.25-2.44,.23-3.33,.67-4.78,2.06-7.69,2.16-4.51,3.28-8.98,4.41-13.84,.76-2.94,1.7-5.7,2.78-8.54,2.17-5.72,3.63-11.55,5-17.5h2c-.06-.82-.12-1.65-.19-2.5,.19-3.5,1.07-6.05,2.39-9.27,1.19-3.34,1.76-6.74,2.37-10.23q.43-2,1.43-3c.21-1.81,.37-3.62,.5-5.44q.39-5.34,1.5-7.56c.31-2.85,.51-5.7,.72-8.57q.28-2.43,1.28-3.43c.37-2.31,.7-4.62,1-6.94q.89-6.85,2-9.06c.23-1.87,.41-3.75,.56-5.62q.13-1.5,.25-3.04c.06-.77,.12-1.54,.18-2.34h2c-.01-.78-.02-1.56-.04-2.37,0-1.01-.02-2.02-.03-3.07-.01-1.01-.02-2.02-.04-3.06q.1-2.5,1.1-3.5c.24-2.53,.42-5.03,.56-7.56,.04-.71,.09-1.42,.13-2.15,.11-1.76,.21-3.52,.31-5.28h2v-9c.66-.33,1.32-.66,2-1,.29-2.53,.47-4.97,.56-7.5q.32-7.38,1.44-8.5c.24-2.86,.42-5.7,.56-8.56q.06-1.21,.13-2.44c.11-2,.21-4,.31-5.99h2V0Z"/>
  <path class="cls-19" d="M141.28,0h7V2h-5V27h-2v18q-.99,.49-2,1c-.29,2.53-.47,4.97-.56,7.5q-.32,7.38-1.44,8.5c-.21,1.33-.37,2.66-.5,4q-.39,3.89-1.5,5c-.24,2.53-.42,5.03-.56,7.56-.04,.71-.09,1.42-.13,2.15-.11,1.76-.21,3.52-.31,5.28h-2c.01,.78,.02,1.56,.04,2.37,0,1.01,.02,2.02,.03,3.07,.01,1.01,.02,2.02,.04,3.06q-.1,2.5-1.1,3.5c-.28,2.48-.45,4.96-.62,7.46q-.38,2.54-1.38,4.52c-1.28,2.59-1.38,4.78-1.56,7.65q-.34,5.18-1.44,7.38c-.31,2.85-.51,5.7-.72,8.57q-.28,2.43-1.28,3.43c-.23,1.85-.41,3.7-.56,5.56-.08,1.01-.17,2.02-.25,3.07-.06,.78-.12,1.56-.18,2.37h-1c-.19-1.79-.38-3.58-.56-5.38-.1-1-.21-2-.32-3.02q-.12-2.6,.88-4.6c.31-2.85,.51-5.7,.72-8.57q.28-2.43,1.28-3.43c.37-2.31,.7-4.62,1-6.94q.89-6.85,2-9.06c.23-1.87,.41-3.75,.56-5.62,.08-1,.17-2.01,.25-3.04,.06-.77,.12-1.54,.18-2.34h2c-.01-.78-.02-1.56-.04-2.37,0-1.01-.02-2.02-.03-3.07-.01-1.01-.02-2.02-.04-3.06q.1-2.5,1.1-3.5c.24-2.53,.42-5.03,.56-7.56,.04-.71,.09-1.42,.13-2.15,.11-1.76,.21-3.52,.31-5.28h2v-9q.99-.49,2-1c.29-2.53,.47-4.97,.56-7.5q.32-7.38,1.44-8.5c.24-2.86,.42-5.7,.56-8.56,.04-.81,.09-1.61,.13-2.44,.11-2,.21-4,.31-5.99h2V0Z"/>
  <path class="cls-12" d="M137.28,374h2c.98,2.93,1.13,4.88,1.12,7.94,0,.85,0,1.71,0,2.59-.12,2.32-.56,4.24-1.13,6.47-1.13,12.37,3.72,21.88,9.26,32.56,2.38,4.7,2.87,7.97,3.05,13.19,.32,6.76,1.35,13.23,2.62,19.88,1.75,9.29,2.7,18.51,3.31,27.94q.12,1.84,.24,3.71,1.38,23.62-1.49,28.73c-.29,2.24-.49,4.49-.62,6.75-.07,1.17-.15,2.34-.23,3.55-.05,.89-.1,1.78-.15,2.7h-2c-.05-2.23-.09-4.46-.12-6.69-.02-1.24-.05-2.48-.07-3.76,.19-3.44,.91-5.42,2.2-8.55,1.55-17.76-.58-37.05-3.9-54.49-.9-4.81-1.35-9.54-1.66-14.42-.75-11.02-3.45-19.31-8.43-29.09-1.03-2.32-2.01-4.66-3-7-.39-.76-.78-1.53-1.19-2.31-1.38-4.56-1.55-9.94-.3-14.57,.69-2.97,.59-5.82,.55-8.86,0-1.17-.02-2.34-.03-3.55-.01-.89-.02-1.78-.04-2.7Z"/>
  <path class="cls-17" d="M121.28,139h1c.03,1.81,.05,3.62,.06,5.44,.01,1.01,.02,2.02,.04,3.06q-.1,2.5-1.1,3.5c-.16,1.35-.28,2.71-.38,4.06-.4,4.01-1.35,7.32-2.87,11.04q-.89,2.15-1.75,5.46t-2.44,6.56c-1.98,4.4-2.79,9.06-3.82,13.75-.74,3.12-1.72,5.94-2.93,8.89-1.53,4.22-2.54,8.62-3.65,12.96-1.22,3.44-2.73,5.58-5.16,8.27-.46-3.58,.3-5.89,1.81-9.06,2.14-4.53,3.27-9.03,4.41-13.9,.76-2.94,1.7-5.7,2.78-8.54,2.17-5.72,3.63-11.55,5-17.5h2c-.06-.83-.12-1.65-.19-2.5,.19-3.5,1.07-6.05,2.39-9.27,1.19-3.34,1.76-6.74,2.37-10.23q.43-2,1.43-3c.23-1.51,.41-3.04,.56-4.56,.08-.83,.17-1.65,.25-2.5q.09-.96,.18-1.93Z"/>
  <path class="cls-18" d="M185.28,506c4.98,4.01,5.29,10.99,6,17,.93,12.36,1.16,24.13-6.87,34.2-1.76,2.8-2.18,5.74-2.68,8.98-.15,.6-.3,1.2-.46,1.82q-.99,.49-2,1c-.11-8.07,1.7-13.05,6.41-19.59,6.13-9.27,3.16-26.41,1.09-36.72-.47-2.24-.97-4.46-1.5-6.69Z"/>
  <path class="cls-18" d="M45.28,354c.33,.99,.66,1.98,1,3-.99,.33-1.98,.66-3,1-.14,.74-.29,1.49-.44,2.25-.46,2.27-.98,4.51-1.56,6.75h-2c-.12,.7-.25,1.4-.38,2.12q-1.74,7.99-3.62,9.88c-.16,1.16-.33,2.31-.5,3.5q-.5,3.5-1.5,4.5c-.16,1.15-.33,2.31-.5,3.5q-.5,3.5-1.5,4.5c-.23,1.95-.46,3.9-.68,5.86-.43,2.85-1.31,5.45-2.32,8.14-2.24-3.51-2.02-5.67-1.19-9.69q.29-1.46,.58-2.95,.61-2.36,1.61-3.36c.1-.97,.21-1.94,.31-2.94,.53-4.12,2.04-7.63,3.64-11.44,1.36-3.41,2.37-6.89,3.39-10.42,.74-2.47,1.64-4.84,2.66-7.21h2c.29-.78,.58-1.57,.88-2.38q1.12-2.62,3.12-4.62Z"/>
  <path class="cls-10" d="M131.28,87h1c.03,1.65,.05,3.29,.06,4.94,.01,.92,.02,1.83,.04,2.78q-.1,2.29-1.1,3.29c-.28,2.48-.45,4.96-.62,7.46q-.38,2.54-1.38,4.52c-1.28,2.59-1.38,4.78-1.56,7.65q-.34,5.18-1.44,7.38c-.31,2.85-.51,5.7-.72,8.57q-.28,2.43-1.28,3.43c-.23,1.85-.41,3.7-.56,5.56-.08,1.01-.17,2.02-.25,3.07q-.09,1.17-.18,2.37h-1c-.19-1.79-.38-3.58-.56-5.38-.1-1-.21-2-.32-3.02q-.12-2.6,.88-4.6c.31-2.85,.51-5.7,.72-8.57q.28-2.43,1.28-3.43c.37-2.31,.7-4.62,1-6.94q.89-6.85,2-9.06c.27-2.85,.45-5.71,.62-8.57,.13-.8,.25-1.61,.38-2.43,.66-.33,1.32-.66,2-1q.47-1.9,.62-4.06c.12-1.3,.25-2.6,.38-3.94Z"/>
  <path class="cls-18" d="M99.28,219h1c.26,4.33-.71,7.88-2,12h-2c.04,.93,.08,1.86,.12,2.81q-.12,3.19-2.12,6.19c-.56,1.9-1.05,3.82-1.5,5.75-1.07,4.46-2.2,8.86-3.5,13.25h-2l-1,2-1-2c.68-1.84,1.37-3.68,2.11-5.5,1.39-3.87,2.24-7.85,3.15-11.86q.75-2.64,2.75-5.64c.85-3.37,1.53-6.76,2.22-10.16,.26-.94,.52-1.87,.78-2.84,.66-.33,1.32-.66,2-1,.33-.99,.66-1.98,1-3Z"/>
  <path class="cls-2" d="M141.28,0h7V2h-5V27h-2v18h-1c-.33-6.27-.66-12.54-1-19h2V0Z"/>
  <path class="cls-11" d="M115.28,463c2.85,2.6,3.9,4.52,4.17,8.45,.03,4.2,.05,7.81-1.17,11.86-1.58,5.82-1.15,11.69-1,17.69h-2c-.03-2.94-.05-5.87-.06-8.81,0-.83-.02-1.67-.03-2.53,0-.8,0-1.6,0-2.43,0-.74-.01-1.48-.02-2.24q.11-1.99,1.11-4.99c.31-5.73,.22-11.38-1-17Z"/>
  <path class="cls-3" d="M189.28,543c.82,2.35,1.13,3.6,.33,6-.36,.66-.71,1.32-1.08,2-.37,.7-.75,1.41-1.13,2.13q-1.12,1.87-2.74,3.81c-1.91,2.86-2.27,5.78-2.85,9.14q-.26,.95-.53,1.93l-2,1c-.11-8.02,1.69-13.04,6.31-19.59,1.47-2.09,2.62-4.1,3.69-6.41Z"/>
  <path class="cls-15" d="M157.28,499h1c.05,2.25,.09,4.5,.12,6.75,.02,1.25,.05,2.51,.07,3.8-.19,3.36-.7,4.59-2.2,7.45-.29,2.24-.49,4.49-.62,6.75-.07,1.17-.15,2.34-.23,3.55-.05,.89-.1,1.78-.15,2.7h-2c-.08-2.21-.14-4.42-.19-6.62q-.05-1.84-.11-3.73c.32-3.96,1.46-6.17,3.29-9.65q.56-2.96,.69-5.88,.1-1.45,.2-2.93c.04-.72,.07-1.45,.11-2.2Z"/>
  <path class="cls-13" d="M85.28,260h1c.75,6.72-1.48,12.27-5,18-.99,.33-1.98,.66-3,1v-2h2l-.25-2c.3-3.61,1.55-5.9,3.28-9.04,.98-1.98,1.52-3.81,1.97-5.96Z"/>
  <path class="cls-5" d="M131.28,87h1c.03,1.65,.05,3.29,.06,4.94,.01,.92,.02,1.83,.04,2.78q-.1,2.29-1.1,3.29c-.23,1.68-.41,3.37-.56,5.06q-.13,1.38-.25,2.79c-.06,.71-.12,1.42-.18,2.15h-3c.11-1.98,.24-3.96,.38-5.94,.07-1.1,.14-2.2,.21-3.34,.14-.9,.27-1.8,.41-2.72,.66-.33,1.32-.66,2-1q.47-1.9,.62-4.06c.12-1.3,.25-2.6,.38-3.94Z"/>
  <path class="cls-14" d="M149.28,625l1,2q-.92-.03-1.86-.07c-.81-.02-1.62-.04-2.45-.05q-1.2-.03-2.43-.07-2.55,.04-5.26,2.2-2.19,.23-4.56,.19-1.18,0-2.38-.02-2.06-.17-4.06-1.17c.33-.66,.66-1.32,1-2q1.05,.31,2.12,.62,2.89,.6,5.56-.56c4.48-1.44,8.65-1.23,13.31-1.06Z"/>
  <path class="cls-9" d="M112.28,175h1c.34,4.6-.5,7.79-2.2,11.96-1.16,2.96-1.97,5.97-2.8,9.04-.66-.66-1.32-1.32-2-2,.62-2.23,1.25-4.46,1.88-6.69q.52-1.86,1.05-3.76c.89-2.94,1.87-5.73,3.07-8.55Z"/>
  <path class="cls-20" d="M139.28,28h1c.03,2.81,.05,5.62,.06,8.44,0,.8,.02,1.6,.03,2.43,0,2.04-.04,4.09-.09,6.13-.33,.33-.66,.66-1,1-.23,2.02-.41,4.04-.56,6.06-.08,1.1-.17,2.21-.25,3.35-.06,.85-.12,1.71-.18,2.59h-1c-.03-2.31-.05-4.62-.06-6.94-.01-1.29-.02-2.58-.04-3.9q.1-3.16,1.1-4.16c.24-2.53,.42-5.03,.56-7.56,.04-.71,.09-1.42,.13-2.15,.11-1.76,.21-3.52,.31-5.28Z"/>
  <path class="cls-10" d="M71.28,294c1.3,3.6,.71,5.68-.69,9.19-.33,.88-.67,1.76-1.01,2.67q-1.3,2.14-3.45,2.95-.92,.1-1.86,.2,1.75-5.75,4-8c1.04-2.32,2.04-4.65,3-7Z"/>
  <path class="cls-10" d="M121.28,139h1c.03,1.81,.05,3.62,.06,5.44,.01,1.01,.02,2.02,.04,3.06q-.1,2.5-1.1,3.5c-.23,1.51-.41,3.04-.56,4.56-.08,.83-.17,1.65-.25,2.5-.06,.64-.12,1.28-.18,1.93-.99-.33-1.98-.66-3-1,.31-1.65,.62-3.29,.94-4.94,.17-.92,.35-1.83,.53-2.78q.54-2.29,1.54-3.29c.23-1.51,.41-3.04,.56-4.56,.08-.83,.17-1.65,.25-2.5,.06-.64,.12-1.28,.18-1.93Z"/>
  <path class="cls-20" d="M132.28,71h1c.03,2.48,.05,4.96,.06,7.44,0,.71,.02,1.41,.03,2.14,0,1.81-.04,3.61-.09,5.42-.33,.33-.66,.66-1,1-.23,1.35-.41,2.7-.56,4.06-.14,1.3-.29,2.6-.44,3.94h-1c-.03-1.65-.05-3.29-.06-4.94-.01-.92-.02-1.83-.04-2.78q.1-2.29,1.1-3.29c.23-2.18,.41-4.37,.56-6.56,.08-1.2,.17-2.4,.25-3.63,.06-.93,.12-1.85,.18-2.81Z"/>
  <path class="cls-16" d="M124.28,128h1q.1,6.15,0,8c-.33,.33-.66,.66-1,1-.23,1.85-.41,3.7-.56,5.56-.08,1.01-.17,2.02-.25,3.07-.06,.78-.12,1.56-.18,2.37h-1c-.22-1.77-.43-3.54-.62-5.31-.12-.99-.23-1.97-.35-2.99q-.02-2.7,1.98-5.7c.39-1.99,.73-3.99,1-6Z"/>
  <path class="cls-21" d="M13.28,451h1c.21,5.19-.41,9.13-2,14h-1c-1.33-5.92-.66-8.78,2-14Z"/>
  <path class="cls-3" d="M209.28,590c1.42,4.25,.19,6.72-1,11h-2c.11-1.46,.24-2.92,.38-4.38,.07-.81,.14-1.62,.21-2.46q.41-2.16,2.41-4.16Z"/>
  <path class="cls-2" d="M22.28,424q.56,1.94,1,4c-.33,.33-.66,.66-1,1-.37,2.33-.7,4.66-1,7-.66-.66-1.32-1.32-2-2,.3-4.14,.68-6.52,3-10Z"/>
  <path class="cls-1" d="M187.28,609l4,2c-2.95,1.8-5.89,3.5-9,5,1.29-2.88,2.66-4.87,5-7Z"/>
  <path class="cls-7" d="M29.28,397h1c.21,4.47-.41,7.82-2,12q-1.12-1.69-2-4,.81-2.56,2-5c.33-.99,.66-1.98,1-3Z"/>
  <path class="cls-9" d="M101.28,211h1c.37,3.94,.3,5.57-2,8.88-.66,.7-1.32,1.4-2,2.12-.39-4.45,.85-7.14,3-11Z"/>
  <path class="cls-22" d="M53.28,333q.69,1.62,1,4-1.44,3.25-3,6h-2c1-3.79,1.81-6.72,4-10Z"/>
  <path class="cls-1" d="M88.28,252l2,1c-.33,1.98-.66,3.96-1,6h-2c-.33,.66-.66,1.32-1,2l-1-2c.94-2.36,1.93-4.7,3-7Z"/>
  <path class="cls-8" d="M97.28,556h1v7h-3c-.66-1.65-1.32-3.3-2-5,.99,.33,1.98,.66,3,1,.33-.99,.66-1.98,1-3Z"/>
  <path class="cls-1" d="M99.28,219h1c.26,4.33-.71,7.88-2,12h-1c-.33-2.64-.66-5.28-1-8,.66-.33,1.32-.66,2-1,.33-.99,.66-1.98,1-3Z"/>
  <ellipse cx="139.28" cy="430" rx="61.44" ry="63.2"/>
  <ellipse class="cls-4" cx="148.28" cy="543" rx="108.68" ry="111.78"/>
  <ellipse cx="148.28" cy="543" rx="61.44" ry="63.2"/>
</svg>