<?xml version="1.0" standalone="no"?>
<!DOCTYPE svg PUBLIC "-//W3C//DTD SVG 20010904//EN"
 "http://www.w3.org/TR/2001/REC-SVG-20010904/DTD/svg10.dtd">
<svg version="1.0" xmlns="http://www.w3.org/2000/svg"
 width="541.000000pt" height="900.000000pt" viewBox="0 0 541.000000 900.000000"
 preserveAspectRatio="xMidYMid meet">

<g transform="translate(0.000000,900.000000) scale(0.100000,-0.100000)"
fill="#000000" stroke="none">
<path d="M2961 8953 c-14 -48 -14 -203 -1 -237 7 -20 16 -25 35 -24 44 4 50
22 50 142 -1 123 -11 156 -50 156 -19 0 -26 -7 -34 -37z"/>
<path d="M3932 8687 c-28 -30 -52 -89 -52 -128 0 -28 3 -31 23 -25 12 3 25 6
29 6 12 0 58 86 58 109 0 25 -17 61 -29 61 -4 0 -17 -10 -29 -23z"/>
<path d="M2000 8655 c0 -38 35 -99 84 -145 23 -21 29 -22 36 -10 5 8 10 26 10
40 0 42 -67 133 -107 145 -21 6 -23 3 -23 -30z"/>
<path d="M2875 8020 c-44 -4 -118 -20 -165 -34 -47 -15 -94 -29 -105 -32 -11
-2 -24 -10 -30 -17 -17 -22 -88 -73 -131 -95 -60 -30 -136 -104 -164 -158 -14
-27 -32 -56 -40 -64 -28 -28 -80 -138 -102 -217 -20 -70 -22 -101 -21 -313 1
-285 10 -332 88 -490 74 -151 107 -184 260 -259 70 -35 136 -75 160 -98 21
-21 76 -57 121 -79 76 -38 237 -151 293 -204 38 -37 108 -152 127 -209 24 -74
15 -314 -17 -456 -19 -86 -29 -110 -74 -175 -31 -44 -64 -107 -79 -152 -56
-161 -97 -474 -75 -564 14 -59 44 -121 73 -152 24 -27 83 -61 71 -42 -4 7 -1
16 6 21 12 7 11 13 -2 37 -17 31 -15 52 7 52 17 0 18 22 2 38 -9 9 -8 12 5 12
15 0 14 5 -8 40 -29 46 -30 50 -11 50 24 0 26 29 6 83 -26 67 -25 97 3 135 43
60 210 262 216 262 10 0 68 133 80 185 28 116 35 248 24 445 -10 180 -13 202
-42 280 -48 129 -68 164 -143 248 -37 42 -68 79 -68 83 0 16 -185 159 -291
224 -136 83 -245 187 -290 278 -48 95 -87 254 -109 447 -15 127 -1 199 49 255
17 20 31 40 31 45 0 15 145 126 202 155 75 38 189 55 365 55 214 0 291 -20
361 -91 50 -51 64 -114 59 -266 -4 -137 -8 -167 -24 -198 -15 -27 -62 -70 -69
-63 -5 6 -114 -30 -229 -75 -22 -8 -69 -18 -105 -21 -54 -5 -71 -3 -97 13 -42
26 -50 44 -52 121 -2 71 17 113 69 152 23 17 32 17 80 7 36 -8 64 -21 83 -40
16 -16 33 -29 38 -29 15 0 22 47 17 117 -4 59 -7 68 -37 95 -33 29 -35 30
-128 26 l-95 -3 -58 -61 c-31 -34 -71 -90 -89 -124 -29 -59 -31 -70 -31 -169
0 -81 5 -115 19 -146 25 -54 154 -175 216 -201 134 -58 131 -57 215 -51 66 5
81 4 88 -9 8 -14 14 -13 53 7 24 13 56 24 70 25 55 4 178 92 204 147 9 17 31
53 50 80 60 84 88 183 115 413 9 77 9 107 1 123 -7 12 -20 54 -31 94 -28 108
-85 237 -128 285 -45 52 -183 150 -272 195 l-65 32 -185 1 c-102 1 -221 -2
-265 -6z"/>
<path d="M4410 7999 c-39 -16 -60 -40 -60 -71 0 -23 4 -28 25 -28 37 0 92 25
104 48 5 10 7 28 4 40 -6 24 -31 28 -73 11z"/>
<path d="M1487 7853 c-13 -12 -7 -68 9 -91 17 -24 83 -62 109 -62 20 0 28 21
18 48 -8 21 -107 112 -122 112 -4 0 -11 -3 -14 -7z"/>
<path d="M5174 5552 c-17 -15 -47 -41 -66 -58 -20 -17 -56 -62 -80 -100 -25
-38 -76 -116 -113 -174 -37 -58 -70 -99 -73 -92 -2 8 10 52 28 98 l33 85 -33
34 c-19 19 -37 35 -42 35 -4 0 -33 -24 -64 -52 -31 -29 -62 -56 -69 -61 -8 -4
-80 -107 -161 -230 -80 -122 -157 -238 -170 -257 -12 -19 -34 -69 -48 -110
-13 -41 -45 -135 -71 -209 l-46 -135 22 -61 22 -62 -95 -221 c-84 -194 -106
-236 -184 -346 -49 -69 -95 -125 -103 -126 -8 0 -11 7 -8 18 3 9 17 60 32 112
16 58 67 180 131 313 58 119 107 229 109 245 4 20 -3 36 -28 66 l-34 38 -128
-48 -127 -49 -112 -137 c-62 -75 -150 -196 -197 -268 -72 -113 -126 -190 -291
-409 -41 -55 -100 -143 -133 -201 -16 -28 -46 -77 -66 -108 -20 -31 -44 -70
-53 -85 -9 -15 -40 -38 -69 -52 -423 -196 -538 -243 -624 -255 -114 -15 -160
-27 -166 -43 -3 -7 -34 -54 -70 -103 -57 -80 -65 -96 -69 -147 -5 -64 -10 -69
-95 -113 -28 -15 -66 -44 -85 -66 -32 -38 -34 -39 -83 -33 -77 10 -278 61
-395 100 -58 19 -108 35 -111 35 -4 0 -33 -53 -65 -117 -45 -91 -73 -132 -119
-179 -96 -97 -191 -146 -313 -160 -34 -3 -68 -12 -77 -18 -8 -6 -64 -126 -125
-266 -61 -140 -123 -275 -137 -300 -15 -25 -61 -79 -102 -121 -42 -42 -113
-117 -159 -167 l-84 -92 44 -19 c24 -10 88 -40 143 -66 55 -25 179 -79 275
-120 96 -40 310 -132 474 -204 165 -72 305 -131 312 -131 7 0 14 -3 16 -7 3
-8 241 -124 331 -163 30 -12 58 -18 73 -14 24 6 24 7 8 25 -9 11 -13 19 -8 19
4 0 71 -31 149 -69 172 -85 321 -141 373 -141 22 0 56 7 77 16 21 8 44 13 51
10 8 -3 14 -1 14 4 0 6 6 10 14 10 24 0 29 37 16 123 -7 46 -10 103 -7 127 3
25 11 88 16 140 12 113 45 232 100 359 79 183 149 287 239 355 44 34 56 52 97
145 26 58 61 149 77 201 17 52 37 101 44 109 19 21 64 -1 64 -31 1 -21 2 -21
11 -5 8 13 3 27 -22 61 -26 38 -30 50 -25 80 7 36 6 36 -27 36 -19 0 -40 6
-46 14 -7 8 -23 17 -36 20 l-25 6 21 24 c12 13 36 27 55 31 36 6 40 15 24 44
-8 16 3 24 86 65 53 25 139 79 191 119 145 110 158 119 303 202 74 43 191 110
260 150 69 39 134 77 145 83 11 7 85 28 164 46 l144 34 77 77 c71 71 79 82
100 153 13 47 123 279 276 587 139 281 264 544 277 585 70 214 239 643 291
735 25 44 58 105 75 135 16 30 41 70 55 89 22 30 24 41 20 90 -3 31 -9 59 -12
62 -4 3 -26 11 -50 17 l-43 10 -134 -134 c-74 -74 -139 -134 -145 -134 -19 0
-4 34 156 357 85 171 154 314 154 317 0 7 -89 46 -104 46 -6 0 -25 -13 -42
-28z"/>
<path d="M3060 3436 c-69 -34 -168 -78 -220 -98 -52 -21 -157 -61 -232 -90
l-137 -53 -127 -120 c-123 -117 -128 -123 -186 -238 -32 -66 -58 -120 -56
-122 2 -2 57 8 123 22 112 23 126 28 211 84 73 48 300 158 434 210 14 6 34 24
46 42 11 18 77 116 145 218 150 221 142 209 132 208 -4 0 -64 -28 -133 -63z"/>
</g>
</svg>
